G04 #@! TF.GenerationSoftware,KiCad,Pcbnew,(6.0.0)*
G04 #@! TF.CreationDate,2022-02-07T18:43:45-08:00*
G04 #@! TF.ProjectId,LightsProject_Rev_C,4c696768-7473-4507-926f-6a6563745f52,rev?*
G04 #@! TF.SameCoordinates,Original*
G04 #@! TF.FileFunction,Copper,L2,Inr*
G04 #@! TF.FilePolarity,Positive*
%FSLAX46Y46*%
G04 Gerber Fmt 4.6, Leading zero omitted, Abs format (unit mm)*
G04 Created by KiCad (PCBNEW (6.0.0)) date 2022-02-07 18:43:45*
%MOMM*%
%LPD*%
G01*
G04 APERTURE LIST*
G04 #@! TA.AperFunction,ComponentPad*
%ADD10R,1.700000X1.700000*%
G04 #@! TD*
G04 #@! TA.AperFunction,ComponentPad*
%ADD11O,1.700000X1.700000*%
G04 #@! TD*
G04 #@! TA.AperFunction,ComponentPad*
%ADD12C,0.685800*%
G04 #@! TD*
G04 #@! TA.AperFunction,ComponentPad*
%ADD13O,1.300000X2.500000*%
G04 #@! TD*
G04 #@! TA.AperFunction,ComponentPad*
%ADD14O,1.300000X3.200000*%
G04 #@! TD*
G04 #@! TA.AperFunction,ComponentPad*
%ADD15C,0.500000*%
G04 #@! TD*
G04 #@! TA.AperFunction,ComponentPad*
%ADD16R,1.000000X1.000000*%
G04 #@! TD*
G04 #@! TA.AperFunction,ComponentPad*
%ADD17C,1.000000*%
G04 #@! TD*
G04 #@! TA.AperFunction,ViaPad*
%ADD18C,0.450000*%
G04 #@! TD*
G04 APERTURE END LIST*
D10*
X121666000Y-80020000D03*
D11*
X121666000Y-82560000D03*
X121666000Y-85100000D03*
X121666000Y-87640000D03*
D12*
X140463876Y-96065407D03*
X141313876Y-96065407D03*
X142163876Y-96065407D03*
X143013876Y-96065407D03*
X143863877Y-96065407D03*
X144713875Y-96065407D03*
X145563876Y-96065407D03*
X146413877Y-96065407D03*
X146413877Y-97415407D03*
X145563876Y-97415407D03*
X144713875Y-97415407D03*
X143863877Y-97415407D03*
X143013876Y-97415407D03*
X142163876Y-97415407D03*
X141313876Y-97415407D03*
X140463876Y-97415407D03*
D13*
X139118875Y-100715408D03*
D14*
X139118875Y-96565406D03*
D13*
X147758875Y-100715408D03*
D14*
X147758875Y-96565406D03*
D15*
X134007000Y-75955000D03*
X132807000Y-74755000D03*
X134007000Y-71155000D03*
X131607000Y-74755000D03*
X132807000Y-75955000D03*
X132807000Y-72355000D03*
X129207000Y-75955000D03*
X132807000Y-71155000D03*
X132807000Y-73555000D03*
X130407000Y-74755000D03*
X129207000Y-73555000D03*
X131607000Y-73555000D03*
X134007000Y-73555000D03*
X134007000Y-74755000D03*
X131607000Y-72355000D03*
X130407000Y-72355000D03*
X130407000Y-75955000D03*
X134007000Y-72355000D03*
X129207000Y-71155000D03*
X131607000Y-75955000D03*
X131607000Y-71155000D03*
X130407000Y-73555000D03*
X130407000Y-71155000D03*
X129207000Y-72355000D03*
X129207000Y-74755000D03*
D16*
X166116000Y-100290000D03*
D17*
X166116000Y-99040000D03*
X166116000Y-97790000D03*
X166116000Y-96540000D03*
X166116000Y-95290000D03*
D18*
X129540000Y-77978000D03*
X150749000Y-98552000D03*
X150749000Y-97536000D03*
X172720000Y-80264000D03*
X174498000Y-71755000D03*
X131826000Y-66167000D03*
X149098000Y-71882000D03*
X161290000Y-91567000D03*
X168402000Y-87503000D03*
X135763000Y-77216000D03*
X110490000Y-67310000D03*
X155448000Y-71882000D03*
X163195000Y-80391000D03*
X161798000Y-71882000D03*
X127000000Y-88138000D03*
X112903000Y-80391000D03*
X168529000Y-83947000D03*
X127381000Y-73787000D03*
X136271000Y-68580000D03*
X168148000Y-71755000D03*
X127127000Y-89281000D03*
X148132800Y-64414400D03*
X170992800Y-64414400D03*
X180594000Y-83159600D03*
X122047000Y-99314000D03*
X106222800Y-72034400D03*
X119989600Y-101854000D03*
X120777000Y-70358000D03*
X139242800Y-64414400D03*
X117398800Y-84378800D03*
X158292800Y-83515200D03*
X127152400Y-84988400D03*
X130251200Y-78587600D03*
X116382800Y-64414400D03*
X145592800Y-64414400D03*
X155752800Y-64414400D03*
X164642800Y-64414400D03*
X172262800Y-64414400D03*
X180594000Y-93319600D03*
X117449600Y-101854000D03*
X156851712Y-78610052D03*
X132689600Y-101854000D03*
X170789600Y-101854000D03*
X126898400Y-72186800D03*
X154432402Y-78540709D03*
X130810000Y-66167000D03*
X173736000Y-83820000D03*
X154439244Y-82633056D03*
X135686800Y-101092000D03*
X180594000Y-67919600D03*
X113842800Y-64414400D03*
X142697200Y-90424000D03*
X112268000Y-86055200D03*
X131927600Y-90932000D03*
X137769600Y-101854000D03*
X143510000Y-85725000D03*
X164134800Y-98501200D03*
X155675655Y-74619498D03*
X156210000Y-99822000D03*
X117144800Y-76047600D03*
X152247600Y-78028800D03*
X114909600Y-101854000D03*
X124002800Y-81686400D03*
X106222800Y-64414400D03*
X180594000Y-78079600D03*
X113588800Y-94945200D03*
X108762800Y-64414400D03*
X167386000Y-81026000D03*
X176072800Y-64414400D03*
X146862800Y-64414400D03*
X133096000Y-86995000D03*
X119278400Y-71729600D03*
X138811000Y-84963000D03*
X125577600Y-84937600D03*
X131318000Y-100330000D03*
X148209000Y-86106000D03*
X154482800Y-64414400D03*
X117602000Y-98044000D03*
X129413000Y-85852000D03*
X106222800Y-82194400D03*
X128574800Y-65328800D03*
X127716489Y-66843328D03*
X153009600Y-82753200D03*
X175641000Y-90043000D03*
X130149600Y-101854000D03*
X162052000Y-94615000D03*
X156854701Y-82621499D03*
X180594000Y-88239600D03*
X109169200Y-86055200D03*
X135001000Y-69088000D03*
X127762000Y-85852000D03*
X127609600Y-101854000D03*
X108356400Y-74777600D03*
X132715000Y-65913000D03*
X142849600Y-101854000D03*
X151942800Y-64414400D03*
X130352800Y-64414400D03*
X135001000Y-67056000D03*
X140817600Y-85191600D03*
X164084000Y-101041200D03*
X106222800Y-74574400D03*
X150672800Y-64414400D03*
X110032800Y-64414400D03*
X132715000Y-64516000D03*
X147193000Y-86106000D03*
X145389600Y-101854000D03*
X106222800Y-77114400D03*
X118369809Y-97155000D03*
X164084000Y-99618800D03*
X153212800Y-90220800D03*
X132486400Y-78079600D03*
X165709600Y-101854000D03*
X152354459Y-76716453D03*
X173532800Y-64414400D03*
X119278400Y-76555600D03*
X164287200Y-95808800D03*
X159562800Y-64414400D03*
X173329600Y-101854000D03*
X167182800Y-64414400D03*
X122732800Y-64414400D03*
X106222800Y-69494400D03*
X158242000Y-78689200D03*
X114808000Y-82296000D03*
X106222800Y-89814400D03*
X115112800Y-64414400D03*
X149402800Y-64414400D03*
X140589000Y-73406000D03*
X132715000Y-67183000D03*
X106222800Y-87274400D03*
X179273200Y-73761600D03*
X175514000Y-83693000D03*
X148717000Y-93853000D03*
X170332400Y-74015600D03*
X180594000Y-70459600D03*
X164185600Y-97129600D03*
X124002800Y-64414400D03*
X127101600Y-81838800D03*
X120192800Y-64414400D03*
X152247600Y-72186800D03*
X144322800Y-64414400D03*
X135229600Y-101854000D03*
X117652800Y-71526400D03*
X132588000Y-93980000D03*
X178612800Y-64414400D03*
X123825000Y-93472000D03*
X137795000Y-77216000D03*
X137795000Y-76200000D03*
X173736000Y-90170000D03*
X135077200Y-91236800D03*
X132715000Y-68453000D03*
X132588000Y-95631000D03*
X166878000Y-92964000D03*
X135432800Y-64414400D03*
X179882800Y-64414400D03*
X157276800Y-98704400D03*
X157988000Y-90220800D03*
X180594000Y-65379600D03*
X107492800Y-64414400D03*
X140935716Y-75911974D03*
X180594000Y-98399600D03*
X159410400Y-98755200D03*
X106222800Y-94894400D03*
X111302800Y-64414400D03*
X141782800Y-64414400D03*
X163372800Y-64414400D03*
X137033000Y-89027000D03*
X119126000Y-84531200D03*
X140309600Y-101854000D03*
X135001000Y-65913000D03*
X180594000Y-90779600D03*
X140589000Y-71882000D03*
X118364000Y-101346000D03*
X169722800Y-64414400D03*
X138176000Y-93853000D03*
X106222800Y-79654400D03*
X114808000Y-91313000D03*
X180594000Y-85699600D03*
X121462800Y-64414400D03*
X171958000Y-74015600D03*
X127812800Y-64414400D03*
X180594000Y-72999600D03*
X110337600Y-74676000D03*
X162687000Y-93472000D03*
X168452800Y-64414400D03*
X140335000Y-74803000D03*
X155652751Y-90061107D03*
X177342800Y-64414400D03*
X163169600Y-101854000D03*
X153212800Y-64414400D03*
X155549600Y-101854000D03*
X112369600Y-101854000D03*
X137922000Y-69215000D03*
X129082800Y-64414400D03*
X180594000Y-75539600D03*
X168859200Y-73914000D03*
X128168400Y-69799200D03*
X106222800Y-84734400D03*
X155687423Y-82552156D03*
X137972800Y-64414400D03*
X164388800Y-94386400D03*
X162814000Y-91821000D03*
X162102800Y-64414400D03*
X155726810Y-78301860D03*
X143459200Y-78638400D03*
X160629600Y-101854000D03*
X150749000Y-96520000D03*
X168249600Y-101854000D03*
X126542800Y-64414400D03*
X154404573Y-90049550D03*
X123952000Y-84836000D03*
X138811000Y-89027000D03*
X174802800Y-64414400D03*
X112420400Y-75387200D03*
X125272800Y-64414400D03*
X143052800Y-64414400D03*
X106222800Y-92354400D03*
X106222800Y-97434400D03*
X175869600Y-101854000D03*
X131318000Y-98171000D03*
X117602000Y-99314000D03*
X180594000Y-80619600D03*
X156820030Y-90061107D03*
X159410400Y-96520000D03*
X157022800Y-64414400D03*
X158292800Y-64414400D03*
X128473200Y-78587600D03*
X118922800Y-64414400D03*
X154478842Y-74670863D03*
X117652800Y-64414400D03*
X141478000Y-92583000D03*
X135763000Y-98552000D03*
X137922000Y-70231000D03*
X122529600Y-101854000D03*
X180594000Y-95859600D03*
X150469600Y-101854000D03*
X160832800Y-64414400D03*
X117602000Y-100584000D03*
X132715000Y-98171000D03*
X125069600Y-101854000D03*
X158089600Y-101854000D03*
X123698000Y-99314000D03*
X127508000Y-79502000D03*
X106222800Y-66954400D03*
X131622800Y-64414400D03*
X137033000Y-84963000D03*
X112572800Y-64414400D03*
X150749000Y-99568000D03*
X127291700Y-71076048D03*
X165912800Y-64414400D03*
X114935000Y-93345000D03*
X140512800Y-64414400D03*
X132715000Y-100330000D03*
X153009600Y-101854000D03*
X170307000Y-88773000D03*
X171831000Y-76073000D03*
X177546000Y-84582000D03*
X137160000Y-65405000D03*
X129540000Y-65786000D03*
X178181000Y-65913000D03*
X140589000Y-92075000D03*
X110490000Y-77597000D03*
X109410646Y-72451029D03*
X135001000Y-92964000D03*
X125095000Y-100965000D03*
X147193000Y-92583000D03*
X110490000Y-93218000D03*
X125095000Y-94234000D03*
X119761000Y-96901000D03*
X121031000Y-97028000D03*
X130175000Y-80899000D03*
X134493000Y-82042000D03*
X129667000Y-81788000D03*
X129032000Y-83185000D03*
X139446000Y-82550000D03*
X128143000Y-83693000D03*
X138811000Y-83693000D03*
X162814000Y-83693000D03*
X162814000Y-87630000D03*
X140462000Y-81534000D03*
X147828000Y-81661000D03*
X150749000Y-89027000D03*
X139954000Y-89027000D03*
X118364000Y-89916000D03*
X118364000Y-69342000D03*
X125603000Y-69850000D03*
X131826000Y-69088000D03*
X111252000Y-79756000D03*
X111506000Y-70866000D03*
X139827000Y-73533000D03*
X140208000Y-80772000D03*
X138430000Y-74168000D03*
X137668000Y-80899000D03*
X171069000Y-89535000D03*
X171069000Y-84201000D03*
X130175000Y-65151000D03*
X171022755Y-65337208D03*
X171069000Y-79629000D03*
X137033000Y-64643000D03*
X137160000Y-66040000D03*
X126619000Y-66040000D03*
X137287000Y-66802000D03*
X127508000Y-67691000D03*
X126238000Y-68961000D03*
X137820400Y-67970400D03*
X146431000Y-67818000D03*
X146685000Y-76200000D03*
X154432000Y-99060000D03*
X156337000Y-73660000D03*
X153797000Y-97917000D03*
X155194000Y-72898000D03*
X153289000Y-96774000D03*
X153670000Y-74422000D03*
X157353000Y-75184000D03*
X154940000Y-99949000D03*
X126365000Y-99949000D03*
X125603000Y-77851000D03*
X126238000Y-92075000D03*
X126365000Y-95885000D03*
X124968000Y-90678000D03*
X127508000Y-98552000D03*
X124968000Y-72644000D03*
X127508000Y-94996000D03*
X169545000Y-77216000D03*
X169672000Y-67818000D03*
G04 #@! TA.AperFunction,Conductor*
G36*
X136934847Y-64152593D02*
G01*
X136960567Y-64197142D01*
X136951634Y-64247800D01*
X136914240Y-64278080D01*
X136914767Y-64279115D01*
X136909899Y-64281595D01*
X136909898Y-64281596D01*
X136808107Y-64333461D01*
X136723461Y-64418107D01*
X136669115Y-64524767D01*
X136650389Y-64643000D01*
X136669115Y-64761233D01*
X136723461Y-64867893D01*
X136808107Y-64952539D01*
X136813383Y-64955227D01*
X136813384Y-64955228D01*
X136894697Y-64996659D01*
X136929779Y-65034280D01*
X136932471Y-65085649D01*
X136913731Y-65116837D01*
X136850461Y-65180107D01*
X136796115Y-65286767D01*
X136777389Y-65405000D01*
X136796115Y-65523233D01*
X136850461Y-65629893D01*
X136889894Y-65669326D01*
X136911634Y-65715946D01*
X136898320Y-65765633D01*
X136889894Y-65775674D01*
X136850461Y-65815107D01*
X136796115Y-65921767D01*
X136795189Y-65927614D01*
X136778778Y-66031233D01*
X136777389Y-66040000D01*
X136778315Y-66045847D01*
X136779704Y-66054614D01*
X136796115Y-66158233D01*
X136850461Y-66264893D01*
X136935107Y-66349539D01*
X136940383Y-66352227D01*
X136940384Y-66352228D01*
X137021697Y-66393659D01*
X137056779Y-66431280D01*
X137059471Y-66482649D01*
X137040731Y-66513837D01*
X136977461Y-66577107D01*
X136923115Y-66683767D01*
X136904389Y-66802000D01*
X136923115Y-66920233D01*
X136977461Y-67026893D01*
X137062107Y-67111539D01*
X137168767Y-67165885D01*
X137287000Y-67184611D01*
X137405233Y-67165885D01*
X137511893Y-67111539D01*
X137596539Y-67026893D01*
X137650885Y-66920233D01*
X137669611Y-66802000D01*
X137650885Y-66683767D01*
X137596539Y-66577107D01*
X137511893Y-66492461D01*
X137480645Y-66476539D01*
X137425303Y-66448341D01*
X137390221Y-66410720D01*
X137387529Y-66359351D01*
X137406269Y-66328163D01*
X137469539Y-66264893D01*
X137523885Y-66158233D01*
X137540296Y-66054614D01*
X137541685Y-66045847D01*
X137542611Y-66040000D01*
X137541223Y-66031233D01*
X137524811Y-65927614D01*
X137523885Y-65921767D01*
X137519418Y-65913000D01*
X177798389Y-65913000D01*
X177799315Y-65918847D01*
X177800704Y-65927614D01*
X177817115Y-66031233D01*
X177871461Y-66137893D01*
X177956107Y-66222539D01*
X178062767Y-66276885D01*
X178181000Y-66295611D01*
X178299233Y-66276885D01*
X178405893Y-66222539D01*
X178490539Y-66137893D01*
X178544885Y-66031233D01*
X178561296Y-65927614D01*
X178562685Y-65918847D01*
X178563611Y-65913000D01*
X178562223Y-65904233D01*
X178546207Y-65803115D01*
X178544885Y-65794767D01*
X178490539Y-65688107D01*
X178405893Y-65603461D01*
X178299233Y-65549115D01*
X178181000Y-65530389D01*
X178062767Y-65549115D01*
X177956107Y-65603461D01*
X177871461Y-65688107D01*
X177817115Y-65794767D01*
X177815793Y-65803115D01*
X177799778Y-65904233D01*
X177798389Y-65913000D01*
X137519418Y-65913000D01*
X137469539Y-65815107D01*
X137430106Y-65775674D01*
X137408366Y-65729054D01*
X137421680Y-65679367D01*
X137430106Y-65669326D01*
X137469539Y-65629893D01*
X137523885Y-65523233D01*
X137542611Y-65405000D01*
X137531874Y-65337208D01*
X170640144Y-65337208D01*
X170658870Y-65455441D01*
X170713216Y-65562101D01*
X170797862Y-65646747D01*
X170904522Y-65701093D01*
X171022755Y-65719819D01*
X171140988Y-65701093D01*
X171247648Y-65646747D01*
X171332294Y-65562101D01*
X171386640Y-65455441D01*
X171405366Y-65337208D01*
X171386640Y-65218975D01*
X171332294Y-65112315D01*
X171247648Y-65027669D01*
X171237286Y-65022389D01*
X171186787Y-64996659D01*
X171140988Y-64973323D01*
X171022755Y-64954597D01*
X170904522Y-64973323D01*
X170858723Y-64996659D01*
X170808225Y-65022389D01*
X170797862Y-65027669D01*
X170713216Y-65112315D01*
X170658870Y-65218975D01*
X170640144Y-65337208D01*
X137531874Y-65337208D01*
X137523885Y-65286767D01*
X137469539Y-65180107D01*
X137384893Y-65095461D01*
X137298303Y-65051341D01*
X137263221Y-65013720D01*
X137260529Y-64962351D01*
X137279269Y-64931163D01*
X137342539Y-64867893D01*
X137396885Y-64761233D01*
X137415611Y-64643000D01*
X137396885Y-64524767D01*
X137342539Y-64418107D01*
X137257893Y-64333461D01*
X137151233Y-64279115D01*
X137151713Y-64278172D01*
X137115719Y-64250052D01*
X137105023Y-64199736D01*
X137129171Y-64154317D01*
X137179491Y-64135000D01*
X180881516Y-64135000D01*
X180929854Y-64152593D01*
X180955574Y-64197142D01*
X180956716Y-64210200D01*
X180956716Y-98806383D01*
X180955790Y-98818146D01*
X180951967Y-98842284D01*
X180952893Y-98848130D01*
X180952893Y-98848131D01*
X180954375Y-98857488D01*
X180955210Y-98872942D01*
X180939952Y-99183513D01*
X180939229Y-99190857D01*
X180910137Y-99386984D01*
X180890829Y-99517149D01*
X180889641Y-99525155D01*
X180888202Y-99532388D01*
X180861792Y-99637823D01*
X180806087Y-99860209D01*
X180803945Y-99867271D01*
X180750114Y-100017720D01*
X180694235Y-100173893D01*
X180690093Y-100185468D01*
X180687271Y-100192282D01*
X180631500Y-100310198D01*
X180542776Y-100497788D01*
X180539297Y-100504296D01*
X180365556Y-100794166D01*
X180361458Y-100800300D01*
X180322659Y-100852614D01*
X180160140Y-101071745D01*
X180155459Y-101077449D01*
X179928505Y-101327854D01*
X179923286Y-101333073D01*
X179672881Y-101560027D01*
X179667177Y-101564708D01*
X179395735Y-101766024D01*
X179389598Y-101770124D01*
X179099728Y-101943865D01*
X179093220Y-101947344D01*
X178962099Y-102009360D01*
X178787714Y-102091839D01*
X178780903Y-102094660D01*
X178746906Y-102106824D01*
X178462703Y-102208513D01*
X178455641Y-102210655D01*
X178291733Y-102251712D01*
X178127820Y-102292770D01*
X178120592Y-102294208D01*
X177989045Y-102313721D01*
X177786289Y-102343797D01*
X177778945Y-102344520D01*
X177468374Y-102359778D01*
X177452920Y-102358943D01*
X177443563Y-102357461D01*
X177443562Y-102357461D01*
X177437716Y-102356535D01*
X177417241Y-102359778D01*
X177413579Y-102360358D01*
X177401815Y-102361284D01*
X109473617Y-102361284D01*
X109461853Y-102360358D01*
X109458191Y-102359778D01*
X109437716Y-102356535D01*
X109431870Y-102357461D01*
X109431869Y-102357461D01*
X109422512Y-102358943D01*
X109407058Y-102359778D01*
X109096487Y-102344520D01*
X109089143Y-102343797D01*
X108886387Y-102313721D01*
X108754840Y-102294208D01*
X108747612Y-102292770D01*
X108583699Y-102251712D01*
X108419791Y-102210655D01*
X108412729Y-102208513D01*
X108128526Y-102106824D01*
X108094529Y-102094660D01*
X108087718Y-102091839D01*
X107913333Y-102009360D01*
X107782212Y-101947344D01*
X107775704Y-101943865D01*
X107485834Y-101770124D01*
X107479697Y-101766024D01*
X107208255Y-101564708D01*
X107202551Y-101560027D01*
X106980268Y-101358561D01*
X138316475Y-101358561D01*
X138316711Y-101362771D01*
X138330995Y-101490118D01*
X138332848Y-101498278D01*
X138389284Y-101660338D01*
X138392893Y-101667872D01*
X138483832Y-101813403D01*
X138489023Y-101819954D01*
X138609950Y-101941727D01*
X138616452Y-101946955D01*
X138761348Y-102038910D01*
X138768862Y-102042575D01*
X138930531Y-102100142D01*
X138938658Y-102102048D01*
X138978710Y-102106824D01*
X138989231Y-102104356D01*
X138991875Y-102100822D01*
X138991875Y-102095665D01*
X139245875Y-102095665D01*
X139249572Y-102105822D01*
X139253548Y-102108118D01*
X139288085Y-102104488D01*
X139296252Y-102102692D01*
X139458699Y-102047391D01*
X139466264Y-102043832D01*
X139612430Y-101953910D01*
X139619009Y-101948770D01*
X139741622Y-101828698D01*
X139746901Y-101822226D01*
X139839868Y-101677969D01*
X139843578Y-101670495D01*
X139902272Y-101509233D01*
X139904238Y-101501106D01*
X139920978Y-101368597D01*
X139921275Y-101363876D01*
X139921275Y-101358561D01*
X146956475Y-101358561D01*
X146956711Y-101362771D01*
X146970995Y-101490118D01*
X146972848Y-101498278D01*
X147029284Y-101660338D01*
X147032893Y-101667872D01*
X147123832Y-101813403D01*
X147129023Y-101819954D01*
X147249950Y-101941727D01*
X147256452Y-101946955D01*
X147401348Y-102038910D01*
X147408862Y-102042575D01*
X147570531Y-102100142D01*
X147578658Y-102102048D01*
X147618710Y-102106824D01*
X147629231Y-102104356D01*
X147631875Y-102100822D01*
X147631875Y-102095665D01*
X147885875Y-102095665D01*
X147889572Y-102105822D01*
X147893548Y-102108118D01*
X147928085Y-102104488D01*
X147936252Y-102102692D01*
X148098699Y-102047391D01*
X148106264Y-102043832D01*
X148252430Y-101953910D01*
X148259009Y-101948770D01*
X148381622Y-101828698D01*
X148386901Y-101822226D01*
X148479868Y-101677969D01*
X148483578Y-101670495D01*
X148542272Y-101509233D01*
X148544238Y-101501106D01*
X148560978Y-101368597D01*
X148561275Y-101363876D01*
X148561275Y-100855667D01*
X148557578Y-100845510D01*
X148552206Y-100842408D01*
X147899134Y-100842408D01*
X147888977Y-100846105D01*
X147885875Y-100851477D01*
X147885875Y-102095665D01*
X147631875Y-102095665D01*
X147631875Y-100855667D01*
X147628178Y-100845510D01*
X147622806Y-100842408D01*
X146969734Y-100842408D01*
X146959577Y-100846105D01*
X146956475Y-100851477D01*
X146956475Y-101358561D01*
X139921275Y-101358561D01*
X139921275Y-100855667D01*
X139917578Y-100845510D01*
X139912206Y-100842408D01*
X139259134Y-100842408D01*
X139248977Y-100846105D01*
X139245875Y-100851477D01*
X139245875Y-102095665D01*
X138991875Y-102095665D01*
X138991875Y-100855667D01*
X138988178Y-100845510D01*
X138982806Y-100842408D01*
X138329734Y-100842408D01*
X138319577Y-100846105D01*
X138316475Y-100851477D01*
X138316475Y-101358561D01*
X106980268Y-101358561D01*
X106952146Y-101333073D01*
X106946927Y-101327854D01*
X106719973Y-101077449D01*
X106715292Y-101071745D01*
X106636124Y-100965000D01*
X124712389Y-100965000D01*
X124731115Y-101083233D01*
X124785461Y-101189893D01*
X124870107Y-101274539D01*
X124976767Y-101328885D01*
X125095000Y-101347611D01*
X125213233Y-101328885D01*
X125319893Y-101274539D01*
X125404539Y-101189893D01*
X125458885Y-101083233D01*
X125477611Y-100965000D01*
X125458885Y-100846767D01*
X125404539Y-100740107D01*
X125319893Y-100655461D01*
X125213233Y-100601115D01*
X125133003Y-100588408D01*
X125100847Y-100583315D01*
X125095000Y-100582389D01*
X125089153Y-100583315D01*
X125056997Y-100588408D01*
X124976767Y-100601115D01*
X124870107Y-100655461D01*
X124785461Y-100740107D01*
X124731115Y-100846767D01*
X124712389Y-100965000D01*
X106636124Y-100965000D01*
X106552773Y-100852614D01*
X106513974Y-100800300D01*
X106509876Y-100794166D01*
X106378603Y-100575149D01*
X138316475Y-100575149D01*
X138320172Y-100585306D01*
X138325544Y-100588408D01*
X138978616Y-100588408D01*
X138988773Y-100584711D01*
X138991875Y-100579339D01*
X138991875Y-100575149D01*
X139245875Y-100575149D01*
X139249572Y-100585306D01*
X139254944Y-100588408D01*
X139908016Y-100588408D01*
X139918173Y-100584711D01*
X139921275Y-100579339D01*
X139921275Y-100575149D01*
X146956475Y-100575149D01*
X146960172Y-100585306D01*
X146965544Y-100588408D01*
X147618616Y-100588408D01*
X147628773Y-100584711D01*
X147631875Y-100579339D01*
X147631875Y-100575149D01*
X147885875Y-100575149D01*
X147889572Y-100585306D01*
X147894944Y-100588408D01*
X148548016Y-100588408D01*
X148558173Y-100584711D01*
X148561275Y-100579339D01*
X148561275Y-100072255D01*
X148561039Y-100068045D01*
X148547686Y-99949000D01*
X154557389Y-99949000D01*
X154576115Y-100067233D01*
X154630461Y-100173893D01*
X154715107Y-100258539D01*
X154821767Y-100312885D01*
X154940000Y-100331611D01*
X155058233Y-100312885D01*
X155164893Y-100258539D01*
X155249539Y-100173893D01*
X155303885Y-100067233D01*
X155322611Y-99949000D01*
X155303885Y-99830767D01*
X155273166Y-99770478D01*
X155252228Y-99729384D01*
X155252227Y-99729383D01*
X155249539Y-99724107D01*
X155164893Y-99639461D01*
X155158578Y-99636243D01*
X155091603Y-99602118D01*
X155058233Y-99585115D01*
X154940000Y-99566389D01*
X154821767Y-99585115D01*
X154788397Y-99602118D01*
X154721423Y-99636243D01*
X154715107Y-99639461D01*
X154630461Y-99724107D01*
X154627773Y-99729383D01*
X154627772Y-99729384D01*
X154606834Y-99770478D01*
X154576115Y-99830767D01*
X154557389Y-99949000D01*
X148547686Y-99949000D01*
X148546755Y-99940698D01*
X148544902Y-99932538D01*
X148488466Y-99770478D01*
X148484857Y-99762944D01*
X148393918Y-99617413D01*
X148388727Y-99610862D01*
X148267800Y-99489089D01*
X148261298Y-99483861D01*
X148116402Y-99391906D01*
X148108888Y-99388241D01*
X147947219Y-99330674D01*
X147939092Y-99328768D01*
X147899040Y-99323992D01*
X147888519Y-99326460D01*
X147885875Y-99329994D01*
X147885875Y-100575149D01*
X147631875Y-100575149D01*
X147631875Y-99335151D01*
X147628178Y-99324994D01*
X147624202Y-99322698D01*
X147589665Y-99326328D01*
X147581498Y-99328124D01*
X147419051Y-99383425D01*
X147411486Y-99386984D01*
X147265320Y-99476906D01*
X147258741Y-99482046D01*
X147136128Y-99602118D01*
X147130849Y-99608590D01*
X147037882Y-99752847D01*
X147034172Y-99760321D01*
X146975478Y-99921583D01*
X146973512Y-99929710D01*
X146956772Y-100062219D01*
X146956475Y-100066940D01*
X146956475Y-100575149D01*
X139921275Y-100575149D01*
X139921275Y-100072255D01*
X139921039Y-100068045D01*
X139906755Y-99940698D01*
X139904902Y-99932538D01*
X139848466Y-99770478D01*
X139844857Y-99762944D01*
X139753918Y-99617413D01*
X139748727Y-99610862D01*
X139627800Y-99489089D01*
X139621298Y-99483861D01*
X139476402Y-99391906D01*
X139468888Y-99388241D01*
X139307219Y-99330674D01*
X139299092Y-99328768D01*
X139259040Y-99323992D01*
X139248519Y-99326460D01*
X139245875Y-99329994D01*
X139245875Y-100575149D01*
X138991875Y-100575149D01*
X138991875Y-99335151D01*
X138988178Y-99324994D01*
X138984202Y-99322698D01*
X138949665Y-99326328D01*
X138941498Y-99328124D01*
X138779051Y-99383425D01*
X138771486Y-99386984D01*
X138625320Y-99476906D01*
X138618741Y-99482046D01*
X138496128Y-99602118D01*
X138490849Y-99608590D01*
X138397882Y-99752847D01*
X138394172Y-99760321D01*
X138335478Y-99921583D01*
X138333512Y-99929710D01*
X138316772Y-100062219D01*
X138316475Y-100066940D01*
X138316475Y-100575149D01*
X106378603Y-100575149D01*
X106336135Y-100504296D01*
X106332656Y-100497788D01*
X106243932Y-100310198D01*
X106188161Y-100192282D01*
X106185339Y-100185468D01*
X106181198Y-100173893D01*
X106125318Y-100017720D01*
X106071487Y-99867271D01*
X106069345Y-99860209D01*
X106013640Y-99637823D01*
X105987230Y-99532388D01*
X105985791Y-99525155D01*
X105984604Y-99517149D01*
X105965295Y-99386984D01*
X105936203Y-99190857D01*
X105935480Y-99183513D01*
X105920222Y-98872942D01*
X105921057Y-98857488D01*
X105922539Y-98848131D01*
X105922539Y-98848130D01*
X105923463Y-98842297D01*
X108082044Y-98842297D01*
X108102640Y-99077705D01*
X108163800Y-99305960D01*
X108165188Y-99308938D01*
X108165189Y-99308939D01*
X108199923Y-99383425D01*
X108263668Y-99520126D01*
X108265551Y-99522815D01*
X108265552Y-99522817D01*
X108311055Y-99587802D01*
X108399208Y-99713698D01*
X108566302Y-99880792D01*
X108568997Y-99882679D01*
X108663714Y-99949000D01*
X108759874Y-100016332D01*
X108974040Y-100116200D01*
X109202295Y-100177360D01*
X109378737Y-100192797D01*
X109496669Y-100192797D01*
X109673111Y-100177360D01*
X109901366Y-100116200D01*
X110115532Y-100016332D01*
X110211693Y-99949000D01*
X125982389Y-99949000D01*
X126001115Y-100067233D01*
X126055461Y-100173893D01*
X126140107Y-100258539D01*
X126246767Y-100312885D01*
X126365000Y-100331611D01*
X126483233Y-100312885D01*
X126589893Y-100258539D01*
X126674539Y-100173893D01*
X126728885Y-100067233D01*
X126747611Y-99949000D01*
X126728885Y-99830767D01*
X126698166Y-99770478D01*
X126677228Y-99729384D01*
X126677227Y-99729383D01*
X126674539Y-99724107D01*
X126589893Y-99639461D01*
X126583578Y-99636243D01*
X126516603Y-99602118D01*
X126483233Y-99585115D01*
X126365000Y-99566389D01*
X126246767Y-99585115D01*
X126213397Y-99602118D01*
X126146423Y-99636243D01*
X126140107Y-99639461D01*
X126055461Y-99724107D01*
X126052773Y-99729383D01*
X126052772Y-99729384D01*
X126031834Y-99770478D01*
X126001115Y-99830767D01*
X125982389Y-99949000D01*
X110211693Y-99949000D01*
X110306409Y-99882679D01*
X110309104Y-99880792D01*
X110476198Y-99713698D01*
X110611738Y-99520127D01*
X110700399Y-99329994D01*
X110710217Y-99308939D01*
X110710217Y-99308938D01*
X110711606Y-99305960D01*
X110772766Y-99077705D01*
X110774315Y-99060000D01*
X154049389Y-99060000D01*
X154068115Y-99178233D01*
X154122461Y-99284893D01*
X154207107Y-99369539D01*
X154313767Y-99423885D01*
X154432000Y-99442611D01*
X154550233Y-99423885D01*
X154656893Y-99369539D01*
X154741539Y-99284893D01*
X154795885Y-99178233D01*
X154814611Y-99060000D01*
X154810353Y-99033113D01*
X165458341Y-99033113D01*
X165458838Y-99037615D01*
X165458838Y-99037619D01*
X165461309Y-99060000D01*
X165475682Y-99190185D01*
X165477238Y-99194437D01*
X165477239Y-99194441D01*
X165518049Y-99305960D01*
X165529989Y-99338587D01*
X165532513Y-99342343D01*
X165532515Y-99342347D01*
X165615602Y-99465993D01*
X165615605Y-99465997D01*
X165618128Y-99469751D01*
X165658276Y-99506283D01*
X165682186Y-99551825D01*
X165671228Y-99602084D01*
X165630527Y-99633541D01*
X165607664Y-99637101D01*
X165600944Y-99637101D01*
X165556342Y-99645972D01*
X165505766Y-99679766D01*
X165501652Y-99685923D01*
X165481538Y-99716026D01*
X165471972Y-99730342D01*
X165463100Y-99774943D01*
X165463101Y-100805056D01*
X165471972Y-100849658D01*
X165505766Y-100900234D01*
X165511923Y-100904348D01*
X165550183Y-100929913D01*
X165550184Y-100929914D01*
X165556342Y-100934028D01*
X165600943Y-100942900D01*
X166115930Y-100942900D01*
X166631056Y-100942899D01*
X166675658Y-100934028D01*
X166726234Y-100900234D01*
X166760028Y-100849658D01*
X166768900Y-100805057D01*
X166768899Y-99774944D01*
X166760028Y-99730342D01*
X166726234Y-99679766D01*
X166681818Y-99650088D01*
X166681816Y-99650086D01*
X166675658Y-99645972D01*
X166663990Y-99643651D01*
X166634682Y-99637821D01*
X166634681Y-99637821D01*
X166631057Y-99637100D01*
X166626088Y-99637100D01*
X166625616Y-99636928D01*
X166623686Y-99636738D01*
X166623735Y-99636243D01*
X166577750Y-99619507D01*
X166552030Y-99574958D01*
X166560963Y-99524300D01*
X166577249Y-99504718D01*
X166583755Y-99499161D01*
X166600127Y-99485178D01*
X166692343Y-99356847D01*
X166699684Y-99338587D01*
X166749594Y-99214430D01*
X166751285Y-99210224D01*
X166773551Y-99053774D01*
X166773695Y-99040000D01*
X166762515Y-98947614D01*
X166755255Y-98887620D01*
X166755255Y-98887618D01*
X166754710Y-98883118D01*
X166746556Y-98861539D01*
X166739285Y-98842297D01*
X176082061Y-98842297D01*
X176102657Y-99077705D01*
X176163817Y-99305960D01*
X176165205Y-99308938D01*
X176165206Y-99308939D01*
X176199940Y-99383425D01*
X176263685Y-99520126D01*
X176265568Y-99522815D01*
X176265569Y-99522817D01*
X176311072Y-99587802D01*
X176399225Y-99713698D01*
X176566319Y-99880792D01*
X176569014Y-99882679D01*
X176663731Y-99949000D01*
X176759891Y-100016332D01*
X176974057Y-100116200D01*
X177202312Y-100177360D01*
X177378754Y-100192797D01*
X177496686Y-100192797D01*
X177673128Y-100177360D01*
X177901383Y-100116200D01*
X178115549Y-100016332D01*
X178211710Y-99949000D01*
X178306426Y-99882679D01*
X178309121Y-99880792D01*
X178476215Y-99713698D01*
X178611755Y-99520127D01*
X178700416Y-99329994D01*
X178710234Y-99308939D01*
X178710234Y-99308938D01*
X178711623Y-99305960D01*
X178772783Y-99077705D01*
X178793379Y-98842297D01*
X178772783Y-98606889D01*
X178711623Y-98378634D01*
X178611755Y-98164468D01*
X178568464Y-98102641D01*
X178478102Y-97973591D01*
X178476215Y-97970896D01*
X178309121Y-97803802D01*
X178227375Y-97746563D01*
X178118240Y-97670146D01*
X178118238Y-97670145D01*
X178115549Y-97668262D01*
X177901383Y-97568394D01*
X177673128Y-97507234D01*
X177496686Y-97491797D01*
X177378754Y-97491797D01*
X177202312Y-97507234D01*
X176974057Y-97568394D01*
X176759891Y-97668262D01*
X176757202Y-97670145D01*
X176757200Y-97670146D01*
X176648065Y-97746563D01*
X176566319Y-97803802D01*
X176399225Y-97970896D01*
X176263685Y-98164467D01*
X176226677Y-98243830D01*
X176181907Y-98339841D01*
X176163817Y-98378634D01*
X176102657Y-98606889D01*
X176082061Y-98842297D01*
X166739285Y-98842297D01*
X166700456Y-98739537D01*
X166700455Y-98739535D01*
X166698852Y-98735293D01*
X166692117Y-98725493D01*
X166611912Y-98608794D01*
X166611911Y-98608792D01*
X166609344Y-98605058D01*
X166491355Y-98499934D01*
X166457531Y-98482025D01*
X166423045Y-98443860D01*
X166421160Y-98392454D01*
X166452758Y-98351864D01*
X166458914Y-98348395D01*
X166479963Y-98337808D01*
X166523270Y-98300820D01*
X166596678Y-98238124D01*
X166596679Y-98238123D01*
X166600127Y-98235178D01*
X166692343Y-98106847D01*
X166699684Y-98088587D01*
X166726361Y-98022224D01*
X166751285Y-97960224D01*
X166773551Y-97803774D01*
X166773695Y-97790000D01*
X166768439Y-97746564D01*
X166755255Y-97637620D01*
X166755255Y-97637618D01*
X166754710Y-97633118D01*
X166750589Y-97622212D01*
X166700456Y-97489537D01*
X166700455Y-97489535D01*
X166698852Y-97485293D01*
X166659232Y-97427645D01*
X166611912Y-97358794D01*
X166611911Y-97358792D01*
X166609344Y-97355058D01*
X166491355Y-97249934D01*
X166457531Y-97232025D01*
X166423045Y-97193860D01*
X166421160Y-97142454D01*
X166452758Y-97101864D01*
X166458914Y-97098395D01*
X166479963Y-97087808D01*
X166533590Y-97042006D01*
X166596678Y-96988124D01*
X166596679Y-96988123D01*
X166600127Y-96985178D01*
X166692343Y-96856847D01*
X166699684Y-96838587D01*
X166749594Y-96714430D01*
X166751285Y-96710224D01*
X166773551Y-96553774D01*
X166773695Y-96540000D01*
X166768231Y-96494850D01*
X166755255Y-96387620D01*
X166755255Y-96387618D01*
X166754710Y-96383118D01*
X166750711Y-96372535D01*
X166700456Y-96239537D01*
X166700455Y-96239535D01*
X166698852Y-96235293D01*
X166609344Y-96105058D01*
X166491355Y-95999934D01*
X166457531Y-95982025D01*
X166423045Y-95943860D01*
X166421160Y-95892454D01*
X166452758Y-95851864D01*
X166458914Y-95848395D01*
X166479963Y-95837808D01*
X166520645Y-95803062D01*
X166596678Y-95738124D01*
X166596679Y-95738123D01*
X166600127Y-95735178D01*
X166692343Y-95606847D01*
X166699684Y-95588587D01*
X166727179Y-95520189D01*
X166751285Y-95460224D01*
X166773551Y-95303774D01*
X166773695Y-95290000D01*
X166765332Y-95220893D01*
X166755255Y-95137620D01*
X166755255Y-95137618D01*
X166754710Y-95133118D01*
X166750589Y-95122212D01*
X166700456Y-94989537D01*
X166700455Y-94989535D01*
X166698852Y-94985293D01*
X166628839Y-94883423D01*
X166611912Y-94858794D01*
X166611911Y-94858792D01*
X166609344Y-94855058D01*
X166581211Y-94829992D01*
X166494741Y-94752951D01*
X166491355Y-94749934D01*
X166351697Y-94675989D01*
X166275438Y-94656834D01*
X166202832Y-94638596D01*
X166202828Y-94638596D01*
X166198431Y-94637491D01*
X166193897Y-94637467D01*
X166193895Y-94637467D01*
X166117899Y-94637070D01*
X166040406Y-94636664D01*
X165886746Y-94673554D01*
X165882722Y-94675631D01*
X165882719Y-94675632D01*
X165853621Y-94690651D01*
X165746321Y-94746033D01*
X165738391Y-94752951D01*
X165654128Y-94826458D01*
X165627237Y-94849916D01*
X165536371Y-94979206D01*
X165478968Y-95126438D01*
X165478377Y-95130929D01*
X165478376Y-95130932D01*
X165477496Y-95137620D01*
X165458341Y-95283113D01*
X165458838Y-95287615D01*
X165458838Y-95287619D01*
X165466520Y-95357198D01*
X165475682Y-95440185D01*
X165477238Y-95444437D01*
X165477239Y-95444441D01*
X165483015Y-95460224D01*
X165529989Y-95588587D01*
X165532513Y-95592343D01*
X165532515Y-95592347D01*
X165615602Y-95715993D01*
X165615605Y-95715997D01*
X165618128Y-95719751D01*
X165621480Y-95722801D01*
X165731652Y-95823050D01*
X165731655Y-95823052D01*
X165735010Y-95826105D01*
X165738996Y-95828269D01*
X165739000Y-95828272D01*
X165776151Y-95848443D01*
X165810236Y-95886969D01*
X165811583Y-95938391D01*
X165779561Y-95978648D01*
X165774760Y-95981354D01*
X165763070Y-95987388D01*
X165746321Y-95996033D01*
X165732023Y-96008506D01*
X165656047Y-96074784D01*
X165627237Y-96099916D01*
X165536371Y-96229206D01*
X165478968Y-96376438D01*
X165478377Y-96380929D01*
X165478376Y-96380932D01*
X165472555Y-96425147D01*
X165458341Y-96533113D01*
X165458838Y-96537615D01*
X165458838Y-96537619D01*
X165461581Y-96562464D01*
X165475682Y-96690185D01*
X165477238Y-96694437D01*
X165477239Y-96694441D01*
X165504214Y-96768153D01*
X165529989Y-96838587D01*
X165532513Y-96842343D01*
X165532515Y-96842347D01*
X165615602Y-96965993D01*
X165615605Y-96965997D01*
X165618128Y-96969751D01*
X165621480Y-96972801D01*
X165731652Y-97073050D01*
X165731655Y-97073052D01*
X165735010Y-97076105D01*
X165738996Y-97078269D01*
X165739000Y-97078272D01*
X165776151Y-97098443D01*
X165810236Y-97136969D01*
X165811583Y-97188391D01*
X165779561Y-97228648D01*
X165774760Y-97231354D01*
X165763070Y-97237388D01*
X165746321Y-97246033D01*
X165704306Y-97282685D01*
X165638343Y-97340228D01*
X165627237Y-97349916D01*
X165536371Y-97479206D01*
X165478968Y-97626438D01*
X165478377Y-97630929D01*
X165478376Y-97630932D01*
X165474655Y-97659195D01*
X165458341Y-97783113D01*
X165458838Y-97787615D01*
X165458838Y-97787619D01*
X165467698Y-97867870D01*
X165475682Y-97940185D01*
X165477238Y-97944437D01*
X165477239Y-97944441D01*
X165502475Y-98013401D01*
X165529989Y-98088587D01*
X165532513Y-98092343D01*
X165532515Y-98092347D01*
X165615602Y-98215993D01*
X165615605Y-98215997D01*
X165618128Y-98219751D01*
X165621480Y-98222801D01*
X165731652Y-98323050D01*
X165731655Y-98323052D01*
X165735010Y-98326105D01*
X165738996Y-98328269D01*
X165739000Y-98328272D01*
X165776151Y-98348443D01*
X165810236Y-98386969D01*
X165811583Y-98438391D01*
X165779561Y-98478648D01*
X165774760Y-98481354D01*
X165763070Y-98487388D01*
X165746321Y-98496033D01*
X165627237Y-98599916D01*
X165536371Y-98729206D01*
X165478968Y-98876438D01*
X165478377Y-98880929D01*
X165478376Y-98880932D01*
X165473653Y-98916811D01*
X165458341Y-99033113D01*
X154810353Y-99033113D01*
X154795885Y-98941767D01*
X154746868Y-98845566D01*
X154744228Y-98840384D01*
X154744227Y-98840383D01*
X154741539Y-98835107D01*
X154656893Y-98750461D01*
X154635454Y-98739537D01*
X154607187Y-98725135D01*
X154550233Y-98696115D01*
X154432000Y-98677389D01*
X154313767Y-98696115D01*
X154256813Y-98725135D01*
X154228547Y-98739537D01*
X154207107Y-98750461D01*
X154122461Y-98835107D01*
X154119773Y-98840383D01*
X154119772Y-98840384D01*
X154117132Y-98845566D01*
X154068115Y-98941767D01*
X154049389Y-99060000D01*
X110774315Y-99060000D01*
X110793362Y-98842297D01*
X110772766Y-98606889D01*
X110758059Y-98552000D01*
X127125389Y-98552000D01*
X127144115Y-98670233D01*
X127198461Y-98776893D01*
X127283107Y-98861539D01*
X127288383Y-98864227D01*
X127288384Y-98864228D01*
X127312348Y-98876438D01*
X127389767Y-98915885D01*
X127508000Y-98934611D01*
X127626233Y-98915885D01*
X127703652Y-98876438D01*
X127727616Y-98864228D01*
X127727617Y-98864227D01*
X127732893Y-98861539D01*
X127817539Y-98776893D01*
X127871885Y-98670233D01*
X127890611Y-98552000D01*
X150366389Y-98552000D01*
X150385115Y-98670233D01*
X150439461Y-98776893D01*
X150524107Y-98861539D01*
X150529383Y-98864227D01*
X150529384Y-98864228D01*
X150553348Y-98876438D01*
X150630767Y-98915885D01*
X150749000Y-98934611D01*
X150867233Y-98915885D01*
X150944652Y-98876438D01*
X150968616Y-98864228D01*
X150968617Y-98864227D01*
X150973893Y-98861539D01*
X151058539Y-98776893D01*
X151112885Y-98670233D01*
X151131611Y-98552000D01*
X151112885Y-98433767D01*
X151065027Y-98339841D01*
X151061228Y-98332384D01*
X151061227Y-98332383D01*
X151058539Y-98327107D01*
X150973893Y-98242461D01*
X150965382Y-98238124D01*
X150921947Y-98215993D01*
X150867233Y-98188115D01*
X150749000Y-98169389D01*
X150630767Y-98188115D01*
X150576053Y-98215993D01*
X150532619Y-98238124D01*
X150524107Y-98242461D01*
X150439461Y-98327107D01*
X150436773Y-98332383D01*
X150436772Y-98332384D01*
X150432973Y-98339841D01*
X150385115Y-98433767D01*
X150366389Y-98552000D01*
X127890611Y-98552000D01*
X127871885Y-98433767D01*
X127824027Y-98339841D01*
X127820228Y-98332384D01*
X127820227Y-98332383D01*
X127817539Y-98327107D01*
X127732893Y-98242461D01*
X127724382Y-98238124D01*
X127680947Y-98215993D01*
X127626233Y-98188115D01*
X127508000Y-98169389D01*
X127389767Y-98188115D01*
X127335053Y-98215993D01*
X127291619Y-98238124D01*
X127283107Y-98242461D01*
X127198461Y-98327107D01*
X127195773Y-98332383D01*
X127195772Y-98332384D01*
X127191973Y-98339841D01*
X127144115Y-98433767D01*
X127125389Y-98552000D01*
X110758059Y-98552000D01*
X110711606Y-98378634D01*
X110611738Y-98164468D01*
X110568447Y-98102641D01*
X110478085Y-97973591D01*
X110476198Y-97970896D01*
X110309104Y-97803802D01*
X110227358Y-97746563D01*
X110118223Y-97670146D01*
X110118221Y-97670145D01*
X110115532Y-97668262D01*
X109901366Y-97568394D01*
X109864661Y-97558559D01*
X138316475Y-97558559D01*
X138316711Y-97562769D01*
X138330995Y-97690116D01*
X138332848Y-97698276D01*
X138389284Y-97860336D01*
X138392893Y-97867870D01*
X138483832Y-98013401D01*
X138489023Y-98019952D01*
X138609950Y-98141725D01*
X138616452Y-98146953D01*
X138761348Y-98238908D01*
X138768862Y-98242573D01*
X138930531Y-98300140D01*
X138938658Y-98302046D01*
X138978710Y-98306822D01*
X138989231Y-98304354D01*
X138991875Y-98300820D01*
X138991875Y-98295663D01*
X139245875Y-98295663D01*
X139249572Y-98305820D01*
X139253548Y-98308116D01*
X139288085Y-98304486D01*
X139296252Y-98302690D01*
X139458699Y-98247389D01*
X139466264Y-98243830D01*
X139612430Y-98153908D01*
X139619009Y-98148768D01*
X139741622Y-98028696D01*
X139746901Y-98022224D01*
X139839868Y-97877967D01*
X139843578Y-97870493D01*
X139852911Y-97844850D01*
X140219268Y-97844850D01*
X140220158Y-97848174D01*
X140220310Y-97848322D01*
X140243989Y-97864084D01*
X140253569Y-97868653D01*
X140378753Y-97907763D01*
X140389236Y-97909461D01*
X140520363Y-97911865D01*
X140530898Y-97910553D01*
X140657440Y-97876054D01*
X140667171Y-97871842D01*
X140701430Y-97850807D01*
X140708154Y-97842340D01*
X140708081Y-97839641D01*
X140707271Y-97838407D01*
X140473253Y-97604389D01*
X140463454Y-97599820D01*
X140457463Y-97601425D01*
X140223837Y-97835051D01*
X140219268Y-97844850D01*
X139852911Y-97844850D01*
X139902272Y-97709231D01*
X139905226Y-97697021D01*
X139906633Y-97697361D01*
X139927605Y-97656570D01*
X139975029Y-97636643D01*
X140024166Y-97651862D01*
X140033014Y-97659753D01*
X140035282Y-97662123D01*
X140040483Y-97659195D01*
X140274894Y-97424784D01*
X140279069Y-97415829D01*
X140648289Y-97415829D01*
X140649894Y-97421820D01*
X140863293Y-97635219D01*
X140878950Y-97658107D01*
X140886469Y-97675196D01*
X140886472Y-97675200D01*
X140888628Y-97680101D01*
X140980011Y-97788814D01*
X140984470Y-97791782D01*
X140984471Y-97791783D01*
X141039123Y-97828162D01*
X141098234Y-97867510D01*
X141103346Y-97869107D01*
X141103348Y-97869108D01*
X141131704Y-97877967D01*
X141233792Y-97909862D01*
X141298842Y-97911054D01*
X141370426Y-97912366D01*
X141370428Y-97912366D01*
X141375788Y-97912464D01*
X141380959Y-97911054D01*
X141380961Y-97911054D01*
X141502320Y-97877967D01*
X141512807Y-97875108D01*
X141520324Y-97870493D01*
X141629269Y-97803601D01*
X141629270Y-97803601D01*
X141633834Y-97800798D01*
X141637428Y-97796828D01*
X141637431Y-97796825D01*
X141682924Y-97746564D01*
X141728405Y-97722533D01*
X141778693Y-97733359D01*
X141796241Y-97748640D01*
X141830011Y-97788814D01*
X141834470Y-97791782D01*
X141834471Y-97791783D01*
X141889123Y-97828162D01*
X141948234Y-97867510D01*
X141953346Y-97869107D01*
X141953348Y-97869108D01*
X141981704Y-97877967D01*
X142083792Y-97909862D01*
X142148842Y-97911054D01*
X142220426Y-97912366D01*
X142220428Y-97912366D01*
X142225788Y-97912464D01*
X142230959Y-97911054D01*
X142230961Y-97911054D01*
X142352320Y-97877967D01*
X142362807Y-97875108D01*
X142370324Y-97870493D01*
X142479269Y-97803601D01*
X142479270Y-97803601D01*
X142483834Y-97800798D01*
X142487428Y-97796828D01*
X142487431Y-97796825D01*
X142532924Y-97746564D01*
X142578405Y-97722533D01*
X142628693Y-97733359D01*
X142646241Y-97748640D01*
X142680011Y-97788814D01*
X142684470Y-97791782D01*
X142684471Y-97791783D01*
X142739123Y-97828162D01*
X142798234Y-97867510D01*
X142803346Y-97869107D01*
X142803348Y-97869108D01*
X142831704Y-97877967D01*
X142933792Y-97909862D01*
X142998842Y-97911054D01*
X143070426Y-97912366D01*
X143070428Y-97912366D01*
X143075788Y-97912464D01*
X143080959Y-97911054D01*
X143080961Y-97911054D01*
X143202320Y-97877967D01*
X143212807Y-97875108D01*
X143220324Y-97870493D01*
X143329269Y-97803601D01*
X143329270Y-97803601D01*
X143333834Y-97800798D01*
X143337426Y-97796830D01*
X143337428Y-97796828D01*
X143382925Y-97746563D01*
X143428407Y-97722533D01*
X143478695Y-97733359D01*
X143496242Y-97748640D01*
X143530012Y-97788814D01*
X143534471Y-97791782D01*
X143534472Y-97791783D01*
X143589124Y-97828162D01*
X143648235Y-97867510D01*
X143653347Y-97869107D01*
X143653349Y-97869108D01*
X143681705Y-97877967D01*
X143783793Y-97909862D01*
X143848843Y-97911054D01*
X143920427Y-97912366D01*
X143920429Y-97912366D01*
X143925789Y-97912464D01*
X143930960Y-97911054D01*
X143930962Y-97911054D01*
X144052321Y-97877967D01*
X144062808Y-97875108D01*
X144070325Y-97870493D01*
X144179270Y-97803601D01*
X144179271Y-97803601D01*
X144183835Y-97800798D01*
X144187427Y-97796830D01*
X144187429Y-97796828D01*
X144232924Y-97746565D01*
X144278406Y-97722535D01*
X144328694Y-97733361D01*
X144346240Y-97748640D01*
X144380010Y-97788814D01*
X144384469Y-97791782D01*
X144384470Y-97791783D01*
X144439122Y-97828162D01*
X144498233Y-97867510D01*
X144503345Y-97869107D01*
X144503347Y-97869108D01*
X144531703Y-97877967D01*
X144633791Y-97909862D01*
X144698841Y-97911054D01*
X144770425Y-97912366D01*
X144770427Y-97912366D01*
X144775787Y-97912464D01*
X144780958Y-97911054D01*
X144780960Y-97911054D01*
X144902319Y-97877967D01*
X144912806Y-97875108D01*
X144920323Y-97870493D01*
X145029268Y-97803601D01*
X145029269Y-97803601D01*
X145033833Y-97800798D01*
X145037425Y-97796830D01*
X145037427Y-97796828D01*
X145082924Y-97746563D01*
X145128406Y-97722533D01*
X145178694Y-97733359D01*
X145196241Y-97748640D01*
X145230011Y-97788814D01*
X145234470Y-97791782D01*
X145234471Y-97791783D01*
X145289123Y-97828162D01*
X145348234Y-97867510D01*
X145353346Y-97869107D01*
X145353348Y-97869108D01*
X145381704Y-97877967D01*
X145483792Y-97909862D01*
X145548842Y-97911054D01*
X145620426Y-97912366D01*
X145620428Y-97912366D01*
X145625788Y-97912464D01*
X145630959Y-97911054D01*
X145630961Y-97911054D01*
X145752320Y-97877967D01*
X145762807Y-97875108D01*
X145770324Y-97870493D01*
X145812088Y-97844850D01*
X146169269Y-97844850D01*
X146170159Y-97848174D01*
X146170311Y-97848322D01*
X146193990Y-97864084D01*
X146203570Y-97868653D01*
X146328754Y-97907763D01*
X146339237Y-97909461D01*
X146470364Y-97911865D01*
X146480899Y-97910553D01*
X146607441Y-97876054D01*
X146617172Y-97871842D01*
X146651431Y-97850807D01*
X146658155Y-97842340D01*
X146658082Y-97839641D01*
X146657272Y-97838407D01*
X146423254Y-97604389D01*
X146413455Y-97599820D01*
X146407464Y-97601425D01*
X146173838Y-97835051D01*
X146169269Y-97844850D01*
X145812088Y-97844850D01*
X145879269Y-97803601D01*
X145879270Y-97803601D01*
X145883834Y-97800798D01*
X145887426Y-97796830D01*
X145887428Y-97796828D01*
X145932925Y-97746563D01*
X145979139Y-97695506D01*
X145997072Y-97658491D01*
X146011573Y-97638106D01*
X146224895Y-97424784D01*
X146229070Y-97415829D01*
X146598290Y-97415829D01*
X146599895Y-97421820D01*
X146833893Y-97655818D01*
X146843692Y-97660387D01*
X146849792Y-97658753D01*
X146886370Y-97637992D01*
X146936961Y-97647298D01*
X146969735Y-97686946D01*
X146972213Y-97695483D01*
X146972846Y-97698271D01*
X147029284Y-97860336D01*
X147032893Y-97867870D01*
X147123832Y-98013401D01*
X147129023Y-98019952D01*
X147249950Y-98141725D01*
X147256452Y-98146953D01*
X147401348Y-98238908D01*
X147408862Y-98242573D01*
X147570531Y-98300140D01*
X147578658Y-98302046D01*
X147618710Y-98306822D01*
X147629231Y-98304354D01*
X147631875Y-98300820D01*
X147631875Y-98295663D01*
X147885875Y-98295663D01*
X147889572Y-98305820D01*
X147893548Y-98308116D01*
X147928085Y-98304486D01*
X147936252Y-98302690D01*
X148098699Y-98247389D01*
X148106264Y-98243830D01*
X148252430Y-98153908D01*
X148259009Y-98148768D01*
X148381622Y-98028696D01*
X148386901Y-98022224D01*
X148479868Y-97877967D01*
X148483578Y-97870493D01*
X148542272Y-97709231D01*
X148544238Y-97701104D01*
X148560978Y-97568595D01*
X148561275Y-97563874D01*
X148561275Y-97536000D01*
X150366389Y-97536000D01*
X150385115Y-97654233D01*
X150407556Y-97698276D01*
X150432161Y-97746565D01*
X150439461Y-97760893D01*
X150524107Y-97845539D01*
X150529383Y-97848227D01*
X150529384Y-97848228D01*
X150567934Y-97867870D01*
X150630767Y-97899885D01*
X150749000Y-97918611D01*
X150759172Y-97917000D01*
X153414389Y-97917000D01*
X153433115Y-98035233D01*
X153487461Y-98141893D01*
X153572107Y-98226539D01*
X153577383Y-98229227D01*
X153577384Y-98229228D01*
X153603575Y-98242573D01*
X153678767Y-98280885D01*
X153797000Y-98299611D01*
X153915233Y-98280885D01*
X153990425Y-98242573D01*
X154016616Y-98229228D01*
X154016617Y-98229227D01*
X154021893Y-98226539D01*
X154106539Y-98141893D01*
X154160885Y-98035233D01*
X154179611Y-97917000D01*
X154178481Y-97909862D01*
X154161811Y-97804614D01*
X154160885Y-97798767D01*
X154106539Y-97692107D01*
X154021893Y-97607461D01*
X153915233Y-97553115D01*
X153797000Y-97534389D01*
X153678767Y-97553115D01*
X153572107Y-97607461D01*
X153487461Y-97692107D01*
X153433115Y-97798767D01*
X153432189Y-97804614D01*
X153415520Y-97909862D01*
X153414389Y-97917000D01*
X150759172Y-97917000D01*
X150867233Y-97899885D01*
X150930066Y-97867870D01*
X150968616Y-97848228D01*
X150968617Y-97848227D01*
X150973893Y-97845539D01*
X151058539Y-97760893D01*
X151065840Y-97746565D01*
X151090444Y-97698276D01*
X151112885Y-97654233D01*
X151131611Y-97536000D01*
X151112885Y-97417767D01*
X151058539Y-97311107D01*
X150973893Y-97226461D01*
X150942645Y-97210539D01*
X150872522Y-97174810D01*
X150867233Y-97172115D01*
X150749000Y-97153389D01*
X150630767Y-97172115D01*
X150625478Y-97174810D01*
X150555356Y-97210539D01*
X150524107Y-97226461D01*
X150439461Y-97311107D01*
X150385115Y-97417767D01*
X150366389Y-97536000D01*
X148561275Y-97536000D01*
X148561275Y-96774000D01*
X152906389Y-96774000D01*
X152907315Y-96779847D01*
X152908704Y-96788614D01*
X152925115Y-96892233D01*
X152939832Y-96921116D01*
X152971199Y-96982677D01*
X152979461Y-96998893D01*
X153064107Y-97083539D01*
X153170767Y-97137885D01*
X153289000Y-97156611D01*
X153407233Y-97137885D01*
X153513893Y-97083539D01*
X153598539Y-96998893D01*
X153606802Y-96982677D01*
X153638168Y-96921116D01*
X153652885Y-96892233D01*
X153669296Y-96788614D01*
X153670685Y-96779847D01*
X153671611Y-96774000D01*
X153652885Y-96655767D01*
X153605040Y-96561865D01*
X153601228Y-96554384D01*
X153601227Y-96554383D01*
X153598539Y-96549107D01*
X153513893Y-96464461D01*
X153479281Y-96446825D01*
X153436735Y-96425147D01*
X153407233Y-96410115D01*
X153334782Y-96398640D01*
X153294847Y-96392315D01*
X153289000Y-96391389D01*
X153283153Y-96392315D01*
X153243218Y-96398640D01*
X153170767Y-96410115D01*
X153141265Y-96425147D01*
X153098720Y-96446825D01*
X153064107Y-96464461D01*
X152979461Y-96549107D01*
X152976773Y-96554383D01*
X152976772Y-96554384D01*
X152972960Y-96561865D01*
X152925115Y-96655767D01*
X152906389Y-96774000D01*
X148561275Y-96774000D01*
X148561275Y-96705665D01*
X148557578Y-96695508D01*
X148552206Y-96692406D01*
X147899134Y-96692406D01*
X147888977Y-96696103D01*
X147885875Y-96701475D01*
X147885875Y-98295663D01*
X147631875Y-98295663D01*
X147631875Y-96705665D01*
X147628178Y-96695508D01*
X147622806Y-96692406D01*
X146969734Y-96692406D01*
X146959577Y-96696103D01*
X146956475Y-96701475D01*
X146956475Y-97101826D01*
X146938882Y-97150164D01*
X146894333Y-97175884D01*
X146869270Y-97171464D01*
X146869236Y-97171815D01*
X146841835Y-97169152D01*
X146836944Y-97171945D01*
X146602859Y-97406030D01*
X146598290Y-97415829D01*
X146229070Y-97415829D01*
X146229464Y-97414985D01*
X146227859Y-97408994D01*
X146013388Y-97194523D01*
X145998106Y-97172474D01*
X145997943Y-97172115D01*
X145985859Y-97145538D01*
X145937867Y-97089841D01*
X145896648Y-97042003D01*
X145896645Y-97042000D01*
X145893154Y-97037949D01*
X145886991Y-97033954D01*
X145816530Y-96988283D01*
X146169483Y-96988283D01*
X146169599Y-96991229D01*
X146170185Y-96992110D01*
X146404500Y-97226425D01*
X146414299Y-97230994D01*
X146420290Y-97229389D01*
X146653677Y-96996002D01*
X146658246Y-96986203D01*
X146657419Y-96983118D01*
X146656962Y-96982677D01*
X146628266Y-96964077D01*
X146618634Y-96959627D01*
X146492974Y-96922045D01*
X146482483Y-96920477D01*
X146351320Y-96919677D01*
X146340816Y-96921116D01*
X146214699Y-96957160D01*
X146205024Y-96961488D01*
X146176100Y-96979737D01*
X146169483Y-96988283D01*
X145816530Y-96988283D01*
X145778475Y-96963617D01*
X145778474Y-96963617D01*
X145773979Y-96960703D01*
X145637913Y-96920011D01*
X145632557Y-96919978D01*
X145632555Y-96919978D01*
X145569206Y-96919591D01*
X145495896Y-96919143D01*
X145359344Y-96958170D01*
X145239234Y-97033954D01*
X145232125Y-97042004D01*
X145195306Y-97083693D01*
X145150121Y-97108277D01*
X145099705Y-97098066D01*
X145081972Y-97083000D01*
X145046650Y-97042006D01*
X145046645Y-97042002D01*
X145043153Y-97037949D01*
X145036990Y-97033954D01*
X144928474Y-96963617D01*
X144928473Y-96963617D01*
X144923978Y-96960703D01*
X144787912Y-96920011D01*
X144782556Y-96919978D01*
X144782554Y-96919978D01*
X144719205Y-96919591D01*
X144645895Y-96919143D01*
X144509343Y-96958170D01*
X144389233Y-97033954D01*
X144382124Y-97042004D01*
X144345307Y-97083691D01*
X144300122Y-97108275D01*
X144249706Y-97098064D01*
X144231973Y-97082999D01*
X144196649Y-97042004D01*
X144196648Y-97042003D01*
X144193155Y-97037949D01*
X144186992Y-97033954D01*
X144078476Y-96963617D01*
X144078475Y-96963617D01*
X144073980Y-96960703D01*
X143937914Y-96920011D01*
X143932558Y-96919978D01*
X143932556Y-96919978D01*
X143869207Y-96919591D01*
X143795897Y-96919143D01*
X143659345Y-96958170D01*
X143539235Y-97033954D01*
X143532126Y-97042004D01*
X143495307Y-97083693D01*
X143450122Y-97108277D01*
X143399706Y-97098066D01*
X143381973Y-97083000D01*
X143346651Y-97042006D01*
X143346646Y-97042002D01*
X143343154Y-97037949D01*
X143336991Y-97033954D01*
X143228475Y-96963617D01*
X143228474Y-96963617D01*
X143223979Y-96960703D01*
X143087913Y-96920011D01*
X143082557Y-96919978D01*
X143082555Y-96919978D01*
X143019206Y-96919591D01*
X142945896Y-96919143D01*
X142809344Y-96958170D01*
X142689234Y-97033954D01*
X142682125Y-97042004D01*
X142645307Y-97083692D01*
X142600122Y-97108276D01*
X142549706Y-97098065D01*
X142531973Y-97083000D01*
X142496648Y-97042004D01*
X142496647Y-97042003D01*
X142493154Y-97037949D01*
X142486991Y-97033954D01*
X142378475Y-96963617D01*
X142378474Y-96963617D01*
X142373979Y-96960703D01*
X142237913Y-96920011D01*
X142232557Y-96919978D01*
X142232555Y-96919978D01*
X142169206Y-96919591D01*
X142095896Y-96919143D01*
X141959344Y-96958170D01*
X141839234Y-97033954D01*
X141832125Y-97042004D01*
X141795307Y-97083692D01*
X141750122Y-97108276D01*
X141699706Y-97098065D01*
X141681973Y-97083000D01*
X141646648Y-97042004D01*
X141646647Y-97042003D01*
X141643154Y-97037949D01*
X141636991Y-97033954D01*
X141528475Y-96963617D01*
X141528474Y-96963617D01*
X141523979Y-96960703D01*
X141387913Y-96920011D01*
X141382557Y-96919978D01*
X141382555Y-96919978D01*
X141319206Y-96919591D01*
X141245896Y-96919143D01*
X141109344Y-96958170D01*
X140989234Y-97033954D01*
X140895222Y-97140403D01*
X140881301Y-97170054D01*
X140880225Y-97172346D01*
X140865328Y-97193560D01*
X140652858Y-97406030D01*
X140648289Y-97415829D01*
X140279069Y-97415829D01*
X140279463Y-97414985D01*
X140277858Y-97408994D01*
X140043487Y-97174623D01*
X140033688Y-97170054D01*
X140015939Y-97174810D01*
X139964695Y-97170328D01*
X139928321Y-97133955D01*
X139921275Y-97102173D01*
X139921275Y-96988283D01*
X140219482Y-96988283D01*
X140219598Y-96991229D01*
X140220184Y-96992110D01*
X140454499Y-97226425D01*
X140464298Y-97230994D01*
X140470289Y-97229389D01*
X140703676Y-96996002D01*
X140708245Y-96986203D01*
X140707418Y-96983118D01*
X140706961Y-96982677D01*
X140678265Y-96964077D01*
X140668633Y-96959627D01*
X140542973Y-96922045D01*
X140532482Y-96920477D01*
X140401319Y-96919677D01*
X140390815Y-96921116D01*
X140264698Y-96957160D01*
X140255023Y-96961488D01*
X140226099Y-96979737D01*
X140219482Y-96988283D01*
X139921275Y-96988283D01*
X139921275Y-96705665D01*
X139917578Y-96695508D01*
X139912206Y-96692406D01*
X139259134Y-96692406D01*
X139248977Y-96696103D01*
X139245875Y-96701475D01*
X139245875Y-98295663D01*
X138991875Y-98295663D01*
X138991875Y-96705665D01*
X138988178Y-96695508D01*
X138982806Y-96692406D01*
X138329734Y-96692406D01*
X138319577Y-96696103D01*
X138316475Y-96701475D01*
X138316475Y-97558559D01*
X109864661Y-97558559D01*
X109673111Y-97507234D01*
X109496669Y-97491797D01*
X109378737Y-97491797D01*
X109202295Y-97507234D01*
X108974040Y-97568394D01*
X108759874Y-97668262D01*
X108757185Y-97670145D01*
X108757183Y-97670146D01*
X108648048Y-97746563D01*
X108566302Y-97803802D01*
X108399208Y-97970896D01*
X108263668Y-98164467D01*
X108226660Y-98243830D01*
X108181890Y-98339841D01*
X108163800Y-98378634D01*
X108102640Y-98606889D01*
X108082044Y-98842297D01*
X105923463Y-98842297D01*
X105923465Y-98842284D01*
X105919642Y-98818146D01*
X105918716Y-98806383D01*
X105918716Y-96901000D01*
X119378389Y-96901000D01*
X119379315Y-96906847D01*
X119381268Y-96919176D01*
X119397115Y-97019233D01*
X119424536Y-97073050D01*
X119439218Y-97101864D01*
X119451461Y-97125893D01*
X119536107Y-97210539D01*
X119541383Y-97213227D01*
X119541384Y-97213228D01*
X119571648Y-97228648D01*
X119642767Y-97264885D01*
X119761000Y-97283611D01*
X119879233Y-97264885D01*
X119950352Y-97228648D01*
X119980616Y-97213228D01*
X119980617Y-97213227D01*
X119985893Y-97210539D01*
X120070539Y-97125893D01*
X120082783Y-97101864D01*
X120097464Y-97073050D01*
X120120418Y-97028000D01*
X120648389Y-97028000D01*
X120667115Y-97146233D01*
X120688596Y-97188391D01*
X120717966Y-97246033D01*
X120721461Y-97252893D01*
X120806107Y-97337539D01*
X120811383Y-97340227D01*
X120811384Y-97340228D01*
X120840490Y-97355058D01*
X120912767Y-97391885D01*
X120918614Y-97392811D01*
X121022647Y-97409288D01*
X121031000Y-97410611D01*
X121039354Y-97409288D01*
X121143386Y-97392811D01*
X121149233Y-97391885D01*
X121221510Y-97355058D01*
X121250616Y-97340228D01*
X121250617Y-97340227D01*
X121255893Y-97337539D01*
X121340539Y-97252893D01*
X121344035Y-97246033D01*
X121373404Y-97188391D01*
X121394885Y-97146233D01*
X121413611Y-97028000D01*
X121412223Y-97019233D01*
X121395811Y-96915614D01*
X121394885Y-96909767D01*
X121340539Y-96803107D01*
X121255893Y-96718461D01*
X121230780Y-96705665D01*
X121200398Y-96690185D01*
X121149233Y-96664115D01*
X121031000Y-96645389D01*
X120912767Y-96664115D01*
X120861602Y-96690185D01*
X120831221Y-96705665D01*
X120806107Y-96718461D01*
X120721461Y-96803107D01*
X120667115Y-96909767D01*
X120666189Y-96915614D01*
X120649778Y-97019233D01*
X120648389Y-97028000D01*
X120120418Y-97028000D01*
X120124885Y-97019233D01*
X120140732Y-96919176D01*
X120142685Y-96906847D01*
X120143611Y-96901000D01*
X120142223Y-96892233D01*
X120125811Y-96788614D01*
X120124885Y-96782767D01*
X120090066Y-96714430D01*
X120073228Y-96681384D01*
X120073227Y-96681383D01*
X120070539Y-96676107D01*
X119985893Y-96591461D01*
X119879233Y-96537115D01*
X119761000Y-96518389D01*
X119642767Y-96537115D01*
X119536107Y-96591461D01*
X119451461Y-96676107D01*
X119448773Y-96681383D01*
X119448772Y-96681384D01*
X119431934Y-96714430D01*
X119397115Y-96782767D01*
X119396189Y-96788614D01*
X119379778Y-96892233D01*
X119378389Y-96901000D01*
X105918716Y-96901000D01*
X105918716Y-96494850D01*
X140219268Y-96494850D01*
X140220158Y-96498174D01*
X140220310Y-96498322D01*
X140243989Y-96514084D01*
X140253569Y-96518653D01*
X140378753Y-96557763D01*
X140389236Y-96559461D01*
X140520363Y-96561865D01*
X140530898Y-96560553D01*
X140657440Y-96526054D01*
X140667171Y-96521842D01*
X140701430Y-96500807D01*
X140708154Y-96492340D01*
X140708081Y-96489641D01*
X140707271Y-96488407D01*
X140473253Y-96254389D01*
X140463454Y-96249820D01*
X140457463Y-96251425D01*
X140223837Y-96485051D01*
X140219268Y-96494850D01*
X105918716Y-96494850D01*
X105918716Y-96425147D01*
X138316475Y-96425147D01*
X138320172Y-96435304D01*
X138325544Y-96438406D01*
X138978616Y-96438406D01*
X138988773Y-96434709D01*
X138991875Y-96429337D01*
X138991875Y-96425147D01*
X139245875Y-96425147D01*
X139249572Y-96435304D01*
X139254944Y-96438406D01*
X139908016Y-96438406D01*
X139918173Y-96434709D01*
X139921275Y-96429337D01*
X139921275Y-96380332D01*
X139938868Y-96331994D01*
X139983417Y-96306274D01*
X140007958Y-96310602D01*
X140008113Y-96309184D01*
X140035228Y-96312153D01*
X140040483Y-96309195D01*
X140274894Y-96074784D01*
X140279069Y-96065829D01*
X140648289Y-96065829D01*
X140649894Y-96071820D01*
X140863293Y-96285219D01*
X140878950Y-96308107D01*
X140886469Y-96325196D01*
X140886472Y-96325200D01*
X140888628Y-96330101D01*
X140980011Y-96438814D01*
X141098234Y-96517510D01*
X141103346Y-96519107D01*
X141103348Y-96519108D01*
X141214306Y-96553774D01*
X141233792Y-96559862D01*
X141298842Y-96561054D01*
X141370426Y-96562366D01*
X141370428Y-96562366D01*
X141375788Y-96562464D01*
X141380959Y-96561054D01*
X141380961Y-96561054D01*
X141458184Y-96540000D01*
X141512807Y-96525108D01*
X141552386Y-96500807D01*
X141629269Y-96453601D01*
X141629270Y-96453601D01*
X141633834Y-96450798D01*
X141637428Y-96446828D01*
X141637431Y-96446825D01*
X141682924Y-96396564D01*
X141728405Y-96372533D01*
X141778693Y-96383359D01*
X141796241Y-96398640D01*
X141805887Y-96410115D01*
X141830011Y-96438814D01*
X141948234Y-96517510D01*
X141953346Y-96519107D01*
X141953348Y-96519108D01*
X142064306Y-96553774D01*
X142083792Y-96559862D01*
X142148842Y-96561054D01*
X142220426Y-96562366D01*
X142220428Y-96562366D01*
X142225788Y-96562464D01*
X142230959Y-96561054D01*
X142230961Y-96561054D01*
X142308184Y-96540000D01*
X142362807Y-96525108D01*
X142402386Y-96500807D01*
X142479269Y-96453601D01*
X142479270Y-96453601D01*
X142483834Y-96450798D01*
X142487428Y-96446828D01*
X142487431Y-96446825D01*
X142532924Y-96396564D01*
X142578405Y-96372533D01*
X142628693Y-96383359D01*
X142646241Y-96398640D01*
X142655887Y-96410115D01*
X142680011Y-96438814D01*
X142798234Y-96517510D01*
X142803346Y-96519107D01*
X142803348Y-96519108D01*
X142914306Y-96553774D01*
X142933792Y-96559862D01*
X142998842Y-96561054D01*
X143070426Y-96562366D01*
X143070428Y-96562366D01*
X143075788Y-96562464D01*
X143080959Y-96561054D01*
X143080961Y-96561054D01*
X143158184Y-96540000D01*
X143212807Y-96525108D01*
X143252386Y-96500807D01*
X143329269Y-96453601D01*
X143329270Y-96453601D01*
X143333834Y-96450798D01*
X143337426Y-96446830D01*
X143337428Y-96446828D01*
X143382925Y-96396563D01*
X143428407Y-96372533D01*
X143478695Y-96383359D01*
X143496242Y-96398640D01*
X143505888Y-96410115D01*
X143530012Y-96438814D01*
X143648235Y-96517510D01*
X143653347Y-96519107D01*
X143653349Y-96519108D01*
X143764307Y-96553774D01*
X143783793Y-96559862D01*
X143848843Y-96561054D01*
X143920427Y-96562366D01*
X143920429Y-96562366D01*
X143925789Y-96562464D01*
X143930960Y-96561054D01*
X143930962Y-96561054D01*
X144008185Y-96540000D01*
X144062808Y-96525108D01*
X144102387Y-96500807D01*
X144179270Y-96453601D01*
X144179271Y-96453601D01*
X144183835Y-96450798D01*
X144187427Y-96446830D01*
X144187429Y-96446828D01*
X144232924Y-96396565D01*
X144278406Y-96372535D01*
X144328694Y-96383361D01*
X144346240Y-96398640D01*
X144380010Y-96438814D01*
X144498233Y-96517510D01*
X144503345Y-96519107D01*
X144503347Y-96519108D01*
X144614305Y-96553774D01*
X144633791Y-96559862D01*
X144698841Y-96561054D01*
X144770425Y-96562366D01*
X144770427Y-96562366D01*
X144775787Y-96562464D01*
X144780958Y-96561054D01*
X144780960Y-96561054D01*
X144858183Y-96540000D01*
X144912806Y-96525108D01*
X144952385Y-96500807D01*
X145029268Y-96453601D01*
X145029269Y-96453601D01*
X145033833Y-96450798D01*
X145037425Y-96446830D01*
X145037427Y-96446828D01*
X145082924Y-96396563D01*
X145128406Y-96372533D01*
X145178694Y-96383359D01*
X145196241Y-96398640D01*
X145205887Y-96410115D01*
X145230011Y-96438814D01*
X145348234Y-96517510D01*
X145353346Y-96519107D01*
X145353348Y-96519108D01*
X145464306Y-96553774D01*
X145483792Y-96559862D01*
X145548842Y-96561054D01*
X145620426Y-96562366D01*
X145620428Y-96562366D01*
X145625788Y-96562464D01*
X145630959Y-96561054D01*
X145630961Y-96561054D01*
X145708184Y-96540000D01*
X145762807Y-96525108D01*
X145802386Y-96500807D01*
X145812088Y-96494850D01*
X146169269Y-96494850D01*
X146170159Y-96498174D01*
X146170311Y-96498322D01*
X146193990Y-96514084D01*
X146203570Y-96518653D01*
X146328754Y-96557763D01*
X146339237Y-96559461D01*
X146470364Y-96561865D01*
X146480899Y-96560553D01*
X146607441Y-96526054D01*
X146617172Y-96521842D01*
X146651431Y-96500807D01*
X146658155Y-96492340D01*
X146658082Y-96489641D01*
X146657272Y-96488407D01*
X146423254Y-96254389D01*
X146413455Y-96249820D01*
X146407464Y-96251425D01*
X146173838Y-96485051D01*
X146169269Y-96494850D01*
X145812088Y-96494850D01*
X145879269Y-96453601D01*
X145879270Y-96453601D01*
X145883834Y-96450798D01*
X145887426Y-96446830D01*
X145887428Y-96446828D01*
X145937608Y-96391389D01*
X145979139Y-96345506D01*
X145997072Y-96308491D01*
X146011573Y-96288106D01*
X146224895Y-96074784D01*
X146229070Y-96065829D01*
X146598290Y-96065829D01*
X146599895Y-96071820D01*
X146833893Y-96305818D01*
X146843692Y-96310387D01*
X146861811Y-96305532D01*
X146913055Y-96310014D01*
X146949429Y-96346387D01*
X146956475Y-96378169D01*
X146956475Y-96425147D01*
X146960172Y-96435304D01*
X146965544Y-96438406D01*
X147618616Y-96438406D01*
X147628773Y-96434709D01*
X147631875Y-96429337D01*
X147631875Y-96425147D01*
X147885875Y-96425147D01*
X147889572Y-96435304D01*
X147894944Y-96438406D01*
X148548016Y-96438406D01*
X148558173Y-96434709D01*
X148561275Y-96429337D01*
X148561275Y-95572253D01*
X148561039Y-95568043D01*
X148546755Y-95440696D01*
X148544902Y-95432536D01*
X148488466Y-95270476D01*
X148484857Y-95262942D01*
X148393918Y-95117411D01*
X148388727Y-95110860D01*
X148267800Y-94989087D01*
X148261298Y-94983859D01*
X148116402Y-94891904D01*
X148108888Y-94888239D01*
X147947219Y-94830672D01*
X147939092Y-94828766D01*
X147899040Y-94823990D01*
X147888519Y-94826458D01*
X147885875Y-94829992D01*
X147885875Y-96425147D01*
X147631875Y-96425147D01*
X147631875Y-94835149D01*
X147628178Y-94824992D01*
X147624202Y-94822696D01*
X147589665Y-94826326D01*
X147581498Y-94828122D01*
X147419051Y-94883423D01*
X147411486Y-94886982D01*
X147265320Y-94976904D01*
X147258741Y-94982044D01*
X147136128Y-95102116D01*
X147130849Y-95108588D01*
X147037882Y-95252845D01*
X147034172Y-95260319D01*
X146975478Y-95421581D01*
X146973512Y-95429708D01*
X146956772Y-95562217D01*
X146956475Y-95566938D01*
X146956475Y-95751826D01*
X146938882Y-95800164D01*
X146894333Y-95825884D01*
X146869270Y-95821464D01*
X146869236Y-95821815D01*
X146841835Y-95819152D01*
X146836944Y-95821945D01*
X146602859Y-96056030D01*
X146598290Y-96065829D01*
X146229070Y-96065829D01*
X146229464Y-96064985D01*
X146227859Y-96058994D01*
X146013388Y-95844523D01*
X145998106Y-95822474D01*
X145998048Y-95822346D01*
X145985859Y-95795538D01*
X145923185Y-95722801D01*
X145896648Y-95692003D01*
X145896645Y-95692000D01*
X145893154Y-95687949D01*
X145858341Y-95665384D01*
X145816530Y-95638283D01*
X146169483Y-95638283D01*
X146169599Y-95641229D01*
X146170185Y-95642110D01*
X146404500Y-95876425D01*
X146414299Y-95880994D01*
X146420290Y-95879389D01*
X146653677Y-95646002D01*
X146658246Y-95636203D01*
X146657419Y-95633118D01*
X146656962Y-95632677D01*
X146628266Y-95614077D01*
X146618634Y-95609627D01*
X146492974Y-95572045D01*
X146482483Y-95570477D01*
X146351320Y-95569677D01*
X146340816Y-95571116D01*
X146214699Y-95607160D01*
X146205024Y-95611488D01*
X146176100Y-95629737D01*
X146169483Y-95638283D01*
X145816530Y-95638283D01*
X145778475Y-95613617D01*
X145778474Y-95613617D01*
X145773979Y-95610703D01*
X145637913Y-95570011D01*
X145632557Y-95569978D01*
X145632555Y-95569978D01*
X145569206Y-95569591D01*
X145495896Y-95569143D01*
X145359344Y-95608170D01*
X145239234Y-95683954D01*
X145232125Y-95692004D01*
X145195306Y-95733693D01*
X145150121Y-95758277D01*
X145099705Y-95748066D01*
X145081972Y-95733000D01*
X145046650Y-95692006D01*
X145046645Y-95692002D01*
X145043153Y-95687949D01*
X145008340Y-95665384D01*
X144928474Y-95613617D01*
X144928473Y-95613617D01*
X144923978Y-95610703D01*
X144787912Y-95570011D01*
X144782556Y-95569978D01*
X144782554Y-95569978D01*
X144719205Y-95569591D01*
X144645895Y-95569143D01*
X144509343Y-95608170D01*
X144389233Y-95683954D01*
X144382124Y-95692004D01*
X144345307Y-95733691D01*
X144300122Y-95758275D01*
X144249706Y-95748064D01*
X144231973Y-95732999D01*
X144196649Y-95692004D01*
X144196648Y-95692003D01*
X144193155Y-95687949D01*
X144158342Y-95665384D01*
X144078476Y-95613617D01*
X144078475Y-95613617D01*
X144073980Y-95610703D01*
X143937914Y-95570011D01*
X143932558Y-95569978D01*
X143932556Y-95569978D01*
X143869207Y-95569591D01*
X143795897Y-95569143D01*
X143659345Y-95608170D01*
X143539235Y-95683954D01*
X143532126Y-95692004D01*
X143495307Y-95733693D01*
X143450122Y-95758277D01*
X143399706Y-95748066D01*
X143381973Y-95733000D01*
X143346651Y-95692006D01*
X143346646Y-95692002D01*
X143343154Y-95687949D01*
X143308341Y-95665384D01*
X143228475Y-95613617D01*
X143228474Y-95613617D01*
X143223979Y-95610703D01*
X143087913Y-95570011D01*
X143082557Y-95569978D01*
X143082555Y-95569978D01*
X143019206Y-95569591D01*
X142945896Y-95569143D01*
X142809344Y-95608170D01*
X142689234Y-95683954D01*
X142682125Y-95692004D01*
X142645307Y-95733692D01*
X142600122Y-95758276D01*
X142549706Y-95748065D01*
X142531973Y-95733000D01*
X142496648Y-95692004D01*
X142496647Y-95692003D01*
X142493154Y-95687949D01*
X142458341Y-95665384D01*
X142378475Y-95613617D01*
X142378474Y-95613617D01*
X142373979Y-95610703D01*
X142237913Y-95570011D01*
X142232557Y-95569978D01*
X142232555Y-95569978D01*
X142169206Y-95569591D01*
X142095896Y-95569143D01*
X141959344Y-95608170D01*
X141839234Y-95683954D01*
X141832125Y-95692004D01*
X141795307Y-95733692D01*
X141750122Y-95758276D01*
X141699706Y-95748065D01*
X141681973Y-95733000D01*
X141646648Y-95692004D01*
X141646647Y-95692003D01*
X141643154Y-95687949D01*
X141608341Y-95665384D01*
X141528475Y-95613617D01*
X141528474Y-95613617D01*
X141523979Y-95610703D01*
X141387913Y-95570011D01*
X141382557Y-95569978D01*
X141382555Y-95569978D01*
X141319206Y-95569591D01*
X141245896Y-95569143D01*
X141109344Y-95608170D01*
X140989234Y-95683954D01*
X140895222Y-95790403D01*
X140881301Y-95820054D01*
X140880225Y-95822346D01*
X140865328Y-95843560D01*
X140652858Y-96056030D01*
X140648289Y-96065829D01*
X140279069Y-96065829D01*
X140279463Y-96064985D01*
X140277858Y-96058994D01*
X140043487Y-95824623D01*
X140033688Y-95820054D01*
X140015939Y-95824810D01*
X139964695Y-95820328D01*
X139928321Y-95783955D01*
X139921275Y-95752173D01*
X139921275Y-95638283D01*
X140219482Y-95638283D01*
X140219598Y-95641229D01*
X140220184Y-95642110D01*
X140454499Y-95876425D01*
X140464298Y-95880994D01*
X140470289Y-95879389D01*
X140703676Y-95646002D01*
X140708245Y-95636203D01*
X140707418Y-95633118D01*
X140706961Y-95632677D01*
X140678265Y-95614077D01*
X140668633Y-95609627D01*
X140542973Y-95572045D01*
X140532482Y-95570477D01*
X140401319Y-95569677D01*
X140390815Y-95571116D01*
X140264698Y-95607160D01*
X140255023Y-95611488D01*
X140226099Y-95629737D01*
X140219482Y-95638283D01*
X139921275Y-95638283D01*
X139921275Y-95572253D01*
X139921039Y-95568043D01*
X139906755Y-95440696D01*
X139904902Y-95432536D01*
X139848466Y-95270476D01*
X139844857Y-95262942D01*
X139753918Y-95117411D01*
X139748727Y-95110860D01*
X139627800Y-94989087D01*
X139621298Y-94983859D01*
X139476402Y-94891904D01*
X139468888Y-94888239D01*
X139307219Y-94830672D01*
X139299092Y-94828766D01*
X139259040Y-94823990D01*
X139248519Y-94826458D01*
X139245875Y-94829992D01*
X139245875Y-96425147D01*
X138991875Y-96425147D01*
X138991875Y-94835149D01*
X138988178Y-94824992D01*
X138984202Y-94822696D01*
X138949665Y-94826326D01*
X138941498Y-94828122D01*
X138779051Y-94883423D01*
X138771486Y-94886982D01*
X138625320Y-94976904D01*
X138618741Y-94982044D01*
X138496128Y-95102116D01*
X138490849Y-95108588D01*
X138397882Y-95252845D01*
X138394172Y-95260319D01*
X138335478Y-95421581D01*
X138333512Y-95429708D01*
X138316772Y-95562217D01*
X138316475Y-95566938D01*
X138316475Y-96425147D01*
X105918716Y-96425147D01*
X105918716Y-95885000D01*
X125982389Y-95885000D01*
X125983315Y-95890847D01*
X125988495Y-95923554D01*
X126001115Y-96003233D01*
X126055461Y-96109893D01*
X126140107Y-96194539D01*
X126145383Y-96197227D01*
X126145384Y-96197228D01*
X126185557Y-96217697D01*
X126246767Y-96248885D01*
X126365000Y-96267611D01*
X126483233Y-96248885D01*
X126544443Y-96217697D01*
X126584616Y-96197228D01*
X126584617Y-96197227D01*
X126589893Y-96194539D01*
X126674539Y-96109893D01*
X126728885Y-96003233D01*
X126741505Y-95923554D01*
X126746685Y-95890847D01*
X126747611Y-95885000D01*
X126728885Y-95766767D01*
X126674539Y-95660107D01*
X126589893Y-95575461D01*
X126582212Y-95571547D01*
X126540187Y-95550135D01*
X126483233Y-95521115D01*
X126365000Y-95502389D01*
X126246767Y-95521115D01*
X126189813Y-95550135D01*
X126147789Y-95571547D01*
X126140107Y-95575461D01*
X126055461Y-95660107D01*
X126001115Y-95766767D01*
X125982389Y-95885000D01*
X105918716Y-95885000D01*
X105918716Y-94996000D01*
X127125389Y-94996000D01*
X127144115Y-95114233D01*
X127198461Y-95220893D01*
X127283107Y-95305539D01*
X127389767Y-95359885D01*
X127508000Y-95378611D01*
X127626233Y-95359885D01*
X127732893Y-95305539D01*
X127817539Y-95220893D01*
X127871885Y-95114233D01*
X127890611Y-94996000D01*
X127871885Y-94877767D01*
X127817539Y-94771107D01*
X127732893Y-94686461D01*
X127716504Y-94678110D01*
X127683187Y-94661135D01*
X127626233Y-94632115D01*
X127508000Y-94613389D01*
X127389767Y-94632115D01*
X127332813Y-94661135D01*
X127299497Y-94678110D01*
X127283107Y-94686461D01*
X127198461Y-94771107D01*
X127144115Y-94877767D01*
X127125389Y-94996000D01*
X105918716Y-94996000D01*
X105918716Y-94234000D01*
X124712389Y-94234000D01*
X124731115Y-94352233D01*
X124785461Y-94458893D01*
X124870107Y-94543539D01*
X124976767Y-94597885D01*
X125095000Y-94616611D01*
X125213233Y-94597885D01*
X125319893Y-94543539D01*
X125404539Y-94458893D01*
X125458885Y-94352233D01*
X125477611Y-94234000D01*
X125458885Y-94115767D01*
X125404539Y-94009107D01*
X125319893Y-93924461D01*
X125213233Y-93870115D01*
X125095000Y-93851389D01*
X124976767Y-93870115D01*
X124870107Y-93924461D01*
X124785461Y-94009107D01*
X124731115Y-94115767D01*
X124712389Y-94234000D01*
X105918716Y-94234000D01*
X105918716Y-93218000D01*
X110107389Y-93218000D01*
X110126115Y-93336233D01*
X110180461Y-93442893D01*
X110265107Y-93527539D01*
X110371767Y-93581885D01*
X110490000Y-93600611D01*
X110608233Y-93581885D01*
X110714893Y-93527539D01*
X110799539Y-93442893D01*
X110853885Y-93336233D01*
X110872611Y-93218000D01*
X110853885Y-93099767D01*
X110799539Y-92993107D01*
X110770432Y-92964000D01*
X134618389Y-92964000D01*
X134637115Y-93082233D01*
X134691461Y-93188893D01*
X134776107Y-93273539D01*
X134882767Y-93327885D01*
X135001000Y-93346611D01*
X135119233Y-93327885D01*
X135225893Y-93273539D01*
X135310539Y-93188893D01*
X135364885Y-93082233D01*
X135383611Y-92964000D01*
X135364885Y-92845767D01*
X135310539Y-92739107D01*
X135225893Y-92654461D01*
X135119233Y-92600115D01*
X135011172Y-92583000D01*
X146810389Y-92583000D01*
X146829115Y-92701233D01*
X146883461Y-92807893D01*
X146968107Y-92892539D01*
X146973383Y-92895227D01*
X146973384Y-92895228D01*
X147007579Y-92912651D01*
X147074767Y-92946885D01*
X147193000Y-92965611D01*
X147311233Y-92946885D01*
X147378421Y-92912651D01*
X147412616Y-92895228D01*
X147412617Y-92895227D01*
X147417893Y-92892539D01*
X147502539Y-92807893D01*
X147556885Y-92701233D01*
X147575611Y-92583000D01*
X147556885Y-92464767D01*
X147502539Y-92358107D01*
X147417893Y-92273461D01*
X147311233Y-92219115D01*
X147193000Y-92200389D01*
X147074767Y-92219115D01*
X146968107Y-92273461D01*
X146883461Y-92358107D01*
X146829115Y-92464767D01*
X146810389Y-92583000D01*
X135011172Y-92583000D01*
X135001000Y-92581389D01*
X134882767Y-92600115D01*
X134776107Y-92654461D01*
X134691461Y-92739107D01*
X134637115Y-92845767D01*
X134618389Y-92964000D01*
X110770432Y-92964000D01*
X110714893Y-92908461D01*
X110683645Y-92892539D01*
X110665187Y-92883135D01*
X110608233Y-92854115D01*
X110490000Y-92835389D01*
X110371767Y-92854115D01*
X110314813Y-92883135D01*
X110296356Y-92892539D01*
X110265107Y-92908461D01*
X110180461Y-92993107D01*
X110126115Y-93099767D01*
X110107389Y-93218000D01*
X105918716Y-93218000D01*
X105918716Y-92075000D01*
X125855389Y-92075000D01*
X125874115Y-92193233D01*
X125928461Y-92299893D01*
X126013107Y-92384539D01*
X126119767Y-92438885D01*
X126238000Y-92457611D01*
X126356233Y-92438885D01*
X126462893Y-92384539D01*
X126547539Y-92299893D01*
X126601885Y-92193233D01*
X126620611Y-92075000D01*
X140206389Y-92075000D01*
X140225115Y-92193233D01*
X140279461Y-92299893D01*
X140364107Y-92384539D01*
X140470767Y-92438885D01*
X140589000Y-92457611D01*
X140707233Y-92438885D01*
X140813893Y-92384539D01*
X140898539Y-92299893D01*
X140952885Y-92193233D01*
X140971611Y-92075000D01*
X140952885Y-91956767D01*
X140898539Y-91850107D01*
X140813893Y-91765461D01*
X140707233Y-91711115D01*
X140589000Y-91692389D01*
X140470767Y-91711115D01*
X140364107Y-91765461D01*
X140279461Y-91850107D01*
X140225115Y-91956767D01*
X140206389Y-92075000D01*
X126620611Y-92075000D01*
X126601885Y-91956767D01*
X126547539Y-91850107D01*
X126462893Y-91765461D01*
X126356233Y-91711115D01*
X126238000Y-91692389D01*
X126119767Y-91711115D01*
X126013107Y-91765461D01*
X125928461Y-91850107D01*
X125874115Y-91956767D01*
X125855389Y-92075000D01*
X105918716Y-92075000D01*
X105918716Y-91567000D01*
X160907389Y-91567000D01*
X160926115Y-91685233D01*
X160980461Y-91791893D01*
X161065107Y-91876539D01*
X161171767Y-91930885D01*
X161290000Y-91949611D01*
X161408233Y-91930885D01*
X161514893Y-91876539D01*
X161599539Y-91791893D01*
X161653885Y-91685233D01*
X161672611Y-91567000D01*
X161653885Y-91448767D01*
X161599539Y-91342107D01*
X161514893Y-91257461D01*
X161408233Y-91203115D01*
X161290000Y-91184389D01*
X161171767Y-91203115D01*
X161065107Y-91257461D01*
X160980461Y-91342107D01*
X160926115Y-91448767D01*
X160907389Y-91567000D01*
X105918716Y-91567000D01*
X105918716Y-90678000D01*
X124585389Y-90678000D01*
X124604115Y-90796233D01*
X124658461Y-90902893D01*
X124743107Y-90987539D01*
X124849767Y-91041885D01*
X124968000Y-91060611D01*
X125086233Y-91041885D01*
X125192893Y-90987539D01*
X125277539Y-90902893D01*
X125331885Y-90796233D01*
X125350611Y-90678000D01*
X125331885Y-90559767D01*
X125277539Y-90453107D01*
X125192893Y-90368461D01*
X125086233Y-90314115D01*
X124968000Y-90295389D01*
X124849767Y-90314115D01*
X124743107Y-90368461D01*
X124658461Y-90453107D01*
X124604115Y-90559767D01*
X124585389Y-90678000D01*
X105918716Y-90678000D01*
X105918716Y-89916000D01*
X117981389Y-89916000D01*
X118000115Y-90034233D01*
X118054461Y-90140893D01*
X118139107Y-90225539D01*
X118245767Y-90279885D01*
X118364000Y-90298611D01*
X118482233Y-90279885D01*
X118588893Y-90225539D01*
X118673539Y-90140893D01*
X118727885Y-90034233D01*
X118746611Y-89916000D01*
X118727885Y-89797767D01*
X118673539Y-89691107D01*
X118588893Y-89606461D01*
X118557645Y-89590539D01*
X118539187Y-89581135D01*
X118482233Y-89552115D01*
X118364000Y-89533389D01*
X118245767Y-89552115D01*
X118188813Y-89581135D01*
X118170356Y-89590539D01*
X118139107Y-89606461D01*
X118054461Y-89691107D01*
X118000115Y-89797767D01*
X117981389Y-89916000D01*
X105918716Y-89916000D01*
X105918716Y-89281000D01*
X126744389Y-89281000D01*
X126763115Y-89399233D01*
X126817461Y-89505893D01*
X126902107Y-89590539D01*
X126907383Y-89593227D01*
X126907384Y-89593228D01*
X126941579Y-89610651D01*
X127008767Y-89644885D01*
X127127000Y-89663611D01*
X127245233Y-89644885D01*
X127312421Y-89610651D01*
X127346616Y-89593228D01*
X127346617Y-89593227D01*
X127351893Y-89590539D01*
X127407432Y-89535000D01*
X170686389Y-89535000D01*
X170705115Y-89653233D01*
X170759461Y-89759893D01*
X170844107Y-89844539D01*
X170950767Y-89898885D01*
X171069000Y-89917611D01*
X171187233Y-89898885D01*
X171293893Y-89844539D01*
X171378539Y-89759893D01*
X171432885Y-89653233D01*
X171451611Y-89535000D01*
X171432885Y-89416767D01*
X171378539Y-89310107D01*
X171293893Y-89225461D01*
X171187233Y-89171115D01*
X171069000Y-89152389D01*
X170950767Y-89171115D01*
X170844107Y-89225461D01*
X170759461Y-89310107D01*
X170705115Y-89416767D01*
X170686389Y-89535000D01*
X127407432Y-89535000D01*
X127436539Y-89505893D01*
X127490885Y-89399233D01*
X127509611Y-89281000D01*
X127490885Y-89162767D01*
X127436539Y-89056107D01*
X127407432Y-89027000D01*
X139571389Y-89027000D01*
X139590115Y-89145233D01*
X139644461Y-89251893D01*
X139729107Y-89336539D01*
X139835767Y-89390885D01*
X139954000Y-89409611D01*
X140072233Y-89390885D01*
X140178893Y-89336539D01*
X140263539Y-89251893D01*
X140317885Y-89145233D01*
X140336611Y-89027000D01*
X150366389Y-89027000D01*
X150385115Y-89145233D01*
X150439461Y-89251893D01*
X150524107Y-89336539D01*
X150630767Y-89390885D01*
X150749000Y-89409611D01*
X150867233Y-89390885D01*
X150973893Y-89336539D01*
X151058539Y-89251893D01*
X151112885Y-89145233D01*
X151131611Y-89027000D01*
X151112885Y-88908767D01*
X151058539Y-88802107D01*
X151029432Y-88773000D01*
X169924389Y-88773000D01*
X169943115Y-88891233D01*
X169997461Y-88997893D01*
X170082107Y-89082539D01*
X170188767Y-89136885D01*
X170307000Y-89155611D01*
X170425233Y-89136885D01*
X170531893Y-89082539D01*
X170616539Y-88997893D01*
X170670885Y-88891233D01*
X170689611Y-88773000D01*
X170670885Y-88654767D01*
X170641865Y-88597813D01*
X170619228Y-88553384D01*
X170619227Y-88553383D01*
X170616539Y-88548107D01*
X170531893Y-88463461D01*
X170500645Y-88447539D01*
X170482187Y-88438135D01*
X170425233Y-88409115D01*
X170307000Y-88390389D01*
X170188767Y-88409115D01*
X170131813Y-88438135D01*
X170113356Y-88447539D01*
X170082107Y-88463461D01*
X169997461Y-88548107D01*
X169994773Y-88553383D01*
X169994772Y-88553384D01*
X169972135Y-88597813D01*
X169943115Y-88654767D01*
X169924389Y-88773000D01*
X151029432Y-88773000D01*
X150973893Y-88717461D01*
X150867233Y-88663115D01*
X150749000Y-88644389D01*
X150630767Y-88663115D01*
X150524107Y-88717461D01*
X150439461Y-88802107D01*
X150385115Y-88908767D01*
X150366389Y-89027000D01*
X140336611Y-89027000D01*
X140317885Y-88908767D01*
X140263539Y-88802107D01*
X140178893Y-88717461D01*
X140072233Y-88663115D01*
X139954000Y-88644389D01*
X139835767Y-88663115D01*
X139729107Y-88717461D01*
X139644461Y-88802107D01*
X139590115Y-88908767D01*
X139571389Y-89027000D01*
X127407432Y-89027000D01*
X127351893Y-88971461D01*
X127245233Y-88917115D01*
X127127000Y-88898389D01*
X127008767Y-88917115D01*
X126902107Y-88971461D01*
X126817461Y-89056107D01*
X126763115Y-89162767D01*
X126744389Y-89281000D01*
X105918716Y-89281000D01*
X105918716Y-87774918D01*
X120671359Y-87774918D01*
X120674990Y-87818161D01*
X120676312Y-87825363D01*
X120728470Y-88007261D01*
X120731164Y-88014063D01*
X120817657Y-88182363D01*
X120821623Y-88188518D01*
X120939164Y-88336817D01*
X120944240Y-88342074D01*
X121088355Y-88464725D01*
X121094353Y-88468894D01*
X121259537Y-88561211D01*
X121266250Y-88564144D01*
X121446210Y-88622616D01*
X121453358Y-88624188D01*
X121525833Y-88632830D01*
X121536357Y-88630361D01*
X121539000Y-88626829D01*
X121539000Y-88622375D01*
X121793000Y-88622375D01*
X121796697Y-88632532D01*
X121801003Y-88635018D01*
X121837239Y-88632230D01*
X121844447Y-88630959D01*
X122026701Y-88580073D01*
X122033534Y-88577422D01*
X122202428Y-88492108D01*
X122208611Y-88488184D01*
X122357720Y-88371687D01*
X122363023Y-88366637D01*
X122486664Y-88223397D01*
X122490886Y-88217412D01*
X122535999Y-88138000D01*
X126617389Y-88138000D01*
X126636115Y-88256233D01*
X126638802Y-88261506D01*
X126677175Y-88336817D01*
X126690461Y-88362893D01*
X126775107Y-88447539D01*
X126780383Y-88450227D01*
X126780384Y-88450228D01*
X126824813Y-88472865D01*
X126881767Y-88501885D01*
X127000000Y-88520611D01*
X127118233Y-88501885D01*
X127175187Y-88472865D01*
X127219616Y-88450228D01*
X127219617Y-88450227D01*
X127224893Y-88447539D01*
X127309539Y-88362893D01*
X127322826Y-88336817D01*
X127361198Y-88261506D01*
X127363885Y-88256233D01*
X127382611Y-88138000D01*
X127363885Y-88019767D01*
X127309539Y-87913107D01*
X127224893Y-87828461D01*
X127193645Y-87812539D01*
X127130085Y-87780154D01*
X127118233Y-87774115D01*
X127000000Y-87755389D01*
X126881767Y-87774115D01*
X126869915Y-87780154D01*
X126806356Y-87812539D01*
X126775107Y-87828461D01*
X126690461Y-87913107D01*
X126636115Y-88019767D01*
X126617389Y-88138000D01*
X122535999Y-88138000D01*
X122584354Y-88052880D01*
X122587328Y-88046200D01*
X122647059Y-87866641D01*
X122648680Y-87859507D01*
X122658704Y-87780154D01*
X122656310Y-87769615D01*
X122652865Y-87767000D01*
X121806259Y-87767000D01*
X121796102Y-87770697D01*
X121793000Y-87776069D01*
X121793000Y-88622375D01*
X121539000Y-88622375D01*
X121539000Y-87780259D01*
X121535303Y-87770102D01*
X121529931Y-87767000D01*
X120683953Y-87767000D01*
X120673796Y-87770697D01*
X120671359Y-87774918D01*
X105918716Y-87774918D01*
X105918716Y-87630000D01*
X162431389Y-87630000D01*
X162450115Y-87748233D01*
X162504461Y-87854893D01*
X162589107Y-87939539D01*
X162695767Y-87993885D01*
X162814000Y-88012611D01*
X162932233Y-87993885D01*
X163038893Y-87939539D01*
X163123539Y-87854893D01*
X163177885Y-87748233D01*
X163196611Y-87630000D01*
X163195223Y-87621233D01*
X163178811Y-87517614D01*
X163177885Y-87511767D01*
X163173418Y-87503000D01*
X168019389Y-87503000D01*
X168020315Y-87508847D01*
X168020973Y-87513000D01*
X168038115Y-87621233D01*
X168092461Y-87727893D01*
X168177107Y-87812539D01*
X168182383Y-87815227D01*
X168182384Y-87815228D01*
X168216579Y-87832651D01*
X168283767Y-87866885D01*
X168402000Y-87885611D01*
X168520233Y-87866885D01*
X168587421Y-87832651D01*
X168621616Y-87815228D01*
X168621617Y-87815227D01*
X168626893Y-87812539D01*
X168711539Y-87727893D01*
X168765885Y-87621233D01*
X168783027Y-87513000D01*
X168783685Y-87508847D01*
X168784611Y-87503000D01*
X168765885Y-87384767D01*
X168711539Y-87278107D01*
X168626893Y-87193461D01*
X168520233Y-87139115D01*
X168402000Y-87120389D01*
X168283767Y-87139115D01*
X168177107Y-87193461D01*
X168092461Y-87278107D01*
X168038115Y-87384767D01*
X168019389Y-87503000D01*
X163173418Y-87503000D01*
X163141744Y-87440836D01*
X163126228Y-87410384D01*
X163126227Y-87410383D01*
X163123539Y-87405107D01*
X163038893Y-87320461D01*
X162932233Y-87266115D01*
X162873116Y-87256752D01*
X162819847Y-87248315D01*
X162814000Y-87247389D01*
X162808153Y-87248315D01*
X162754884Y-87256752D01*
X162695767Y-87266115D01*
X162589107Y-87320461D01*
X162504461Y-87405107D01*
X162501773Y-87410383D01*
X162501772Y-87410384D01*
X162486256Y-87440836D01*
X162450115Y-87511767D01*
X162449189Y-87517614D01*
X162432778Y-87621233D01*
X162431389Y-87630000D01*
X105918716Y-87630000D01*
X105918716Y-87499821D01*
X120672994Y-87499821D01*
X120675537Y-87510330D01*
X120679158Y-87513000D01*
X121525741Y-87513000D01*
X121535898Y-87509303D01*
X121539000Y-87503931D01*
X121539000Y-87499741D01*
X121793000Y-87499741D01*
X121796697Y-87509898D01*
X121802069Y-87513000D01*
X122647539Y-87513000D01*
X122657696Y-87509303D01*
X122660038Y-87505247D01*
X122654426Y-87448015D01*
X122653004Y-87440836D01*
X122598312Y-87259688D01*
X122595524Y-87252922D01*
X122506684Y-87085839D01*
X122502639Y-87079751D01*
X122383041Y-86933109D01*
X122377878Y-86927910D01*
X122232078Y-86807294D01*
X122226016Y-86803205D01*
X122059557Y-86713201D01*
X122052813Y-86710366D01*
X121872047Y-86654410D01*
X121864880Y-86652939D01*
X121806186Y-86646770D01*
X121795700Y-86649384D01*
X121793000Y-86653100D01*
X121793000Y-87499741D01*
X121539000Y-87499741D01*
X121539000Y-86658231D01*
X121535303Y-86648074D01*
X121531166Y-86645685D01*
X121480927Y-86650257D01*
X121473728Y-86651631D01*
X121292208Y-86705055D01*
X121285421Y-86707797D01*
X121117721Y-86795468D01*
X121111603Y-86799472D01*
X120964128Y-86918044D01*
X120958903Y-86923161D01*
X120837266Y-87068122D01*
X120833132Y-87074160D01*
X120741975Y-87239975D01*
X120739088Y-87246711D01*
X120681874Y-87427074D01*
X120680351Y-87434239D01*
X120672994Y-87499821D01*
X105918716Y-87499821D01*
X105918716Y-85085930D01*
X120658345Y-85085930D01*
X120658653Y-85089598D01*
X120658653Y-85089601D01*
X120661889Y-85128138D01*
X120674803Y-85281919D01*
X120729015Y-85470979D01*
X120818916Y-85645908D01*
X120941083Y-85800044D01*
X120943877Y-85802422D01*
X120943878Y-85802423D01*
X120978691Y-85832051D01*
X121090862Y-85927516D01*
X121094063Y-85929305D01*
X121094066Y-85929307D01*
X121132656Y-85950874D01*
X121262547Y-86023467D01*
X121266044Y-86024603D01*
X121266048Y-86024605D01*
X121358615Y-86054681D01*
X121449600Y-86084244D01*
X121556984Y-86097049D01*
X121641237Y-86107096D01*
X121641239Y-86107096D01*
X121644895Y-86107532D01*
X121840994Y-86092443D01*
X121955061Y-86060595D01*
X122026883Y-86040542D01*
X122026885Y-86040541D01*
X122030428Y-86039552D01*
X122205981Y-85950874D01*
X122360966Y-85829786D01*
X122489480Y-85680901D01*
X122586628Y-85509890D01*
X122648710Y-85323266D01*
X122673360Y-85128138D01*
X122673753Y-85100000D01*
X122673548Y-85097907D01*
X122654921Y-84907927D01*
X122654920Y-84907922D01*
X122654561Y-84904260D01*
X122597714Y-84715975D01*
X122505379Y-84542318D01*
X122381072Y-84389903D01*
X122229528Y-84264535D01*
X122056520Y-84170990D01*
X121868637Y-84112830D01*
X121745766Y-84099916D01*
X121676690Y-84092656D01*
X121676689Y-84092656D01*
X121673035Y-84092272D01*
X121575101Y-84101184D01*
X121480824Y-84109764D01*
X121480823Y-84109764D01*
X121477166Y-84110097D01*
X121473641Y-84111134D01*
X121473638Y-84111135D01*
X121292019Y-84164589D01*
X121288489Y-84165628D01*
X121114192Y-84256748D01*
X121094649Y-84272461D01*
X120994582Y-84352917D01*
X120960912Y-84379988D01*
X120834489Y-84530653D01*
X120832718Y-84533875D01*
X120832717Y-84533876D01*
X120744477Y-84694386D01*
X120739739Y-84703004D01*
X120680269Y-84890476D01*
X120658345Y-85085930D01*
X105918716Y-85085930D01*
X105918716Y-83693000D01*
X127760389Y-83693000D01*
X127779115Y-83811233D01*
X127833461Y-83917893D01*
X127918107Y-84002539D01*
X128024767Y-84056885D01*
X128143000Y-84075611D01*
X128261233Y-84056885D01*
X128367893Y-84002539D01*
X128452539Y-83917893D01*
X128506885Y-83811233D01*
X128525611Y-83693000D01*
X138428389Y-83693000D01*
X138447115Y-83811233D01*
X138501461Y-83917893D01*
X138586107Y-84002539D01*
X138692767Y-84056885D01*
X138811000Y-84075611D01*
X138929233Y-84056885D01*
X139035893Y-84002539D01*
X139120539Y-83917893D01*
X139174885Y-83811233D01*
X139193611Y-83693000D01*
X162431389Y-83693000D01*
X162450115Y-83811233D01*
X162504461Y-83917893D01*
X162589107Y-84002539D01*
X162695767Y-84056885D01*
X162814000Y-84075611D01*
X162932233Y-84056885D01*
X163038893Y-84002539D01*
X163094432Y-83947000D01*
X168146389Y-83947000D01*
X168165115Y-84065233D01*
X168219461Y-84171893D01*
X168304107Y-84256539D01*
X168309383Y-84259227D01*
X168309384Y-84259228D01*
X168343579Y-84276651D01*
X168410767Y-84310885D01*
X168529000Y-84329611D01*
X168647233Y-84310885D01*
X168714421Y-84276651D01*
X168748616Y-84259228D01*
X168748617Y-84259227D01*
X168753893Y-84256539D01*
X168809432Y-84201000D01*
X170686389Y-84201000D01*
X170705115Y-84319233D01*
X170759461Y-84425893D01*
X170844107Y-84510539D01*
X170950767Y-84564885D01*
X171069000Y-84583611D01*
X171079172Y-84582000D01*
X177163389Y-84582000D01*
X177182115Y-84700233D01*
X177236461Y-84806893D01*
X177321107Y-84891539D01*
X177427767Y-84945885D01*
X177546000Y-84964611D01*
X177664233Y-84945885D01*
X177770893Y-84891539D01*
X177855539Y-84806893D01*
X177909885Y-84700233D01*
X177928611Y-84582000D01*
X177921876Y-84539473D01*
X177910811Y-84469614D01*
X177909885Y-84463767D01*
X177868631Y-84382802D01*
X177858228Y-84362384D01*
X177858227Y-84362383D01*
X177855539Y-84357107D01*
X177770893Y-84272461D01*
X177755338Y-84264535D01*
X177721187Y-84247135D01*
X177664233Y-84218115D01*
X177546000Y-84199389D01*
X177427767Y-84218115D01*
X177370813Y-84247135D01*
X177336663Y-84264535D01*
X177321107Y-84272461D01*
X177236461Y-84357107D01*
X177233773Y-84362383D01*
X177233772Y-84362384D01*
X177223369Y-84382802D01*
X177182115Y-84463767D01*
X177181189Y-84469614D01*
X177170125Y-84539473D01*
X177163389Y-84582000D01*
X171079172Y-84582000D01*
X171187233Y-84564885D01*
X171293893Y-84510539D01*
X171378539Y-84425893D01*
X171432885Y-84319233D01*
X171451611Y-84201000D01*
X171432885Y-84082767D01*
X171378539Y-83976107D01*
X171293893Y-83891461D01*
X171187233Y-83837115D01*
X171069000Y-83818389D01*
X170950767Y-83837115D01*
X170844107Y-83891461D01*
X170759461Y-83976107D01*
X170705115Y-84082767D01*
X170686389Y-84201000D01*
X168809432Y-84201000D01*
X168838539Y-84171893D01*
X168892885Y-84065233D01*
X168911611Y-83947000D01*
X168892885Y-83828767D01*
X168838539Y-83722107D01*
X168753893Y-83637461D01*
X168647233Y-83583115D01*
X168549343Y-83567611D01*
X168534847Y-83565315D01*
X168529000Y-83564389D01*
X168523153Y-83565315D01*
X168508657Y-83567611D01*
X168410767Y-83583115D01*
X168304107Y-83637461D01*
X168219461Y-83722107D01*
X168165115Y-83828767D01*
X168146389Y-83947000D01*
X163094432Y-83947000D01*
X163123539Y-83917893D01*
X163177885Y-83811233D01*
X163196611Y-83693000D01*
X163177885Y-83574767D01*
X163148865Y-83517813D01*
X163126228Y-83473384D01*
X163126227Y-83473383D01*
X163123539Y-83468107D01*
X163038893Y-83383461D01*
X162932233Y-83329115D01*
X162814000Y-83310389D01*
X162695767Y-83329115D01*
X162589107Y-83383461D01*
X162504461Y-83468107D01*
X162501773Y-83473383D01*
X162501772Y-83473384D01*
X162479135Y-83517813D01*
X162450115Y-83574767D01*
X162431389Y-83693000D01*
X139193611Y-83693000D01*
X139174885Y-83574767D01*
X139145865Y-83517813D01*
X139123228Y-83473384D01*
X139123227Y-83473383D01*
X139120539Y-83468107D01*
X139035893Y-83383461D01*
X138929233Y-83329115D01*
X138811000Y-83310389D01*
X138692767Y-83329115D01*
X138586107Y-83383461D01*
X138501461Y-83468107D01*
X138498773Y-83473383D01*
X138498772Y-83473384D01*
X138476135Y-83517813D01*
X138447115Y-83574767D01*
X138428389Y-83693000D01*
X128525611Y-83693000D01*
X128506885Y-83574767D01*
X128477865Y-83517813D01*
X128455228Y-83473384D01*
X128455227Y-83473383D01*
X128452539Y-83468107D01*
X128367893Y-83383461D01*
X128261233Y-83329115D01*
X128143000Y-83310389D01*
X128024767Y-83329115D01*
X127918107Y-83383461D01*
X127833461Y-83468107D01*
X127830773Y-83473383D01*
X127830772Y-83473384D01*
X127808135Y-83517813D01*
X127779115Y-83574767D01*
X127760389Y-83693000D01*
X105918716Y-83693000D01*
X105918716Y-82545930D01*
X120658345Y-82545930D01*
X120658653Y-82549598D01*
X120658653Y-82549601D01*
X120661889Y-82588138D01*
X120674803Y-82741919D01*
X120729015Y-82930979D01*
X120818916Y-83105908D01*
X120941083Y-83260044D01*
X120943877Y-83262422D01*
X120943878Y-83262423D01*
X121000238Y-83310389D01*
X121090862Y-83387516D01*
X121094063Y-83389305D01*
X121094066Y-83389307D01*
X121130901Y-83409893D01*
X121262547Y-83483467D01*
X121266044Y-83484603D01*
X121266048Y-83484605D01*
X121358615Y-83514681D01*
X121449600Y-83544244D01*
X121556984Y-83557049D01*
X121641237Y-83567096D01*
X121641239Y-83567096D01*
X121644895Y-83567532D01*
X121840994Y-83552443D01*
X121955061Y-83520595D01*
X122026883Y-83500542D01*
X122026885Y-83500541D01*
X122030428Y-83499552D01*
X122111305Y-83458698D01*
X122202697Y-83412533D01*
X122202698Y-83412532D01*
X122205981Y-83410874D01*
X122343755Y-83303233D01*
X122358067Y-83292051D01*
X122360966Y-83289786D01*
X122451415Y-83185000D01*
X128649389Y-83185000D01*
X128668115Y-83303233D01*
X128722461Y-83409893D01*
X128807107Y-83494539D01*
X128812383Y-83497227D01*
X128812384Y-83497228D01*
X128856813Y-83519865D01*
X128913767Y-83548885D01*
X129032000Y-83567611D01*
X129150233Y-83548885D01*
X129207187Y-83519865D01*
X129251616Y-83497228D01*
X129251617Y-83497227D01*
X129256893Y-83494539D01*
X129341539Y-83409893D01*
X129395885Y-83303233D01*
X129414611Y-83185000D01*
X129395885Y-83066767D01*
X129346524Y-82969890D01*
X129344228Y-82965384D01*
X129344227Y-82965383D01*
X129341539Y-82960107D01*
X129256893Y-82875461D01*
X129225645Y-82859539D01*
X129207187Y-82850135D01*
X129150233Y-82821115D01*
X129032000Y-82802389D01*
X128913767Y-82821115D01*
X128856813Y-82850135D01*
X128838356Y-82859539D01*
X128807107Y-82875461D01*
X128722461Y-82960107D01*
X128719773Y-82965383D01*
X128719772Y-82965384D01*
X128717476Y-82969890D01*
X128668115Y-83066767D01*
X128649389Y-83185000D01*
X122451415Y-83185000D01*
X122489480Y-83140901D01*
X122586628Y-82969890D01*
X122624731Y-82855349D01*
X122647548Y-82786760D01*
X122647549Y-82786757D01*
X122648710Y-82783266D01*
X122673360Y-82588138D01*
X122673753Y-82560000D01*
X122672773Y-82550000D01*
X139063389Y-82550000D01*
X139082115Y-82668233D01*
X139136461Y-82774893D01*
X139221107Y-82859539D01*
X139226383Y-82862227D01*
X139226384Y-82862228D01*
X139260579Y-82879651D01*
X139327767Y-82913885D01*
X139333614Y-82914811D01*
X139435696Y-82930979D01*
X139446000Y-82932611D01*
X139456305Y-82930979D01*
X139558386Y-82914811D01*
X139564233Y-82913885D01*
X139631421Y-82879651D01*
X139665616Y-82862228D01*
X139665617Y-82862227D01*
X139670893Y-82859539D01*
X139755539Y-82774893D01*
X139809885Y-82668233D01*
X139828611Y-82550000D01*
X139809885Y-82431767D01*
X139777357Y-82367927D01*
X139758228Y-82330384D01*
X139758227Y-82330383D01*
X139755539Y-82325107D01*
X139670893Y-82240461D01*
X139564233Y-82186115D01*
X139446000Y-82167389D01*
X139327767Y-82186115D01*
X139221107Y-82240461D01*
X139136461Y-82325107D01*
X139133773Y-82330383D01*
X139133772Y-82330384D01*
X139114643Y-82367927D01*
X139082115Y-82431767D01*
X139063389Y-82550000D01*
X122672773Y-82550000D01*
X122654921Y-82367927D01*
X122654920Y-82367922D01*
X122654561Y-82364260D01*
X122597714Y-82175975D01*
X122505379Y-82002318D01*
X122381072Y-81849903D01*
X122306244Y-81788000D01*
X129284389Y-81788000D01*
X129303115Y-81906233D01*
X129357461Y-82012893D01*
X129442107Y-82097539D01*
X129548767Y-82151885D01*
X129667000Y-82170611D01*
X129785233Y-82151885D01*
X129891893Y-82097539D01*
X129947432Y-82042000D01*
X134110389Y-82042000D01*
X134129115Y-82160233D01*
X134183461Y-82266893D01*
X134268107Y-82351539D01*
X134374767Y-82405885D01*
X134493000Y-82424611D01*
X134611233Y-82405885D01*
X134717893Y-82351539D01*
X134802539Y-82266893D01*
X134856885Y-82160233D01*
X134875611Y-82042000D01*
X134868876Y-81999473D01*
X134857811Y-81929614D01*
X134856885Y-81923767D01*
X134815631Y-81842802D01*
X134805228Y-81822384D01*
X134805227Y-81822383D01*
X134802539Y-81817107D01*
X134717893Y-81732461D01*
X134702338Y-81724535D01*
X134668187Y-81707135D01*
X134611233Y-81678115D01*
X134493000Y-81659389D01*
X134374767Y-81678115D01*
X134317813Y-81707135D01*
X134283663Y-81724535D01*
X134268107Y-81732461D01*
X134183461Y-81817107D01*
X134180773Y-81822383D01*
X134180772Y-81822384D01*
X134170369Y-81842802D01*
X134129115Y-81923767D01*
X134128189Y-81929614D01*
X134117125Y-81999473D01*
X134110389Y-82042000D01*
X129947432Y-82042000D01*
X129976539Y-82012893D01*
X130030885Y-81906233D01*
X130049611Y-81788000D01*
X130048223Y-81779233D01*
X130032207Y-81678115D01*
X130030885Y-81669767D01*
X129981493Y-81572830D01*
X129979228Y-81568384D01*
X129979227Y-81568383D01*
X129976539Y-81563107D01*
X129891893Y-81478461D01*
X129785233Y-81424115D01*
X129667000Y-81405389D01*
X129548767Y-81424115D01*
X129442107Y-81478461D01*
X129357461Y-81563107D01*
X129354773Y-81568383D01*
X129354772Y-81568384D01*
X129352507Y-81572830D01*
X129303115Y-81669767D01*
X129301793Y-81678115D01*
X129285778Y-81779233D01*
X129284389Y-81788000D01*
X122306244Y-81788000D01*
X122229528Y-81724535D01*
X122056520Y-81630990D01*
X121868637Y-81572830D01*
X121736260Y-81558917D01*
X121676690Y-81552656D01*
X121676689Y-81552656D01*
X121673035Y-81552272D01*
X121600017Y-81558917D01*
X121480824Y-81569764D01*
X121480823Y-81569764D01*
X121477166Y-81570097D01*
X121473641Y-81571134D01*
X121473638Y-81571135D01*
X121292019Y-81624589D01*
X121288489Y-81625628D01*
X121114192Y-81716748D01*
X121061774Y-81758893D01*
X120994582Y-81812917D01*
X120960912Y-81839988D01*
X120834489Y-81990653D01*
X120832718Y-81993875D01*
X120832717Y-81993876D01*
X120778032Y-82093349D01*
X120739739Y-82163004D01*
X120680269Y-82350476D01*
X120658345Y-82545930D01*
X105918716Y-82545930D01*
X105918716Y-80391000D01*
X112520389Y-80391000D01*
X112539115Y-80509233D01*
X112593461Y-80615893D01*
X112678107Y-80700539D01*
X112784767Y-80754885D01*
X112903000Y-80773611D01*
X113021233Y-80754885D01*
X113127893Y-80700539D01*
X113212539Y-80615893D01*
X113266885Y-80509233D01*
X113285611Y-80391000D01*
X113284223Y-80382233D01*
X113267811Y-80278614D01*
X113266885Y-80272767D01*
X113212539Y-80166107D01*
X113127893Y-80081461D01*
X113096645Y-80065539D01*
X113055125Y-80044384D01*
X113021233Y-80027115D01*
X112903000Y-80008389D01*
X112784767Y-80027115D01*
X112750875Y-80044384D01*
X112709356Y-80065539D01*
X112678107Y-80081461D01*
X112593461Y-80166107D01*
X112539115Y-80272767D01*
X112538189Y-80278614D01*
X112521778Y-80382233D01*
X112520389Y-80391000D01*
X105918716Y-80391000D01*
X105918716Y-79756000D01*
X110869389Y-79756000D01*
X110888115Y-79874233D01*
X110942461Y-79980893D01*
X111027107Y-80065539D01*
X111032383Y-80068227D01*
X111032384Y-80068228D01*
X111066579Y-80085651D01*
X111133767Y-80119885D01*
X111252000Y-80138611D01*
X111370233Y-80119885D01*
X111437421Y-80085651D01*
X111471616Y-80068228D01*
X111471617Y-80068227D01*
X111476893Y-80065539D01*
X111561539Y-79980893D01*
X111615885Y-79874233D01*
X111634611Y-79756000D01*
X111633223Y-79747233D01*
X111616811Y-79643614D01*
X111615885Y-79637767D01*
X111561539Y-79531107D01*
X111476893Y-79446461D01*
X111370233Y-79392115D01*
X111252000Y-79373389D01*
X111133767Y-79392115D01*
X111027107Y-79446461D01*
X110942461Y-79531107D01*
X110888115Y-79637767D01*
X110887189Y-79643614D01*
X110870778Y-79747233D01*
X110869389Y-79756000D01*
X105918716Y-79756000D01*
X105918716Y-79154943D01*
X120663100Y-79154943D01*
X120663101Y-80885056D01*
X120671972Y-80929658D01*
X120705766Y-80980234D01*
X120711923Y-80984348D01*
X120750183Y-81009913D01*
X120750184Y-81009914D01*
X120756342Y-81014028D01*
X120800943Y-81022900D01*
X121665882Y-81022900D01*
X122531056Y-81022899D01*
X122575658Y-81014028D01*
X122626234Y-80980234D01*
X122660028Y-80929658D01*
X122664963Y-80904847D01*
X122666126Y-80899000D01*
X129792389Y-80899000D01*
X129811115Y-81017233D01*
X129865461Y-81123893D01*
X129950107Y-81208539D01*
X129955383Y-81211227D01*
X129955384Y-81211228D01*
X129989579Y-81228651D01*
X130056767Y-81262885D01*
X130175000Y-81281611D01*
X130293233Y-81262885D01*
X130360421Y-81228651D01*
X130394616Y-81211228D01*
X130394617Y-81211227D01*
X130399893Y-81208539D01*
X130484539Y-81123893D01*
X130538885Y-81017233D01*
X130557611Y-80899000D01*
X137285389Y-80899000D01*
X137304115Y-81017233D01*
X137358461Y-81123893D01*
X137443107Y-81208539D01*
X137448383Y-81211227D01*
X137448384Y-81211228D01*
X137482579Y-81228651D01*
X137549767Y-81262885D01*
X137668000Y-81281611D01*
X137786233Y-81262885D01*
X137853421Y-81228651D01*
X137887616Y-81211228D01*
X137887617Y-81211227D01*
X137892893Y-81208539D01*
X137977539Y-81123893D01*
X138031885Y-81017233D01*
X138050611Y-80899000D01*
X138049223Y-80890233D01*
X138032811Y-80786614D01*
X138031885Y-80780767D01*
X138027418Y-80772000D01*
X139825389Y-80772000D01*
X139826315Y-80777847D01*
X139827704Y-80786614D01*
X139844115Y-80890233D01*
X139898461Y-80996893D01*
X139983107Y-81081539D01*
X140089767Y-81135885D01*
X140095614Y-81136811D01*
X140147656Y-81145054D01*
X140192646Y-81169993D01*
X140211081Y-81218016D01*
X140194333Y-81266653D01*
X140189066Y-81272502D01*
X140152461Y-81309107D01*
X140098115Y-81415767D01*
X140079389Y-81534000D01*
X140080315Y-81539847D01*
X140085478Y-81572446D01*
X140098115Y-81652233D01*
X140152461Y-81758893D01*
X140237107Y-81843539D01*
X140242383Y-81846227D01*
X140242384Y-81846228D01*
X140249597Y-81849903D01*
X140343767Y-81897885D01*
X140462000Y-81916611D01*
X140580233Y-81897885D01*
X140674403Y-81849903D01*
X140681616Y-81846228D01*
X140681617Y-81846227D01*
X140686893Y-81843539D01*
X140771539Y-81758893D01*
X140821418Y-81661000D01*
X147445389Y-81661000D01*
X147446315Y-81666847D01*
X147447704Y-81675614D01*
X147464115Y-81779233D01*
X147518461Y-81885893D01*
X147603107Y-81970539D01*
X147709767Y-82024885D01*
X147828000Y-82043611D01*
X147946233Y-82024885D01*
X148052893Y-81970539D01*
X148137539Y-81885893D01*
X148191885Y-81779233D01*
X148208296Y-81675614D01*
X148209685Y-81666847D01*
X148210611Y-81661000D01*
X148209223Y-81652233D01*
X148192811Y-81548614D01*
X148191885Y-81542767D01*
X148137539Y-81436107D01*
X148052893Y-81351461D01*
X147946233Y-81297115D01*
X147828000Y-81278389D01*
X147709767Y-81297115D01*
X147603107Y-81351461D01*
X147518461Y-81436107D01*
X147464115Y-81542767D01*
X147463189Y-81548614D01*
X147446778Y-81652233D01*
X147445389Y-81661000D01*
X140821418Y-81661000D01*
X140825885Y-81652233D01*
X140838522Y-81572446D01*
X140843685Y-81539847D01*
X140844611Y-81534000D01*
X140825885Y-81415767D01*
X140771539Y-81309107D01*
X140686893Y-81224461D01*
X140655645Y-81208539D01*
X140637187Y-81199135D01*
X140580233Y-81170115D01*
X140567743Y-81168137D01*
X140522344Y-81160946D01*
X140477354Y-81136007D01*
X140458919Y-81087984D01*
X140475667Y-81039347D01*
X140480934Y-81033498D01*
X140517539Y-80996893D01*
X140571885Y-80890233D01*
X140588296Y-80786614D01*
X140589685Y-80777847D01*
X140590611Y-80772000D01*
X140571885Y-80653767D01*
X140517539Y-80547107D01*
X140432893Y-80462461D01*
X140326233Y-80408115D01*
X140218172Y-80391000D01*
X162812389Y-80391000D01*
X162831115Y-80509233D01*
X162885461Y-80615893D01*
X162970107Y-80700539D01*
X163076767Y-80754885D01*
X163195000Y-80773611D01*
X163313233Y-80754885D01*
X163419893Y-80700539D01*
X163504539Y-80615893D01*
X163558885Y-80509233D01*
X163577611Y-80391000D01*
X163576223Y-80382233D01*
X163559811Y-80278614D01*
X163558885Y-80272767D01*
X163554418Y-80264000D01*
X172337389Y-80264000D01*
X172338315Y-80269847D01*
X172339704Y-80278614D01*
X172356115Y-80382233D01*
X172410461Y-80488893D01*
X172495107Y-80573539D01*
X172500383Y-80576227D01*
X172500384Y-80576228D01*
X172534579Y-80593651D01*
X172601767Y-80627885D01*
X172720000Y-80646611D01*
X172838233Y-80627885D01*
X172905421Y-80593651D01*
X172939616Y-80576228D01*
X172939617Y-80576227D01*
X172944893Y-80573539D01*
X173029539Y-80488893D01*
X173083885Y-80382233D01*
X173100296Y-80278614D01*
X173101685Y-80269847D01*
X173102611Y-80264000D01*
X173083885Y-80145767D01*
X173029539Y-80039107D01*
X172944893Y-79954461D01*
X172913645Y-79938539D01*
X172895187Y-79929135D01*
X172838233Y-79900115D01*
X172720000Y-79881389D01*
X172601767Y-79900115D01*
X172544813Y-79929135D01*
X172526356Y-79938539D01*
X172495107Y-79954461D01*
X172410461Y-80039107D01*
X172356115Y-80145767D01*
X172337389Y-80264000D01*
X163554418Y-80264000D01*
X163504539Y-80166107D01*
X163419893Y-80081461D01*
X163388645Y-80065539D01*
X163347125Y-80044384D01*
X163313233Y-80027115D01*
X163195000Y-80008389D01*
X163076767Y-80027115D01*
X163042875Y-80044384D01*
X163001356Y-80065539D01*
X162970107Y-80081461D01*
X162885461Y-80166107D01*
X162831115Y-80272767D01*
X162830189Y-80278614D01*
X162813778Y-80382233D01*
X162812389Y-80391000D01*
X140218172Y-80391000D01*
X140208000Y-80389389D01*
X140089767Y-80408115D01*
X139983107Y-80462461D01*
X139898461Y-80547107D01*
X139844115Y-80653767D01*
X139825389Y-80772000D01*
X138027418Y-80772000D01*
X137977539Y-80674107D01*
X137892893Y-80589461D01*
X137861645Y-80573539D01*
X137820125Y-80552384D01*
X137786233Y-80535115D01*
X137668000Y-80516389D01*
X137549767Y-80535115D01*
X137515875Y-80552384D01*
X137474356Y-80573539D01*
X137443107Y-80589461D01*
X137358461Y-80674107D01*
X137304115Y-80780767D01*
X137303189Y-80786614D01*
X137286778Y-80890233D01*
X137285389Y-80899000D01*
X130557611Y-80899000D01*
X130556223Y-80890233D01*
X130539811Y-80786614D01*
X130538885Y-80780767D01*
X130484539Y-80674107D01*
X130399893Y-80589461D01*
X130368645Y-80573539D01*
X130327125Y-80552384D01*
X130293233Y-80535115D01*
X130175000Y-80516389D01*
X130056767Y-80535115D01*
X130022875Y-80552384D01*
X129981356Y-80573539D01*
X129950107Y-80589461D01*
X129865461Y-80674107D01*
X129811115Y-80780767D01*
X129810189Y-80786614D01*
X129793778Y-80890233D01*
X129792389Y-80899000D01*
X122666126Y-80899000D01*
X122668179Y-80888682D01*
X122668179Y-80888681D01*
X122668900Y-80885057D01*
X122668899Y-79629000D01*
X170686389Y-79629000D01*
X170687315Y-79634847D01*
X170688704Y-79643614D01*
X170705115Y-79747233D01*
X170759461Y-79853893D01*
X170844107Y-79938539D01*
X170849383Y-79941227D01*
X170849384Y-79941228D01*
X170883579Y-79958651D01*
X170950767Y-79992885D01*
X171069000Y-80011611D01*
X171187233Y-79992885D01*
X171254421Y-79958651D01*
X171288616Y-79941228D01*
X171288617Y-79941227D01*
X171293893Y-79938539D01*
X171378539Y-79853893D01*
X171432885Y-79747233D01*
X171449296Y-79643614D01*
X171450685Y-79634847D01*
X171451611Y-79629000D01*
X171432885Y-79510767D01*
X171378539Y-79404107D01*
X171293893Y-79319461D01*
X171187233Y-79265115D01*
X171069000Y-79246389D01*
X170950767Y-79265115D01*
X170844107Y-79319461D01*
X170759461Y-79404107D01*
X170705115Y-79510767D01*
X170686389Y-79629000D01*
X122668899Y-79629000D01*
X122668899Y-79154944D01*
X122660028Y-79110342D01*
X122626234Y-79059766D01*
X122581818Y-79030088D01*
X122581816Y-79030086D01*
X122575658Y-79025972D01*
X122531057Y-79017100D01*
X121666118Y-79017100D01*
X120800944Y-79017101D01*
X120756342Y-79025972D01*
X120705766Y-79059766D01*
X120671972Y-79110342D01*
X120663100Y-79154943D01*
X105918716Y-79154943D01*
X105918716Y-77597000D01*
X110107389Y-77597000D01*
X110126115Y-77715233D01*
X110180461Y-77821893D01*
X110265107Y-77906539D01*
X110371767Y-77960885D01*
X110490000Y-77979611D01*
X110608233Y-77960885D01*
X110714893Y-77906539D01*
X110770432Y-77851000D01*
X125220389Y-77851000D01*
X125221315Y-77856847D01*
X125222704Y-77865614D01*
X125239115Y-77969233D01*
X125293461Y-78075893D01*
X125378107Y-78160539D01*
X125484767Y-78214885D01*
X125603000Y-78233611D01*
X125721233Y-78214885D01*
X125827893Y-78160539D01*
X125912539Y-78075893D01*
X125962418Y-77978000D01*
X129157389Y-77978000D01*
X129176115Y-78096233D01*
X129230461Y-78202893D01*
X129315107Y-78287539D01*
X129421767Y-78341885D01*
X129540000Y-78360611D01*
X129658233Y-78341885D01*
X129764893Y-78287539D01*
X129849539Y-78202893D01*
X129903885Y-78096233D01*
X129922611Y-77978000D01*
X129921223Y-77969233D01*
X129904811Y-77865614D01*
X129903885Y-77859767D01*
X129849539Y-77753107D01*
X129764893Y-77668461D01*
X129658233Y-77614115D01*
X129540000Y-77595389D01*
X129421767Y-77614115D01*
X129315107Y-77668461D01*
X129230461Y-77753107D01*
X129176115Y-77859767D01*
X129175189Y-77865614D01*
X129158778Y-77969233D01*
X129157389Y-77978000D01*
X125962418Y-77978000D01*
X125966885Y-77969233D01*
X125983296Y-77865614D01*
X125984685Y-77856847D01*
X125985611Y-77851000D01*
X125966885Y-77732767D01*
X125912539Y-77626107D01*
X125827893Y-77541461D01*
X125796645Y-77525539D01*
X125778187Y-77516135D01*
X125721233Y-77487115D01*
X125603000Y-77468389D01*
X125484767Y-77487115D01*
X125427813Y-77516135D01*
X125409356Y-77525539D01*
X125378107Y-77541461D01*
X125293461Y-77626107D01*
X125239115Y-77732767D01*
X125220389Y-77851000D01*
X110770432Y-77851000D01*
X110799539Y-77821893D01*
X110853885Y-77715233D01*
X110872611Y-77597000D01*
X110853885Y-77478767D01*
X110799539Y-77372107D01*
X110714893Y-77287461D01*
X110608233Y-77233115D01*
X110500172Y-77216000D01*
X135380389Y-77216000D01*
X135399115Y-77334233D01*
X135453461Y-77440893D01*
X135538107Y-77525539D01*
X135543383Y-77528227D01*
X135543384Y-77528228D01*
X135577579Y-77545651D01*
X135644767Y-77579885D01*
X135763000Y-77598611D01*
X135881233Y-77579885D01*
X135948421Y-77545651D01*
X135982616Y-77528228D01*
X135982617Y-77528227D01*
X135987893Y-77525539D01*
X136072539Y-77440893D01*
X136126885Y-77334233D01*
X136145611Y-77216000D01*
X169162389Y-77216000D01*
X169181115Y-77334233D01*
X169235461Y-77440893D01*
X169320107Y-77525539D01*
X169325383Y-77528227D01*
X169325384Y-77528228D01*
X169359579Y-77545651D01*
X169426767Y-77579885D01*
X169545000Y-77598611D01*
X169663233Y-77579885D01*
X169730421Y-77545651D01*
X169764616Y-77528228D01*
X169764617Y-77528227D01*
X169769893Y-77525539D01*
X169854539Y-77440893D01*
X169908885Y-77334233D01*
X169927611Y-77216000D01*
X169908885Y-77097767D01*
X169854539Y-76991107D01*
X169769893Y-76906461D01*
X169663233Y-76852115D01*
X169545000Y-76833389D01*
X169426767Y-76852115D01*
X169320107Y-76906461D01*
X169235461Y-76991107D01*
X169181115Y-77097767D01*
X169162389Y-77216000D01*
X136145611Y-77216000D01*
X136126885Y-77097767D01*
X136072539Y-76991107D01*
X135987893Y-76906461D01*
X135881233Y-76852115D01*
X135763000Y-76833389D01*
X135644767Y-76852115D01*
X135538107Y-76906461D01*
X135453461Y-76991107D01*
X135399115Y-77097767D01*
X135380389Y-77216000D01*
X110500172Y-77216000D01*
X110490000Y-77214389D01*
X110371767Y-77233115D01*
X110265107Y-77287461D01*
X110180461Y-77372107D01*
X110126115Y-77478767D01*
X110107389Y-77597000D01*
X105918716Y-77597000D01*
X105918716Y-76315227D01*
X129031606Y-76315227D01*
X129031885Y-76316269D01*
X129035026Y-76318999D01*
X129075829Y-76339789D01*
X129086949Y-76343402D01*
X129201153Y-76361490D01*
X129212847Y-76361490D01*
X129327051Y-76343402D01*
X129338171Y-76339789D01*
X129375387Y-76320827D01*
X129380609Y-76315227D01*
X130231606Y-76315227D01*
X130231885Y-76316269D01*
X130235026Y-76318999D01*
X130275829Y-76339789D01*
X130286949Y-76343402D01*
X130401153Y-76361490D01*
X130412847Y-76361490D01*
X130527051Y-76343402D01*
X130538171Y-76339789D01*
X130575387Y-76320827D01*
X130580609Y-76315227D01*
X131431606Y-76315227D01*
X131431885Y-76316269D01*
X131435026Y-76318999D01*
X131475829Y-76339789D01*
X131486949Y-76343402D01*
X131601153Y-76361490D01*
X131612847Y-76361490D01*
X131727051Y-76343402D01*
X131738171Y-76339789D01*
X131775387Y-76320827D01*
X131780609Y-76315227D01*
X132631606Y-76315227D01*
X132631885Y-76316269D01*
X132635026Y-76318999D01*
X132675829Y-76339789D01*
X132686949Y-76343402D01*
X132801153Y-76361490D01*
X132812847Y-76361490D01*
X132927051Y-76343402D01*
X132938171Y-76339789D01*
X132975387Y-76320827D01*
X132980609Y-76315227D01*
X133831606Y-76315227D01*
X133831885Y-76316269D01*
X133835026Y-76318999D01*
X133875829Y-76339789D01*
X133886949Y-76343402D01*
X134001153Y-76361490D01*
X134012847Y-76361490D01*
X134127051Y-76343402D01*
X134138171Y-76339789D01*
X134175387Y-76320827D01*
X134182758Y-76312922D01*
X134182815Y-76311844D01*
X134180672Y-76308278D01*
X134072395Y-76200000D01*
X146302389Y-76200000D01*
X146321115Y-76318233D01*
X146375461Y-76424893D01*
X146460107Y-76509539D01*
X146566767Y-76563885D01*
X146685000Y-76582611D01*
X146803233Y-76563885D01*
X146909893Y-76509539D01*
X146994539Y-76424893D01*
X147048885Y-76318233D01*
X147067611Y-76200000D01*
X147066223Y-76191233D01*
X147049811Y-76087614D01*
X147048885Y-76081767D01*
X147044418Y-76073000D01*
X171448389Y-76073000D01*
X171449315Y-76078847D01*
X171450475Y-76086171D01*
X171467115Y-76191233D01*
X171521461Y-76297893D01*
X171606107Y-76382539D01*
X171712767Y-76436885D01*
X171831000Y-76455611D01*
X171949233Y-76436885D01*
X172055893Y-76382539D01*
X172140539Y-76297893D01*
X172194885Y-76191233D01*
X172211525Y-76086171D01*
X172212685Y-76078847D01*
X172213611Y-76073000D01*
X172194885Y-75954767D01*
X172140539Y-75848107D01*
X172055893Y-75763461D01*
X171949233Y-75709115D01*
X171831000Y-75690389D01*
X171712767Y-75709115D01*
X171606107Y-75763461D01*
X171521461Y-75848107D01*
X171467115Y-75954767D01*
X171448389Y-76073000D01*
X147044418Y-76073000D01*
X146994539Y-75975107D01*
X146909893Y-75890461D01*
X146803233Y-75836115D01*
X146685000Y-75817389D01*
X146566767Y-75836115D01*
X146460107Y-75890461D01*
X146375461Y-75975107D01*
X146321115Y-76081767D01*
X146320189Y-76087614D01*
X146303778Y-76191233D01*
X146302389Y-76200000D01*
X134072395Y-76200000D01*
X134016376Y-76143981D01*
X134006579Y-76139412D01*
X134000587Y-76141018D01*
X133836174Y-76305432D01*
X133831606Y-76315227D01*
X132980609Y-76315227D01*
X132982758Y-76312922D01*
X132982815Y-76311844D01*
X132980672Y-76308278D01*
X132816376Y-76143981D01*
X132806579Y-76139412D01*
X132800587Y-76141018D01*
X132636174Y-76305432D01*
X132631606Y-76315227D01*
X131780609Y-76315227D01*
X131782758Y-76312922D01*
X131782815Y-76311844D01*
X131780672Y-76308278D01*
X131616376Y-76143981D01*
X131606579Y-76139412D01*
X131600587Y-76141018D01*
X131436174Y-76305432D01*
X131431606Y-76315227D01*
X130580609Y-76315227D01*
X130582758Y-76312922D01*
X130582815Y-76311844D01*
X130580672Y-76308278D01*
X130416376Y-76143981D01*
X130406579Y-76139412D01*
X130400587Y-76141018D01*
X130236174Y-76305432D01*
X130231606Y-76315227D01*
X129380609Y-76315227D01*
X129382758Y-76312922D01*
X129382815Y-76311844D01*
X129380672Y-76308278D01*
X129216376Y-76143981D01*
X129206579Y-76139412D01*
X129200587Y-76141018D01*
X129036174Y-76305432D01*
X129031606Y-76315227D01*
X105918716Y-76315227D01*
X105918716Y-75960847D01*
X128800510Y-75960847D01*
X128818598Y-76075051D01*
X128822211Y-76086171D01*
X128841173Y-76123387D01*
X128849078Y-76130758D01*
X128850156Y-76130815D01*
X128853722Y-76128672D01*
X129018019Y-75964376D01*
X129022195Y-75955421D01*
X129391412Y-75955421D01*
X129393018Y-75961413D01*
X129557432Y-76125826D01*
X129567227Y-76130394D01*
X129568269Y-76130115D01*
X129570999Y-76126974D01*
X129591789Y-76086171D01*
X129595402Y-76075051D01*
X129613490Y-75960847D01*
X130000510Y-75960847D01*
X130018598Y-76075051D01*
X130022211Y-76086171D01*
X130041173Y-76123387D01*
X130049078Y-76130758D01*
X130050156Y-76130815D01*
X130053722Y-76128672D01*
X130218019Y-75964376D01*
X130222195Y-75955421D01*
X130591412Y-75955421D01*
X130593018Y-75961413D01*
X130757432Y-76125826D01*
X130767227Y-76130394D01*
X130768269Y-76130115D01*
X130770999Y-76126974D01*
X130791789Y-76086171D01*
X130795402Y-76075051D01*
X130813490Y-75960847D01*
X131200510Y-75960847D01*
X131218598Y-76075051D01*
X131222211Y-76086171D01*
X131241173Y-76123387D01*
X131249078Y-76130758D01*
X131250156Y-76130815D01*
X131253722Y-76128672D01*
X131418019Y-75964376D01*
X131422195Y-75955421D01*
X131791412Y-75955421D01*
X131793018Y-75961413D01*
X131957432Y-76125826D01*
X131967227Y-76130394D01*
X131968269Y-76130115D01*
X131970999Y-76126974D01*
X131991789Y-76086171D01*
X131995402Y-76075051D01*
X132013490Y-75960847D01*
X132400510Y-75960847D01*
X132418598Y-76075051D01*
X132422211Y-76086171D01*
X132441173Y-76123387D01*
X132449078Y-76130758D01*
X132450156Y-76130815D01*
X132453722Y-76128672D01*
X132618019Y-75964376D01*
X132622195Y-75955421D01*
X132991412Y-75955421D01*
X132993018Y-75961413D01*
X133157432Y-76125826D01*
X133167227Y-76130394D01*
X133168269Y-76130115D01*
X133170999Y-76126974D01*
X133191789Y-76086171D01*
X133195402Y-76075051D01*
X133213490Y-75960847D01*
X133600510Y-75960847D01*
X133618598Y-76075051D01*
X133622211Y-76086171D01*
X133641173Y-76123387D01*
X133649078Y-76130758D01*
X133650156Y-76130815D01*
X133653722Y-76128672D01*
X133818019Y-75964376D01*
X133822195Y-75955421D01*
X134191412Y-75955421D01*
X134193018Y-75961413D01*
X134357432Y-76125826D01*
X134367227Y-76130394D01*
X134368269Y-76130115D01*
X134370999Y-76126974D01*
X134391789Y-76086171D01*
X134395402Y-76075051D01*
X134413490Y-75960847D01*
X134413490Y-75949153D01*
X134395402Y-75834949D01*
X134391789Y-75823829D01*
X134372827Y-75786613D01*
X134364922Y-75779242D01*
X134363844Y-75779185D01*
X134360278Y-75781328D01*
X134195981Y-75945624D01*
X134191412Y-75955421D01*
X133822195Y-75955421D01*
X133822588Y-75954579D01*
X133820982Y-75948587D01*
X133656568Y-75784174D01*
X133646773Y-75779606D01*
X133645731Y-75779885D01*
X133643001Y-75783026D01*
X133622211Y-75823829D01*
X133618598Y-75834949D01*
X133600510Y-75949153D01*
X133600510Y-75960847D01*
X133213490Y-75960847D01*
X133213490Y-75949153D01*
X133195402Y-75834949D01*
X133191789Y-75823829D01*
X133172827Y-75786613D01*
X133164922Y-75779242D01*
X133163844Y-75779185D01*
X133160278Y-75781328D01*
X132995981Y-75945624D01*
X132991412Y-75955421D01*
X132622195Y-75955421D01*
X132622588Y-75954579D01*
X132620982Y-75948587D01*
X132456568Y-75784174D01*
X132446773Y-75779606D01*
X132445731Y-75779885D01*
X132443001Y-75783026D01*
X132422211Y-75823829D01*
X132418598Y-75834949D01*
X132400510Y-75949153D01*
X132400510Y-75960847D01*
X132013490Y-75960847D01*
X132013490Y-75949153D01*
X131995402Y-75834949D01*
X131991789Y-75823829D01*
X131972827Y-75786613D01*
X131964922Y-75779242D01*
X131963844Y-75779185D01*
X131960278Y-75781328D01*
X131795981Y-75945624D01*
X131791412Y-75955421D01*
X131422195Y-75955421D01*
X131422588Y-75954579D01*
X131420982Y-75948587D01*
X131256568Y-75784174D01*
X131246773Y-75779606D01*
X131245731Y-75779885D01*
X131243001Y-75783026D01*
X131222211Y-75823829D01*
X131218598Y-75834949D01*
X131200510Y-75949153D01*
X131200510Y-75960847D01*
X130813490Y-75960847D01*
X130813490Y-75949153D01*
X130795402Y-75834949D01*
X130791789Y-75823829D01*
X130772827Y-75786613D01*
X130764922Y-75779242D01*
X130763844Y-75779185D01*
X130760278Y-75781328D01*
X130595981Y-75945624D01*
X130591412Y-75955421D01*
X130222195Y-75955421D01*
X130222588Y-75954579D01*
X130220982Y-75948587D01*
X130056568Y-75784174D01*
X130046773Y-75779606D01*
X130045731Y-75779885D01*
X130043001Y-75783026D01*
X130022211Y-75823829D01*
X130018598Y-75834949D01*
X130000510Y-75949153D01*
X130000510Y-75960847D01*
X129613490Y-75960847D01*
X129613490Y-75949153D01*
X129595402Y-75834949D01*
X129591789Y-75823829D01*
X129572827Y-75786613D01*
X129564922Y-75779242D01*
X129563844Y-75779185D01*
X129560278Y-75781328D01*
X129395981Y-75945624D01*
X129391412Y-75955421D01*
X129022195Y-75955421D01*
X129022588Y-75954579D01*
X129020982Y-75948587D01*
X128856568Y-75784174D01*
X128846773Y-75779606D01*
X128845731Y-75779885D01*
X128843001Y-75783026D01*
X128822211Y-75823829D01*
X128818598Y-75834949D01*
X128800510Y-75949153D01*
X128800510Y-75960847D01*
X105918716Y-75960847D01*
X105918716Y-75598156D01*
X129031185Y-75598156D01*
X129033328Y-75601722D01*
X129197624Y-75766019D01*
X129207421Y-75770588D01*
X129213413Y-75768982D01*
X129377826Y-75604568D01*
X129380816Y-75598156D01*
X130231185Y-75598156D01*
X130233328Y-75601722D01*
X130397624Y-75766019D01*
X130407421Y-75770588D01*
X130413413Y-75768982D01*
X130577826Y-75604568D01*
X130580816Y-75598156D01*
X131431185Y-75598156D01*
X131433328Y-75601722D01*
X131597624Y-75766019D01*
X131607421Y-75770588D01*
X131613413Y-75768982D01*
X131777826Y-75604568D01*
X131780816Y-75598156D01*
X132631185Y-75598156D01*
X132633328Y-75601722D01*
X132797624Y-75766019D01*
X132807421Y-75770588D01*
X132813413Y-75768982D01*
X132977826Y-75604568D01*
X132980816Y-75598156D01*
X133831185Y-75598156D01*
X133833328Y-75601722D01*
X133997624Y-75766019D01*
X134007421Y-75770588D01*
X134013413Y-75768982D01*
X134177826Y-75604568D01*
X134182394Y-75594773D01*
X134182115Y-75593731D01*
X134178974Y-75591001D01*
X134138171Y-75570211D01*
X134127051Y-75566598D01*
X134012847Y-75548510D01*
X134001153Y-75548510D01*
X133886949Y-75566598D01*
X133875829Y-75570211D01*
X133838613Y-75589173D01*
X133831242Y-75597078D01*
X133831185Y-75598156D01*
X132980816Y-75598156D01*
X132982394Y-75594773D01*
X132982115Y-75593731D01*
X132978974Y-75591001D01*
X132938171Y-75570211D01*
X132927051Y-75566598D01*
X132812847Y-75548510D01*
X132801153Y-75548510D01*
X132686949Y-75566598D01*
X132675829Y-75570211D01*
X132638613Y-75589173D01*
X132631242Y-75597078D01*
X132631185Y-75598156D01*
X131780816Y-75598156D01*
X131782394Y-75594773D01*
X131782115Y-75593731D01*
X131778974Y-75591001D01*
X131738171Y-75570211D01*
X131727051Y-75566598D01*
X131612847Y-75548510D01*
X131601153Y-75548510D01*
X131486949Y-75566598D01*
X131475829Y-75570211D01*
X131438613Y-75589173D01*
X131431242Y-75597078D01*
X131431185Y-75598156D01*
X130580816Y-75598156D01*
X130582394Y-75594773D01*
X130582115Y-75593731D01*
X130578974Y-75591001D01*
X130538171Y-75570211D01*
X130527051Y-75566598D01*
X130412847Y-75548510D01*
X130401153Y-75548510D01*
X130286949Y-75566598D01*
X130275829Y-75570211D01*
X130238613Y-75589173D01*
X130231242Y-75597078D01*
X130231185Y-75598156D01*
X129380816Y-75598156D01*
X129382394Y-75594773D01*
X129382115Y-75593731D01*
X129378974Y-75591001D01*
X129338171Y-75570211D01*
X129327051Y-75566598D01*
X129212847Y-75548510D01*
X129201153Y-75548510D01*
X129086949Y-75566598D01*
X129075829Y-75570211D01*
X129038613Y-75589173D01*
X129031242Y-75597078D01*
X129031185Y-75598156D01*
X105918716Y-75598156D01*
X105918716Y-75184000D01*
X156970389Y-75184000D01*
X156989115Y-75302233D01*
X157043461Y-75408893D01*
X157128107Y-75493539D01*
X157234767Y-75547885D01*
X157353000Y-75566611D01*
X157471233Y-75547885D01*
X157577893Y-75493539D01*
X157662539Y-75408893D01*
X157716885Y-75302233D01*
X157735611Y-75184000D01*
X157716885Y-75065767D01*
X157662539Y-74959107D01*
X157577893Y-74874461D01*
X157471233Y-74820115D01*
X157353000Y-74801389D01*
X157234767Y-74820115D01*
X157128107Y-74874461D01*
X157043461Y-74959107D01*
X156989115Y-75065767D01*
X156970389Y-75184000D01*
X105918716Y-75184000D01*
X105918716Y-75115227D01*
X129031606Y-75115227D01*
X129031885Y-75116269D01*
X129035026Y-75118999D01*
X129075829Y-75139789D01*
X129086949Y-75143402D01*
X129201153Y-75161490D01*
X129212847Y-75161490D01*
X129327051Y-75143402D01*
X129338171Y-75139789D01*
X129375387Y-75120827D01*
X129380609Y-75115227D01*
X130231606Y-75115227D01*
X130231885Y-75116269D01*
X130235026Y-75118999D01*
X130275829Y-75139789D01*
X130286949Y-75143402D01*
X130401153Y-75161490D01*
X130412847Y-75161490D01*
X130527051Y-75143402D01*
X130538171Y-75139789D01*
X130575387Y-75120827D01*
X130580609Y-75115227D01*
X131431606Y-75115227D01*
X131431885Y-75116269D01*
X131435026Y-75118999D01*
X131475829Y-75139789D01*
X131486949Y-75143402D01*
X131601153Y-75161490D01*
X131612847Y-75161490D01*
X131727051Y-75143402D01*
X131738171Y-75139789D01*
X131775387Y-75120827D01*
X131780609Y-75115227D01*
X132631606Y-75115227D01*
X132631885Y-75116269D01*
X132635026Y-75118999D01*
X132675829Y-75139789D01*
X132686949Y-75143402D01*
X132801153Y-75161490D01*
X132812847Y-75161490D01*
X132927051Y-75143402D01*
X132938171Y-75139789D01*
X132975387Y-75120827D01*
X132980609Y-75115227D01*
X133831606Y-75115227D01*
X133831885Y-75116269D01*
X133835026Y-75118999D01*
X133875829Y-75139789D01*
X133886949Y-75143402D01*
X134001153Y-75161490D01*
X134012847Y-75161490D01*
X134127051Y-75143402D01*
X134138171Y-75139789D01*
X134175387Y-75120827D01*
X134182758Y-75112922D01*
X134182815Y-75111844D01*
X134180672Y-75108278D01*
X134016376Y-74943981D01*
X134006579Y-74939412D01*
X134000587Y-74941018D01*
X133836174Y-75105432D01*
X133831606Y-75115227D01*
X132980609Y-75115227D01*
X132982758Y-75112922D01*
X132982815Y-75111844D01*
X132980672Y-75108278D01*
X132816376Y-74943981D01*
X132806579Y-74939412D01*
X132800587Y-74941018D01*
X132636174Y-75105432D01*
X132631606Y-75115227D01*
X131780609Y-75115227D01*
X131782758Y-75112922D01*
X131782815Y-75111844D01*
X131780672Y-75108278D01*
X131616376Y-74943981D01*
X131606579Y-74939412D01*
X131600587Y-74941018D01*
X131436174Y-75105432D01*
X131431606Y-75115227D01*
X130580609Y-75115227D01*
X130582758Y-75112922D01*
X130582815Y-75111844D01*
X130580672Y-75108278D01*
X130416376Y-74943981D01*
X130406579Y-74939412D01*
X130400587Y-74941018D01*
X130236174Y-75105432D01*
X130231606Y-75115227D01*
X129380609Y-75115227D01*
X129382758Y-75112922D01*
X129382815Y-75111844D01*
X129380672Y-75108278D01*
X129216376Y-74943981D01*
X129206579Y-74939412D01*
X129200587Y-74941018D01*
X129036174Y-75105432D01*
X129031606Y-75115227D01*
X105918716Y-75115227D01*
X105918716Y-74760847D01*
X128800510Y-74760847D01*
X128818598Y-74875051D01*
X128822211Y-74886171D01*
X128841173Y-74923387D01*
X128849078Y-74930758D01*
X128850156Y-74930815D01*
X128853722Y-74928672D01*
X129018019Y-74764376D01*
X129022195Y-74755421D01*
X129391412Y-74755421D01*
X129393018Y-74761413D01*
X129557432Y-74925826D01*
X129567227Y-74930394D01*
X129568269Y-74930115D01*
X129570999Y-74926974D01*
X129591789Y-74886171D01*
X129595402Y-74875051D01*
X129613490Y-74760847D01*
X130000510Y-74760847D01*
X130018598Y-74875051D01*
X130022211Y-74886171D01*
X130041173Y-74923387D01*
X130049078Y-74930758D01*
X130050156Y-74930815D01*
X130053722Y-74928672D01*
X130218019Y-74764376D01*
X130222195Y-74755421D01*
X130591412Y-74755421D01*
X130593018Y-74761413D01*
X130757432Y-74925826D01*
X130767227Y-74930394D01*
X130768269Y-74930115D01*
X130770999Y-74926974D01*
X130791789Y-74886171D01*
X130795402Y-74875051D01*
X130813490Y-74760847D01*
X131200510Y-74760847D01*
X131218598Y-74875051D01*
X131222211Y-74886171D01*
X131241173Y-74923387D01*
X131249078Y-74930758D01*
X131250156Y-74930815D01*
X131253722Y-74928672D01*
X131418019Y-74764376D01*
X131422195Y-74755421D01*
X131791412Y-74755421D01*
X131793018Y-74761413D01*
X131957432Y-74925826D01*
X131967227Y-74930394D01*
X131968269Y-74930115D01*
X131970999Y-74926974D01*
X131991789Y-74886171D01*
X131995402Y-74875051D01*
X132013490Y-74760847D01*
X132400510Y-74760847D01*
X132418598Y-74875051D01*
X132422211Y-74886171D01*
X132441173Y-74923387D01*
X132449078Y-74930758D01*
X132450156Y-74930815D01*
X132453722Y-74928672D01*
X132618019Y-74764376D01*
X132622195Y-74755421D01*
X132991412Y-74755421D01*
X132993018Y-74761413D01*
X133157432Y-74925826D01*
X133167227Y-74930394D01*
X133168269Y-74930115D01*
X133170999Y-74926974D01*
X133191789Y-74886171D01*
X133195402Y-74875051D01*
X133213490Y-74760847D01*
X133600510Y-74760847D01*
X133618598Y-74875051D01*
X133622211Y-74886171D01*
X133641173Y-74923387D01*
X133649078Y-74930758D01*
X133650156Y-74930815D01*
X133653722Y-74928672D01*
X133818019Y-74764376D01*
X133822195Y-74755421D01*
X134191412Y-74755421D01*
X134193018Y-74761413D01*
X134357432Y-74925826D01*
X134367227Y-74930394D01*
X134368269Y-74930115D01*
X134370999Y-74926974D01*
X134391789Y-74886171D01*
X134395402Y-74875051D01*
X134413490Y-74760847D01*
X134413490Y-74749153D01*
X134395402Y-74634949D01*
X134391789Y-74623829D01*
X134372827Y-74586613D01*
X134364922Y-74579242D01*
X134363844Y-74579185D01*
X134360278Y-74581328D01*
X134195981Y-74745624D01*
X134191412Y-74755421D01*
X133822195Y-74755421D01*
X133822588Y-74754579D01*
X133820982Y-74748587D01*
X133656568Y-74584174D01*
X133646773Y-74579606D01*
X133645731Y-74579885D01*
X133643001Y-74583026D01*
X133622211Y-74623829D01*
X133618598Y-74634949D01*
X133600510Y-74749153D01*
X133600510Y-74760847D01*
X133213490Y-74760847D01*
X133213490Y-74749153D01*
X133195402Y-74634949D01*
X133191789Y-74623829D01*
X133172827Y-74586613D01*
X133164922Y-74579242D01*
X133163844Y-74579185D01*
X133160278Y-74581328D01*
X132995981Y-74745624D01*
X132991412Y-74755421D01*
X132622195Y-74755421D01*
X132622588Y-74754579D01*
X132620982Y-74748587D01*
X132456568Y-74584174D01*
X132446773Y-74579606D01*
X132445731Y-74579885D01*
X132443001Y-74583026D01*
X132422211Y-74623829D01*
X132418598Y-74634949D01*
X132400510Y-74749153D01*
X132400510Y-74760847D01*
X132013490Y-74760847D01*
X132013490Y-74749153D01*
X131995402Y-74634949D01*
X131991789Y-74623829D01*
X131972827Y-74586613D01*
X131964922Y-74579242D01*
X131963844Y-74579185D01*
X131960278Y-74581328D01*
X131795981Y-74745624D01*
X131791412Y-74755421D01*
X131422195Y-74755421D01*
X131422588Y-74754579D01*
X131420982Y-74748587D01*
X131256568Y-74584174D01*
X131246773Y-74579606D01*
X131245731Y-74579885D01*
X131243001Y-74583026D01*
X131222211Y-74623829D01*
X131218598Y-74634949D01*
X131200510Y-74749153D01*
X131200510Y-74760847D01*
X130813490Y-74760847D01*
X130813490Y-74749153D01*
X130795402Y-74634949D01*
X130791789Y-74623829D01*
X130772827Y-74586613D01*
X130764922Y-74579242D01*
X130763844Y-74579185D01*
X130760278Y-74581328D01*
X130595981Y-74745624D01*
X130591412Y-74755421D01*
X130222195Y-74755421D01*
X130222588Y-74754579D01*
X130220982Y-74748587D01*
X130056568Y-74584174D01*
X130046773Y-74579606D01*
X130045731Y-74579885D01*
X130043001Y-74583026D01*
X130022211Y-74623829D01*
X130018598Y-74634949D01*
X130000510Y-74749153D01*
X130000510Y-74760847D01*
X129613490Y-74760847D01*
X129613490Y-74749153D01*
X129595402Y-74634949D01*
X129591789Y-74623829D01*
X129572827Y-74586613D01*
X129564922Y-74579242D01*
X129563844Y-74579185D01*
X129560278Y-74581328D01*
X129395981Y-74745624D01*
X129391412Y-74755421D01*
X129022195Y-74755421D01*
X129022588Y-74754579D01*
X129020982Y-74748587D01*
X128856568Y-74584174D01*
X128846773Y-74579606D01*
X128845731Y-74579885D01*
X128843001Y-74583026D01*
X128822211Y-74623829D01*
X128818598Y-74634949D01*
X128800510Y-74749153D01*
X128800510Y-74760847D01*
X105918716Y-74760847D01*
X105918716Y-74398156D01*
X129031185Y-74398156D01*
X129033328Y-74401722D01*
X129197624Y-74566019D01*
X129207421Y-74570588D01*
X129213413Y-74568982D01*
X129377826Y-74404568D01*
X129380816Y-74398156D01*
X130231185Y-74398156D01*
X130233328Y-74401722D01*
X130397624Y-74566019D01*
X130407421Y-74570588D01*
X130413413Y-74568982D01*
X130577826Y-74404568D01*
X130580816Y-74398156D01*
X131431185Y-74398156D01*
X131433328Y-74401722D01*
X131597624Y-74566019D01*
X131607421Y-74570588D01*
X131613413Y-74568982D01*
X131777826Y-74404568D01*
X131780816Y-74398156D01*
X132631185Y-74398156D01*
X132633328Y-74401722D01*
X132797624Y-74566019D01*
X132807421Y-74570588D01*
X132813413Y-74568982D01*
X132977826Y-74404568D01*
X132980816Y-74398156D01*
X133831185Y-74398156D01*
X133833328Y-74401722D01*
X133997624Y-74566019D01*
X134007421Y-74570588D01*
X134013413Y-74568982D01*
X134177826Y-74404568D01*
X134182394Y-74394773D01*
X134182115Y-74393731D01*
X134178974Y-74391001D01*
X134138171Y-74370211D01*
X134127051Y-74366598D01*
X134012847Y-74348510D01*
X134001153Y-74348510D01*
X133886949Y-74366598D01*
X133875829Y-74370211D01*
X133838613Y-74389173D01*
X133831242Y-74397078D01*
X133831185Y-74398156D01*
X132980816Y-74398156D01*
X132982394Y-74394773D01*
X132982115Y-74393731D01*
X132978974Y-74391001D01*
X132938171Y-74370211D01*
X132927051Y-74366598D01*
X132812847Y-74348510D01*
X132801153Y-74348510D01*
X132686949Y-74366598D01*
X132675829Y-74370211D01*
X132638613Y-74389173D01*
X132631242Y-74397078D01*
X132631185Y-74398156D01*
X131780816Y-74398156D01*
X131782394Y-74394773D01*
X131782115Y-74393731D01*
X131778974Y-74391001D01*
X131738171Y-74370211D01*
X131727051Y-74366598D01*
X131612847Y-74348510D01*
X131601153Y-74348510D01*
X131486949Y-74366598D01*
X131475829Y-74370211D01*
X131438613Y-74389173D01*
X131431242Y-74397078D01*
X131431185Y-74398156D01*
X130580816Y-74398156D01*
X130582394Y-74394773D01*
X130582115Y-74393731D01*
X130578974Y-74391001D01*
X130538171Y-74370211D01*
X130527051Y-74366598D01*
X130412847Y-74348510D01*
X130401153Y-74348510D01*
X130286949Y-74366598D01*
X130275829Y-74370211D01*
X130238613Y-74389173D01*
X130231242Y-74397078D01*
X130231185Y-74398156D01*
X129380816Y-74398156D01*
X129382394Y-74394773D01*
X129382115Y-74393731D01*
X129378974Y-74391001D01*
X129338171Y-74370211D01*
X129327051Y-74366598D01*
X129212847Y-74348510D01*
X129201153Y-74348510D01*
X129086949Y-74366598D01*
X129075829Y-74370211D01*
X129038613Y-74389173D01*
X129031242Y-74397078D01*
X129031185Y-74398156D01*
X105918716Y-74398156D01*
X105918716Y-73787000D01*
X126998389Y-73787000D01*
X127017115Y-73905233D01*
X127071461Y-74011893D01*
X127156107Y-74096539D01*
X127161383Y-74099227D01*
X127161384Y-74099228D01*
X127195579Y-74116651D01*
X127262767Y-74150885D01*
X127381000Y-74169611D01*
X127391172Y-74168000D01*
X138047389Y-74168000D01*
X138066115Y-74286233D01*
X138120461Y-74392893D01*
X138205107Y-74477539D01*
X138311767Y-74531885D01*
X138430000Y-74550611D01*
X138548233Y-74531885D01*
X138654893Y-74477539D01*
X138710432Y-74422000D01*
X153287389Y-74422000D01*
X153306115Y-74540233D01*
X153360461Y-74646893D01*
X153445107Y-74731539D01*
X153450383Y-74734227D01*
X153450384Y-74734228D01*
X153491978Y-74755421D01*
X153551767Y-74785885D01*
X153670000Y-74804611D01*
X153788233Y-74785885D01*
X153848022Y-74755421D01*
X153889616Y-74734228D01*
X153889617Y-74734227D01*
X153894893Y-74731539D01*
X153979539Y-74646893D01*
X154033885Y-74540233D01*
X154052611Y-74422000D01*
X154033885Y-74303767D01*
X153979539Y-74197107D01*
X153894893Y-74112461D01*
X153863645Y-74096539D01*
X153845187Y-74087135D01*
X153788233Y-74058115D01*
X153670000Y-74039389D01*
X153551767Y-74058115D01*
X153494813Y-74087135D01*
X153476356Y-74096539D01*
X153445107Y-74112461D01*
X153360461Y-74197107D01*
X153306115Y-74303767D01*
X153287389Y-74422000D01*
X138710432Y-74422000D01*
X138739539Y-74392893D01*
X138793885Y-74286233D01*
X138812611Y-74168000D01*
X138793885Y-74049767D01*
X138739539Y-73943107D01*
X138654893Y-73858461D01*
X138623645Y-73842539D01*
X138605187Y-73833135D01*
X138548233Y-73804115D01*
X138430000Y-73785389D01*
X138311767Y-73804115D01*
X138254813Y-73833135D01*
X138236356Y-73842539D01*
X138205107Y-73858461D01*
X138120461Y-73943107D01*
X138066115Y-74049767D01*
X138047389Y-74168000D01*
X127391172Y-74168000D01*
X127499233Y-74150885D01*
X127566421Y-74116651D01*
X127600616Y-74099228D01*
X127600617Y-74099227D01*
X127605893Y-74096539D01*
X127690539Y-74011893D01*
X127739793Y-73915227D01*
X129031606Y-73915227D01*
X129031885Y-73916269D01*
X129035026Y-73918999D01*
X129075829Y-73939789D01*
X129086949Y-73943402D01*
X129201153Y-73961490D01*
X129212847Y-73961490D01*
X129327051Y-73943402D01*
X129338171Y-73939789D01*
X129375387Y-73920827D01*
X129380609Y-73915227D01*
X130231606Y-73915227D01*
X130231885Y-73916269D01*
X130235026Y-73918999D01*
X130275829Y-73939789D01*
X130286949Y-73943402D01*
X130401153Y-73961490D01*
X130412847Y-73961490D01*
X130527051Y-73943402D01*
X130538171Y-73939789D01*
X130575387Y-73920827D01*
X130580609Y-73915227D01*
X131431606Y-73915227D01*
X131431885Y-73916269D01*
X131435026Y-73918999D01*
X131475829Y-73939789D01*
X131486949Y-73943402D01*
X131601153Y-73961490D01*
X131612847Y-73961490D01*
X131727051Y-73943402D01*
X131738171Y-73939789D01*
X131775387Y-73920827D01*
X131780609Y-73915227D01*
X132631606Y-73915227D01*
X132631885Y-73916269D01*
X132635026Y-73918999D01*
X132675829Y-73939789D01*
X132686949Y-73943402D01*
X132801153Y-73961490D01*
X132812847Y-73961490D01*
X132927051Y-73943402D01*
X132938171Y-73939789D01*
X132975387Y-73920827D01*
X132980609Y-73915227D01*
X133831606Y-73915227D01*
X133831885Y-73916269D01*
X133835026Y-73918999D01*
X133875829Y-73939789D01*
X133886949Y-73943402D01*
X134001153Y-73961490D01*
X134012847Y-73961490D01*
X134127051Y-73943402D01*
X134138171Y-73939789D01*
X134175387Y-73920827D01*
X134182758Y-73912922D01*
X134182815Y-73911844D01*
X134180672Y-73908278D01*
X134016376Y-73743981D01*
X134006579Y-73739412D01*
X134000587Y-73741018D01*
X133836174Y-73905432D01*
X133831606Y-73915227D01*
X132980609Y-73915227D01*
X132982758Y-73912922D01*
X132982815Y-73911844D01*
X132980672Y-73908278D01*
X132816376Y-73743981D01*
X132806579Y-73739412D01*
X132800587Y-73741018D01*
X132636174Y-73905432D01*
X132631606Y-73915227D01*
X131780609Y-73915227D01*
X131782758Y-73912922D01*
X131782815Y-73911844D01*
X131780672Y-73908278D01*
X131616376Y-73743981D01*
X131606579Y-73739412D01*
X131600587Y-73741018D01*
X131436174Y-73905432D01*
X131431606Y-73915227D01*
X130580609Y-73915227D01*
X130582758Y-73912922D01*
X130582815Y-73911844D01*
X130580672Y-73908278D01*
X130416376Y-73743981D01*
X130406579Y-73739412D01*
X130400587Y-73741018D01*
X130236174Y-73905432D01*
X130231606Y-73915227D01*
X129380609Y-73915227D01*
X129382758Y-73912922D01*
X129382815Y-73911844D01*
X129380672Y-73908278D01*
X129216376Y-73743981D01*
X129206579Y-73739412D01*
X129200587Y-73741018D01*
X129036174Y-73905432D01*
X129031606Y-73915227D01*
X127739793Y-73915227D01*
X127744885Y-73905233D01*
X127763611Y-73787000D01*
X127762223Y-73778233D01*
X127745811Y-73674614D01*
X127744885Y-73668767D01*
X127690539Y-73562107D01*
X127689279Y-73560847D01*
X128800510Y-73560847D01*
X128818598Y-73675051D01*
X128822211Y-73686171D01*
X128841173Y-73723387D01*
X128849078Y-73730758D01*
X128850156Y-73730815D01*
X128853722Y-73728672D01*
X129018019Y-73564376D01*
X129022195Y-73555421D01*
X129391412Y-73555421D01*
X129393018Y-73561413D01*
X129557432Y-73725826D01*
X129567227Y-73730394D01*
X129568269Y-73730115D01*
X129570999Y-73726974D01*
X129591789Y-73686171D01*
X129595402Y-73675051D01*
X129613490Y-73560847D01*
X130000510Y-73560847D01*
X130018598Y-73675051D01*
X130022211Y-73686171D01*
X130041173Y-73723387D01*
X130049078Y-73730758D01*
X130050156Y-73730815D01*
X130053722Y-73728672D01*
X130218019Y-73564376D01*
X130222195Y-73555421D01*
X130591412Y-73555421D01*
X130593018Y-73561413D01*
X130757432Y-73725826D01*
X130767227Y-73730394D01*
X130768269Y-73730115D01*
X130770999Y-73726974D01*
X130791789Y-73686171D01*
X130795402Y-73675051D01*
X130813490Y-73560847D01*
X131200510Y-73560847D01*
X131218598Y-73675051D01*
X131222211Y-73686171D01*
X131241173Y-73723387D01*
X131249078Y-73730758D01*
X131250156Y-73730815D01*
X131253722Y-73728672D01*
X131418019Y-73564376D01*
X131422195Y-73555421D01*
X131791412Y-73555421D01*
X131793018Y-73561413D01*
X131957432Y-73725826D01*
X131967227Y-73730394D01*
X131968269Y-73730115D01*
X131970999Y-73726974D01*
X131991789Y-73686171D01*
X131995402Y-73675051D01*
X132013490Y-73560847D01*
X132400510Y-73560847D01*
X132418598Y-73675051D01*
X132422211Y-73686171D01*
X132441173Y-73723387D01*
X132449078Y-73730758D01*
X132450156Y-73730815D01*
X132453722Y-73728672D01*
X132618019Y-73564376D01*
X132622195Y-73555421D01*
X132991412Y-73555421D01*
X132993018Y-73561413D01*
X133157432Y-73725826D01*
X133167227Y-73730394D01*
X133168269Y-73730115D01*
X133170999Y-73726974D01*
X133191789Y-73686171D01*
X133195402Y-73675051D01*
X133213490Y-73560847D01*
X133600510Y-73560847D01*
X133618598Y-73675051D01*
X133622211Y-73686171D01*
X133641173Y-73723387D01*
X133649078Y-73730758D01*
X133650156Y-73730815D01*
X133653722Y-73728672D01*
X133818019Y-73564376D01*
X133822195Y-73555421D01*
X134191412Y-73555421D01*
X134193018Y-73561413D01*
X134357432Y-73725826D01*
X134367227Y-73730394D01*
X134368269Y-73730115D01*
X134370999Y-73726974D01*
X134391789Y-73686171D01*
X134395402Y-73675051D01*
X134413490Y-73560847D01*
X134413490Y-73549153D01*
X134410932Y-73533000D01*
X139444389Y-73533000D01*
X139445315Y-73538847D01*
X139446388Y-73545624D01*
X139463115Y-73651233D01*
X139470561Y-73665847D01*
X139503450Y-73730394D01*
X139517461Y-73757893D01*
X139602107Y-73842539D01*
X139607383Y-73845227D01*
X139607384Y-73845228D01*
X139641579Y-73862651D01*
X139708767Y-73896885D01*
X139827000Y-73915611D01*
X139945233Y-73896885D01*
X140012421Y-73862651D01*
X140046616Y-73845228D01*
X140046617Y-73845227D01*
X140051893Y-73842539D01*
X140136539Y-73757893D01*
X140150551Y-73730394D01*
X140183439Y-73665847D01*
X140186418Y-73660000D01*
X155954389Y-73660000D01*
X155955315Y-73665847D01*
X155956704Y-73674614D01*
X155973115Y-73778233D01*
X156027461Y-73884893D01*
X156112107Y-73969539D01*
X156218767Y-74023885D01*
X156337000Y-74042611D01*
X156455233Y-74023885D01*
X156561893Y-73969539D01*
X156646539Y-73884893D01*
X156700885Y-73778233D01*
X156717296Y-73674614D01*
X156718685Y-73665847D01*
X156719611Y-73660000D01*
X156718223Y-73651233D01*
X156703443Y-73557917D01*
X156700885Y-73541767D01*
X156646539Y-73435107D01*
X156561893Y-73350461D01*
X156455233Y-73296115D01*
X156337000Y-73277389D01*
X156218767Y-73296115D01*
X156112107Y-73350461D01*
X156027461Y-73435107D01*
X155973115Y-73541767D01*
X155970557Y-73557917D01*
X155955778Y-73651233D01*
X155954389Y-73660000D01*
X140186418Y-73660000D01*
X140190885Y-73651233D01*
X140207612Y-73545624D01*
X140208685Y-73538847D01*
X140209611Y-73533000D01*
X140190885Y-73414767D01*
X140136539Y-73308107D01*
X140051893Y-73223461D01*
X140020645Y-73207539D01*
X139984599Y-73189173D01*
X139945233Y-73169115D01*
X139827000Y-73150389D01*
X139708767Y-73169115D01*
X139669401Y-73189173D01*
X139633356Y-73207539D01*
X139602107Y-73223461D01*
X139517461Y-73308107D01*
X139463115Y-73414767D01*
X139444389Y-73533000D01*
X134410932Y-73533000D01*
X134395402Y-73434949D01*
X134391789Y-73423829D01*
X134372827Y-73386613D01*
X134364922Y-73379242D01*
X134363844Y-73379185D01*
X134360278Y-73381328D01*
X134195981Y-73545624D01*
X134191412Y-73555421D01*
X133822195Y-73555421D01*
X133822588Y-73554579D01*
X133820982Y-73548587D01*
X133656568Y-73384174D01*
X133646773Y-73379606D01*
X133645731Y-73379885D01*
X133643001Y-73383026D01*
X133622211Y-73423829D01*
X133618598Y-73434949D01*
X133600510Y-73549153D01*
X133600510Y-73560847D01*
X133213490Y-73560847D01*
X133213490Y-73549153D01*
X133195402Y-73434949D01*
X133191789Y-73423829D01*
X133172827Y-73386613D01*
X133164922Y-73379242D01*
X133163844Y-73379185D01*
X133160278Y-73381328D01*
X132995981Y-73545624D01*
X132991412Y-73555421D01*
X132622195Y-73555421D01*
X132622588Y-73554579D01*
X132620982Y-73548587D01*
X132456568Y-73384174D01*
X132446773Y-73379606D01*
X132445731Y-73379885D01*
X132443001Y-73383026D01*
X132422211Y-73423829D01*
X132418598Y-73434949D01*
X132400510Y-73549153D01*
X132400510Y-73560847D01*
X132013490Y-73560847D01*
X132013490Y-73549153D01*
X131995402Y-73434949D01*
X131991789Y-73423829D01*
X131972827Y-73386613D01*
X131964922Y-73379242D01*
X131963844Y-73379185D01*
X131960278Y-73381328D01*
X131795981Y-73545624D01*
X131791412Y-73555421D01*
X131422195Y-73555421D01*
X131422588Y-73554579D01*
X131420982Y-73548587D01*
X131256568Y-73384174D01*
X131246773Y-73379606D01*
X131245731Y-73379885D01*
X131243001Y-73383026D01*
X131222211Y-73423829D01*
X131218598Y-73434949D01*
X131200510Y-73549153D01*
X131200510Y-73560847D01*
X130813490Y-73560847D01*
X130813490Y-73549153D01*
X130795402Y-73434949D01*
X130791789Y-73423829D01*
X130772827Y-73386613D01*
X130764922Y-73379242D01*
X130763844Y-73379185D01*
X130760278Y-73381328D01*
X130595981Y-73545624D01*
X130591412Y-73555421D01*
X130222195Y-73555421D01*
X130222588Y-73554579D01*
X130220982Y-73548587D01*
X130056568Y-73384174D01*
X130046773Y-73379606D01*
X130045731Y-73379885D01*
X130043001Y-73383026D01*
X130022211Y-73423829D01*
X130018598Y-73434949D01*
X130000510Y-73549153D01*
X130000510Y-73560847D01*
X129613490Y-73560847D01*
X129613490Y-73549153D01*
X129595402Y-73434949D01*
X129591789Y-73423829D01*
X129572827Y-73386613D01*
X129564922Y-73379242D01*
X129563844Y-73379185D01*
X129560278Y-73381328D01*
X129395981Y-73545624D01*
X129391412Y-73555421D01*
X129022195Y-73555421D01*
X129022588Y-73554579D01*
X129020982Y-73548587D01*
X128856568Y-73384174D01*
X128846773Y-73379606D01*
X128845731Y-73379885D01*
X128843001Y-73383026D01*
X128822211Y-73423829D01*
X128818598Y-73434949D01*
X128800510Y-73549153D01*
X128800510Y-73560847D01*
X127689279Y-73560847D01*
X127605893Y-73477461D01*
X127499233Y-73423115D01*
X127381000Y-73404389D01*
X127262767Y-73423115D01*
X127156107Y-73477461D01*
X127071461Y-73562107D01*
X127017115Y-73668767D01*
X127016189Y-73674614D01*
X126999778Y-73778233D01*
X126998389Y-73787000D01*
X105918716Y-73787000D01*
X105918716Y-73198156D01*
X129031185Y-73198156D01*
X129033328Y-73201722D01*
X129197624Y-73366019D01*
X129207421Y-73370588D01*
X129213413Y-73368982D01*
X129377826Y-73204568D01*
X129380816Y-73198156D01*
X130231185Y-73198156D01*
X130233328Y-73201722D01*
X130397624Y-73366019D01*
X130407421Y-73370588D01*
X130413413Y-73368982D01*
X130577826Y-73204568D01*
X130580816Y-73198156D01*
X131431185Y-73198156D01*
X131433328Y-73201722D01*
X131597624Y-73366019D01*
X131607421Y-73370588D01*
X131613413Y-73368982D01*
X131777826Y-73204568D01*
X131780816Y-73198156D01*
X132631185Y-73198156D01*
X132633328Y-73201722D01*
X132797624Y-73366019D01*
X132807421Y-73370588D01*
X132813413Y-73368982D01*
X132977826Y-73204568D01*
X132980816Y-73198156D01*
X133831185Y-73198156D01*
X133833328Y-73201722D01*
X133997624Y-73366019D01*
X134007421Y-73370588D01*
X134013413Y-73368982D01*
X134177826Y-73204568D01*
X134182394Y-73194773D01*
X134182115Y-73193731D01*
X134178974Y-73191001D01*
X134138171Y-73170211D01*
X134127051Y-73166598D01*
X134012847Y-73148510D01*
X134001153Y-73148510D01*
X133886949Y-73166598D01*
X133875829Y-73170211D01*
X133838613Y-73189173D01*
X133831242Y-73197078D01*
X133831185Y-73198156D01*
X132980816Y-73198156D01*
X132982394Y-73194773D01*
X132982115Y-73193731D01*
X132978974Y-73191001D01*
X132938171Y-73170211D01*
X132927051Y-73166598D01*
X132812847Y-73148510D01*
X132801153Y-73148510D01*
X132686949Y-73166598D01*
X132675829Y-73170211D01*
X132638613Y-73189173D01*
X132631242Y-73197078D01*
X132631185Y-73198156D01*
X131780816Y-73198156D01*
X131782394Y-73194773D01*
X131782115Y-73193731D01*
X131778974Y-73191001D01*
X131738171Y-73170211D01*
X131727051Y-73166598D01*
X131612847Y-73148510D01*
X131601153Y-73148510D01*
X131486949Y-73166598D01*
X131475829Y-73170211D01*
X131438613Y-73189173D01*
X131431242Y-73197078D01*
X131431185Y-73198156D01*
X130580816Y-73198156D01*
X130582394Y-73194773D01*
X130582115Y-73193731D01*
X130578974Y-73191001D01*
X130538171Y-73170211D01*
X130527051Y-73166598D01*
X130412847Y-73148510D01*
X130401153Y-73148510D01*
X130286949Y-73166598D01*
X130275829Y-73170211D01*
X130238613Y-73189173D01*
X130231242Y-73197078D01*
X130231185Y-73198156D01*
X129380816Y-73198156D01*
X129382394Y-73194773D01*
X129382115Y-73193731D01*
X129378974Y-73191001D01*
X129338171Y-73170211D01*
X129327051Y-73166598D01*
X129212847Y-73148510D01*
X129201153Y-73148510D01*
X129086949Y-73166598D01*
X129075829Y-73170211D01*
X129038613Y-73189173D01*
X129031242Y-73197078D01*
X129031185Y-73198156D01*
X105918716Y-73198156D01*
X105918716Y-72451029D01*
X109028035Y-72451029D01*
X109046761Y-72569262D01*
X109101107Y-72675922D01*
X109185753Y-72760568D01*
X109191029Y-72763256D01*
X109191030Y-72763257D01*
X109213084Y-72774494D01*
X109292413Y-72814914D01*
X109410646Y-72833640D01*
X109528879Y-72814914D01*
X109608208Y-72774494D01*
X109630262Y-72763257D01*
X109630263Y-72763256D01*
X109635539Y-72760568D01*
X109720185Y-72675922D01*
X109736450Y-72644000D01*
X124585389Y-72644000D01*
X124604115Y-72762233D01*
X124658461Y-72868893D01*
X124743107Y-72953539D01*
X124849767Y-73007885D01*
X124968000Y-73026611D01*
X125086233Y-73007885D01*
X125192893Y-72953539D01*
X125248432Y-72898000D01*
X154811389Y-72898000D01*
X154830115Y-73016233D01*
X154884461Y-73122893D01*
X154969107Y-73207539D01*
X154974383Y-73210227D01*
X154974384Y-73210228D01*
X155008579Y-73227651D01*
X155075767Y-73261885D01*
X155194000Y-73280611D01*
X155312233Y-73261885D01*
X155379421Y-73227651D01*
X155413616Y-73210228D01*
X155413617Y-73210227D01*
X155418893Y-73207539D01*
X155503539Y-73122893D01*
X155557885Y-73016233D01*
X155576611Y-72898000D01*
X155557885Y-72779767D01*
X155523826Y-72712922D01*
X155506228Y-72678384D01*
X155506227Y-72678383D01*
X155503539Y-72673107D01*
X155418893Y-72588461D01*
X155312233Y-72534115D01*
X155194000Y-72515389D01*
X155075767Y-72534115D01*
X154969107Y-72588461D01*
X154884461Y-72673107D01*
X154881773Y-72678383D01*
X154881772Y-72678384D01*
X154864174Y-72712922D01*
X154830115Y-72779767D01*
X154811389Y-72898000D01*
X125248432Y-72898000D01*
X125277539Y-72868893D01*
X125331885Y-72762233D01*
X125339330Y-72715227D01*
X129031606Y-72715227D01*
X129031885Y-72716269D01*
X129035026Y-72718999D01*
X129075829Y-72739789D01*
X129086949Y-72743402D01*
X129201153Y-72761490D01*
X129212847Y-72761490D01*
X129327051Y-72743402D01*
X129338171Y-72739789D01*
X129375387Y-72720827D01*
X129380609Y-72715227D01*
X130231606Y-72715227D01*
X130231885Y-72716269D01*
X130235026Y-72718999D01*
X130275829Y-72739789D01*
X130286949Y-72743402D01*
X130401153Y-72761490D01*
X130412847Y-72761490D01*
X130527051Y-72743402D01*
X130538171Y-72739789D01*
X130575387Y-72720827D01*
X130580609Y-72715227D01*
X131431606Y-72715227D01*
X131431885Y-72716269D01*
X131435026Y-72718999D01*
X131475829Y-72739789D01*
X131486949Y-72743402D01*
X131601153Y-72761490D01*
X131612847Y-72761490D01*
X131727051Y-72743402D01*
X131738171Y-72739789D01*
X131775387Y-72720827D01*
X131780609Y-72715227D01*
X132631606Y-72715227D01*
X132631885Y-72716269D01*
X132635026Y-72718999D01*
X132675829Y-72739789D01*
X132686949Y-72743402D01*
X132801153Y-72761490D01*
X132812847Y-72761490D01*
X132927051Y-72743402D01*
X132938171Y-72739789D01*
X132975387Y-72720827D01*
X132980609Y-72715227D01*
X133831606Y-72715227D01*
X133831885Y-72716269D01*
X133835026Y-72718999D01*
X133875829Y-72739789D01*
X133886949Y-72743402D01*
X134001153Y-72761490D01*
X134012847Y-72761490D01*
X134127051Y-72743402D01*
X134138171Y-72739789D01*
X134175387Y-72720827D01*
X134182758Y-72712922D01*
X134182815Y-72711844D01*
X134180672Y-72708278D01*
X134016376Y-72543981D01*
X134006579Y-72539412D01*
X134000587Y-72541018D01*
X133836174Y-72705432D01*
X133831606Y-72715227D01*
X132980609Y-72715227D01*
X132982758Y-72712922D01*
X132982815Y-72711844D01*
X132980672Y-72708278D01*
X132816376Y-72543981D01*
X132806579Y-72539412D01*
X132800587Y-72541018D01*
X132636174Y-72705432D01*
X132631606Y-72715227D01*
X131780609Y-72715227D01*
X131782758Y-72712922D01*
X131782815Y-72711844D01*
X131780672Y-72708278D01*
X131616376Y-72543981D01*
X131606579Y-72539412D01*
X131600587Y-72541018D01*
X131436174Y-72705432D01*
X131431606Y-72715227D01*
X130580609Y-72715227D01*
X130582758Y-72712922D01*
X130582815Y-72711844D01*
X130580672Y-72708278D01*
X130416376Y-72543981D01*
X130406579Y-72539412D01*
X130400587Y-72541018D01*
X130236174Y-72705432D01*
X130231606Y-72715227D01*
X129380609Y-72715227D01*
X129382758Y-72712922D01*
X129382815Y-72711844D01*
X129380672Y-72708278D01*
X129216376Y-72543981D01*
X129206579Y-72539412D01*
X129200587Y-72541018D01*
X129036174Y-72705432D01*
X129031606Y-72715227D01*
X125339330Y-72715227D01*
X125350611Y-72644000D01*
X125331885Y-72525767D01*
X125277539Y-72419107D01*
X125219279Y-72360847D01*
X128800510Y-72360847D01*
X128818598Y-72475051D01*
X128822211Y-72486171D01*
X128841173Y-72523387D01*
X128849078Y-72530758D01*
X128850156Y-72530815D01*
X128853722Y-72528672D01*
X129018019Y-72364376D01*
X129022195Y-72355421D01*
X129391412Y-72355421D01*
X129393018Y-72361413D01*
X129557432Y-72525826D01*
X129567227Y-72530394D01*
X129568269Y-72530115D01*
X129570999Y-72526974D01*
X129591789Y-72486171D01*
X129595402Y-72475051D01*
X129613490Y-72360847D01*
X130000510Y-72360847D01*
X130018598Y-72475051D01*
X130022211Y-72486171D01*
X130041173Y-72523387D01*
X130049078Y-72530758D01*
X130050156Y-72530815D01*
X130053722Y-72528672D01*
X130218019Y-72364376D01*
X130222195Y-72355421D01*
X130591412Y-72355421D01*
X130593018Y-72361413D01*
X130757432Y-72525826D01*
X130767227Y-72530394D01*
X130768269Y-72530115D01*
X130770999Y-72526974D01*
X130791789Y-72486171D01*
X130795402Y-72475051D01*
X130813490Y-72360847D01*
X131200510Y-72360847D01*
X131218598Y-72475051D01*
X131222211Y-72486171D01*
X131241173Y-72523387D01*
X131249078Y-72530758D01*
X131250156Y-72530815D01*
X131253722Y-72528672D01*
X131418019Y-72364376D01*
X131422195Y-72355421D01*
X131791412Y-72355421D01*
X131793018Y-72361413D01*
X131957432Y-72525826D01*
X131967227Y-72530394D01*
X131968269Y-72530115D01*
X131970999Y-72526974D01*
X131991789Y-72486171D01*
X131995402Y-72475051D01*
X132013490Y-72360847D01*
X132400510Y-72360847D01*
X132418598Y-72475051D01*
X132422211Y-72486171D01*
X132441173Y-72523387D01*
X132449078Y-72530758D01*
X132450156Y-72530815D01*
X132453722Y-72528672D01*
X132618019Y-72364376D01*
X132622195Y-72355421D01*
X132991412Y-72355421D01*
X132993018Y-72361413D01*
X133157432Y-72525826D01*
X133167227Y-72530394D01*
X133168269Y-72530115D01*
X133170999Y-72526974D01*
X133191789Y-72486171D01*
X133195402Y-72475051D01*
X133213490Y-72360847D01*
X133600510Y-72360847D01*
X133618598Y-72475051D01*
X133622211Y-72486171D01*
X133641173Y-72523387D01*
X133649078Y-72530758D01*
X133650156Y-72530815D01*
X133653722Y-72528672D01*
X133818019Y-72364376D01*
X133822195Y-72355421D01*
X134191412Y-72355421D01*
X134193018Y-72361413D01*
X134357432Y-72525826D01*
X134367227Y-72530394D01*
X134368269Y-72530115D01*
X134370999Y-72526974D01*
X134391789Y-72486171D01*
X134395402Y-72475051D01*
X134413490Y-72360847D01*
X134413490Y-72349153D01*
X134395402Y-72234949D01*
X134391789Y-72223829D01*
X134372827Y-72186613D01*
X134364922Y-72179242D01*
X134363844Y-72179185D01*
X134360278Y-72181328D01*
X134195981Y-72345624D01*
X134191412Y-72355421D01*
X133822195Y-72355421D01*
X133822588Y-72354579D01*
X133820982Y-72348587D01*
X133656568Y-72184174D01*
X133646773Y-72179606D01*
X133645731Y-72179885D01*
X133643001Y-72183026D01*
X133622211Y-72223829D01*
X133618598Y-72234949D01*
X133600510Y-72349153D01*
X133600510Y-72360847D01*
X133213490Y-72360847D01*
X133213490Y-72349153D01*
X133195402Y-72234949D01*
X133191789Y-72223829D01*
X133172827Y-72186613D01*
X133164922Y-72179242D01*
X133163844Y-72179185D01*
X133160278Y-72181328D01*
X132995981Y-72345624D01*
X132991412Y-72355421D01*
X132622195Y-72355421D01*
X132622588Y-72354579D01*
X132620982Y-72348587D01*
X132456568Y-72184174D01*
X132446773Y-72179606D01*
X132445731Y-72179885D01*
X132443001Y-72183026D01*
X132422211Y-72223829D01*
X132418598Y-72234949D01*
X132400510Y-72349153D01*
X132400510Y-72360847D01*
X132013490Y-72360847D01*
X132013490Y-72349153D01*
X131995402Y-72234949D01*
X131991789Y-72223829D01*
X131972827Y-72186613D01*
X131964922Y-72179242D01*
X131963844Y-72179185D01*
X131960278Y-72181328D01*
X131795981Y-72345624D01*
X131791412Y-72355421D01*
X131422195Y-72355421D01*
X131422588Y-72354579D01*
X131420982Y-72348587D01*
X131256568Y-72184174D01*
X131246773Y-72179606D01*
X131245731Y-72179885D01*
X131243001Y-72183026D01*
X131222211Y-72223829D01*
X131218598Y-72234949D01*
X131200510Y-72349153D01*
X131200510Y-72360847D01*
X130813490Y-72360847D01*
X130813490Y-72349153D01*
X130795402Y-72234949D01*
X130791789Y-72223829D01*
X130772827Y-72186613D01*
X130764922Y-72179242D01*
X130763844Y-72179185D01*
X130760278Y-72181328D01*
X130595981Y-72345624D01*
X130591412Y-72355421D01*
X130222195Y-72355421D01*
X130222588Y-72354579D01*
X130220982Y-72348587D01*
X130056568Y-72184174D01*
X130046773Y-72179606D01*
X130045731Y-72179885D01*
X130043001Y-72183026D01*
X130022211Y-72223829D01*
X130018598Y-72234949D01*
X130000510Y-72349153D01*
X130000510Y-72360847D01*
X129613490Y-72360847D01*
X129613490Y-72349153D01*
X129595402Y-72234949D01*
X129591789Y-72223829D01*
X129572827Y-72186613D01*
X129564922Y-72179242D01*
X129563844Y-72179185D01*
X129560278Y-72181328D01*
X129395981Y-72345624D01*
X129391412Y-72355421D01*
X129022195Y-72355421D01*
X129022588Y-72354579D01*
X129020982Y-72348587D01*
X128856568Y-72184174D01*
X128846773Y-72179606D01*
X128845731Y-72179885D01*
X128843001Y-72183026D01*
X128822211Y-72223829D01*
X128818598Y-72234949D01*
X128800510Y-72349153D01*
X128800510Y-72360847D01*
X125219279Y-72360847D01*
X125192893Y-72334461D01*
X125179277Y-72327523D01*
X125143187Y-72309135D01*
X125086233Y-72280115D01*
X124968000Y-72261389D01*
X124849767Y-72280115D01*
X124792813Y-72309135D01*
X124756724Y-72327523D01*
X124743107Y-72334461D01*
X124658461Y-72419107D01*
X124604115Y-72525767D01*
X124585389Y-72644000D01*
X109736450Y-72644000D01*
X109774531Y-72569262D01*
X109793257Y-72451029D01*
X109774531Y-72332796D01*
X109738147Y-72261389D01*
X109722874Y-72231413D01*
X109722873Y-72231412D01*
X109720185Y-72226136D01*
X109635539Y-72141490D01*
X109528879Y-72087144D01*
X109410646Y-72068418D01*
X109292413Y-72087144D01*
X109185753Y-72141490D01*
X109101107Y-72226136D01*
X109098419Y-72231412D01*
X109098418Y-72231413D01*
X109083145Y-72261389D01*
X109046761Y-72332796D01*
X109028035Y-72451029D01*
X105918716Y-72451029D01*
X105918716Y-71998156D01*
X129031185Y-71998156D01*
X129033328Y-72001722D01*
X129197624Y-72166019D01*
X129207421Y-72170588D01*
X129213413Y-72168982D01*
X129377826Y-72004568D01*
X129380816Y-71998156D01*
X130231185Y-71998156D01*
X130233328Y-72001722D01*
X130397624Y-72166019D01*
X130407421Y-72170588D01*
X130413413Y-72168982D01*
X130577826Y-72004568D01*
X130580816Y-71998156D01*
X131431185Y-71998156D01*
X131433328Y-72001722D01*
X131597624Y-72166019D01*
X131607421Y-72170588D01*
X131613413Y-72168982D01*
X131777826Y-72004568D01*
X131780816Y-71998156D01*
X132631185Y-71998156D01*
X132633328Y-72001722D01*
X132797624Y-72166019D01*
X132807421Y-72170588D01*
X132813413Y-72168982D01*
X132977826Y-72004568D01*
X132980816Y-71998156D01*
X133831185Y-71998156D01*
X133833328Y-72001722D01*
X133997624Y-72166019D01*
X134007421Y-72170588D01*
X134013413Y-72168982D01*
X134177826Y-72004568D01*
X134182394Y-71994773D01*
X134182115Y-71993731D01*
X134178974Y-71991001D01*
X134138171Y-71970211D01*
X134127051Y-71966598D01*
X134012847Y-71948510D01*
X134001153Y-71948510D01*
X133886949Y-71966598D01*
X133875829Y-71970211D01*
X133838613Y-71989173D01*
X133831242Y-71997078D01*
X133831185Y-71998156D01*
X132980816Y-71998156D01*
X132982394Y-71994773D01*
X132982115Y-71993731D01*
X132978974Y-71991001D01*
X132938171Y-71970211D01*
X132927051Y-71966598D01*
X132812847Y-71948510D01*
X132801153Y-71948510D01*
X132686949Y-71966598D01*
X132675829Y-71970211D01*
X132638613Y-71989173D01*
X132631242Y-71997078D01*
X132631185Y-71998156D01*
X131780816Y-71998156D01*
X131782394Y-71994773D01*
X131782115Y-71993731D01*
X131778974Y-71991001D01*
X131738171Y-71970211D01*
X131727051Y-71966598D01*
X131612847Y-71948510D01*
X131601153Y-71948510D01*
X131486949Y-71966598D01*
X131475829Y-71970211D01*
X131438613Y-71989173D01*
X131431242Y-71997078D01*
X131431185Y-71998156D01*
X130580816Y-71998156D01*
X130582394Y-71994773D01*
X130582115Y-71993731D01*
X130578974Y-71991001D01*
X130538171Y-71970211D01*
X130527051Y-71966598D01*
X130412847Y-71948510D01*
X130401153Y-71948510D01*
X130286949Y-71966598D01*
X130275829Y-71970211D01*
X130238613Y-71989173D01*
X130231242Y-71997078D01*
X130231185Y-71998156D01*
X129380816Y-71998156D01*
X129382394Y-71994773D01*
X129382115Y-71993731D01*
X129378974Y-71991001D01*
X129338171Y-71970211D01*
X129327051Y-71966598D01*
X129212847Y-71948510D01*
X129201153Y-71948510D01*
X129086949Y-71966598D01*
X129075829Y-71970211D01*
X129038613Y-71989173D01*
X129031242Y-71997078D01*
X129031185Y-71998156D01*
X105918716Y-71998156D01*
X105918716Y-71882000D01*
X148715389Y-71882000D01*
X148734115Y-72000233D01*
X148736802Y-72005506D01*
X148777927Y-72086218D01*
X148788461Y-72106893D01*
X148873107Y-72191539D01*
X148979767Y-72245885D01*
X149098000Y-72264611D01*
X149216233Y-72245885D01*
X149322893Y-72191539D01*
X149407539Y-72106893D01*
X149418074Y-72086218D01*
X149459198Y-72005506D01*
X149461885Y-72000233D01*
X149480611Y-71882000D01*
X155065389Y-71882000D01*
X155084115Y-72000233D01*
X155086802Y-72005506D01*
X155127927Y-72086218D01*
X155138461Y-72106893D01*
X155223107Y-72191539D01*
X155329767Y-72245885D01*
X155448000Y-72264611D01*
X155566233Y-72245885D01*
X155672893Y-72191539D01*
X155757539Y-72106893D01*
X155768074Y-72086218D01*
X155809198Y-72005506D01*
X155811885Y-72000233D01*
X155830611Y-71882000D01*
X161415389Y-71882000D01*
X161434115Y-72000233D01*
X161436802Y-72005506D01*
X161477927Y-72086218D01*
X161488461Y-72106893D01*
X161573107Y-72191539D01*
X161679767Y-72245885D01*
X161798000Y-72264611D01*
X161916233Y-72245885D01*
X162022893Y-72191539D01*
X162107539Y-72106893D01*
X162118074Y-72086218D01*
X162159198Y-72005506D01*
X162161885Y-72000233D01*
X162180611Y-71882000D01*
X162179223Y-71873233D01*
X162162811Y-71769614D01*
X162161885Y-71763767D01*
X162157418Y-71755000D01*
X167765389Y-71755000D01*
X167766315Y-71760847D01*
X167767704Y-71769614D01*
X167784115Y-71873233D01*
X167786802Y-71878506D01*
X167822471Y-71948510D01*
X167838461Y-71979893D01*
X167923107Y-72064539D01*
X168029767Y-72118885D01*
X168148000Y-72137611D01*
X168266233Y-72118885D01*
X168372893Y-72064539D01*
X168457539Y-71979893D01*
X168473530Y-71948510D01*
X168509198Y-71878506D01*
X168511885Y-71873233D01*
X168528296Y-71769614D01*
X168529685Y-71760847D01*
X168530611Y-71755000D01*
X174115389Y-71755000D01*
X174116315Y-71760847D01*
X174117704Y-71769614D01*
X174134115Y-71873233D01*
X174136802Y-71878506D01*
X174172471Y-71948510D01*
X174188461Y-71979893D01*
X174273107Y-72064539D01*
X174379767Y-72118885D01*
X174498000Y-72137611D01*
X174616233Y-72118885D01*
X174722893Y-72064539D01*
X174807539Y-71979893D01*
X174823530Y-71948510D01*
X174859198Y-71878506D01*
X174861885Y-71873233D01*
X174878296Y-71769614D01*
X174879685Y-71760847D01*
X174880611Y-71755000D01*
X174861885Y-71636767D01*
X174827749Y-71569772D01*
X174810228Y-71535384D01*
X174810227Y-71535383D01*
X174807539Y-71530107D01*
X174722893Y-71445461D01*
X174616233Y-71391115D01*
X174498000Y-71372389D01*
X174379767Y-71391115D01*
X174273107Y-71445461D01*
X174188461Y-71530107D01*
X174185773Y-71535383D01*
X174185772Y-71535384D01*
X174168251Y-71569772D01*
X174134115Y-71636767D01*
X174115389Y-71755000D01*
X168530611Y-71755000D01*
X168511885Y-71636767D01*
X168477749Y-71569772D01*
X168460228Y-71535384D01*
X168460227Y-71535383D01*
X168457539Y-71530107D01*
X168372893Y-71445461D01*
X168266233Y-71391115D01*
X168148000Y-71372389D01*
X168029767Y-71391115D01*
X167923107Y-71445461D01*
X167838461Y-71530107D01*
X167835773Y-71535383D01*
X167835772Y-71535384D01*
X167818251Y-71569772D01*
X167784115Y-71636767D01*
X167765389Y-71755000D01*
X162157418Y-71755000D01*
X162107539Y-71657107D01*
X162022893Y-71572461D01*
X161916233Y-71518115D01*
X161798000Y-71499389D01*
X161679767Y-71518115D01*
X161573107Y-71572461D01*
X161488461Y-71657107D01*
X161434115Y-71763767D01*
X161433189Y-71769614D01*
X161416778Y-71873233D01*
X161415389Y-71882000D01*
X155830611Y-71882000D01*
X155829223Y-71873233D01*
X155812811Y-71769614D01*
X155811885Y-71763767D01*
X155757539Y-71657107D01*
X155672893Y-71572461D01*
X155566233Y-71518115D01*
X155448000Y-71499389D01*
X155329767Y-71518115D01*
X155223107Y-71572461D01*
X155138461Y-71657107D01*
X155084115Y-71763767D01*
X155083189Y-71769614D01*
X155066778Y-71873233D01*
X155065389Y-71882000D01*
X149480611Y-71882000D01*
X149479223Y-71873233D01*
X149462811Y-71769614D01*
X149461885Y-71763767D01*
X149407539Y-71657107D01*
X149322893Y-71572461D01*
X149216233Y-71518115D01*
X149098000Y-71499389D01*
X148979767Y-71518115D01*
X148873107Y-71572461D01*
X148788461Y-71657107D01*
X148734115Y-71763767D01*
X148733189Y-71769614D01*
X148716778Y-71873233D01*
X148715389Y-71882000D01*
X105918716Y-71882000D01*
X105918716Y-71515227D01*
X129031606Y-71515227D01*
X129031885Y-71516269D01*
X129035026Y-71518999D01*
X129075829Y-71539789D01*
X129086949Y-71543402D01*
X129201153Y-71561490D01*
X129212847Y-71561490D01*
X129327051Y-71543402D01*
X129338171Y-71539789D01*
X129375387Y-71520827D01*
X129380609Y-71515227D01*
X130231606Y-71515227D01*
X130231885Y-71516269D01*
X130235026Y-71518999D01*
X130275829Y-71539789D01*
X130286949Y-71543402D01*
X130401153Y-71561490D01*
X130412847Y-71561490D01*
X130527051Y-71543402D01*
X130538171Y-71539789D01*
X130575387Y-71520827D01*
X130580609Y-71515227D01*
X131431606Y-71515227D01*
X131431885Y-71516269D01*
X131435026Y-71518999D01*
X131475829Y-71539789D01*
X131486949Y-71543402D01*
X131601153Y-71561490D01*
X131612847Y-71561490D01*
X131727051Y-71543402D01*
X131738171Y-71539789D01*
X131775387Y-71520827D01*
X131780609Y-71515227D01*
X132631606Y-71515227D01*
X132631885Y-71516269D01*
X132635026Y-71518999D01*
X132675829Y-71539789D01*
X132686949Y-71543402D01*
X132801153Y-71561490D01*
X132812847Y-71561490D01*
X132927051Y-71543402D01*
X132938171Y-71539789D01*
X132975387Y-71520827D01*
X132980609Y-71515227D01*
X133831606Y-71515227D01*
X133831885Y-71516269D01*
X133835026Y-71518999D01*
X133875829Y-71539789D01*
X133886949Y-71543402D01*
X134001153Y-71561490D01*
X134012847Y-71561490D01*
X134127051Y-71543402D01*
X134138171Y-71539789D01*
X134175387Y-71520827D01*
X134182758Y-71512922D01*
X134182815Y-71511844D01*
X134180672Y-71508278D01*
X134016376Y-71343981D01*
X134006579Y-71339412D01*
X134000587Y-71341018D01*
X133836174Y-71505432D01*
X133831606Y-71515227D01*
X132980609Y-71515227D01*
X132982758Y-71512922D01*
X132982815Y-71511844D01*
X132980672Y-71508278D01*
X132816376Y-71343981D01*
X132806579Y-71339412D01*
X132800587Y-71341018D01*
X132636174Y-71505432D01*
X132631606Y-71515227D01*
X131780609Y-71515227D01*
X131782758Y-71512922D01*
X131782815Y-71511844D01*
X131780672Y-71508278D01*
X131616376Y-71343981D01*
X131606579Y-71339412D01*
X131600587Y-71341018D01*
X131436174Y-71505432D01*
X131431606Y-71515227D01*
X130580609Y-71515227D01*
X130582758Y-71512922D01*
X130582815Y-71511844D01*
X130580672Y-71508278D01*
X130416376Y-71343981D01*
X130406579Y-71339412D01*
X130400587Y-71341018D01*
X130236174Y-71505432D01*
X130231606Y-71515227D01*
X129380609Y-71515227D01*
X129382758Y-71512922D01*
X129382815Y-71511844D01*
X129380672Y-71508278D01*
X129216376Y-71343981D01*
X129206579Y-71339412D01*
X129200587Y-71341018D01*
X129036174Y-71505432D01*
X129031606Y-71515227D01*
X105918716Y-71515227D01*
X105918716Y-70866000D01*
X111123389Y-70866000D01*
X111142115Y-70984233D01*
X111196461Y-71090893D01*
X111281107Y-71175539D01*
X111387767Y-71229885D01*
X111506000Y-71248611D01*
X111624233Y-71229885D01*
X111730893Y-71175539D01*
X111745585Y-71160847D01*
X128800510Y-71160847D01*
X128818598Y-71275051D01*
X128822211Y-71286171D01*
X128841173Y-71323387D01*
X128849078Y-71330758D01*
X128850156Y-71330815D01*
X128853722Y-71328672D01*
X129018019Y-71164376D01*
X129022195Y-71155421D01*
X129391412Y-71155421D01*
X129393018Y-71161413D01*
X129557432Y-71325826D01*
X129567227Y-71330394D01*
X129568269Y-71330115D01*
X129570999Y-71326974D01*
X129591789Y-71286171D01*
X129595402Y-71275051D01*
X129613490Y-71160847D01*
X130000510Y-71160847D01*
X130018598Y-71275051D01*
X130022211Y-71286171D01*
X130041173Y-71323387D01*
X130049078Y-71330758D01*
X130050156Y-71330815D01*
X130053722Y-71328672D01*
X130218019Y-71164376D01*
X130222195Y-71155421D01*
X130591412Y-71155421D01*
X130593018Y-71161413D01*
X130757432Y-71325826D01*
X130767227Y-71330394D01*
X130768269Y-71330115D01*
X130770999Y-71326974D01*
X130791789Y-71286171D01*
X130795402Y-71275051D01*
X130813490Y-71160847D01*
X131200510Y-71160847D01*
X131218598Y-71275051D01*
X131222211Y-71286171D01*
X131241173Y-71323387D01*
X131249078Y-71330758D01*
X131250156Y-71330815D01*
X131253722Y-71328672D01*
X131418019Y-71164376D01*
X131422195Y-71155421D01*
X131791412Y-71155421D01*
X131793018Y-71161413D01*
X131957432Y-71325826D01*
X131967227Y-71330394D01*
X131968269Y-71330115D01*
X131970999Y-71326974D01*
X131991789Y-71286171D01*
X131995402Y-71275051D01*
X132013490Y-71160847D01*
X132400510Y-71160847D01*
X132418598Y-71275051D01*
X132422211Y-71286171D01*
X132441173Y-71323387D01*
X132449078Y-71330758D01*
X132450156Y-71330815D01*
X132453722Y-71328672D01*
X132618019Y-71164376D01*
X132622195Y-71155421D01*
X132991412Y-71155421D01*
X132993018Y-71161413D01*
X133157432Y-71325826D01*
X133167227Y-71330394D01*
X133168269Y-71330115D01*
X133170999Y-71326974D01*
X133191789Y-71286171D01*
X133195402Y-71275051D01*
X133213490Y-71160847D01*
X133600510Y-71160847D01*
X133618598Y-71275051D01*
X133622211Y-71286171D01*
X133641173Y-71323387D01*
X133649078Y-71330758D01*
X133650156Y-71330815D01*
X133653722Y-71328672D01*
X133818019Y-71164376D01*
X133822195Y-71155421D01*
X134191412Y-71155421D01*
X134193018Y-71161413D01*
X134357432Y-71325826D01*
X134367227Y-71330394D01*
X134368269Y-71330115D01*
X134370999Y-71326974D01*
X134391789Y-71286171D01*
X134395402Y-71275051D01*
X134413490Y-71160847D01*
X134413490Y-71149153D01*
X134395402Y-71034949D01*
X134391789Y-71023829D01*
X134372827Y-70986613D01*
X134364922Y-70979242D01*
X134363844Y-70979185D01*
X134360278Y-70981328D01*
X134195981Y-71145624D01*
X134191412Y-71155421D01*
X133822195Y-71155421D01*
X133822588Y-71154579D01*
X133820982Y-71148587D01*
X133656568Y-70984174D01*
X133646773Y-70979606D01*
X133645731Y-70979885D01*
X133643001Y-70983026D01*
X133622211Y-71023829D01*
X133618598Y-71034949D01*
X133600510Y-71149153D01*
X133600510Y-71160847D01*
X133213490Y-71160847D01*
X133213490Y-71149153D01*
X133195402Y-71034949D01*
X133191789Y-71023829D01*
X133172827Y-70986613D01*
X133164922Y-70979242D01*
X133163844Y-70979185D01*
X133160278Y-70981328D01*
X132995981Y-71145624D01*
X132991412Y-71155421D01*
X132622195Y-71155421D01*
X132622588Y-71154579D01*
X132620982Y-71148587D01*
X132456568Y-70984174D01*
X132446773Y-70979606D01*
X132445731Y-70979885D01*
X132443001Y-70983026D01*
X132422211Y-71023829D01*
X132418598Y-71034949D01*
X132400510Y-71149153D01*
X132400510Y-71160847D01*
X132013490Y-71160847D01*
X132013490Y-71149153D01*
X131995402Y-71034949D01*
X131991789Y-71023829D01*
X131972827Y-70986613D01*
X131964922Y-70979242D01*
X131963844Y-70979185D01*
X131960278Y-70981328D01*
X131795981Y-71145624D01*
X131791412Y-71155421D01*
X131422195Y-71155421D01*
X131422588Y-71154579D01*
X131420982Y-71148587D01*
X131256568Y-70984174D01*
X131246773Y-70979606D01*
X131245731Y-70979885D01*
X131243001Y-70983026D01*
X131222211Y-71023829D01*
X131218598Y-71034949D01*
X131200510Y-71149153D01*
X131200510Y-71160847D01*
X130813490Y-71160847D01*
X130813490Y-71149153D01*
X130795402Y-71034949D01*
X130791789Y-71023829D01*
X130772827Y-70986613D01*
X130764922Y-70979242D01*
X130763844Y-70979185D01*
X130760278Y-70981328D01*
X130595981Y-71145624D01*
X130591412Y-71155421D01*
X130222195Y-71155421D01*
X130222588Y-71154579D01*
X130220982Y-71148587D01*
X130056568Y-70984174D01*
X130046773Y-70979606D01*
X130045731Y-70979885D01*
X130043001Y-70983026D01*
X130022211Y-71023829D01*
X130018598Y-71034949D01*
X130000510Y-71149153D01*
X130000510Y-71160847D01*
X129613490Y-71160847D01*
X129613490Y-71149153D01*
X129595402Y-71034949D01*
X129591789Y-71023829D01*
X129572827Y-70986613D01*
X129564922Y-70979242D01*
X129563844Y-70979185D01*
X129560278Y-70981328D01*
X129395981Y-71145624D01*
X129391412Y-71155421D01*
X129022195Y-71155421D01*
X129022588Y-71154579D01*
X129020982Y-71148587D01*
X128856568Y-70984174D01*
X128846773Y-70979606D01*
X128845731Y-70979885D01*
X128843001Y-70983026D01*
X128822211Y-71023829D01*
X128818598Y-71034949D01*
X128800510Y-71149153D01*
X128800510Y-71160847D01*
X111745585Y-71160847D01*
X111815539Y-71090893D01*
X111869885Y-70984233D01*
X111888611Y-70866000D01*
X111877866Y-70798156D01*
X129031185Y-70798156D01*
X129033328Y-70801722D01*
X129197624Y-70966019D01*
X129207421Y-70970588D01*
X129213413Y-70968982D01*
X129377826Y-70804568D01*
X129380816Y-70798156D01*
X130231185Y-70798156D01*
X130233328Y-70801722D01*
X130397624Y-70966019D01*
X130407421Y-70970588D01*
X130413413Y-70968982D01*
X130577826Y-70804568D01*
X130580816Y-70798156D01*
X131431185Y-70798156D01*
X131433328Y-70801722D01*
X131597624Y-70966019D01*
X131607421Y-70970588D01*
X131613413Y-70968982D01*
X131777826Y-70804568D01*
X131780816Y-70798156D01*
X132631185Y-70798156D01*
X132633328Y-70801722D01*
X132797624Y-70966019D01*
X132807421Y-70970588D01*
X132813413Y-70968982D01*
X132977826Y-70804568D01*
X132980816Y-70798156D01*
X133831185Y-70798156D01*
X133833328Y-70801722D01*
X133997624Y-70966019D01*
X134007421Y-70970588D01*
X134013413Y-70968982D01*
X134177826Y-70804568D01*
X134182394Y-70794773D01*
X134182115Y-70793731D01*
X134178974Y-70791001D01*
X134138171Y-70770211D01*
X134127051Y-70766598D01*
X134012847Y-70748510D01*
X134001153Y-70748510D01*
X133886949Y-70766598D01*
X133875829Y-70770211D01*
X133838613Y-70789173D01*
X133831242Y-70797078D01*
X133831185Y-70798156D01*
X132980816Y-70798156D01*
X132982394Y-70794773D01*
X132982115Y-70793731D01*
X132978974Y-70791001D01*
X132938171Y-70770211D01*
X132927051Y-70766598D01*
X132812847Y-70748510D01*
X132801153Y-70748510D01*
X132686949Y-70766598D01*
X132675829Y-70770211D01*
X132638613Y-70789173D01*
X132631242Y-70797078D01*
X132631185Y-70798156D01*
X131780816Y-70798156D01*
X131782394Y-70794773D01*
X131782115Y-70793731D01*
X131778974Y-70791001D01*
X131738171Y-70770211D01*
X131727051Y-70766598D01*
X131612847Y-70748510D01*
X131601153Y-70748510D01*
X131486949Y-70766598D01*
X131475829Y-70770211D01*
X131438613Y-70789173D01*
X131431242Y-70797078D01*
X131431185Y-70798156D01*
X130580816Y-70798156D01*
X130582394Y-70794773D01*
X130582115Y-70793731D01*
X130578974Y-70791001D01*
X130538171Y-70770211D01*
X130527051Y-70766598D01*
X130412847Y-70748510D01*
X130401153Y-70748510D01*
X130286949Y-70766598D01*
X130275829Y-70770211D01*
X130238613Y-70789173D01*
X130231242Y-70797078D01*
X130231185Y-70798156D01*
X129380816Y-70798156D01*
X129382394Y-70794773D01*
X129382115Y-70793731D01*
X129378974Y-70791001D01*
X129338171Y-70770211D01*
X129327051Y-70766598D01*
X129212847Y-70748510D01*
X129201153Y-70748510D01*
X129086949Y-70766598D01*
X129075829Y-70770211D01*
X129038613Y-70789173D01*
X129031242Y-70797078D01*
X129031185Y-70798156D01*
X111877866Y-70798156D01*
X111869885Y-70747767D01*
X111815539Y-70641107D01*
X111730893Y-70556461D01*
X111624233Y-70502115D01*
X111506000Y-70483389D01*
X111387767Y-70502115D01*
X111281107Y-70556461D01*
X111196461Y-70641107D01*
X111142115Y-70747767D01*
X111123389Y-70866000D01*
X105918716Y-70866000D01*
X105918716Y-69850000D01*
X125220389Y-69850000D01*
X125239115Y-69968233D01*
X125293461Y-70074893D01*
X125378107Y-70159539D01*
X125484767Y-70213885D01*
X125603000Y-70232611D01*
X125721233Y-70213885D01*
X125827893Y-70159539D01*
X125912539Y-70074893D01*
X125966885Y-69968233D01*
X125985611Y-69850000D01*
X125966885Y-69731767D01*
X125912539Y-69625107D01*
X125827893Y-69540461D01*
X125721233Y-69486115D01*
X125603000Y-69467389D01*
X125484767Y-69486115D01*
X125378107Y-69540461D01*
X125293461Y-69625107D01*
X125239115Y-69731767D01*
X125220389Y-69850000D01*
X105918716Y-69850000D01*
X105918716Y-69342000D01*
X117981389Y-69342000D01*
X118000115Y-69460233D01*
X118054461Y-69566893D01*
X118139107Y-69651539D01*
X118245767Y-69705885D01*
X118364000Y-69724611D01*
X118482233Y-69705885D01*
X118588893Y-69651539D01*
X118673539Y-69566893D01*
X118727885Y-69460233D01*
X118746611Y-69342000D01*
X118727885Y-69223767D01*
X118673539Y-69117107D01*
X118588893Y-69032461D01*
X118482233Y-68978115D01*
X118374172Y-68961000D01*
X125855389Y-68961000D01*
X125856315Y-68966847D01*
X125857704Y-68975614D01*
X125874115Y-69079233D01*
X125928461Y-69185893D01*
X126013107Y-69270539D01*
X126119767Y-69324885D01*
X126238000Y-69343611D01*
X126356233Y-69324885D01*
X126462893Y-69270539D01*
X126547539Y-69185893D01*
X126597418Y-69088000D01*
X131443389Y-69088000D01*
X131462115Y-69206233D01*
X131516461Y-69312893D01*
X131601107Y-69397539D01*
X131707767Y-69451885D01*
X131826000Y-69470611D01*
X131944233Y-69451885D01*
X132050893Y-69397539D01*
X132135539Y-69312893D01*
X132189885Y-69206233D01*
X132208611Y-69088000D01*
X132207223Y-69079233D01*
X132191207Y-68978115D01*
X132189885Y-68969767D01*
X132135539Y-68863107D01*
X132050893Y-68778461D01*
X131944233Y-68724115D01*
X131826000Y-68705389D01*
X131707767Y-68724115D01*
X131601107Y-68778461D01*
X131516461Y-68863107D01*
X131462115Y-68969767D01*
X131460793Y-68978115D01*
X131444778Y-69079233D01*
X131443389Y-69088000D01*
X126597418Y-69088000D01*
X126601885Y-69079233D01*
X126618296Y-68975614D01*
X126619685Y-68966847D01*
X126620611Y-68961000D01*
X126601885Y-68842767D01*
X126547539Y-68736107D01*
X126462893Y-68651461D01*
X126356233Y-68597115D01*
X126248172Y-68580000D01*
X135888389Y-68580000D01*
X135907115Y-68698233D01*
X135961461Y-68804893D01*
X136046107Y-68889539D01*
X136152767Y-68943885D01*
X136271000Y-68962611D01*
X136389233Y-68943885D01*
X136495893Y-68889539D01*
X136580539Y-68804893D01*
X136634885Y-68698233D01*
X136653611Y-68580000D01*
X136634885Y-68461767D01*
X136580539Y-68355107D01*
X136495893Y-68270461D01*
X136389233Y-68216115D01*
X136285497Y-68199685D01*
X136276847Y-68198315D01*
X136271000Y-68197389D01*
X136265153Y-68198315D01*
X136256503Y-68199685D01*
X136152767Y-68216115D01*
X136046107Y-68270461D01*
X135961461Y-68355107D01*
X135907115Y-68461767D01*
X135888389Y-68580000D01*
X126248172Y-68580000D01*
X126238000Y-68578389D01*
X126119767Y-68597115D01*
X126013107Y-68651461D01*
X125928461Y-68736107D01*
X125874115Y-68842767D01*
X125855389Y-68961000D01*
X118374172Y-68961000D01*
X118364000Y-68959389D01*
X118245767Y-68978115D01*
X118139107Y-69032461D01*
X118054461Y-69117107D01*
X118000115Y-69223767D01*
X117981389Y-69342000D01*
X105918716Y-69342000D01*
X105918716Y-67310000D01*
X110107389Y-67310000D01*
X110126115Y-67428233D01*
X110180461Y-67534893D01*
X110265107Y-67619539D01*
X110371767Y-67673885D01*
X110490000Y-67692611D01*
X110500172Y-67691000D01*
X127125389Y-67691000D01*
X127126315Y-67696847D01*
X127127704Y-67705614D01*
X127144115Y-67809233D01*
X127198461Y-67915893D01*
X127283107Y-68000539D01*
X127389767Y-68054885D01*
X127508000Y-68073611D01*
X127626233Y-68054885D01*
X127732893Y-68000539D01*
X127763032Y-67970400D01*
X137437789Y-67970400D01*
X137456515Y-68088633D01*
X137510861Y-68195293D01*
X137595507Y-68279939D01*
X137702167Y-68334285D01*
X137708014Y-68335211D01*
X137807179Y-68350917D01*
X137820400Y-68353011D01*
X137833622Y-68350917D01*
X137932786Y-68335211D01*
X137938633Y-68334285D01*
X138045293Y-68279939D01*
X138129939Y-68195293D01*
X138184285Y-68088633D01*
X138203011Y-67970400D01*
X138196674Y-67930386D01*
X138185211Y-67858014D01*
X138184285Y-67852167D01*
X138166876Y-67818000D01*
X146048389Y-67818000D01*
X146049315Y-67823847D01*
X146057752Y-67877116D01*
X146067115Y-67936233D01*
X146121461Y-68042893D01*
X146206107Y-68127539D01*
X146312767Y-68181885D01*
X146431000Y-68200611D01*
X146549233Y-68181885D01*
X146655893Y-68127539D01*
X146740539Y-68042893D01*
X146794885Y-67936233D01*
X146804248Y-67877116D01*
X146812685Y-67823847D01*
X146813611Y-67818000D01*
X169289389Y-67818000D01*
X169290315Y-67823847D01*
X169298752Y-67877116D01*
X169308115Y-67936233D01*
X169362461Y-68042893D01*
X169447107Y-68127539D01*
X169553767Y-68181885D01*
X169672000Y-68200611D01*
X169790233Y-68181885D01*
X169896893Y-68127539D01*
X169981539Y-68042893D01*
X170035885Y-67936233D01*
X170045248Y-67877116D01*
X170053685Y-67823847D01*
X170054611Y-67818000D01*
X170053223Y-67809233D01*
X170036811Y-67705614D01*
X170035885Y-67699767D01*
X169981539Y-67593107D01*
X169896893Y-67508461D01*
X169790233Y-67454115D01*
X169672000Y-67435389D01*
X169553767Y-67454115D01*
X169447107Y-67508461D01*
X169362461Y-67593107D01*
X169308115Y-67699767D01*
X169307189Y-67705614D01*
X169290778Y-67809233D01*
X169289389Y-67818000D01*
X146813611Y-67818000D01*
X146812223Y-67809233D01*
X146795811Y-67705614D01*
X146794885Y-67699767D01*
X146740539Y-67593107D01*
X146655893Y-67508461D01*
X146549233Y-67454115D01*
X146431000Y-67435389D01*
X146312767Y-67454115D01*
X146206107Y-67508461D01*
X146121461Y-67593107D01*
X146067115Y-67699767D01*
X146066189Y-67705614D01*
X146049778Y-67809233D01*
X146048389Y-67818000D01*
X138166876Y-67818000D01*
X138129939Y-67745507D01*
X138045293Y-67660861D01*
X137938633Y-67606515D01*
X137820400Y-67587789D01*
X137702167Y-67606515D01*
X137595507Y-67660861D01*
X137510861Y-67745507D01*
X137456515Y-67852167D01*
X137455589Y-67858014D01*
X137444127Y-67930386D01*
X137437789Y-67970400D01*
X127763032Y-67970400D01*
X127817539Y-67915893D01*
X127871885Y-67809233D01*
X127888296Y-67705614D01*
X127889685Y-67696847D01*
X127890611Y-67691000D01*
X127871885Y-67572767D01*
X127817539Y-67466107D01*
X127732893Y-67381461D01*
X127626233Y-67327115D01*
X127508000Y-67308389D01*
X127389767Y-67327115D01*
X127283107Y-67381461D01*
X127198461Y-67466107D01*
X127144115Y-67572767D01*
X127125389Y-67691000D01*
X110500172Y-67691000D01*
X110608233Y-67673885D01*
X110714893Y-67619539D01*
X110799539Y-67534893D01*
X110853885Y-67428233D01*
X110872611Y-67310000D01*
X110853885Y-67191767D01*
X110799539Y-67085107D01*
X110714893Y-67000461D01*
X110608233Y-66946115D01*
X110490000Y-66927389D01*
X110371767Y-66946115D01*
X110265107Y-67000461D01*
X110180461Y-67085107D01*
X110126115Y-67191767D01*
X110107389Y-67310000D01*
X105918716Y-67310000D01*
X105918716Y-66040000D01*
X126236389Y-66040000D01*
X126237315Y-66045847D01*
X126238704Y-66054614D01*
X126255115Y-66158233D01*
X126309461Y-66264893D01*
X126394107Y-66349539D01*
X126500767Y-66403885D01*
X126619000Y-66422611D01*
X126737233Y-66403885D01*
X126843893Y-66349539D01*
X126928539Y-66264893D01*
X126982885Y-66158233D01*
X126999296Y-66054614D01*
X127000685Y-66045847D01*
X127001611Y-66040000D01*
X127000223Y-66031233D01*
X126983811Y-65927614D01*
X126982885Y-65921767D01*
X126928539Y-65815107D01*
X126899432Y-65786000D01*
X129157389Y-65786000D01*
X129158315Y-65791847D01*
X129159704Y-65800614D01*
X129176115Y-65904233D01*
X129230461Y-66010893D01*
X129315107Y-66095539D01*
X129421767Y-66149885D01*
X129540000Y-66168611D01*
X129550172Y-66167000D01*
X131443389Y-66167000D01*
X131462115Y-66285233D01*
X131516461Y-66391893D01*
X131601107Y-66476539D01*
X131606383Y-66479227D01*
X131606384Y-66479228D01*
X131640579Y-66496651D01*
X131707767Y-66530885D01*
X131826000Y-66549611D01*
X131944233Y-66530885D01*
X132011421Y-66496651D01*
X132045616Y-66479228D01*
X132045617Y-66479227D01*
X132050893Y-66476539D01*
X132135539Y-66391893D01*
X132189885Y-66285233D01*
X132208611Y-66167000D01*
X132207223Y-66158233D01*
X132190811Y-66054614D01*
X132189885Y-66048767D01*
X132135539Y-65942107D01*
X132050893Y-65857461D01*
X131944233Y-65803115D01*
X131826000Y-65784389D01*
X131707767Y-65803115D01*
X131601107Y-65857461D01*
X131516461Y-65942107D01*
X131462115Y-66048767D01*
X131461189Y-66054614D01*
X131444778Y-66158233D01*
X131443389Y-66167000D01*
X129550172Y-66167000D01*
X129658233Y-66149885D01*
X129764893Y-66095539D01*
X129849539Y-66010893D01*
X129903885Y-65904233D01*
X129920296Y-65800614D01*
X129921685Y-65791847D01*
X129922611Y-65786000D01*
X129903885Y-65667767D01*
X129850137Y-65562281D01*
X129843868Y-65511225D01*
X129871884Y-65468084D01*
X129921077Y-65453044D01*
X129951280Y-65461137D01*
X130056767Y-65514885D01*
X130175000Y-65533611D01*
X130293233Y-65514885D01*
X130360421Y-65480651D01*
X130394616Y-65463228D01*
X130394617Y-65463227D01*
X130399893Y-65460539D01*
X130484539Y-65375893D01*
X130538885Y-65269233D01*
X130557611Y-65151000D01*
X130538885Y-65032767D01*
X130484539Y-64926107D01*
X130399893Y-64841461D01*
X130293233Y-64787115D01*
X130175000Y-64768389D01*
X130056767Y-64787115D01*
X129950107Y-64841461D01*
X129865461Y-64926107D01*
X129811115Y-65032767D01*
X129792389Y-65151000D01*
X129811115Y-65269233D01*
X129820049Y-65286767D01*
X129864863Y-65374719D01*
X129871132Y-65425775D01*
X129843116Y-65468916D01*
X129793923Y-65483956D01*
X129763719Y-65475863D01*
X129658233Y-65422115D01*
X129540000Y-65403389D01*
X129421767Y-65422115D01*
X129414584Y-65425775D01*
X129331548Y-65468084D01*
X129315107Y-65476461D01*
X129230461Y-65561107D01*
X129176115Y-65667767D01*
X129157389Y-65786000D01*
X126899432Y-65786000D01*
X126843893Y-65730461D01*
X126812645Y-65714539D01*
X126786255Y-65701093D01*
X126737233Y-65676115D01*
X126619000Y-65657389D01*
X126500767Y-65676115D01*
X126451745Y-65701093D01*
X126425356Y-65714539D01*
X126394107Y-65730461D01*
X126309461Y-65815107D01*
X126255115Y-65921767D01*
X126254189Y-65927614D01*
X126237778Y-66031233D01*
X126236389Y-66040000D01*
X105918716Y-66040000D01*
X105918716Y-64210200D01*
X105936309Y-64161862D01*
X105980858Y-64136142D01*
X105993916Y-64135000D01*
X136886509Y-64135000D01*
X136934847Y-64152593D01*
G37*
G04 #@! TD.AperFunction*
M02*
