G04 #@! TF.GenerationSoftware,KiCad,Pcbnew,(6.0.0)*
G04 #@! TF.CreationDate,2022-02-07T18:43:46-08:00*
G04 #@! TF.ProjectId,LightsProject_Rev_C,4c696768-7473-4507-926f-6a6563745f52,rev?*
G04 #@! TF.SameCoordinates,Original*
G04 #@! TF.FileFunction,Soldermask,Top*
G04 #@! TF.FilePolarity,Negative*
%FSLAX46Y46*%
G04 Gerber Fmt 4.6, Leading zero omitted, Abs format (unit mm)*
G04 Created by KiCad (PCBNEW (6.0.0)) date 2022-02-07 18:43:46*
%MOMM*%
%LPD*%
G01*
G04 APERTURE LIST*
G04 Aperture macros list*
%AMRoundRect*
0 Rectangle with rounded corners*
0 $1 Rounding radius*
0 $2 $3 $4 $5 $6 $7 $8 $9 X,Y pos of 4 corners*
0 Add a 4 corners polygon primitive as box body*
4,1,4,$2,$3,$4,$5,$6,$7,$8,$9,$2,$3,0*
0 Add four circle primitives for the rounded corners*
1,1,$1+$1,$2,$3*
1,1,$1+$1,$4,$5*
1,1,$1+$1,$6,$7*
1,1,$1+$1,$8,$9*
0 Add four rect primitives between the rounded corners*
20,1,$1+$1,$2,$3,$4,$5,0*
20,1,$1+$1,$4,$5,$6,$7,0*
20,1,$1+$1,$6,$7,$8,$9,0*
20,1,$1+$1,$8,$9,$2,$3,0*%
G04 Aperture macros list end*
%ADD10RoundRect,0.165400X-0.140000X-0.170000X0.140000X-0.170000X0.140000X0.170000X-0.140000X0.170000X0*%
%ADD11RoundRect,0.025400X-0.850000X-0.850000X0.850000X-0.850000X0.850000X0.850000X-0.850000X0.850000X0*%
%ADD12O,1.750800X1.750800*%
%ADD13RoundRect,0.160400X-0.185000X0.135000X-0.185000X-0.135000X0.185000X-0.135000X0.185000X0.135000X0*%
%ADD14C,2.250800*%
%ADD15RoundRect,0.025400X0.800000X-0.400000X0.800000X0.400000X-0.800000X0.400000X-0.800000X-0.400000X0*%
%ADD16RoundRect,0.160400X0.135000X0.185000X-0.135000X0.185000X-0.135000X-0.185000X0.135000X-0.185000X0*%
%ADD17C,0.736600*%
%ADD18O,1.350800X2.550800*%
%ADD19O,1.350800X3.250800*%
%ADD20RoundRect,0.165400X-0.170000X0.140000X-0.170000X-0.140000X0.170000X-0.140000X0.170000X0.140000X0*%
%ADD21RoundRect,0.025400X-0.500000X-0.500000X0.500000X-0.500000X0.500000X0.500000X-0.500000X0.500000X0*%
%ADD22RoundRect,0.175400X0.150000X-0.587500X0.150000X0.587500X-0.150000X0.587500X-0.150000X-0.587500X0*%
%ADD23RoundRect,0.250400X0.225000X0.250000X-0.225000X0.250000X-0.225000X-0.250000X0.225000X-0.250000X0*%
%ADD24RoundRect,0.250400X0.250000X-0.225000X0.250000X0.225000X-0.250000X0.225000X-0.250000X-0.225000X0*%
%ADD25RoundRect,0.250400X-0.225000X-0.250000X0.225000X-0.250000X0.225000X0.250000X-0.225000X0.250000X0*%
%ADD26RoundRect,0.160400X0.185000X-0.135000X0.185000X0.135000X-0.185000X0.135000X-0.185000X-0.135000X0*%
%ADD27RoundRect,0.269150X0.243750X0.456250X-0.243750X0.456250X-0.243750X-0.456250X0.243750X-0.456250X0*%
%ADD28RoundRect,0.269150X-0.456250X0.243750X-0.456250X-0.243750X0.456250X-0.243750X0.456250X0.243750X0*%
%ADD29RoundRect,0.250400X-0.250000X0.225000X-0.250000X-0.225000X0.250000X-0.225000X0.250000X0.225000X0*%
%ADD30RoundRect,0.244150X0.218750X0.256250X-0.218750X0.256250X-0.218750X-0.256250X0.218750X-0.256250X0*%
%ADD31RoundRect,0.175400X-0.512500X-0.150000X0.512500X-0.150000X0.512500X0.150000X-0.512500X0.150000X0*%
%ADD32RoundRect,0.025400X0.700000X-1.050000X0.700000X1.050000X-0.700000X1.050000X-0.700000X-1.050000X0*%
%ADD33RoundRect,0.160400X-0.135000X-0.185000X0.135000X-0.185000X0.135000X0.185000X-0.135000X0.185000X0*%
%ADD34RoundRect,0.175400X-0.587500X-0.150000X0.587500X-0.150000X0.587500X0.150000X-0.587500X0.150000X0*%
%ADD35RoundRect,0.025400X-1.100000X-0.300000X1.100000X-0.300000X1.100000X0.300000X-1.100000X0.300000X0*%
%ADD36RoundRect,0.025400X-1.075000X-1.725000X1.075000X-1.725000X1.075000X1.725000X-1.075000X1.725000X0*%
%ADD37RoundRect,0.025400X0.127000X-0.450000X0.127000X0.450000X-0.127000X0.450000X-0.127000X-0.450000X0*%
%ADD38RoundRect,0.025400X0.450000X-0.127000X0.450000X0.127000X-0.450000X0.127000X-0.450000X-0.127000X0*%
%ADD39RoundRect,0.025400X1.550000X-1.550000X1.550000X1.550000X-1.550000X1.550000X-1.550000X-1.550000X0*%
%ADD40RoundRect,0.175400X0.650000X0.150000X-0.650000X0.150000X-0.650000X-0.150000X0.650000X-0.150000X0*%
%ADD41RoundRect,0.025400X1.200000X1.600000X-1.200000X1.600000X-1.200000X-1.600000X1.200000X-1.600000X0*%
%ADD42RoundRect,0.087900X-0.062500X0.337500X-0.062500X-0.337500X0.062500X-0.337500X0.062500X0.337500X0*%
%ADD43RoundRect,0.087900X-0.337500X0.062500X-0.337500X-0.062500X0.337500X-0.062500X0.337500X0.062500X0*%
%ADD44RoundRect,0.025400X-2.650000X2.650000X-2.650000X-2.650000X2.650000X-2.650000X2.650000X2.650000X0*%
%ADD45RoundRect,0.165400X0.140000X0.170000X-0.140000X0.170000X-0.140000X-0.170000X0.140000X-0.170000X0*%
%ADD46RoundRect,0.025400X0.500000X-0.500000X0.500000X0.500000X-0.500000X0.500000X-0.500000X-0.500000X0*%
%ADD47C,1.050800*%
%ADD48RoundRect,0.087900X0.375000X0.062500X-0.375000X0.062500X-0.375000X-0.062500X0.375000X-0.062500X0*%
%ADD49RoundRect,0.087900X0.062500X0.375000X-0.062500X0.375000X-0.062500X-0.375000X0.062500X-0.375000X0*%
%ADD50RoundRect,0.025400X1.550000X1.550000X-1.550000X1.550000X-1.550000X-1.550000X1.550000X-1.550000X0*%
G04 APERTURE END LIST*
D10*
X133921000Y-65046000D03*
X134881000Y-65046000D03*
D11*
X121666000Y-80020000D03*
D12*
X121666000Y-82560000D03*
X121666000Y-85100000D03*
X121666000Y-87640000D03*
D13*
X167817800Y-87526400D03*
X167817800Y-88546400D03*
D14*
X177437720Y-60842296D03*
D15*
X133985000Y-63103500D03*
X133985000Y-59703500D03*
D16*
X152402000Y-96520000D03*
X151382000Y-96520000D03*
D17*
X140463876Y-96065407D03*
X141313876Y-96065407D03*
X142163876Y-96065407D03*
X143013876Y-96065407D03*
X143863877Y-96065407D03*
X144713875Y-96065407D03*
X145563876Y-96065407D03*
X146413877Y-96065407D03*
X146413877Y-97415407D03*
X145563876Y-97415407D03*
X144713875Y-97415407D03*
X143863877Y-97415407D03*
X143013876Y-97415407D03*
X142163876Y-97415407D03*
X141313876Y-97415407D03*
X140463876Y-97415407D03*
D18*
X139118875Y-100715408D03*
D19*
X139118875Y-96565406D03*
D18*
X147758875Y-100715408D03*
D19*
X147758875Y-96565406D03*
D16*
X112270000Y-80391000D03*
X111250000Y-80391000D03*
D20*
X147193000Y-84610000D03*
X147193000Y-85570000D03*
X168910000Y-88674000D03*
X168910000Y-89634000D03*
D21*
X162358693Y-80315983D03*
D22*
X118938000Y-69263500D03*
X120838000Y-69263500D03*
X119888000Y-67388500D03*
D23*
X134922000Y-94018000D03*
X133372000Y-94018000D03*
D24*
X129413000Y-88151000D03*
X129413000Y-86601000D03*
D16*
X116842000Y-67310000D03*
X115822000Y-67310000D03*
D10*
X130711000Y-82804000D03*
X131671000Y-82804000D03*
D13*
X133893000Y-66060000D03*
X133893000Y-67080000D03*
D25*
X131051000Y-81534000D03*
X132601000Y-81534000D03*
D23*
X140475000Y-93853000D03*
X138925000Y-93853000D03*
D20*
X148209000Y-84610000D03*
X148209000Y-85570000D03*
D14*
X177437720Y-98842297D03*
D26*
X141986000Y-94109000D03*
X141986000Y-93089000D03*
D27*
X113205500Y-67310000D03*
X111330500Y-67310000D03*
D28*
X154432000Y-69928500D03*
X154432000Y-71803500D03*
D29*
X123698000Y-97028000D03*
X123698000Y-98578000D03*
D30*
X113055500Y-72453500D03*
X111480500Y-72453500D03*
D31*
X143007500Y-89474000D03*
X143007500Y-90424000D03*
X143007500Y-91374000D03*
X145282500Y-91374000D03*
X145282500Y-90424000D03*
X145282500Y-89474000D03*
D13*
X136306000Y-100112000D03*
X136306000Y-101132000D03*
D25*
X146418000Y-93853000D03*
X147968000Y-93853000D03*
D10*
X161064000Y-93980000D03*
X162024000Y-93980000D03*
D13*
X162687000Y-88390000D03*
X162687000Y-89410000D03*
D14*
X109437703Y-98842297D03*
D32*
X111287721Y-91392295D03*
X111287721Y-82292295D03*
X115787721Y-91392295D03*
X115787721Y-82292295D03*
D10*
X136299000Y-77216000D03*
X137259000Y-77216000D03*
D21*
X160020000Y-80315983D03*
D10*
X136299000Y-69215000D03*
X137259000Y-69215000D03*
D28*
X160782000Y-69928500D03*
X160782000Y-71803500D03*
D33*
X172464000Y-67818000D03*
X173484000Y-67818000D03*
X147064000Y-67818000D03*
X148084000Y-67818000D03*
X153414000Y-67818000D03*
X154434000Y-67818000D03*
D34*
X164289500Y-87696000D03*
X164289500Y-89596000D03*
X166164500Y-88646000D03*
D35*
X131609500Y-84455000D03*
X131609500Y-85725000D03*
D36*
X137909500Y-86995000D03*
D35*
X131609500Y-86995000D03*
X131609500Y-88265000D03*
X131609500Y-89535000D03*
D28*
X173482000Y-69928500D03*
X173482000Y-71803500D03*
D24*
X127762000Y-88151000D03*
X127762000Y-86601000D03*
D25*
X161277000Y-92583000D03*
X162827000Y-92583000D03*
D13*
X167970200Y-84021200D03*
X167970200Y-85041200D03*
D26*
X139446000Y-81917000D03*
X139446000Y-80897000D03*
D33*
X151382000Y-98552000D03*
X152402000Y-98552000D03*
D32*
X171087728Y-91392295D03*
X171087728Y-82292295D03*
X175587728Y-91392295D03*
X175587728Y-82292295D03*
D34*
X164289500Y-84140000D03*
X164289500Y-86040000D03*
X166164500Y-85090000D03*
D37*
X142518000Y-84886000D03*
X143018000Y-84886000D03*
X143518000Y-84886000D03*
X144018000Y-84886000D03*
X144518000Y-84886000D03*
X145018000Y-84886000D03*
X145518000Y-84886000D03*
D38*
X146608000Y-83796000D03*
X146608000Y-83296000D03*
X146608000Y-82796000D03*
X146608000Y-82296000D03*
X146608000Y-81796000D03*
X146608000Y-81296000D03*
X146608000Y-80796000D03*
D37*
X145518000Y-79706000D03*
X145018000Y-79706000D03*
X144518000Y-79706000D03*
X144018000Y-79706000D03*
X143518000Y-79706000D03*
X143018000Y-79706000D03*
X142518000Y-79706000D03*
D38*
X141428000Y-80796000D03*
X141428000Y-81296000D03*
X141428000Y-81796000D03*
X141428000Y-82296000D03*
X141428000Y-82796000D03*
X141428000Y-83296000D03*
X141428000Y-83796000D03*
D39*
X144018000Y-82296000D03*
D40*
X134638000Y-101130000D03*
X134638000Y-99860000D03*
X134638000Y-98590000D03*
X134638000Y-97320000D03*
X129338000Y-97320000D03*
X129338000Y-98590000D03*
X129338000Y-99860000D03*
X129338000Y-101130000D03*
D41*
X131988000Y-99225000D03*
D28*
X148082000Y-69928500D03*
X148082000Y-71803500D03*
D16*
X129669000Y-89535000D03*
X128649000Y-89535000D03*
D33*
X115822000Y-77597000D03*
X116842000Y-77597000D03*
D10*
X136299000Y-76200000D03*
X137259000Y-76200000D03*
D16*
X152402000Y-99568000D03*
X151382000Y-99568000D03*
D14*
X109437703Y-60842296D03*
D33*
X151382000Y-97536000D03*
X152402000Y-97536000D03*
D21*
X129032000Y-92456000D03*
D13*
X149479000Y-100582000D03*
X149479000Y-101602000D03*
D26*
X143764000Y-87759000D03*
X143764000Y-86739000D03*
X138303000Y-81917000D03*
X138303000Y-80897000D03*
D42*
X134357000Y-70105000D03*
X133857000Y-70105000D03*
X133357000Y-70105000D03*
X132857000Y-70105000D03*
X132357000Y-70105000D03*
X131857000Y-70105000D03*
X131357000Y-70105000D03*
X130857000Y-70105000D03*
X130357000Y-70105000D03*
X129857000Y-70105000D03*
X129357000Y-70105000D03*
X128857000Y-70105000D03*
D43*
X128157000Y-70805000D03*
X128157000Y-71305000D03*
X128157000Y-71805000D03*
X128157000Y-72305000D03*
X128157000Y-72805000D03*
X128157000Y-73305000D03*
X128157000Y-73805000D03*
X128157000Y-74305000D03*
X128157000Y-74805000D03*
X128157000Y-75305000D03*
X128157000Y-75805000D03*
X128157000Y-76305000D03*
D42*
X128857000Y-77005000D03*
X129357000Y-77005000D03*
X129857000Y-77005000D03*
X130357000Y-77005000D03*
X130857000Y-77005000D03*
X131357000Y-77005000D03*
X131857000Y-77005000D03*
X132357000Y-77005000D03*
X132857000Y-77005000D03*
X133357000Y-77005000D03*
X133857000Y-77005000D03*
X134357000Y-77005000D03*
D43*
X135057000Y-76305000D03*
X135057000Y-75805000D03*
X135057000Y-75305000D03*
X135057000Y-74805000D03*
X135057000Y-74305000D03*
X135057000Y-73805000D03*
X135057000Y-73305000D03*
X135057000Y-72805000D03*
X135057000Y-72305000D03*
X135057000Y-71805000D03*
X135057000Y-71305000D03*
X135057000Y-70805000D03*
D44*
X131607000Y-73555000D03*
D45*
X131798000Y-67818000D03*
X130838000Y-67818000D03*
D28*
X167132000Y-69928500D03*
X167132000Y-71803500D03*
D33*
X159764000Y-67818000D03*
X160784000Y-67818000D03*
D46*
X166116000Y-100290000D03*
D47*
X166116000Y-99040000D03*
X166116000Y-97790000D03*
X166116000Y-96540000D03*
X166116000Y-95290000D03*
D13*
X162687000Y-84707000D03*
X162687000Y-85727000D03*
D33*
X115822000Y-72517000D03*
X116842000Y-72517000D03*
D29*
X122047000Y-97028000D03*
X122047000Y-98578000D03*
D16*
X172087000Y-80264000D03*
X171067000Y-80264000D03*
D33*
X166114000Y-67818000D03*
X167134000Y-67818000D03*
D23*
X134922000Y-95669000D03*
X133372000Y-95669000D03*
D45*
X131798000Y-66802000D03*
X130838000Y-66802000D03*
D26*
X144780000Y-87759000D03*
X144780000Y-86739000D03*
D27*
X113205500Y-77597000D03*
X111330500Y-77597000D03*
D48*
X160806500Y-99413000D03*
X160806500Y-98913000D03*
X160806500Y-98413000D03*
X160806500Y-97913000D03*
X160806500Y-97413000D03*
X160806500Y-96913000D03*
X160806500Y-96413000D03*
X160806500Y-95913000D03*
D49*
X160119000Y-95225500D03*
X159619000Y-95225500D03*
X159119000Y-95225500D03*
X158619000Y-95225500D03*
X158119000Y-95225500D03*
X157619000Y-95225500D03*
X157119000Y-95225500D03*
X156619000Y-95225500D03*
D48*
X155931500Y-95913000D03*
X155931500Y-96413000D03*
X155931500Y-96913000D03*
X155931500Y-97413000D03*
X155931500Y-97913000D03*
X155931500Y-98413000D03*
X155931500Y-98913000D03*
X155931500Y-99413000D03*
D49*
X156619000Y-100100500D03*
X157119000Y-100100500D03*
X157619000Y-100100500D03*
X158119000Y-100100500D03*
X158619000Y-100100500D03*
X159119000Y-100100500D03*
X159619000Y-100100500D03*
X160119000Y-100100500D03*
D50*
X158369000Y-97663000D03*
D10*
X133921000Y-68094000D03*
X134881000Y-68094000D03*
X136299000Y-70231000D03*
X137259000Y-70231000D03*
D20*
X169037000Y-85118000D03*
X169037000Y-86078000D03*
M02*
