G04 #@! TF.GenerationSoftware,KiCad,Pcbnew,(6.0.0)*
G04 #@! TF.CreationDate,2022-02-07T18:43:46-08:00*
G04 #@! TF.ProjectId,LightsProject_Rev_C,4c696768-7473-4507-926f-6a6563745f52,rev?*
G04 #@! TF.SameCoordinates,Original*
G04 #@! TF.FileFunction,Legend,Bot*
G04 #@! TF.FilePolarity,Positive*
%FSLAX46Y46*%
G04 Gerber Fmt 4.6, Leading zero omitted, Abs format (unit mm)*
G04 Created by KiCad (PCBNEW (6.0.0)) date 2022-02-07 18:43:46*
%MOMM*%
%LPD*%
G01*
G04 APERTURE LIST*
G04 Aperture macros list*
%AMRoundRect*
0 Rectangle with rounded corners*
0 $1 Rounding radius*
0 $2 $3 $4 $5 $6 $7 $8 $9 X,Y pos of 4 corners*
0 Add a 4 corners polygon primitive as box body*
4,1,4,$2,$3,$4,$5,$6,$7,$8,$9,$2,$3,0*
0 Add four circle primitives for the rounded corners*
1,1,$1+$1,$2,$3*
1,1,$1+$1,$4,$5*
1,1,$1+$1,$6,$7*
1,1,$1+$1,$8,$9*
0 Add four rect primitives between the rounded corners*
20,1,$1+$1,$2,$3,$4,$5,0*
20,1,$1+$1,$4,$5,$6,$7,0*
20,1,$1+$1,$6,$7,$8,$9,0*
20,1,$1+$1,$8,$9,$2,$3,0*%
G04 Aperture macros list end*
%ADD10C,0.177800*%
%ADD11C,0.127000*%
%ADD12C,0.120000*%
%ADD13C,0.200000*%
%ADD14C,0.300000*%
%ADD15RoundRect,0.025400X-0.850000X-0.850000X0.850000X-0.850000X0.850000X0.850000X-0.850000X0.850000X0*%
%ADD16O,1.750800X1.750800*%
%ADD17C,2.250800*%
%ADD18C,0.736600*%
%ADD19O,1.350800X2.550800*%
%ADD20O,1.350800X3.250800*%
%ADD21RoundRect,0.025400X0.500000X-0.500000X0.500000X0.500000X-0.500000X0.500000X-0.500000X-0.500000X0*%
%ADD22C,1.050800*%
%ADD23RoundRect,0.025400X-0.700000X1.050000X-0.700000X-1.050000X0.700000X-1.050000X0.700000X1.050000X0*%
%ADD24RoundRect,0.025400X0.500000X1.750000X-0.500000X1.750000X-0.500000X-1.750000X0.500000X-1.750000X0*%
%ADD25RoundRect,0.025400X0.750000X1.700000X-0.750000X1.700000X-0.750000X-1.700000X0.750000X-1.700000X0*%
G04 APERTURE END LIST*
D10*
X107422647Y-65382019D02*
X107422647Y-66107733D01*
X107374266Y-66252876D01*
X107277504Y-66349638D01*
X107132361Y-66398019D01*
X107035600Y-66398019D01*
X108390266Y-66398019D02*
X107906457Y-66398019D01*
X107906457Y-65382019D01*
X109309504Y-66301257D02*
X109261123Y-66349638D01*
X109115980Y-66398019D01*
X109019219Y-66398019D01*
X108874076Y-66349638D01*
X108777314Y-66252876D01*
X108728933Y-66156114D01*
X108680552Y-65962590D01*
X108680552Y-65817447D01*
X108728933Y-65623923D01*
X108777314Y-65527161D01*
X108874076Y-65430400D01*
X109019219Y-65382019D01*
X109115980Y-65382019D01*
X109261123Y-65430400D01*
X109309504Y-65478780D01*
X110035219Y-65382019D02*
X110035219Y-66107733D01*
X109986838Y-66252876D01*
X109890076Y-66349638D01*
X109744933Y-66398019D01*
X109648171Y-66398019D01*
X111002838Y-66398019D02*
X110519028Y-66398019D01*
X110519028Y-65382019D01*
X111922076Y-66301257D02*
X111873695Y-66349638D01*
X111728552Y-66398019D01*
X111631790Y-66398019D01*
X111486647Y-66349638D01*
X111389885Y-66252876D01*
X111341504Y-66156114D01*
X111293123Y-65962590D01*
X111293123Y-65817447D01*
X111341504Y-65623923D01*
X111389885Y-65527161D01*
X111486647Y-65430400D01*
X111631790Y-65382019D01*
X111728552Y-65382019D01*
X111873695Y-65430400D01*
X111922076Y-65478780D01*
X112647790Y-65382019D02*
X112647790Y-66107733D01*
X112599409Y-66252876D01*
X112502647Y-66349638D01*
X112357504Y-66398019D01*
X112260742Y-66398019D01*
X113615409Y-66398019D02*
X113131600Y-66398019D01*
X113131600Y-65382019D01*
X114534647Y-66301257D02*
X114486266Y-66349638D01*
X114341123Y-66398019D01*
X114244361Y-66398019D01*
X114099219Y-66349638D01*
X114002457Y-66252876D01*
X113954076Y-66156114D01*
X113905695Y-65962590D01*
X113905695Y-65817447D01*
X113954076Y-65623923D01*
X114002457Y-65527161D01*
X114099219Y-65430400D01*
X114244361Y-65382019D01*
X114341123Y-65382019D01*
X114486266Y-65430400D01*
X114534647Y-65478780D01*
X115260361Y-65382019D02*
X115260361Y-66107733D01*
X115211980Y-66252876D01*
X115115219Y-66349638D01*
X114970076Y-66398019D01*
X114873314Y-66398019D01*
X116227980Y-66398019D02*
X115744171Y-66398019D01*
X115744171Y-65382019D01*
X117147219Y-66301257D02*
X117098838Y-66349638D01*
X116953695Y-66398019D01*
X116856933Y-66398019D01*
X116711790Y-66349638D01*
X116615028Y-66252876D01*
X116566647Y-66156114D01*
X116518266Y-65962590D01*
X116518266Y-65817447D01*
X116566647Y-65623923D01*
X116615028Y-65527161D01*
X116711790Y-65430400D01*
X116856933Y-65382019D01*
X116953695Y-65382019D01*
X117098838Y-65430400D01*
X117147219Y-65478780D01*
D11*
X180216023Y-85767333D02*
X180246261Y-85858047D01*
X180246261Y-86009238D01*
X180216023Y-86069714D01*
X180185785Y-86099952D01*
X180125309Y-86130190D01*
X180064833Y-86130190D01*
X180004357Y-86099952D01*
X179974119Y-86069714D01*
X179943880Y-86009238D01*
X179913642Y-85888285D01*
X179883404Y-85827809D01*
X179853166Y-85797571D01*
X179792690Y-85767333D01*
X179732214Y-85767333D01*
X179671738Y-85797571D01*
X179641500Y-85827809D01*
X179611261Y-85888285D01*
X179611261Y-86039476D01*
X179641500Y-86130190D01*
X179611261Y-86341857D02*
X180246261Y-86493047D01*
X179792690Y-86614000D01*
X180246261Y-86734952D01*
X179611261Y-86886142D01*
X179611261Y-87067571D02*
X179611261Y-87460666D01*
X179853166Y-87249000D01*
X179853166Y-87339714D01*
X179883404Y-87400190D01*
X179913642Y-87430428D01*
X179974119Y-87460666D01*
X180125309Y-87460666D01*
X180185785Y-87430428D01*
X180216023Y-87400190D01*
X180246261Y-87339714D01*
X180246261Y-87158285D01*
X180216023Y-87097809D01*
X180185785Y-87067571D01*
X116262452Y-100810785D02*
X116292690Y-100841023D01*
X116383404Y-100871261D01*
X116443880Y-100871261D01*
X116534595Y-100841023D01*
X116595071Y-100780547D01*
X116625309Y-100720071D01*
X116655547Y-100599119D01*
X116655547Y-100508404D01*
X116625309Y-100387452D01*
X116595071Y-100326976D01*
X116534595Y-100266500D01*
X116443880Y-100236261D01*
X116383404Y-100236261D01*
X116292690Y-100266500D01*
X116262452Y-100296738D01*
X115990309Y-100871261D02*
X115990309Y-100236261D01*
X115627452Y-100871261D01*
X115627452Y-100236261D01*
X115385547Y-100236261D02*
X114992452Y-100236261D01*
X115204119Y-100478166D01*
X115113404Y-100478166D01*
X115052928Y-100508404D01*
X115022690Y-100538642D01*
X114992452Y-100599119D01*
X114992452Y-100750309D01*
X115022690Y-100810785D01*
X115052928Y-100841023D01*
X115113404Y-100871261D01*
X115294833Y-100871261D01*
X115355309Y-100841023D01*
X115385547Y-100810785D01*
X164297023Y-86123333D02*
X164327261Y-86214047D01*
X164327261Y-86365238D01*
X164297023Y-86425714D01*
X164266785Y-86455952D01*
X164206309Y-86486190D01*
X164145833Y-86486190D01*
X164085357Y-86455952D01*
X164055119Y-86425714D01*
X164024880Y-86365238D01*
X163994642Y-86244285D01*
X163964404Y-86183809D01*
X163934166Y-86153571D01*
X163873690Y-86123333D01*
X163813214Y-86123333D01*
X163752738Y-86153571D01*
X163722500Y-86183809D01*
X163692261Y-86244285D01*
X163692261Y-86395476D01*
X163722500Y-86486190D01*
X163692261Y-86697857D02*
X164327261Y-86849047D01*
X163873690Y-86970000D01*
X164327261Y-87090952D01*
X163692261Y-87242142D01*
X163903928Y-87756190D02*
X164327261Y-87756190D01*
X163662023Y-87605000D02*
X164115595Y-87453809D01*
X164115595Y-87846904D01*
D12*
X138064876Y-94925407D02*
G75*
G03*
X138064876Y-94925407I-381000J0D01*
G01*
D11*
X173022000Y-89995000D02*
X173022000Y-83995000D01*
X179022000Y-89995000D02*
X179022000Y-83995000D01*
X179022000Y-83995000D02*
X173022000Y-83995000D01*
X173022000Y-89995000D02*
X179022000Y-89995000D01*
D13*
X173822000Y-80745000D02*
G75*
G03*
X173822000Y-80745000I-100000J0D01*
G01*
D11*
X123330000Y-99593000D02*
X121280000Y-99593000D01*
X115430000Y-99593000D02*
X115430000Y-95593000D01*
X117480000Y-99593000D02*
X115430000Y-99593000D01*
X117180000Y-91993000D02*
X121580000Y-91993000D01*
X123330000Y-95593000D02*
X123330000Y-99593000D01*
D14*
X117330000Y-100593000D02*
G75*
G03*
X117330000Y-100593000I-100000J0D01*
G01*
D11*
X166164000Y-89995000D02*
X166164000Y-83995000D01*
X172164000Y-89995000D02*
X172164000Y-83995000D01*
X172164000Y-83995000D02*
X166164000Y-83995000D01*
X166164000Y-89995000D02*
X172164000Y-89995000D01*
D13*
X166964000Y-80745000D02*
G75*
G03*
X166964000Y-80745000I-100000J0D01*
G01*
%LPC*%
D15*
X121666000Y-80020000D03*
D16*
X121666000Y-82560000D03*
X121666000Y-85100000D03*
X121666000Y-87640000D03*
D17*
X177437720Y-60842296D03*
D18*
X140463876Y-96065407D03*
X141313876Y-96065407D03*
X142163876Y-96065407D03*
X143013876Y-96065407D03*
X143863877Y-96065407D03*
X144713875Y-96065407D03*
X145563876Y-96065407D03*
X146413877Y-96065407D03*
X146413877Y-97415407D03*
X145563876Y-97415407D03*
X144713875Y-97415407D03*
X143863877Y-97415407D03*
X143013876Y-97415407D03*
X142163876Y-97415407D03*
X141313876Y-97415407D03*
X140463876Y-97415407D03*
D19*
X139118875Y-100715408D03*
D20*
X139118875Y-96565406D03*
D19*
X147758875Y-100715408D03*
D20*
X147758875Y-96565406D03*
D17*
X177437720Y-98842297D03*
X109437703Y-98842297D03*
X109437703Y-60842296D03*
D21*
X166116000Y-100290000D03*
D22*
X166116000Y-99040000D03*
X166116000Y-97790000D03*
X166116000Y-96540000D03*
X166116000Y-95290000D03*
D23*
X173772000Y-82445000D03*
X173772000Y-91545000D03*
X178272000Y-82445000D03*
X178272000Y-91545000D03*
D24*
X118380000Y-99243000D03*
X120380000Y-99243000D03*
D25*
X122730001Y-93492999D03*
X116029999Y-93492999D03*
D23*
X166914000Y-82445000D03*
X166914000Y-91545000D03*
X171414000Y-82445000D03*
X171414000Y-91545000D03*
M02*
