M48
; DRILL file {KiCad (6.0.0)} date Mon Feb  7 18:43:47 2022
; FORMAT={-:-/ absolute / metric / decimal}
; #@! TF.CreationDate,2022-02-07T18:43:47-08:00
; #@! TF.GenerationSoftware,Kicad,Pcbnew,(6.0.0)
; #@! TF.FileFunction,Plated,1,4,PTH
FMAT,2
METRIC
; #@! TA.AperFunction,Plated,PTH,ViaDrill
T1C0.200
; #@! TA.AperFunction,Plated,PTH,ComponentDrill
T2C0.200
; #@! TA.AperFunction,Plated,PTH,ComponentDrill
T3C0.400
; #@! TA.AperFunction,Plated,PTH,ComponentDrill
T4C0.500
; #@! TA.AperFunction,Plated,PTH,ComponentDrill
T5C0.700
; #@! TA.AperFunction,Plated,PTH,ComponentDrill
T6C1.000
%
G90
G05
T1
X106.223Y-64.414
X106.223Y-66.954
X106.223Y-69.494
X106.223Y-72.034
X106.223Y-74.574
X106.223Y-77.114
X106.223Y-79.654
X106.223Y-82.194
X106.223Y-84.734
X106.223Y-87.274
X106.223Y-89.814
X106.223Y-92.354
X106.223Y-94.894
X106.223Y-97.434
X107.493Y-64.414
X108.356Y-74.778
X108.763Y-64.414
X109.169Y-86.055
X109.411Y-72.451
X110.033Y-64.414
X110.338Y-74.676
X110.49Y-67.31
X110.49Y-77.597
X110.49Y-93.218
X111.252Y-79.756
X111.303Y-64.414
X111.506Y-70.866
X112.268Y-86.055
X112.37Y-101.854
X112.42Y-75.387
X112.573Y-64.414
X112.903Y-80.391
X113.589Y-94.945
X113.843Y-64.414
X114.808Y-82.296
X114.808Y-91.313
X114.91Y-101.854
X114.935Y-93.345
X115.113Y-64.414
X116.383Y-64.414
X117.145Y-76.048
X117.399Y-84.379
X117.45Y-101.854
X117.602Y-98.044
X117.602Y-99.314
X117.602Y-100.584
X117.653Y-64.414
X117.653Y-71.526
X118.364Y-69.342
X118.364Y-89.916
X118.364Y-101.346
X118.37Y-97.155
X118.923Y-64.414
X119.126Y-84.531
X119.278Y-71.73
X119.278Y-76.556
X119.761Y-96.901
X119.99Y-101.854
X120.193Y-64.414
X120.777Y-70.358
X121.031Y-97.028
X121.463Y-64.414
X122.047Y-99.314
X122.53Y-101.854
X122.733Y-64.414
X123.698Y-99.314
X123.825Y-93.472
X123.952Y-84.836
X124.003Y-64.414
X124.003Y-81.686
X124.968Y-72.644
X124.968Y-90.678
X125.07Y-101.854
X125.095Y-94.234
X125.095Y-100.965
X125.273Y-64.414
X125.578Y-84.938
X125.603Y-69.85
X125.603Y-77.851
X126.238Y-68.961
X126.238Y-92.075
X126.365Y-95.885
X126.365Y-99.949
X126.543Y-64.414
X126.619Y-66.04
X126.898Y-72.187
X127.0Y-88.138
X127.102Y-81.839
X127.127Y-89.281
X127.152Y-84.988
X127.292Y-71.076
X127.381Y-73.787
X127.508Y-67.691
X127.508Y-79.502
X127.508Y-94.996
X127.508Y-98.552
X127.61Y-101.854
X127.716Y-66.843
X127.762Y-85.852
X127.813Y-64.414
X128.143Y-83.693
X128.168Y-69.799
X128.473Y-78.588
X128.575Y-65.329
X129.032Y-83.185
X129.083Y-64.414
X129.413Y-85.852
X129.54Y-65.786
X129.54Y-77.978
X129.667Y-81.788
X130.15Y-101.854
X130.175Y-65.151
X130.175Y-80.899
X130.251Y-78.588
X130.353Y-64.414
X130.81Y-66.167
X131.318Y-98.171
X131.318Y-100.33
X131.623Y-64.414
X131.826Y-66.167
X131.826Y-69.088
X131.928Y-90.932
X132.486Y-78.08
X132.588Y-93.98
X132.588Y-95.631
X132.69Y-101.854
X132.715Y-64.516
X132.715Y-65.913
X132.715Y-67.183
X132.715Y-68.453
X132.715Y-98.171
X132.715Y-100.33
X133.096Y-86.995
X134.493Y-82.042
X135.001Y-65.913
X135.001Y-67.056
X135.001Y-69.088
X135.001Y-92.964
X135.077Y-91.237
X135.23Y-101.854
X135.433Y-64.414
X135.687Y-101.092
X135.763Y-77.216
X135.763Y-98.552
X136.271Y-68.58
X137.033Y-64.643
X137.033Y-84.963
X137.033Y-89.027
X137.16Y-65.405
X137.16Y-66.04
X137.287Y-66.802
X137.668Y-80.899
X137.77Y-101.854
X137.795Y-76.2
X137.795Y-77.216
X137.82Y-67.97
X137.922Y-69.215
X137.922Y-70.231
X137.973Y-64.414
X138.176Y-93.853
X138.43Y-74.168
X138.811Y-83.693
X138.811Y-84.963
X138.811Y-89.027
X139.243Y-64.414
X139.446Y-82.55
X139.827Y-73.533
X139.954Y-89.027
X140.208Y-80.772
X140.31Y-101.854
X140.335Y-74.803
X140.462Y-81.534
X140.513Y-64.414
X140.589Y-71.882
X140.589Y-73.406
X140.589Y-92.075
X140.818Y-85.192
X140.936Y-75.912
X141.478Y-92.583
X141.783Y-64.414
X142.697Y-90.424
X142.85Y-101.854
X143.053Y-64.414
X143.459Y-78.638
X143.51Y-85.725
X144.323Y-64.414
X145.39Y-101.854
X145.593Y-64.414
X146.431Y-67.818
X146.685Y-76.2
X146.863Y-64.414
X147.193Y-86.106
X147.193Y-92.583
X147.828Y-81.661
X148.133Y-64.414
X148.209Y-86.106
X148.717Y-93.853
X149.098Y-71.882
X149.403Y-64.414
X150.47Y-101.854
X150.673Y-64.414
X150.749Y-89.027
X150.749Y-96.52
X150.749Y-97.536
X150.749Y-98.552
X150.749Y-99.568
X151.943Y-64.414
X152.248Y-72.187
X152.248Y-78.029
X152.354Y-76.716
X153.01Y-82.753
X153.01Y-101.854
X153.213Y-64.414
X153.213Y-90.221
X153.289Y-96.774
X153.67Y-74.422
X153.797Y-97.917
X154.405Y-90.05
X154.432Y-99.06
X154.432Y-78.541
X154.439Y-82.633
X154.479Y-74.671
X154.483Y-64.414
X154.94Y-99.949
X155.194Y-72.898
X155.448Y-71.882
X155.55Y-101.854
X155.653Y-90.061
X155.676Y-74.619
X155.687Y-82.552
X155.727Y-78.302
X155.753Y-64.414
X156.21Y-99.822
X156.337Y-73.66
X156.82Y-90.061
X156.852Y-78.61
X156.855Y-82.621
X157.023Y-64.414
X157.277Y-98.704
X157.353Y-75.184
X157.988Y-90.221
X158.09Y-101.854
X158.242Y-78.689
X158.293Y-64.414
X158.293Y-83.515
X159.41Y-96.52
X159.41Y-98.755
X159.563Y-64.414
X160.63Y-101.854
X160.833Y-64.414
X161.29Y-91.567
X161.798Y-71.882
X162.052Y-94.615
X162.103Y-64.414
X162.687Y-93.472
X162.814Y-83.693
X162.814Y-87.63
X162.814Y-91.821
X163.17Y-101.854
X163.195Y-80.391
X163.373Y-64.414
X164.084Y-99.619
X164.084Y-101.041
X164.135Y-98.501
X164.186Y-97.13
X164.287Y-95.809
X164.389Y-94.386
X164.643Y-64.414
X165.71Y-101.854
X165.913Y-64.414
X166.878Y-92.964
X167.183Y-64.414
X167.386Y-81.026
X168.148Y-71.755
X168.25Y-101.854
X168.402Y-87.503
X168.453Y-64.414
X168.529Y-83.947
X168.859Y-73.914
X169.545Y-77.216
X169.672Y-67.818
X169.723Y-64.414
X170.307Y-88.773
X170.332Y-74.016
X170.79Y-101.854
X170.993Y-64.414
X171.023Y-65.337
X171.069Y-79.629
X171.069Y-84.201
X171.069Y-89.535
X171.831Y-76.073
X171.958Y-74.016
X172.263Y-64.414
X172.72Y-80.264
X173.33Y-101.854
X173.533Y-64.414
X173.736Y-83.82
X173.736Y-90.17
X174.498Y-71.755
X174.803Y-64.414
X175.514Y-83.693
X175.641Y-90.043
X175.87Y-101.854
X176.073Y-64.414
X177.343Y-64.414
X177.546Y-84.582
X178.181Y-65.913
X178.613Y-64.414
X179.273Y-73.762
X179.883Y-64.414
X180.594Y-65.38
X180.594Y-67.92
X180.594Y-70.46
X180.594Y-73.0
X180.594Y-75.54
X180.594Y-78.08
X180.594Y-80.62
X180.594Y-83.16
X180.594Y-85.7
X180.594Y-88.24
X180.594Y-90.78
X180.594Y-93.32
X180.594Y-95.86
X180.594Y-98.4
T2
X129.207Y-71.155
X129.207Y-72.355
X129.207Y-73.555
X129.207Y-74.755
X129.207Y-75.955
X130.407Y-71.155
X130.407Y-72.355
X130.407Y-73.555
X130.407Y-74.755
X130.407Y-75.955
X131.607Y-71.155
X131.607Y-72.355
X131.607Y-73.555
X131.607Y-74.755
X131.607Y-75.955
X132.807Y-71.155
X132.807Y-72.355
X132.807Y-73.555
X132.807Y-74.755
X132.807Y-75.955
X134.007Y-71.155
X134.007Y-72.355
X134.007Y-73.555
X134.007Y-74.755
X134.007Y-75.955
T3
X140.464Y-96.065
X140.464Y-97.415
X141.314Y-96.065
X141.314Y-97.415
X142.164Y-96.065
X142.164Y-97.415
X143.014Y-96.065
X143.014Y-97.415
X143.864Y-96.065
X143.864Y-97.415
X144.714Y-96.065
X144.714Y-97.415
X145.564Y-96.065
X145.564Y-97.415
X146.414Y-96.065
X146.414Y-97.415
T4
X166.116Y-95.29
X166.116Y-96.54
X166.116Y-97.79
X166.116Y-99.04
X166.116Y-100.29
T6
X121.666Y-80.02
X121.666Y-82.56
X121.666Y-85.1
X121.666Y-87.64
T5
X139.119Y-95.915G85X139.119Y-97.215
G05
X139.119Y-100.265G85X139.119Y-101.165
G05
X147.759Y-95.915G85X147.759Y-97.215
G05
X147.759Y-100.265G85X147.759Y-101.165
G05
T0
M30
