G04 #@! TF.GenerationSoftware,KiCad,Pcbnew,(6.0.0)*
G04 #@! TF.CreationDate,2022-02-07T18:43:46-08:00*
G04 #@! TF.ProjectId,LightsProject_Rev_C,4c696768-7473-4507-926f-6a6563745f52,rev?*
G04 #@! TF.SameCoordinates,Original*
G04 #@! TF.FileFunction,Paste,Top*
G04 #@! TF.FilePolarity,Positive*
%FSLAX46Y46*%
G04 Gerber Fmt 4.6, Leading zero omitted, Abs format (unit mm)*
G04 Created by KiCad (PCBNEW (6.0.0)) date 2022-02-07 18:43:46*
%MOMM*%
%LPD*%
G01*
G04 APERTURE LIST*
G04 Aperture macros list*
%AMRoundRect*
0 Rectangle with rounded corners*
0 $1 Rounding radius*
0 $2 $3 $4 $5 $6 $7 $8 $9 X,Y pos of 4 corners*
0 Add a 4 corners polygon primitive as box body*
4,1,4,$2,$3,$4,$5,$6,$7,$8,$9,$2,$3,0*
0 Add four circle primitives for the rounded corners*
1,1,$1+$1,$2,$3*
1,1,$1+$1,$4,$5*
1,1,$1+$1,$6,$7*
1,1,$1+$1,$8,$9*
0 Add four rect primitives between the rounded corners*
20,1,$1+$1,$2,$3,$4,$5,0*
20,1,$1+$1,$4,$5,$6,$7,0*
20,1,$1+$1,$6,$7,$8,$9,0*
20,1,$1+$1,$8,$9,$2,$3,0*%
G04 Aperture macros list end*
%ADD10C,0.010000*%
%ADD11RoundRect,0.140000X-0.140000X-0.170000X0.140000X-0.170000X0.140000X0.170000X-0.140000X0.170000X0*%
%ADD12RoundRect,0.135000X-0.185000X0.135000X-0.185000X-0.135000X0.185000X-0.135000X0.185000X0.135000X0*%
%ADD13R,1.600000X0.800000*%
%ADD14RoundRect,0.135000X0.135000X0.185000X-0.135000X0.185000X-0.135000X-0.185000X0.135000X-0.185000X0*%
%ADD15RoundRect,0.140000X-0.170000X0.140000X-0.170000X-0.140000X0.170000X-0.140000X0.170000X0.140000X0*%
%ADD16RoundRect,0.150000X0.150000X-0.587500X0.150000X0.587500X-0.150000X0.587500X-0.150000X-0.587500X0*%
%ADD17RoundRect,0.225000X0.225000X0.250000X-0.225000X0.250000X-0.225000X-0.250000X0.225000X-0.250000X0*%
%ADD18RoundRect,0.225000X0.250000X-0.225000X0.250000X0.225000X-0.250000X0.225000X-0.250000X-0.225000X0*%
%ADD19RoundRect,0.225000X-0.225000X-0.250000X0.225000X-0.250000X0.225000X0.250000X-0.225000X0.250000X0*%
%ADD20RoundRect,0.135000X0.185000X-0.135000X0.185000X0.135000X-0.185000X0.135000X-0.185000X-0.135000X0*%
%ADD21RoundRect,0.243750X0.243750X0.456250X-0.243750X0.456250X-0.243750X-0.456250X0.243750X-0.456250X0*%
%ADD22RoundRect,0.243750X-0.456250X0.243750X-0.456250X-0.243750X0.456250X-0.243750X0.456250X0.243750X0*%
%ADD23RoundRect,0.225000X-0.250000X0.225000X-0.250000X-0.225000X0.250000X-0.225000X0.250000X0.225000X0*%
%ADD24RoundRect,0.218750X0.218750X0.256250X-0.218750X0.256250X-0.218750X-0.256250X0.218750X-0.256250X0*%
%ADD25RoundRect,0.150000X-0.512500X-0.150000X0.512500X-0.150000X0.512500X0.150000X-0.512500X0.150000X0*%
%ADD26R,1.400000X2.100000*%
%ADD27RoundRect,0.135000X-0.135000X-0.185000X0.135000X-0.185000X0.135000X0.185000X-0.135000X0.185000X0*%
%ADD28RoundRect,0.150000X-0.587500X-0.150000X0.587500X-0.150000X0.587500X0.150000X-0.587500X0.150000X0*%
%ADD29R,2.200000X0.600000*%
%ADD30R,2.150000X3.450000*%
%ADD31R,0.254000X0.900000*%
%ADD32R,0.900000X0.254000*%
%ADD33RoundRect,0.242500X0.242500X0.402500X-0.242500X0.402500X-0.242500X-0.402500X0.242500X-0.402500X0*%
%ADD34RoundRect,0.150000X0.650000X0.150000X-0.650000X0.150000X-0.650000X-0.150000X0.650000X-0.150000X0*%
%ADD35RoundRect,0.250000X-0.263170X0.263170X-0.263170X-0.263170X0.263170X-0.263170X0.263170X0.263170X0*%
%ADD36RoundRect,0.062500X-0.062500X0.337500X-0.062500X-0.337500X0.062500X-0.337500X0.062500X0.337500X0*%
%ADD37RoundRect,0.062500X-0.337500X0.062500X-0.337500X-0.062500X0.337500X-0.062500X0.337500X0.062500X0*%
%ADD38RoundRect,0.140000X0.140000X0.170000X-0.140000X0.170000X-0.140000X-0.170000X0.140000X-0.170000X0*%
%ADD39RoundRect,0.207500X0.207500X0.207500X-0.207500X0.207500X-0.207500X-0.207500X0.207500X-0.207500X0*%
%ADD40RoundRect,0.062500X0.375000X0.062500X-0.375000X0.062500X-0.375000X-0.062500X0.375000X-0.062500X0*%
%ADD41RoundRect,0.062500X0.062500X0.375000X-0.062500X0.375000X-0.062500X-0.375000X0.062500X-0.375000X0*%
G04 APERTURE END LIST*
D10*
X144268000Y-83798520D02*
X144268000Y-82546000D01*
X144268000Y-82546000D02*
X145520520Y-82546000D01*
X145520520Y-82546000D02*
X145520520Y-83798520D01*
X145520520Y-83798520D02*
X144268000Y-83798520D01*
G36*
X145520520Y-83798520D02*
G01*
X144268000Y-83798520D01*
X144268000Y-82546000D01*
X145520520Y-82546000D01*
X145520520Y-83798520D01*
G37*
X145520520Y-83798520D02*
X144268000Y-83798520D01*
X144268000Y-82546000D01*
X145520520Y-82546000D01*
X145520520Y-83798520D01*
X144268000Y-82045544D02*
X144268000Y-80796000D01*
X144268000Y-80796000D02*
X145520730Y-80796000D01*
X145520730Y-80796000D02*
X145520730Y-82045544D01*
X145520730Y-82045544D02*
X144268000Y-82045544D01*
G36*
X145520730Y-82045544D02*
G01*
X144268000Y-82045544D01*
X144268000Y-80796000D01*
X145520730Y-80796000D01*
X145520730Y-82045544D01*
G37*
X145520730Y-82045544D02*
X144268000Y-82045544D01*
X144268000Y-80796000D01*
X145520730Y-80796000D01*
X145520730Y-82045544D01*
X142518000Y-83798480D02*
X142518000Y-82546000D01*
X142518000Y-82546000D02*
X143767587Y-82546000D01*
X143767587Y-82546000D02*
X143767587Y-83798480D01*
X143767587Y-83798480D02*
X142518000Y-83798480D01*
G36*
X143767587Y-83798480D02*
G01*
X142518000Y-83798480D01*
X142518000Y-82546000D01*
X143767587Y-82546000D01*
X143767587Y-83798480D01*
G37*
X143767587Y-83798480D02*
X142518000Y-83798480D01*
X142518000Y-82546000D01*
X143767587Y-82546000D01*
X143767587Y-83798480D01*
X142518000Y-82045938D02*
X142518000Y-80796000D01*
X142518000Y-80796000D02*
X143767938Y-80796000D01*
X143767938Y-80796000D02*
X143767938Y-82045938D01*
X143767938Y-82045938D02*
X142518000Y-82045938D01*
G36*
X143767938Y-82045938D02*
G01*
X142518000Y-82045938D01*
X142518000Y-80796000D01*
X143767938Y-80796000D01*
X143767938Y-82045938D01*
G37*
X143767938Y-82045938D02*
X142518000Y-82045938D01*
X142518000Y-80796000D01*
X143767938Y-80796000D01*
X143767938Y-82045938D01*
D11*
X133921000Y-65046000D03*
X134881000Y-65046000D03*
D12*
X167817800Y-87526400D03*
X167817800Y-88546400D03*
D13*
X133985000Y-63103500D03*
X133985000Y-59703500D03*
D14*
X152402000Y-96520000D03*
X151382000Y-96520000D03*
X112270000Y-80391000D03*
X111250000Y-80391000D03*
D15*
X147193000Y-84610000D03*
X147193000Y-85570000D03*
X168910000Y-88674000D03*
X168910000Y-89634000D03*
D16*
X118938000Y-69263500D03*
X120838000Y-69263500D03*
X119888000Y-67388500D03*
D17*
X134922000Y-94018000D03*
X133372000Y-94018000D03*
D18*
X129413000Y-88151000D03*
X129413000Y-86601000D03*
D14*
X116842000Y-67310000D03*
X115822000Y-67310000D03*
D11*
X130711000Y-82804000D03*
X131671000Y-82804000D03*
D12*
X133893000Y-66060000D03*
X133893000Y-67080000D03*
D19*
X131051000Y-81534000D03*
X132601000Y-81534000D03*
D17*
X140475000Y-93853000D03*
X138925000Y-93853000D03*
D15*
X148209000Y-84610000D03*
X148209000Y-85570000D03*
D20*
X141986000Y-94109000D03*
X141986000Y-93089000D03*
D21*
X113205500Y-67310000D03*
X111330500Y-67310000D03*
D22*
X154432000Y-69928500D03*
X154432000Y-71803500D03*
D23*
X123698000Y-97028000D03*
X123698000Y-98578000D03*
D24*
X113055500Y-72453500D03*
X111480500Y-72453500D03*
D25*
X143007500Y-89474000D03*
X143007500Y-90424000D03*
X143007500Y-91374000D03*
X145282500Y-91374000D03*
X145282500Y-90424000D03*
X145282500Y-89474000D03*
D12*
X136306000Y-100112000D03*
X136306000Y-101132000D03*
D19*
X146418000Y-93853000D03*
X147968000Y-93853000D03*
D11*
X161064000Y-93980000D03*
X162024000Y-93980000D03*
D12*
X162687000Y-88390000D03*
X162687000Y-89410000D03*
D26*
X111287721Y-91392295D03*
X111287721Y-82292295D03*
X115787721Y-91392295D03*
X115787721Y-82292295D03*
D11*
X136299000Y-77216000D03*
X137259000Y-77216000D03*
X136299000Y-69215000D03*
X137259000Y-69215000D03*
D22*
X160782000Y-69928500D03*
X160782000Y-71803500D03*
D27*
X172464000Y-67818000D03*
X173484000Y-67818000D03*
X147064000Y-67818000D03*
X148084000Y-67818000D03*
X153414000Y-67818000D03*
X154434000Y-67818000D03*
D28*
X164289500Y-87696000D03*
X164289500Y-89596000D03*
X166164500Y-88646000D03*
D29*
X131609500Y-84455000D03*
X131609500Y-85725000D03*
D30*
X137909500Y-86995000D03*
D29*
X131609500Y-86995000D03*
X131609500Y-88265000D03*
X131609500Y-89535000D03*
D22*
X173482000Y-69928500D03*
X173482000Y-71803500D03*
D18*
X127762000Y-88151000D03*
X127762000Y-86601000D03*
D19*
X161277000Y-92583000D03*
X162827000Y-92583000D03*
D12*
X167970200Y-84021200D03*
X167970200Y-85041200D03*
D20*
X139446000Y-81917000D03*
X139446000Y-80897000D03*
D27*
X151382000Y-98552000D03*
X152402000Y-98552000D03*
D26*
X171087728Y-91392295D03*
X171087728Y-82292295D03*
X175587728Y-91392295D03*
X175587728Y-82292295D03*
D28*
X164289500Y-84140000D03*
X164289500Y-86040000D03*
X166164500Y-85090000D03*
D31*
X142518000Y-84886000D03*
X143018000Y-84886000D03*
X143518000Y-84886000D03*
X144018000Y-84886000D03*
X144518000Y-84886000D03*
X145018000Y-84886000D03*
X145518000Y-84886000D03*
D32*
X146608000Y-83796000D03*
X146608000Y-83296000D03*
X146608000Y-82796000D03*
X146608000Y-82296000D03*
X146608000Y-81796000D03*
X146608000Y-81296000D03*
X146608000Y-80796000D03*
D31*
X145518000Y-79706000D03*
X145018000Y-79706000D03*
X144518000Y-79706000D03*
X144018000Y-79706000D03*
X143518000Y-79706000D03*
X143018000Y-79706000D03*
X142518000Y-79706000D03*
D32*
X141428000Y-80796000D03*
X141428000Y-81296000D03*
X141428000Y-81796000D03*
X141428000Y-82296000D03*
X141428000Y-82796000D03*
X141428000Y-83296000D03*
X141428000Y-83796000D03*
D33*
X131388000Y-98425000D03*
X132588000Y-100025000D03*
X132588000Y-98425000D03*
X131388000Y-100025000D03*
D34*
X134638000Y-101130000D03*
X134638000Y-99860000D03*
X134638000Y-98590000D03*
X134638000Y-97320000D03*
X129338000Y-97320000D03*
X129338000Y-98590000D03*
X129338000Y-99860000D03*
X129338000Y-101130000D03*
D22*
X148082000Y-69928500D03*
X148082000Y-71803500D03*
D14*
X129669000Y-89535000D03*
X128649000Y-89535000D03*
D27*
X115822000Y-77597000D03*
X116842000Y-77597000D03*
D11*
X136299000Y-76200000D03*
X137259000Y-76200000D03*
D14*
X152402000Y-99568000D03*
X151382000Y-99568000D03*
D27*
X151382000Y-97536000D03*
X152402000Y-97536000D03*
D12*
X149479000Y-100582000D03*
X149479000Y-101602000D03*
D20*
X143764000Y-87759000D03*
X143764000Y-86739000D03*
X138303000Y-81917000D03*
X138303000Y-80897000D03*
D35*
X131007000Y-74155000D03*
X133407000Y-72955000D03*
X132207000Y-72955000D03*
X133407000Y-74155000D03*
X129807000Y-71755000D03*
X129807000Y-72955000D03*
X131007000Y-72955000D03*
X132207000Y-71755000D03*
X132207000Y-74155000D03*
X131007000Y-71755000D03*
X133407000Y-75355000D03*
X133407000Y-71755000D03*
X132207000Y-75355000D03*
X129807000Y-74155000D03*
X129807000Y-75355000D03*
X131007000Y-75355000D03*
D36*
X134357000Y-70105000D03*
X133857000Y-70105000D03*
X133357000Y-70105000D03*
X132857000Y-70105000D03*
X132357000Y-70105000D03*
X131857000Y-70105000D03*
X131357000Y-70105000D03*
X130857000Y-70105000D03*
X130357000Y-70105000D03*
X129857000Y-70105000D03*
X129357000Y-70105000D03*
X128857000Y-70105000D03*
D37*
X128157000Y-70805000D03*
X128157000Y-71305000D03*
X128157000Y-71805000D03*
X128157000Y-72305000D03*
X128157000Y-72805000D03*
X128157000Y-73305000D03*
X128157000Y-73805000D03*
X128157000Y-74305000D03*
X128157000Y-74805000D03*
X128157000Y-75305000D03*
X128157000Y-75805000D03*
X128157000Y-76305000D03*
D36*
X128857000Y-77005000D03*
X129357000Y-77005000D03*
X129857000Y-77005000D03*
X130357000Y-77005000D03*
X130857000Y-77005000D03*
X131357000Y-77005000D03*
X131857000Y-77005000D03*
X132357000Y-77005000D03*
X132857000Y-77005000D03*
X133357000Y-77005000D03*
X133857000Y-77005000D03*
X134357000Y-77005000D03*
D37*
X135057000Y-76305000D03*
X135057000Y-75805000D03*
X135057000Y-75305000D03*
X135057000Y-74805000D03*
X135057000Y-74305000D03*
X135057000Y-73805000D03*
X135057000Y-73305000D03*
X135057000Y-72805000D03*
X135057000Y-72305000D03*
X135057000Y-71805000D03*
X135057000Y-71305000D03*
X135057000Y-70805000D03*
D38*
X131798000Y-67818000D03*
X130838000Y-67818000D03*
D22*
X167132000Y-69928500D03*
X167132000Y-71803500D03*
D27*
X159764000Y-67818000D03*
X160784000Y-67818000D03*
D12*
X162687000Y-84707000D03*
X162687000Y-85727000D03*
D27*
X115822000Y-72517000D03*
X116842000Y-72517000D03*
D23*
X122047000Y-97028000D03*
X122047000Y-98578000D03*
D14*
X172087000Y-80264000D03*
X171067000Y-80264000D03*
D27*
X166114000Y-67818000D03*
X167134000Y-67818000D03*
D17*
X134922000Y-95669000D03*
X133372000Y-95669000D03*
D38*
X131798000Y-66802000D03*
X130838000Y-66802000D03*
D20*
X144780000Y-87759000D03*
X144780000Y-86739000D03*
D21*
X113205500Y-77597000D03*
X111330500Y-77597000D03*
D39*
X157339000Y-96633000D03*
X159399000Y-98693000D03*
X159399000Y-97663000D03*
X157339000Y-98693000D03*
X158369000Y-96633000D03*
X157339000Y-97663000D03*
X158369000Y-97663000D03*
X159399000Y-96633000D03*
X158369000Y-98693000D03*
D40*
X160806500Y-99413000D03*
X160806500Y-98913000D03*
X160806500Y-98413000D03*
X160806500Y-97913000D03*
X160806500Y-97413000D03*
X160806500Y-96913000D03*
X160806500Y-96413000D03*
X160806500Y-95913000D03*
D41*
X160119000Y-95225500D03*
X159619000Y-95225500D03*
X159119000Y-95225500D03*
X158619000Y-95225500D03*
X158119000Y-95225500D03*
X157619000Y-95225500D03*
X157119000Y-95225500D03*
X156619000Y-95225500D03*
D40*
X155931500Y-95913000D03*
X155931500Y-96413000D03*
X155931500Y-96913000D03*
X155931500Y-97413000D03*
X155931500Y-97913000D03*
X155931500Y-98413000D03*
X155931500Y-98913000D03*
X155931500Y-99413000D03*
D41*
X156619000Y-100100500D03*
X157119000Y-100100500D03*
X157619000Y-100100500D03*
X158119000Y-100100500D03*
X158619000Y-100100500D03*
X159119000Y-100100500D03*
X159619000Y-100100500D03*
X160119000Y-100100500D03*
D11*
X133921000Y-68094000D03*
X134881000Y-68094000D03*
X136299000Y-70231000D03*
X137259000Y-70231000D03*
D15*
X169037000Y-85118000D03*
X169037000Y-86078000D03*
M02*
