G04 #@! TF.GenerationSoftware,KiCad,Pcbnew,(6.0.0)*
G04 #@! TF.CreationDate,2022-02-07T18:43:46-08:00*
G04 #@! TF.ProjectId,LightsProject_Rev_C,4c696768-7473-4507-926f-6a6563745f52,rev?*
G04 #@! TF.SameCoordinates,Original*
G04 #@! TF.FileFunction,Soldermask,Bot*
G04 #@! TF.FilePolarity,Negative*
%FSLAX46Y46*%
G04 Gerber Fmt 4.6, Leading zero omitted, Abs format (unit mm)*
G04 Created by KiCad (PCBNEW (6.0.0)) date 2022-02-07 18:43:46*
%MOMM*%
%LPD*%
G01*
G04 APERTURE LIST*
G04 Aperture macros list*
%AMRoundRect*
0 Rectangle with rounded corners*
0 $1 Rounding radius*
0 $2 $3 $4 $5 $6 $7 $8 $9 X,Y pos of 4 corners*
0 Add a 4 corners polygon primitive as box body*
4,1,4,$2,$3,$4,$5,$6,$7,$8,$9,$2,$3,0*
0 Add four circle primitives for the rounded corners*
1,1,$1+$1,$2,$3*
1,1,$1+$1,$4,$5*
1,1,$1+$1,$6,$7*
1,1,$1+$1,$8,$9*
0 Add four rect primitives between the rounded corners*
20,1,$1+$1,$2,$3,$4,$5,0*
20,1,$1+$1,$4,$5,$6,$7,0*
20,1,$1+$1,$6,$7,$8,$9,0*
20,1,$1+$1,$8,$9,$2,$3,0*%
G04 Aperture macros list end*
%ADD10RoundRect,0.025400X-0.850000X-0.850000X0.850000X-0.850000X0.850000X0.850000X-0.850000X0.850000X0*%
%ADD11O,1.750800X1.750800*%
%ADD12C,2.250800*%
%ADD13C,0.736600*%
%ADD14O,1.350800X2.550800*%
%ADD15O,1.350800X3.250800*%
%ADD16RoundRect,0.025400X0.500000X-0.500000X0.500000X0.500000X-0.500000X0.500000X-0.500000X-0.500000X0*%
%ADD17C,1.050800*%
%ADD18RoundRect,0.025400X-0.700000X1.050000X-0.700000X-1.050000X0.700000X-1.050000X0.700000X1.050000X0*%
%ADD19RoundRect,0.025400X0.500000X1.750000X-0.500000X1.750000X-0.500000X-1.750000X0.500000X-1.750000X0*%
%ADD20RoundRect,0.025400X0.750000X1.700000X-0.750000X1.700000X-0.750000X-1.700000X0.750000X-1.700000X0*%
G04 APERTURE END LIST*
D10*
X121666000Y-80020000D03*
D11*
X121666000Y-82560000D03*
X121666000Y-85100000D03*
X121666000Y-87640000D03*
D12*
X177437720Y-60842296D03*
D13*
X140463876Y-96065407D03*
X141313876Y-96065407D03*
X142163876Y-96065407D03*
X143013876Y-96065407D03*
X143863877Y-96065407D03*
X144713875Y-96065407D03*
X145563876Y-96065407D03*
X146413877Y-96065407D03*
X146413877Y-97415407D03*
X145563876Y-97415407D03*
X144713875Y-97415407D03*
X143863877Y-97415407D03*
X143013876Y-97415407D03*
X142163876Y-97415407D03*
X141313876Y-97415407D03*
X140463876Y-97415407D03*
D14*
X139118875Y-100715408D03*
D15*
X139118875Y-96565406D03*
D14*
X147758875Y-100715408D03*
D15*
X147758875Y-96565406D03*
D12*
X177437720Y-98842297D03*
X109437703Y-98842297D03*
X109437703Y-60842296D03*
D16*
X166116000Y-100290000D03*
D17*
X166116000Y-99040000D03*
X166116000Y-97790000D03*
X166116000Y-96540000D03*
X166116000Y-95290000D03*
D18*
X173772000Y-82445000D03*
X173772000Y-91545000D03*
X178272000Y-82445000D03*
X178272000Y-91545000D03*
D19*
X118380000Y-99243000D03*
X120380000Y-99243000D03*
D20*
X122730001Y-93492999D03*
X116029999Y-93492999D03*
D18*
X166914000Y-82445000D03*
X166914000Y-91545000D03*
X171414000Y-82445000D03*
X171414000Y-91545000D03*
M02*
