G04 #@! TF.GenerationSoftware,KiCad,Pcbnew,(6.0.0)*
G04 #@! TF.CreationDate,2022-02-07T00:21:05-08:00*
G04 #@! TF.ProjectId,LightsAuxiliary_Rev_C,4c696768-7473-4417-9578-696c69617279,rev?*
G04 #@! TF.SameCoordinates,Original*
G04 #@! TF.FileFunction,Legend,Bot*
G04 #@! TF.FilePolarity,Positive*
%FSLAX46Y46*%
G04 Gerber Fmt 4.6, Leading zero omitted, Abs format (unit mm)*
G04 Created by KiCad (PCBNEW (6.0.0)) date 2022-02-07 00:21:05*
%MOMM*%
%LPD*%
G01*
G04 APERTURE LIST*
G04 Aperture macros list*
%AMRoundRect*
0 Rectangle with rounded corners*
0 $1 Rounding radius*
0 $2 $3 $4 $5 $6 $7 $8 $9 X,Y pos of 4 corners*
0 Add a 4 corners polygon primitive as box body*
4,1,4,$2,$3,$4,$5,$6,$7,$8,$9,$2,$3,0*
0 Add four circle primitives for the rounded corners*
1,1,$1+$1,$2,$3*
1,1,$1+$1,$4,$5*
1,1,$1+$1,$6,$7*
1,1,$1+$1,$8,$9*
0 Add four rect primitives between the rounded corners*
20,1,$1+$1,$2,$3,$4,$5,0*
20,1,$1+$1,$4,$5,$6,$7,0*
20,1,$1+$1,$6,$7,$8,$9,0*
20,1,$1+$1,$8,$9,$2,$3,0*%
G04 Aperture macros list end*
%ADD10C,0.127000*%
%ADD11C,0.120000*%
%ADD12RoundRect,0.025400X0.500000X0.500000X-0.500000X0.500000X-0.500000X-0.500000X0.500000X-0.500000X0*%
%ADD13C,3.250800*%
%ADD14O,2.550800X5.050800*%
%ADD15O,2.300800X4.550800*%
%ADD16O,1.750800X1.750800*%
%ADD17RoundRect,0.025400X-0.850000X-0.850000X0.850000X-0.850000X0.850000X0.850000X-0.850000X0.850000X0*%
%ADD18RoundRect,0.025400X0.850000X-0.850000X0.850000X0.850000X-0.850000X0.850000X-0.850000X-0.850000X0*%
G04 APERTURE END LIST*
D10*
X127090109Y-107221061D02*
X126727252Y-107221061D01*
X126908680Y-107856061D02*
X126908680Y-107221061D01*
X126515585Y-107856061D02*
X126515585Y-107221061D01*
X126273680Y-107221061D01*
X126213204Y-107251300D01*
X126182966Y-107281538D01*
X126152728Y-107342014D01*
X126152728Y-107432728D01*
X126182966Y-107493204D01*
X126213204Y-107523442D01*
X126273680Y-107553680D01*
X126515585Y-107553680D01*
X125910823Y-107281538D02*
X125880585Y-107251300D01*
X125820109Y-107221061D01*
X125668919Y-107221061D01*
X125608442Y-107251300D01*
X125578204Y-107281538D01*
X125547966Y-107342014D01*
X125547966Y-107402490D01*
X125578204Y-107493204D01*
X125941061Y-107856061D01*
X125547966Y-107856061D01*
X129680909Y-98585061D02*
X129318052Y-98585061D01*
X129499480Y-99220061D02*
X129499480Y-98585061D01*
X129106385Y-99220061D02*
X129106385Y-98585061D01*
X128864480Y-98585061D01*
X128804004Y-98615300D01*
X128773766Y-98645538D01*
X128743528Y-98706014D01*
X128743528Y-98796728D01*
X128773766Y-98857204D01*
X128804004Y-98887442D01*
X128864480Y-98917680D01*
X129106385Y-98917680D01*
X128138766Y-99220061D02*
X128501623Y-99220061D01*
X128320195Y-99220061D02*
X128320195Y-98585061D01*
X128380671Y-98675776D01*
X128441147Y-98736252D01*
X128501623Y-98766490D01*
D11*
X126988800Y-109716800D02*
X126988800Y-108316800D01*
X125588800Y-109716800D02*
X126988800Y-109716800D01*
X125588800Y-108316800D02*
X125588800Y-109716800D01*
X126988800Y-108316800D02*
X125588800Y-108316800D01*
X129579600Y-101080800D02*
X129579600Y-99680800D01*
X128179600Y-101080800D02*
X129579600Y-101080800D01*
X128179600Y-99680800D02*
X128179600Y-101080800D01*
X129579600Y-99680800D02*
X128179600Y-99680800D01*
%LPC*%
D12*
X126288800Y-109016800D03*
X128879600Y-100380800D03*
D13*
X116712060Y-117348940D03*
X116712060Y-88863145D03*
X165197866Y-117348940D03*
X165197866Y-88863145D03*
D14*
X122042500Y-109347000D03*
D15*
X116042500Y-109347000D03*
D16*
X164154000Y-111135000D03*
X164154000Y-108595000D03*
X164154000Y-106055000D03*
D17*
X164154000Y-103515000D03*
D18*
X115570000Y-94488000D03*
D16*
X118110000Y-94488000D03*
X120650000Y-94488000D03*
X123190000Y-94488000D03*
X125730000Y-94488000D03*
X128270000Y-94488000D03*
M02*
