G04 #@! TF.GenerationSoftware,KiCad,Pcbnew,(6.0.0)*
G04 #@! TF.CreationDate,2022-02-07T00:21:05-08:00*
G04 #@! TF.ProjectId,LightsAuxiliary_Rev_C,4c696768-7473-4417-9578-696c69617279,rev?*
G04 #@! TF.SameCoordinates,Original*
G04 #@! TF.FileFunction,Soldermask,Top*
G04 #@! TF.FilePolarity,Negative*
%FSLAX46Y46*%
G04 Gerber Fmt 4.6, Leading zero omitted, Abs format (unit mm)*
G04 Created by KiCad (PCBNEW (6.0.0)) date 2022-02-07 00:21:05*
%MOMM*%
%LPD*%
G01*
G04 APERTURE LIST*
G04 Aperture macros list*
%AMRoundRect*
0 Rectangle with rounded corners*
0 $1 Rounding radius*
0 $2 $3 $4 $5 $6 $7 $8 $9 X,Y pos of 4 corners*
0 Add a 4 corners polygon primitive as box body*
4,1,4,$2,$3,$4,$5,$6,$7,$8,$9,$2,$3,0*
0 Add four circle primitives for the rounded corners*
1,1,$1+$1,$2,$3*
1,1,$1+$1,$4,$5*
1,1,$1+$1,$6,$7*
1,1,$1+$1,$8,$9*
0 Add four rect primitives between the rounded corners*
20,1,$1+$1,$2,$3,$4,$5,0*
20,1,$1+$1,$4,$5,$6,$7,0*
20,1,$1+$1,$6,$7,$8,$9,0*
20,1,$1+$1,$8,$9,$2,$3,0*%
G04 Aperture macros list end*
%ADD10RoundRect,0.087900X-0.062500X0.337500X-0.062500X-0.337500X0.062500X-0.337500X0.062500X0.337500X0*%
%ADD11RoundRect,0.087900X-0.337500X0.062500X-0.337500X-0.062500X0.337500X-0.062500X0.337500X0.062500X0*%
%ADD12RoundRect,0.025400X-2.650000X2.650000X-2.650000X-2.650000X2.650000X-2.650000X2.650000X2.650000X0*%
%ADD13RoundRect,0.025400X-0.500000X-0.500000X0.500000X-0.500000X0.500000X0.500000X-0.500000X0.500000X0*%
%ADD14C,3.250800*%
%ADD15RoundRect,0.160400X0.185000X-0.135000X0.185000X0.135000X-0.185000X0.135000X-0.185000X-0.135000X0*%
%ADD16RoundRect,0.269150X0.243750X0.456250X-0.243750X0.456250X-0.243750X-0.456250X0.243750X-0.456250X0*%
%ADD17RoundRect,0.165400X0.170000X-0.140000X0.170000X0.140000X-0.170000X0.140000X-0.170000X-0.140000X0*%
%ADD18RoundRect,0.175400X-0.587500X-0.150000X0.587500X-0.150000X0.587500X0.150000X-0.587500X0.150000X0*%
%ADD19RoundRect,0.160400X-0.185000X0.135000X-0.185000X-0.135000X0.185000X-0.135000X0.185000X0.135000X0*%
%ADD20RoundRect,0.165400X-0.140000X-0.170000X0.140000X-0.170000X0.140000X0.170000X-0.140000X0.170000X0*%
%ADD21RoundRect,0.160400X0.135000X0.185000X-0.135000X0.185000X-0.135000X-0.185000X0.135000X-0.185000X0*%
%ADD22RoundRect,0.160400X-0.135000X-0.185000X0.135000X-0.185000X0.135000X0.185000X-0.135000X0.185000X0*%
%ADD23RoundRect,0.250400X-0.250000X0.225000X-0.250000X-0.225000X0.250000X-0.225000X0.250000X0.225000X0*%
%ADD24RoundRect,0.275400X-0.650000X0.325000X-0.650000X-0.325000X0.650000X-0.325000X0.650000X0.325000X0*%
%ADD25RoundRect,0.025400X0.800000X-0.400000X0.800000X0.400000X-0.800000X0.400000X-0.800000X-0.400000X0*%
%ADD26RoundRect,0.300400X-0.275000X-0.775000X0.275000X-0.775000X0.275000X0.775000X-0.275000X0.775000X0*%
%ADD27RoundRect,0.269150X-0.243750X-0.456250X0.243750X-0.456250X0.243750X0.456250X-0.243750X0.456250X0*%
%ADD28RoundRect,0.025400X1.100000X0.300000X-1.100000X0.300000X-1.100000X-0.300000X1.100000X-0.300000X0*%
%ADD29RoundRect,0.025400X1.075000X1.725000X-1.075000X1.725000X-1.075000X-1.725000X1.075000X-1.725000X0*%
%ADD30RoundRect,0.275400X0.650000X-0.325000X0.650000X0.325000X-0.650000X0.325000X-0.650000X-0.325000X0*%
%ADD31RoundRect,0.175400X-0.825000X-0.150000X0.825000X-0.150000X0.825000X0.150000X-0.825000X0.150000X0*%
%ADD32O,2.550800X5.050800*%
%ADD33O,2.300800X4.550800*%
%ADD34RoundRect,0.175400X-0.150000X0.587500X-0.150000X-0.587500X0.150000X-0.587500X0.150000X0.587500X0*%
%ADD35RoundRect,0.275400X-0.362500X-1.425000X0.362500X-1.425000X0.362500X1.425000X-0.362500X1.425000X0*%
%ADD36O,1.750800X1.750800*%
%ADD37RoundRect,0.025400X-0.850000X-0.850000X0.850000X-0.850000X0.850000X0.850000X-0.850000X0.850000X0*%
%ADD38RoundRect,0.250400X0.250000X-0.225000X0.250000X0.225000X-0.250000X0.225000X-0.250000X-0.225000X0*%
%ADD39RoundRect,0.025400X1.250000X0.900000X-1.250000X0.900000X-1.250000X-0.900000X1.250000X-0.900000X0*%
%ADD40RoundRect,0.025400X-0.500000X-0.350000X0.500000X-0.350000X0.500000X0.350000X-0.500000X0.350000X0*%
%ADD41RoundRect,0.165400X-0.170000X0.140000X-0.170000X-0.140000X0.170000X-0.140000X0.170000X0.140000X0*%
%ADD42RoundRect,0.165400X0.140000X0.170000X-0.140000X0.170000X-0.140000X-0.170000X0.140000X-0.170000X0*%
%ADD43RoundRect,0.025400X0.850000X-0.850000X0.850000X0.850000X-0.850000X0.850000X-0.850000X-0.850000X0*%
G04 APERTURE END LIST*
D10*
X136862000Y-97896000D03*
X136362000Y-97896000D03*
X135862000Y-97896000D03*
X135362000Y-97896000D03*
X134862000Y-97896000D03*
X134362000Y-97896000D03*
X133862000Y-97896000D03*
X133362000Y-97896000D03*
X132862000Y-97896000D03*
X132362000Y-97896000D03*
X131862000Y-97896000D03*
X131362000Y-97896000D03*
D11*
X130662000Y-98596000D03*
X130662000Y-99096000D03*
X130662000Y-99596000D03*
X130662000Y-100096000D03*
X130662000Y-100596000D03*
X130662000Y-101096000D03*
X130662000Y-101596000D03*
X130662000Y-102096000D03*
X130662000Y-102596000D03*
X130662000Y-103096000D03*
X130662000Y-103596000D03*
X130662000Y-104096000D03*
D10*
X131362000Y-104796000D03*
X131862000Y-104796000D03*
X132362000Y-104796000D03*
X132862000Y-104796000D03*
X133362000Y-104796000D03*
X133862000Y-104796000D03*
X134362000Y-104796000D03*
X134862000Y-104796000D03*
X135362000Y-104796000D03*
X135862000Y-104796000D03*
X136362000Y-104796000D03*
X136862000Y-104796000D03*
D11*
X137562000Y-104096000D03*
X137562000Y-103596000D03*
X137562000Y-103096000D03*
X137562000Y-102596000D03*
X137562000Y-102096000D03*
X137562000Y-101596000D03*
X137562000Y-101096000D03*
X137562000Y-100596000D03*
X137562000Y-100096000D03*
X137562000Y-99596000D03*
X137562000Y-99096000D03*
X137562000Y-98596000D03*
D12*
X134112000Y-101346000D03*
D13*
X147320000Y-96266000D03*
X127508000Y-117805200D03*
X160578800Y-118516400D03*
X150520400Y-96316800D03*
D14*
X116712060Y-117348940D03*
X116712060Y-88863145D03*
X165197866Y-117348940D03*
X165197866Y-88863145D03*
D15*
X128524000Y-98173000D03*
X128524000Y-97153000D03*
D16*
X125173500Y-97536000D03*
X127048500Y-97536000D03*
D17*
X123698000Y-99540000D03*
X123698000Y-98580000D03*
D18*
X128445500Y-100965000D03*
X126570500Y-101915000D03*
X126570500Y-100015000D03*
D19*
X118745000Y-97919000D03*
X118745000Y-96899000D03*
D20*
X139220000Y-117983000D03*
X140180000Y-117983000D03*
D21*
X148211000Y-114935000D03*
X147191000Y-114935000D03*
D22*
X128014000Y-107823000D03*
X129034000Y-107823000D03*
D23*
X156845000Y-115430000D03*
X156845000Y-116980000D03*
D24*
X131191000Y-116254000D03*
X131191000Y-119204000D03*
D19*
X119888000Y-96899000D03*
X119888000Y-97919000D03*
X131699000Y-95629000D03*
X131699000Y-96649000D03*
X124206000Y-106424000D03*
X124206000Y-107444000D03*
D25*
X136433000Y-86670000D03*
X136433000Y-90070000D03*
D26*
X147660000Y-110998000D03*
X152060000Y-110998000D03*
D17*
X138811000Y-99413000D03*
X138811000Y-98453000D03*
D20*
X147221000Y-117221000D03*
X148181000Y-117221000D03*
X132108000Y-106045000D03*
X133068000Y-106045000D03*
D15*
X155829000Y-111504000D03*
X155829000Y-112524000D03*
X115057500Y-100840000D03*
X115057500Y-99820000D03*
D19*
X153670000Y-94282800D03*
X153670000Y-95302800D03*
D21*
X152529000Y-107442000D03*
X151509000Y-107442000D03*
D19*
X125095000Y-105412000D03*
X125095000Y-104392000D03*
D27*
X155120100Y-94843600D03*
X156995100Y-94843600D03*
D18*
X154510500Y-107508000D03*
X154510500Y-109408000D03*
X156385500Y-108458000D03*
D17*
X130683000Y-96619000D03*
X130683000Y-95659000D03*
D28*
X152108500Y-100330000D03*
X152108500Y-101600000D03*
X152108500Y-102870000D03*
D29*
X145808500Y-102870000D03*
D28*
X152108500Y-104140000D03*
X152108500Y-105410000D03*
D30*
X133223000Y-112600000D03*
X133223000Y-109650000D03*
D31*
X140019000Y-112776000D03*
X140019000Y-114046000D03*
X140019000Y-115316000D03*
X140019000Y-116586000D03*
X144969000Y-116586000D03*
X144969000Y-115316000D03*
X144969000Y-114046000D03*
X144969000Y-112776000D03*
D22*
X166372000Y-96393000D03*
X165352000Y-96393000D03*
D32*
X122042500Y-109347000D03*
D33*
X116042500Y-109347000D03*
D17*
X139827000Y-99413000D03*
X139827000Y-98453000D03*
D23*
X155448000Y-104409000D03*
X155448000Y-105959000D03*
D30*
X135763000Y-112600000D03*
X135763000Y-109650000D03*
D22*
X166958500Y-101153000D03*
X165938500Y-101153000D03*
D21*
X145925000Y-119507000D03*
X144905000Y-119507000D03*
D24*
X133604000Y-116254000D03*
X133604000Y-119204000D03*
D22*
X144905000Y-118491000D03*
X145925000Y-118491000D03*
D34*
X123251000Y-115267500D03*
X121351000Y-115267500D03*
X122301000Y-117142500D03*
D35*
X130978500Y-113411000D03*
X125053500Y-113411000D03*
D36*
X164154000Y-111135000D03*
X164154000Y-108595000D03*
X164154000Y-106055000D03*
D37*
X164154000Y-103515000D03*
D20*
X147221000Y-116078000D03*
X148181000Y-116078000D03*
D19*
X163322000Y-94490000D03*
X163322000Y-93470000D03*
D31*
X116900500Y-99695000D03*
X116900500Y-100965000D03*
X116900500Y-102235000D03*
X116900500Y-103505000D03*
X121850500Y-103505000D03*
X121850500Y-102235000D03*
X121850500Y-100965000D03*
X121850500Y-99695000D03*
D19*
X114930500Y-102614000D03*
X114930500Y-103634000D03*
D24*
X152400000Y-115492000D03*
X152400000Y-118442000D03*
D38*
X154432000Y-99936000D03*
X154432000Y-101486000D03*
D17*
X137541000Y-113002000D03*
X137541000Y-112042000D03*
D18*
X166799500Y-94107000D03*
X164924500Y-95057000D03*
X164924500Y-93157000D03*
D20*
X136375200Y-93573600D03*
X137335200Y-93573600D03*
D39*
X144748000Y-108966000D03*
X140748000Y-108966000D03*
D19*
X136395400Y-94613000D03*
X136395400Y-95633000D03*
D24*
X154813000Y-115492000D03*
X154813000Y-118442000D03*
D40*
X159569000Y-112014000D03*
X157169000Y-112964000D03*
X157169000Y-111064000D03*
D41*
X154178000Y-104168000D03*
X154178000Y-105128000D03*
D38*
X155956000Y-99936000D03*
X155956000Y-101486000D03*
D42*
X134112000Y-95707200D03*
X133152000Y-95707200D03*
D19*
X163273500Y-99631000D03*
X163273500Y-98611000D03*
D23*
X158496000Y-115430000D03*
X158496000Y-116980000D03*
D20*
X132108000Y-107061000D03*
X133068000Y-107061000D03*
D43*
X115570000Y-94488000D03*
D36*
X118110000Y-94488000D03*
X120650000Y-94488000D03*
X123190000Y-94488000D03*
X125730000Y-94488000D03*
X128270000Y-94488000D03*
D24*
X136017000Y-116254000D03*
X136017000Y-119204000D03*
D20*
X142649000Y-111379000D03*
X143609000Y-111379000D03*
D18*
X166799500Y-98806000D03*
X164924500Y-99756000D03*
X164924500Y-97856000D03*
D19*
X131064000Y-109218000D03*
X131064000Y-110238000D03*
D18*
X128445500Y-105537000D03*
X126570500Y-106487000D03*
X126570500Y-104587000D03*
D42*
X134112000Y-94691200D03*
X133152000Y-94691200D03*
D19*
X124968000Y-101348000D03*
X124968000Y-100328000D03*
D20*
X136347200Y-96647000D03*
X137307200Y-96647000D03*
D42*
X129004000Y-103251000D03*
X128044000Y-103251000D03*
M02*
