G04 #@! TF.GenerationSoftware,KiCad,Pcbnew,(6.0.0)*
G04 #@! TF.CreationDate,2022-02-07T00:21:05-08:00*
G04 #@! TF.ProjectId,LightsAuxiliary_Rev_C,4c696768-7473-4417-9578-696c69617279,rev?*
G04 #@! TF.SameCoordinates,Original*
G04 #@! TF.FileFunction,Copper,L2,Bot*
G04 #@! TF.FilePolarity,Positive*
%FSLAX46Y46*%
G04 Gerber Fmt 4.6, Leading zero omitted, Abs format (unit mm)*
G04 Created by KiCad (PCBNEW (6.0.0)) date 2022-02-07 00:21:05*
%MOMM*%
%LPD*%
G01*
G04 APERTURE LIST*
G04 #@! TA.AperFunction,ComponentPad*
%ADD10C,0.609600*%
G04 #@! TD*
G04 #@! TA.AperFunction,SMDPad,CuDef*
%ADD11R,5.300000X5.300000*%
G04 #@! TD*
G04 #@! TA.AperFunction,SMDPad,CuDef*
%ADD12R,1.000000X1.000000*%
G04 #@! TD*
G04 #@! TA.AperFunction,ComponentPad*
%ADD13O,2.500000X5.000000*%
G04 #@! TD*
G04 #@! TA.AperFunction,ComponentPad*
%ADD14O,2.250000X4.500000*%
G04 #@! TD*
G04 #@! TA.AperFunction,ComponentPad*
%ADD15O,1.700000X1.700000*%
G04 #@! TD*
G04 #@! TA.AperFunction,ComponentPad*
%ADD16R,1.700000X1.700000*%
G04 #@! TD*
G04 #@! TA.AperFunction,ViaPad*
%ADD17C,0.609600*%
G04 #@! TD*
G04 #@! TA.AperFunction,Conductor*
%ADD18C,0.254000*%
G04 #@! TD*
G04 #@! TA.AperFunction,Conductor*
%ADD19C,0.787400*%
G04 #@! TD*
G04 #@! TA.AperFunction,Conductor*
%ADD20C,0.177800*%
G04 #@! TD*
G04 #@! TA.AperFunction,Conductor*
%ADD21C,0.635000*%
G04 #@! TD*
G04 APERTURE END LIST*
D10*
X136499600Y-103733600D03*
X135331200Y-103733600D03*
X134112000Y-103733600D03*
X132943600Y-103733600D03*
X131724400Y-103733600D03*
X131724400Y-98958400D03*
X132943600Y-98958400D03*
X134112000Y-98958400D03*
X135331200Y-98907600D03*
X131724400Y-102514400D03*
X131724400Y-101346000D03*
X131724400Y-100126800D03*
X136499600Y-102565200D03*
X136499600Y-101396800D03*
X136499600Y-100126800D03*
X132943600Y-102514400D03*
X132943600Y-101346000D03*
X132943600Y-100126800D03*
X134112000Y-100126800D03*
X134112000Y-101346000D03*
X134112000Y-102565200D03*
X135331200Y-102565200D03*
X135331200Y-101396800D03*
X135331200Y-100126800D03*
D11*
X134112000Y-101346000D03*
D10*
X136512000Y-98946000D03*
D12*
X126288800Y-109016800D03*
X128879600Y-100380800D03*
D13*
X122042500Y-109347000D03*
D14*
X116042500Y-109347000D03*
D15*
X164154000Y-111135000D03*
X164154000Y-108595000D03*
X164154000Y-106055000D03*
D16*
X164154000Y-103515000D03*
X115570000Y-94488000D03*
D15*
X118110000Y-94488000D03*
X120650000Y-94488000D03*
X123190000Y-94488000D03*
X125730000Y-94488000D03*
X128270000Y-94488000D03*
D17*
X157009047Y-111895909D03*
X137439400Y-107619800D03*
X148056600Y-101803200D03*
X149504400Y-104444800D03*
X148793200Y-113080800D03*
X150825200Y-113080800D03*
X148844000Y-111607600D03*
X150876000Y-111607600D03*
X150876000Y-110185200D03*
X148844000Y-110185200D03*
X126644400Y-111328200D03*
X124739400Y-109423200D03*
X120091200Y-100914200D03*
X121869200Y-105206800D03*
X119608600Y-107772200D03*
X117068600Y-95681800D03*
X127355600Y-95859600D03*
X121564400Y-95910400D03*
X124460000Y-95808800D03*
X141681200Y-101701600D03*
X141833600Y-95656400D03*
X139598400Y-95250000D03*
X143865600Y-95605600D03*
X154736800Y-96723200D03*
X159816800Y-95910400D03*
X158800800Y-100685600D03*
X161010600Y-102006400D03*
X165862000Y-102514400D03*
X166776400Y-105765600D03*
X157429200Y-120142000D03*
X159461200Y-120142000D03*
X149352000Y-120142000D03*
X146812000Y-120142000D03*
X144272000Y-120142000D03*
X141732000Y-120142000D03*
X139192000Y-120142000D03*
X126187200Y-120091200D03*
X123647200Y-120091200D03*
X121107200Y-120091200D03*
X113842800Y-112115600D03*
X113842800Y-109575600D03*
X113842800Y-107035600D03*
X113842800Y-104495600D03*
X113842800Y-101955600D03*
X113842800Y-99415600D03*
X113842800Y-96875600D03*
X113842800Y-94335600D03*
X129540000Y-99161600D03*
X128473200Y-109575600D03*
X133502400Y-91795600D03*
X131622800Y-91795600D03*
X129082800Y-91795600D03*
X126542800Y-91795600D03*
X124002800Y-91795600D03*
X121462800Y-91795600D03*
X157581600Y-91795600D03*
X155041600Y-91795600D03*
X152501600Y-91795600D03*
X149961600Y-91795600D03*
X147421600Y-91795600D03*
X144881600Y-91795600D03*
X142341600Y-91795600D03*
X139801600Y-91795600D03*
X137261600Y-95859600D03*
X137261600Y-94843600D03*
X137261600Y-92811600D03*
X137261600Y-91795600D03*
X135483600Y-95859600D03*
X135483600Y-94843600D03*
X135483600Y-93827600D03*
X135483600Y-92811600D03*
X135483600Y-91795600D03*
X135585200Y-107950000D03*
X137566400Y-111455200D03*
X139090400Y-109372400D03*
X141528800Y-110236000D03*
X133731000Y-110490000D03*
X135128000Y-110490000D03*
X136525000Y-110490000D03*
X132334000Y-110490000D03*
X115570000Y-103632000D03*
X129921000Y-95631000D03*
X132715000Y-95123000D03*
X144399000Y-104521000D03*
X144399000Y-102997000D03*
X144399000Y-101346000D03*
X152781000Y-94742000D03*
X151511000Y-106680000D03*
X154178000Y-105791000D03*
X156337000Y-105918000D03*
X154432000Y-119380000D03*
X153035000Y-119380000D03*
X137160000Y-120142000D03*
X135763000Y-120142000D03*
X134366000Y-120142000D03*
X132969000Y-120142000D03*
X131572000Y-120142000D03*
X130175000Y-120142000D03*
X140208000Y-118618000D03*
X143637000Y-114046000D03*
X146304000Y-114046000D03*
X147574000Y-114173000D03*
X148209000Y-117856000D03*
X146558000Y-118491000D03*
X158496000Y-117856000D03*
X156845000Y-117856000D03*
X155829000Y-119380000D03*
X151511000Y-119380000D03*
X164084000Y-96393000D03*
X161417000Y-96393000D03*
X155956000Y-99060000D03*
X154432000Y-99060000D03*
X129413000Y-101854000D03*
X129667000Y-104521000D03*
X129540000Y-112014000D03*
X129540000Y-113411000D03*
X128016000Y-114681000D03*
X128016000Y-113411000D03*
X129540000Y-114681000D03*
X126492000Y-114681000D03*
X122301000Y-118237000D03*
X122936000Y-117094000D03*
X121666000Y-117094000D03*
X140157200Y-96875600D03*
X127304800Y-107899200D03*
X133959600Y-108102400D03*
X124104400Y-97485200D03*
X119126000Y-99771200D03*
X147447000Y-106807000D03*
X149352000Y-98704400D03*
X139700000Y-100482400D03*
X163322000Y-97536000D03*
X158445200Y-97536000D03*
X162356800Y-94691200D03*
X141173200Y-94132400D03*
X141579600Y-105105200D03*
X138988800Y-104292400D03*
X142341600Y-103581200D03*
X140665200Y-104470200D03*
X138531600Y-107645200D03*
X153060400Y-108712000D03*
X142443200Y-93218000D03*
X162102800Y-93218000D03*
X120091200Y-106273600D03*
X128016000Y-101904800D03*
X125933200Y-99009200D03*
X125984000Y-105460800D03*
X123545600Y-104546400D03*
X124256800Y-103530400D03*
X118821200Y-103327200D03*
X130810000Y-107315000D03*
X127762000Y-98653600D03*
X129895600Y-97268800D03*
X134010400Y-96672400D03*
X117144800Y-96723200D03*
X119735600Y-98907600D03*
X120599200Y-98298000D03*
D18*
X138264411Y-106794789D02*
X138417789Y-106794789D01*
D19*
X147434789Y-106794789D02*
X138417789Y-106794789D01*
X138417789Y-106794789D02*
X134887189Y-106794789D01*
D18*
X137439400Y-107619800D02*
X138264411Y-106794789D01*
D20*
X122301000Y-98298000D02*
X120599200Y-98298000D01*
X129387600Y-105384600D02*
X122301000Y-98298000D01*
X139750800Y-105384600D02*
X129387600Y-105384600D01*
X140665200Y-104470200D02*
X139750800Y-105384600D01*
D19*
X118364000Y-105206800D02*
X117094000Y-103936800D01*
X117094000Y-103936800D02*
X117094000Y-101803200D01*
X121412000Y-113334800D02*
X118364000Y-110286800D01*
X131267200Y-108381800D02*
X126314200Y-113334800D01*
X126314200Y-113334800D02*
X121412000Y-113334800D01*
X118364000Y-110286800D02*
X118364000Y-105206800D01*
X131699000Y-108381800D02*
X131267200Y-108381800D01*
D20*
X140766800Y-105918000D02*
X128778000Y-105918000D01*
X141579600Y-105105200D02*
X140766800Y-105918000D01*
X128778000Y-105918000D02*
X121767600Y-98907600D01*
X121767600Y-98907600D02*
X119735600Y-98907600D01*
X127914400Y-109016800D02*
X126288800Y-109016800D01*
X128473200Y-109575600D02*
X127914400Y-109016800D01*
D18*
X128879600Y-100380800D02*
X128879600Y-99771200D01*
X128879600Y-99771200D02*
X127762000Y-98653600D01*
D21*
X161417000Y-96393000D02*
X164084000Y-96393000D01*
D19*
X147447000Y-106807000D02*
X147434789Y-106794789D01*
D18*
X129667000Y-104521000D02*
X129667000Y-102108000D01*
X129667000Y-102108000D02*
X129413000Y-101854000D01*
D20*
X124383800Y-107315000D02*
X123291600Y-106222800D01*
X126991654Y-107315000D02*
X124383800Y-107315000D01*
X127041973Y-107264681D02*
X126991654Y-107315000D01*
X123291600Y-106222800D02*
X120142000Y-106222800D01*
X127567627Y-107264681D02*
X127041973Y-107264681D01*
X127617946Y-107315000D02*
X127567627Y-107264681D01*
X120142000Y-106222800D02*
X120091200Y-106273600D01*
X130810000Y-107315000D02*
X127617946Y-107315000D01*
X133959600Y-96723200D02*
X117144800Y-96723200D01*
X134010400Y-96672400D02*
X133959600Y-96723200D01*
D18*
X140157200Y-96875600D02*
X140157200Y-97383600D01*
X140157200Y-97383600D02*
X141478000Y-98704400D01*
D19*
X127787400Y-108381800D02*
X127304800Y-107899200D01*
X131699000Y-108381800D02*
X127787400Y-108381800D01*
X133286011Y-106794789D02*
X131699000Y-108381800D01*
X134887189Y-107174811D02*
X133959600Y-108102400D01*
X134887189Y-106794789D02*
X134887189Y-107174811D01*
X134887189Y-106794789D02*
X133286011Y-106794789D01*
X124053600Y-97434400D02*
X124104400Y-97485200D01*
X119639733Y-97434400D02*
X124053600Y-97434400D01*
X116941600Y-101650800D02*
X116941600Y-100132533D01*
X116941600Y-101650800D02*
X115570000Y-100279200D01*
X116941600Y-100132533D02*
X119639733Y-97434400D01*
X117094000Y-101803200D02*
X116941600Y-101650800D01*
X115570000Y-100279200D02*
X115570000Y-94488000D01*
X117094000Y-101803200D02*
X119126000Y-99771200D01*
D20*
X139598400Y-108712000D02*
X153060400Y-108712000D01*
X138531600Y-107645200D02*
X139598400Y-108712000D01*
D19*
X147421600Y-98704400D02*
X141478000Y-98704400D01*
X149352000Y-98704400D02*
X147421600Y-98704400D01*
X141478000Y-98704400D02*
X139700000Y-100482400D01*
X158445200Y-97536000D02*
X163322000Y-97536000D01*
D20*
X161798000Y-94132400D02*
X162356800Y-94691200D01*
X149504400Y-94132400D02*
X161798000Y-94132400D01*
X141173200Y-94132400D02*
X149504400Y-94132400D01*
X138988800Y-104292400D02*
X139649200Y-103632000D01*
X139649200Y-103632000D02*
X142290800Y-103632000D01*
X142290800Y-103632000D02*
X142341600Y-103581200D01*
X162102800Y-93218000D02*
X142443200Y-93218000D01*
X119024400Y-103530400D02*
X124256800Y-103530400D01*
X118821200Y-103327200D02*
X119024400Y-103530400D01*
X125933200Y-99009200D02*
X125933200Y-99822000D01*
X125933200Y-99822000D02*
X128016000Y-101904800D01*
X124460000Y-105460800D02*
X125984000Y-105460800D01*
X123545600Y-104546400D02*
X124460000Y-105460800D01*
X127762000Y-98653600D02*
X129146800Y-97268800D01*
X129146800Y-97268800D02*
X129895600Y-97268800D01*
G04 #@! TA.AperFunction,Conductor*
G36*
X161263138Y-91457593D02*
G01*
X161288858Y-91502142D01*
X161290000Y-91515200D01*
X161290000Y-92710000D01*
X161790015Y-92710000D01*
X161838353Y-92727593D01*
X161864073Y-92772142D01*
X161855140Y-92822800D01*
X161830143Y-92848798D01*
X161807637Y-92862998D01*
X161807630Y-92863004D01*
X161803105Y-92865859D01*
X161799561Y-92869872D01*
X161728106Y-92950780D01*
X161682922Y-92975364D01*
X161671741Y-92976200D01*
X142873541Y-92976200D01*
X142825203Y-92958607D01*
X142816572Y-92950087D01*
X142750670Y-92873603D01*
X142750669Y-92873603D01*
X142747175Y-92869547D01*
X142737071Y-92862998D01*
X142641654Y-92801151D01*
X142641653Y-92801151D01*
X142637158Y-92798237D01*
X142511548Y-92760672D01*
X142506192Y-92760639D01*
X142506190Y-92760639D01*
X142448652Y-92760288D01*
X142380444Y-92759871D01*
X142254385Y-92795899D01*
X142143505Y-92865859D01*
X142056717Y-92964128D01*
X142054441Y-92968975D01*
X142054440Y-92968977D01*
X142051049Y-92976200D01*
X142000998Y-93082805D01*
X141980828Y-93212351D01*
X141981522Y-93217659D01*
X141981522Y-93217661D01*
X141981946Y-93220901D01*
X141997827Y-93342350D01*
X142050630Y-93462354D01*
X142134991Y-93562713D01*
X142139450Y-93565681D01*
X142139451Y-93565682D01*
X142239668Y-93632393D01*
X142239671Y-93632394D01*
X142244129Y-93635362D01*
X142369270Y-93674459D01*
X142436908Y-93675698D01*
X142494992Y-93676763D01*
X142494994Y-93676763D01*
X142500354Y-93676861D01*
X142505525Y-93675451D01*
X142505527Y-93675451D01*
X142595989Y-93650788D01*
X142626844Y-93642376D01*
X142652475Y-93626639D01*
X142734006Y-93576579D01*
X142738571Y-93573776D01*
X142742163Y-93569808D01*
X142742165Y-93569806D01*
X142819348Y-93484535D01*
X142864830Y-93460505D01*
X142875101Y-93459800D01*
X161673057Y-93459800D01*
X161721395Y-93477393D01*
X161730621Y-93486612D01*
X161794591Y-93562713D01*
X161799050Y-93565681D01*
X161799051Y-93565682D01*
X161899268Y-93632393D01*
X161899271Y-93632394D01*
X161903729Y-93635362D01*
X162028870Y-93674459D01*
X162096508Y-93675698D01*
X162154592Y-93676763D01*
X162154594Y-93676763D01*
X162159954Y-93676861D01*
X162165125Y-93675451D01*
X162165127Y-93675451D01*
X162255589Y-93650788D01*
X162286444Y-93642376D01*
X162312075Y-93626639D01*
X162393606Y-93576579D01*
X162398171Y-93573776D01*
X162401763Y-93569808D01*
X162401765Y-93569806D01*
X162443541Y-93523652D01*
X162486153Y-93476575D01*
X162543317Y-93358587D01*
X162565069Y-93229298D01*
X162565207Y-93218000D01*
X162563641Y-93207061D01*
X162547380Y-93093515D01*
X162547379Y-93093512D01*
X162546621Y-93088218D01*
X162492356Y-92968869D01*
X162484812Y-92960113D01*
X162410270Y-92873603D01*
X162410269Y-92873603D01*
X162406775Y-92869547D01*
X162374001Y-92848304D01*
X162343008Y-92807249D01*
X162345655Y-92755878D01*
X162380704Y-92718226D01*
X162414903Y-92710000D01*
X168398765Y-92710000D01*
X168447103Y-92727593D01*
X168472823Y-92772142D01*
X168473965Y-92785200D01*
X168473965Y-113335800D01*
X168456372Y-113384138D01*
X168411823Y-113409858D01*
X168398765Y-113411000D01*
X161290000Y-113411000D01*
X161290000Y-120549835D01*
X161272407Y-120598173D01*
X161227858Y-120623893D01*
X161214800Y-120625035D01*
X120598200Y-120625035D01*
X120549862Y-120607442D01*
X120524142Y-120562893D01*
X120523000Y-120549835D01*
X120523000Y-113538000D01*
X113511165Y-113538000D01*
X113462827Y-113520407D01*
X113437107Y-113475858D01*
X113435965Y-113462800D01*
X113435965Y-110528184D01*
X114765100Y-110528184D01*
X114765248Y-110531514D01*
X114779909Y-110695785D01*
X114781090Y-110702351D01*
X114839494Y-110915839D01*
X114841819Y-110922089D01*
X114937098Y-111121847D01*
X114940501Y-111127602D01*
X115069648Y-111307329D01*
X115074014Y-111312387D01*
X115232952Y-111466408D01*
X115238139Y-111470608D01*
X115421842Y-111594051D01*
X115427687Y-111597265D01*
X115630346Y-111686226D01*
X115636676Y-111688356D01*
X115851885Y-111740023D01*
X115858481Y-111740997D01*
X115902262Y-111743521D01*
X115912616Y-111740414D01*
X115915500Y-111736023D01*
X115915500Y-111730178D01*
X116169500Y-111730178D01*
X116173197Y-111740335D01*
X116176998Y-111742530D01*
X116305828Y-111726939D01*
X116312364Y-111725550D01*
X116523908Y-111660471D01*
X116530081Y-111657951D01*
X116726756Y-111556440D01*
X116732388Y-111552866D01*
X116907982Y-111418127D01*
X116912889Y-111413615D01*
X117061847Y-111249912D01*
X117065876Y-111244604D01*
X117183492Y-111057108D01*
X117186522Y-111051161D01*
X117269072Y-110845813D01*
X117271003Y-110839419D01*
X117316005Y-110622108D01*
X117316722Y-110616663D01*
X117319837Y-110562641D01*
X117319900Y-110560445D01*
X117319900Y-109487259D01*
X117316203Y-109477102D01*
X117310831Y-109474000D01*
X116182759Y-109474000D01*
X116172602Y-109477697D01*
X116169500Y-109483069D01*
X116169500Y-111730178D01*
X115915500Y-111730178D01*
X115915500Y-109487259D01*
X115911803Y-109477102D01*
X115906431Y-109474000D01*
X114778359Y-109474000D01*
X114768202Y-109477697D01*
X114765100Y-109483069D01*
X114765100Y-110528184D01*
X113435965Y-110528184D01*
X113435965Y-109206741D01*
X114765100Y-109206741D01*
X114768797Y-109216898D01*
X114774169Y-109220000D01*
X115902241Y-109220000D01*
X115912398Y-109216303D01*
X115915500Y-109210931D01*
X115915500Y-109206741D01*
X116169500Y-109206741D01*
X116173197Y-109216898D01*
X116178569Y-109220000D01*
X117306641Y-109220000D01*
X117316798Y-109216303D01*
X117319900Y-109210931D01*
X117319900Y-108165816D01*
X117319752Y-108162486D01*
X117305091Y-107998215D01*
X117303910Y-107991649D01*
X117245506Y-107778161D01*
X117243181Y-107771911D01*
X117147902Y-107572153D01*
X117144499Y-107566398D01*
X117015352Y-107386671D01*
X117010986Y-107381613D01*
X116852048Y-107227592D01*
X116846861Y-107223392D01*
X116663158Y-107099949D01*
X116657313Y-107096735D01*
X116454654Y-107007774D01*
X116448324Y-107005644D01*
X116233115Y-106953977D01*
X116226519Y-106953003D01*
X116182738Y-106950479D01*
X116172384Y-106953586D01*
X116169500Y-106957977D01*
X116169500Y-109206741D01*
X115915500Y-109206741D01*
X115915500Y-106963822D01*
X115911803Y-106953665D01*
X115908002Y-106951470D01*
X115779172Y-106967061D01*
X115772636Y-106968450D01*
X115561092Y-107033529D01*
X115554919Y-107036049D01*
X115358244Y-107137560D01*
X115352612Y-107141134D01*
X115177018Y-107275873D01*
X115172111Y-107280385D01*
X115023153Y-107444088D01*
X115019124Y-107449396D01*
X114901508Y-107636892D01*
X114898478Y-107642839D01*
X114815928Y-107848187D01*
X114813997Y-107854581D01*
X114768995Y-108071892D01*
X114768278Y-108077337D01*
X114765163Y-108131359D01*
X114765100Y-108133555D01*
X114765100Y-109206741D01*
X113435965Y-109206741D01*
X113435965Y-93622943D01*
X114567100Y-93622943D01*
X114567101Y-95353056D01*
X114575972Y-95397658D01*
X114609766Y-95448234D01*
X114615923Y-95452348D01*
X114654183Y-95477913D01*
X114654184Y-95477914D01*
X114660342Y-95482028D01*
X114704943Y-95490900D01*
X114948200Y-95490900D01*
X114996538Y-95508493D01*
X115022258Y-95553042D01*
X115023400Y-95566100D01*
X115023400Y-100265365D01*
X115023334Y-100268514D01*
X115020710Y-100331123D01*
X115022069Y-100336916D01*
X115031112Y-100375476D01*
X115032403Y-100382440D01*
X115038586Y-100427574D01*
X115040622Y-100432280D01*
X115040624Y-100432286D01*
X115046284Y-100445367D01*
X115050481Y-100458056D01*
X115054907Y-100476926D01*
X115057377Y-100481419D01*
X115076855Y-100516850D01*
X115079971Y-100523211D01*
X115098062Y-100565016D01*
X115101290Y-100569002D01*
X115101291Y-100569004D01*
X115110261Y-100580081D01*
X115117716Y-100591174D01*
X115127054Y-100608160D01*
X115134013Y-100616222D01*
X115160220Y-100642429D01*
X115165487Y-100648278D01*
X115192309Y-100681400D01*
X115208737Y-100693075D01*
X115210949Y-100694647D01*
X115220561Y-100702770D01*
X116525374Y-102007583D01*
X116547114Y-102054203D01*
X116547400Y-102060757D01*
X116547400Y-103922965D01*
X116547334Y-103926114D01*
X116544710Y-103988723D01*
X116545881Y-103993715D01*
X116555112Y-104033076D01*
X116556403Y-104040040D01*
X116558227Y-104053351D01*
X116562586Y-104085174D01*
X116564622Y-104089880D01*
X116564624Y-104089886D01*
X116570284Y-104102967D01*
X116574481Y-104115656D01*
X116578907Y-104134526D01*
X116581377Y-104139019D01*
X116600855Y-104174450D01*
X116603971Y-104180811D01*
X116622062Y-104222616D01*
X116625290Y-104226602D01*
X116625291Y-104226604D01*
X116634261Y-104237681D01*
X116641716Y-104248774D01*
X116651054Y-104265760D01*
X116658013Y-104273822D01*
X116684220Y-104300029D01*
X116689487Y-104305878D01*
X116716309Y-104339000D01*
X116734951Y-104352248D01*
X116744563Y-104360372D01*
X117795374Y-105411184D01*
X117817114Y-105457804D01*
X117817400Y-105464358D01*
X117817400Y-110272965D01*
X117817334Y-110276114D01*
X117814710Y-110338723D01*
X117815881Y-110343715D01*
X117825112Y-110383076D01*
X117826403Y-110390040D01*
X117832586Y-110435174D01*
X117834622Y-110439880D01*
X117834624Y-110439886D01*
X117840284Y-110452967D01*
X117844481Y-110465656D01*
X117848907Y-110484526D01*
X117851377Y-110489019D01*
X117870855Y-110524450D01*
X117873971Y-110530811D01*
X117892062Y-110572616D01*
X117895290Y-110576602D01*
X117895291Y-110576604D01*
X117904261Y-110587681D01*
X117911716Y-110598774D01*
X117921054Y-110615760D01*
X117928013Y-110623822D01*
X117954220Y-110650029D01*
X117959487Y-110655878D01*
X117986309Y-110689000D01*
X118002737Y-110700675D01*
X118004949Y-110702247D01*
X118014561Y-110710370D01*
X121015690Y-113711499D01*
X121017871Y-113713772D01*
X121056838Y-113756149D01*
X121056840Y-113756151D01*
X121060308Y-113759922D01*
X121064662Y-113762622D01*
X121064665Y-113762624D01*
X121076254Y-113769809D01*
X121092112Y-113779641D01*
X121099026Y-113783928D01*
X121104861Y-113787938D01*
X121141150Y-113815483D01*
X121145914Y-113817369D01*
X121145917Y-113817371D01*
X121159175Y-113822620D01*
X121171110Y-113828623D01*
X121187588Y-113838839D01*
X121192510Y-113840269D01*
X121231333Y-113851548D01*
X121238036Y-113853843D01*
X121275620Y-113868724D01*
X121275623Y-113868725D01*
X121280392Y-113870613D01*
X121299666Y-113872638D01*
X121312783Y-113875211D01*
X121331400Y-113880620D01*
X121342021Y-113881400D01*
X121379091Y-113881400D01*
X121386951Y-113881812D01*
X121429331Y-113886266D01*
X121451875Y-113882453D01*
X121464416Y-113881400D01*
X126300365Y-113881400D01*
X126303514Y-113881466D01*
X126366123Y-113884090D01*
X126385608Y-113879520D01*
X126410476Y-113873688D01*
X126417440Y-113872397D01*
X126457493Y-113866910D01*
X126462574Y-113866214D01*
X126467280Y-113864178D01*
X126467286Y-113864176D01*
X126480367Y-113858516D01*
X126493056Y-113854319D01*
X126495085Y-113853843D01*
X126511926Y-113849893D01*
X126529432Y-113840269D01*
X126551850Y-113827945D01*
X126558211Y-113824829D01*
X126595311Y-113808774D01*
X126600016Y-113806738D01*
X126604002Y-113803510D01*
X126604004Y-113803509D01*
X126615081Y-113794539D01*
X126626174Y-113787084D01*
X126643160Y-113777746D01*
X126651222Y-113770787D01*
X126677429Y-113744580D01*
X126683278Y-113739313D01*
X126712416Y-113715717D01*
X126716400Y-113712491D01*
X126729647Y-113693851D01*
X126737770Y-113684239D01*
X129152091Y-111269918D01*
X163159359Y-111269918D01*
X163162990Y-111313161D01*
X163164312Y-111320363D01*
X163216470Y-111502261D01*
X163219164Y-111509063D01*
X163305657Y-111677363D01*
X163309623Y-111683518D01*
X163427164Y-111831817D01*
X163432240Y-111837074D01*
X163576355Y-111959725D01*
X163582353Y-111963894D01*
X163747537Y-112056211D01*
X163754250Y-112059144D01*
X163934210Y-112117616D01*
X163941358Y-112119188D01*
X164013833Y-112127830D01*
X164024357Y-112125361D01*
X164027000Y-112121829D01*
X164027000Y-112117375D01*
X164281000Y-112117375D01*
X164284697Y-112127532D01*
X164289003Y-112130018D01*
X164325239Y-112127230D01*
X164332447Y-112125959D01*
X164514701Y-112075073D01*
X164521534Y-112072422D01*
X164690428Y-111987108D01*
X164696611Y-111983184D01*
X164845720Y-111866687D01*
X164851023Y-111861637D01*
X164974664Y-111718397D01*
X164978886Y-111712412D01*
X165072354Y-111547880D01*
X165075328Y-111541200D01*
X165135059Y-111361641D01*
X165136680Y-111354507D01*
X165146704Y-111275154D01*
X165144310Y-111264615D01*
X165140865Y-111262000D01*
X164294259Y-111262000D01*
X164284102Y-111265697D01*
X164281000Y-111271069D01*
X164281000Y-112117375D01*
X164027000Y-112117375D01*
X164027000Y-111275259D01*
X164023303Y-111265102D01*
X164017931Y-111262000D01*
X163171953Y-111262000D01*
X163161796Y-111265697D01*
X163159359Y-111269918D01*
X129152091Y-111269918D01*
X129427188Y-110994821D01*
X163160994Y-110994821D01*
X163163537Y-111005330D01*
X163167158Y-111008000D01*
X164013741Y-111008000D01*
X164023898Y-111004303D01*
X164027000Y-110998931D01*
X164027000Y-110994741D01*
X164281000Y-110994741D01*
X164284697Y-111004898D01*
X164290069Y-111008000D01*
X165135539Y-111008000D01*
X165145696Y-111004303D01*
X165148038Y-111000247D01*
X165142426Y-110943015D01*
X165141004Y-110935836D01*
X165086312Y-110754688D01*
X165083524Y-110747922D01*
X164994684Y-110580839D01*
X164990639Y-110574751D01*
X164871041Y-110428109D01*
X164865878Y-110422910D01*
X164720078Y-110302294D01*
X164714016Y-110298205D01*
X164547557Y-110208201D01*
X164540813Y-110205366D01*
X164360047Y-110149410D01*
X164352880Y-110147939D01*
X164294186Y-110141770D01*
X164283700Y-110144384D01*
X164281000Y-110148100D01*
X164281000Y-110994741D01*
X164027000Y-110994741D01*
X164027000Y-110153231D01*
X164023303Y-110143074D01*
X164019166Y-110140685D01*
X163968927Y-110145257D01*
X163961728Y-110146631D01*
X163780208Y-110200055D01*
X163773421Y-110202797D01*
X163605721Y-110290468D01*
X163599603Y-110294472D01*
X163452128Y-110413044D01*
X163446903Y-110418161D01*
X163325266Y-110563122D01*
X163321132Y-110569160D01*
X163229975Y-110734975D01*
X163227088Y-110741711D01*
X163169874Y-110922074D01*
X163168351Y-110929239D01*
X163160994Y-110994821D01*
X129427188Y-110994821D01*
X131471583Y-108950426D01*
X131518203Y-108928686D01*
X131524757Y-108928400D01*
X131685165Y-108928400D01*
X131688314Y-108928466D01*
X131750923Y-108931090D01*
X131764662Y-108927868D01*
X131795276Y-108920688D01*
X131802240Y-108919397D01*
X131842293Y-108913910D01*
X131847374Y-108913214D01*
X131852080Y-108911178D01*
X131852086Y-108911176D01*
X131865167Y-108905516D01*
X131877856Y-108901319D01*
X131878368Y-108901199D01*
X131896726Y-108896893D01*
X131936649Y-108874945D01*
X131943011Y-108871829D01*
X131951964Y-108867954D01*
X131984816Y-108853738D01*
X131988802Y-108850510D01*
X131988804Y-108850509D01*
X131999881Y-108841539D01*
X132010974Y-108834084D01*
X132027960Y-108824746D01*
X132031420Y-108821760D01*
X132034986Y-108818681D01*
X132036022Y-108817787D01*
X132062229Y-108791580D01*
X132068078Y-108786313D01*
X132075313Y-108780454D01*
X132101200Y-108759491D01*
X132114447Y-108740851D01*
X132122570Y-108731239D01*
X133490394Y-107363415D01*
X133537014Y-107341675D01*
X133543568Y-107341389D01*
X133766054Y-107341389D01*
X133814392Y-107358982D01*
X133840112Y-107403531D01*
X133831179Y-107454189D01*
X133819228Y-107469763D01*
X133546568Y-107742423D01*
X133545023Y-107744458D01*
X133545019Y-107744463D01*
X133482017Y-107827465D01*
X133482015Y-107827468D01*
X133478917Y-107831550D01*
X133477030Y-107836317D01*
X133477029Y-107836318D01*
X133454328Y-107893654D01*
X133423787Y-107970792D01*
X133423251Y-107975888D01*
X133423251Y-107975890D01*
X133412450Y-108078661D01*
X133408134Y-108119730D01*
X133433109Y-108267393D01*
X133435292Y-108272032D01*
X133488675Y-108385476D01*
X133496873Y-108402898D01*
X133500222Y-108406777D01*
X133500222Y-108406778D01*
X133535954Y-108448174D01*
X133594729Y-108516265D01*
X133598998Y-108519101D01*
X133701969Y-108587515D01*
X133719467Y-108599141D01*
X133724342Y-108600725D01*
X133724344Y-108600726D01*
X133857020Y-108643835D01*
X133857022Y-108643835D01*
X133861896Y-108645419D01*
X133867014Y-108645634D01*
X133867017Y-108645634D01*
X133936709Y-108648554D01*
X134011523Y-108651690D01*
X134016510Y-108650520D01*
X134016513Y-108650520D01*
X134152334Y-108618664D01*
X134152335Y-108618664D01*
X134157326Y-108617493D01*
X134161816Y-108615024D01*
X134161820Y-108615023D01*
X134285108Y-108547244D01*
X134285110Y-108547243D01*
X134288560Y-108545346D01*
X134296622Y-108538387D01*
X135263888Y-107571121D01*
X135266161Y-107568940D01*
X135308538Y-107529973D01*
X135308540Y-107529971D01*
X135312311Y-107526503D01*
X135315011Y-107522149D01*
X135315013Y-107522146D01*
X135336317Y-107487785D01*
X135340330Y-107481946D01*
X135340670Y-107481499D01*
X135367872Y-107445661D01*
X135369758Y-107440897D01*
X135369760Y-107440894D01*
X135375009Y-107427636D01*
X135381012Y-107415701D01*
X135391228Y-107399223D01*
X135392658Y-107394301D01*
X135394744Y-107389616D01*
X135396192Y-107390261D01*
X135422659Y-107354099D01*
X135464492Y-107341389D01*
X136946056Y-107341389D01*
X136994394Y-107358982D01*
X137020114Y-107403531D01*
X137014127Y-107448547D01*
X136997198Y-107484605D01*
X136977028Y-107614151D01*
X136977722Y-107619459D01*
X136977722Y-107619461D01*
X136992486Y-107732362D01*
X136994027Y-107744150D01*
X136996186Y-107749056D01*
X136996186Y-107749057D01*
X137001171Y-107760387D01*
X137046830Y-107864154D01*
X137131191Y-107964513D01*
X137135650Y-107967481D01*
X137135651Y-107967482D01*
X137235868Y-108034193D01*
X137235871Y-108034194D01*
X137240329Y-108037162D01*
X137365470Y-108076259D01*
X137433108Y-108077498D01*
X137491192Y-108078563D01*
X137491194Y-108078563D01*
X137496554Y-108078661D01*
X137501725Y-108077251D01*
X137501727Y-108077251D01*
X137569500Y-108058774D01*
X137623044Y-108044176D01*
X137634214Y-108037318D01*
X137730206Y-107978379D01*
X137734771Y-107975576D01*
X137738363Y-107971608D01*
X137738365Y-107971606D01*
X137812634Y-107889554D01*
X137822753Y-107878375D01*
X137879917Y-107760387D01*
X137894522Y-107673581D01*
X137901187Y-107633965D01*
X137901187Y-107633961D01*
X137901669Y-107631098D01*
X137901705Y-107628186D01*
X137901772Y-107622701D01*
X137901772Y-107622695D01*
X137901807Y-107619800D01*
X137901397Y-107616934D01*
X137901396Y-107616925D01*
X137898801Y-107598807D01*
X137909363Y-107548463D01*
X137920067Y-107534971D01*
X137953094Y-107501944D01*
X137999714Y-107480204D01*
X138049401Y-107493518D01*
X138078906Y-107535655D01*
X138080573Y-107566686D01*
X138069228Y-107639551D01*
X138069922Y-107644859D01*
X138069922Y-107644861D01*
X138078646Y-107711578D01*
X138086227Y-107769550D01*
X138088386Y-107774456D01*
X138088386Y-107774457D01*
X138124571Y-107856693D01*
X138139030Y-107889554D01*
X138223391Y-107989913D01*
X138227850Y-107992881D01*
X138227851Y-107992882D01*
X138328068Y-108059593D01*
X138328071Y-108059594D01*
X138332529Y-108062562D01*
X138457670Y-108101659D01*
X138525308Y-108102898D01*
X138583392Y-108103963D01*
X138583394Y-108103963D01*
X138588754Y-108104061D01*
X138593926Y-108102651D01*
X138599240Y-108101989D01*
X138599393Y-108103221D01*
X138644862Y-108106995D01*
X138666559Y-108122116D01*
X139421542Y-108877099D01*
X139424252Y-108879954D01*
X139453098Y-108911991D01*
X139469680Y-108919373D01*
X139477261Y-108922749D01*
X139487631Y-108928380D01*
X139503178Y-108938476D01*
X139503180Y-108938477D01*
X139509811Y-108942783D01*
X139517619Y-108944020D01*
X139517620Y-108944020D01*
X139519352Y-108944294D01*
X139538176Y-108949870D01*
X139539782Y-108950585D01*
X139539784Y-108950585D01*
X139547004Y-108953800D01*
X139573454Y-108953800D01*
X139585218Y-108954726D01*
X139603531Y-108957627D01*
X139603533Y-108957627D01*
X139611338Y-108958863D01*
X139618970Y-108956818D01*
X139618971Y-108956818D01*
X139620672Y-108956362D01*
X139640135Y-108953800D01*
X152630657Y-108953800D01*
X152678995Y-108971393D01*
X152688221Y-108980612D01*
X152752191Y-109056713D01*
X152756650Y-109059681D01*
X152756651Y-109059682D01*
X152856868Y-109126393D01*
X152856871Y-109126394D01*
X152861329Y-109129362D01*
X152986470Y-109168459D01*
X153054108Y-109169698D01*
X153112192Y-109170763D01*
X153112194Y-109170763D01*
X153117554Y-109170861D01*
X153122725Y-109169451D01*
X153122727Y-109169451D01*
X153216846Y-109143791D01*
X153244044Y-109136376D01*
X153274781Y-109117504D01*
X153351206Y-109070579D01*
X153355771Y-109067776D01*
X153359363Y-109063808D01*
X153359365Y-109063806D01*
X153409795Y-109008091D01*
X153443753Y-108970575D01*
X153500917Y-108852587D01*
X153513648Y-108776919D01*
X153522187Y-108726165D01*
X153522187Y-108726161D01*
X153522669Y-108723298D01*
X153522807Y-108712000D01*
X153520122Y-108693246D01*
X153504980Y-108587515D01*
X153504979Y-108587512D01*
X153504221Y-108582218D01*
X153503635Y-108580930D01*
X163146345Y-108580930D01*
X163146653Y-108584598D01*
X163146653Y-108584601D01*
X163157595Y-108714901D01*
X163162803Y-108776919D01*
X163202456Y-108915206D01*
X163214975Y-108958863D01*
X163217015Y-108965979D01*
X163306916Y-109140908D01*
X163309201Y-109143791D01*
X163332113Y-109172699D01*
X163429083Y-109295044D01*
X163431877Y-109297422D01*
X163431878Y-109297423D01*
X163466007Y-109326469D01*
X163578862Y-109422516D01*
X163582063Y-109424305D01*
X163582066Y-109424307D01*
X163616659Y-109443640D01*
X163750547Y-109518467D01*
X163754044Y-109519603D01*
X163754048Y-109519605D01*
X163846615Y-109549681D01*
X163937600Y-109579244D01*
X164025830Y-109589765D01*
X164129237Y-109602096D01*
X164129239Y-109602096D01*
X164132895Y-109602532D01*
X164328994Y-109587443D01*
X164443061Y-109555595D01*
X164514883Y-109535542D01*
X164514885Y-109535541D01*
X164518428Y-109534552D01*
X164693981Y-109445874D01*
X164848966Y-109324786D01*
X164977480Y-109175901D01*
X165010673Y-109117471D01*
X165072810Y-109008091D01*
X165072812Y-109008088D01*
X165074628Y-109004890D01*
X165118892Y-108871829D01*
X165135548Y-108821760D01*
X165135549Y-108821757D01*
X165136710Y-108818266D01*
X165161360Y-108623138D01*
X165161753Y-108595000D01*
X165161019Y-108587515D01*
X165142921Y-108402927D01*
X165142920Y-108402922D01*
X165142561Y-108399260D01*
X165085714Y-108210975D01*
X164993379Y-108037318D01*
X164869072Y-107884903D01*
X164805739Y-107832509D01*
X164720359Y-107761877D01*
X164717528Y-107759535D01*
X164544520Y-107665990D01*
X164356637Y-107607830D01*
X164233766Y-107594916D01*
X164164690Y-107587656D01*
X164164689Y-107587656D01*
X164161035Y-107587272D01*
X164063101Y-107596184D01*
X163968824Y-107604764D01*
X163968823Y-107604764D01*
X163965166Y-107605097D01*
X163961641Y-107606134D01*
X163961638Y-107606135D01*
X163793535Y-107655611D01*
X163776489Y-107660628D01*
X163602192Y-107751748D01*
X163577114Y-107771911D01*
X163468484Y-107859252D01*
X163448912Y-107874988D01*
X163322489Y-108025653D01*
X163227739Y-108198004D01*
X163168269Y-108385476D01*
X163146345Y-108580930D01*
X153503635Y-108580930D01*
X153484292Y-108538387D01*
X153452175Y-108467749D01*
X153452174Y-108467748D01*
X153449956Y-108462869D01*
X153439715Y-108450983D01*
X153367870Y-108367603D01*
X153367869Y-108367603D01*
X153364375Y-108363547D01*
X153254358Y-108292237D01*
X153128748Y-108254672D01*
X153123392Y-108254639D01*
X153123390Y-108254639D01*
X153065852Y-108254288D01*
X152997644Y-108253871D01*
X152871585Y-108289899D01*
X152760705Y-108359859D01*
X152693222Y-108436270D01*
X152685706Y-108444780D01*
X152640522Y-108469364D01*
X152629341Y-108470200D01*
X139729705Y-108470200D01*
X139681367Y-108452607D01*
X139676531Y-108448174D01*
X139005586Y-107777229D01*
X138983846Y-107730609D01*
X138984602Y-107711578D01*
X138993387Y-107659365D01*
X138993387Y-107659360D01*
X138993869Y-107656498D01*
X138994007Y-107645200D01*
X138993056Y-107638554D01*
X138976180Y-107520715D01*
X138976179Y-107520712D01*
X138975421Y-107515418D01*
X138973206Y-107510546D01*
X138973205Y-107510543D01*
X138944638Y-107447714D01*
X138940647Y-107396429D01*
X138970554Y-107354577D01*
X139013094Y-107341389D01*
X147303412Y-107341389D01*
X147315389Y-107342839D01*
X147315392Y-107342813D01*
X147464331Y-107358466D01*
X147611993Y-107333491D01*
X147678320Y-107302280D01*
X147742862Y-107271909D01*
X147742865Y-107271907D01*
X147747498Y-107269727D01*
X147801178Y-107223392D01*
X147856984Y-107175221D01*
X147860865Y-107171871D01*
X147943741Y-107047133D01*
X147946305Y-107039244D01*
X147988435Y-106909581D01*
X147988435Y-106909579D01*
X147990019Y-106904705D01*
X147990481Y-106893701D01*
X147994662Y-106793913D01*
X147996290Y-106755077D01*
X147995003Y-106749587D01*
X147963264Y-106614266D01*
X147963264Y-106614265D01*
X147962093Y-106609274D01*
X147959624Y-106604784D01*
X147959623Y-106604780D01*
X147891844Y-106481492D01*
X147891843Y-106481490D01*
X147889946Y-106478040D01*
X147882987Y-106469978D01*
X147831099Y-106418090D01*
X147828918Y-106415817D01*
X147789951Y-106373440D01*
X147789949Y-106373438D01*
X147786481Y-106369667D01*
X147782127Y-106366967D01*
X147782124Y-106366965D01*
X147758235Y-106352154D01*
X147747759Y-106345659D01*
X147741924Y-106341648D01*
X147738797Y-106339274D01*
X147705639Y-106314106D01*
X147700875Y-106312220D01*
X147700872Y-106312218D01*
X147687614Y-106306969D01*
X147675679Y-106300966D01*
X147659201Y-106290750D01*
X147654279Y-106289320D01*
X147615456Y-106278041D01*
X147608753Y-106275746D01*
X147571169Y-106260865D01*
X147571166Y-106260864D01*
X147566397Y-106258976D01*
X147547123Y-106256951D01*
X147534006Y-106254378D01*
X147515389Y-106248969D01*
X147504768Y-106248189D01*
X147467699Y-106248189D01*
X147459839Y-106247777D01*
X147422559Y-106243859D01*
X147417459Y-106243323D01*
X147412404Y-106244178D01*
X147394915Y-106247136D01*
X147382374Y-106248189D01*
X140960116Y-106248189D01*
X140911778Y-106230596D01*
X140886058Y-106186047D01*
X140894991Y-106135389D01*
X140906942Y-106119815D01*
X140920138Y-106106619D01*
X140929111Y-106098955D01*
X140944112Y-106088056D01*
X140950507Y-106083410D01*
X140955341Y-106075037D01*
X140967290Y-106059467D01*
X140985827Y-106040930D01*
X163146345Y-106040930D01*
X163146653Y-106044598D01*
X163146653Y-106044601D01*
X163154020Y-106132332D01*
X163162803Y-106236919D01*
X163217015Y-106425979D01*
X163306916Y-106600908D01*
X163309201Y-106603791D01*
X163331701Y-106632179D01*
X163429083Y-106755044D01*
X163431877Y-106757422D01*
X163431878Y-106757423D01*
X163466691Y-106787051D01*
X163578862Y-106882516D01*
X163582063Y-106884305D01*
X163582066Y-106884307D01*
X163620656Y-106905874D01*
X163750547Y-106978467D01*
X163754044Y-106979603D01*
X163754048Y-106979605D01*
X163834189Y-107005644D01*
X163937600Y-107039244D01*
X164044984Y-107052049D01*
X164129237Y-107062096D01*
X164129239Y-107062096D01*
X164132895Y-107062532D01*
X164328994Y-107047443D01*
X164478701Y-107005644D01*
X164514883Y-106995542D01*
X164514885Y-106995541D01*
X164518428Y-106994552D01*
X164605678Y-106950479D01*
X164690697Y-106907533D01*
X164690698Y-106907532D01*
X164693981Y-106905874D01*
X164848966Y-106784786D01*
X164977480Y-106635901D01*
X164999218Y-106597636D01*
X165072810Y-106468091D01*
X165072812Y-106468088D01*
X165074628Y-106464890D01*
X165115340Y-106342506D01*
X165135548Y-106281760D01*
X165135549Y-106281757D01*
X165136710Y-106278266D01*
X165161360Y-106083138D01*
X165161691Y-106059467D01*
X165161724Y-106057099D01*
X165161724Y-106057093D01*
X165161753Y-106055000D01*
X165161548Y-106052907D01*
X165142921Y-105862927D01*
X165142920Y-105862922D01*
X165142561Y-105859260D01*
X165085714Y-105670975D01*
X164993379Y-105497318D01*
X164869072Y-105344903D01*
X164717528Y-105219535D01*
X164544520Y-105125990D01*
X164356637Y-105067830D01*
X164233766Y-105054916D01*
X164164690Y-105047656D01*
X164164689Y-105047656D01*
X164161035Y-105047272D01*
X164090160Y-105053722D01*
X163968824Y-105064764D01*
X163968823Y-105064764D01*
X163965166Y-105065097D01*
X163961641Y-105066134D01*
X163961638Y-105066135D01*
X163790844Y-105116403D01*
X163776489Y-105120628D01*
X163602192Y-105211748D01*
X163566422Y-105240508D01*
X163453850Y-105331018D01*
X163448912Y-105334988D01*
X163322489Y-105485653D01*
X163320718Y-105488875D01*
X163320717Y-105488876D01*
X163229513Y-105654777D01*
X163227739Y-105658004D01*
X163168269Y-105845476D01*
X163146345Y-106040930D01*
X140985827Y-106040930D01*
X141444204Y-105582553D01*
X141490824Y-105560813D01*
X141504574Y-105561317D01*
X141505670Y-105561659D01*
X141546793Y-105562413D01*
X141631392Y-105563963D01*
X141631394Y-105563963D01*
X141636754Y-105564061D01*
X141641925Y-105562651D01*
X141641927Y-105562651D01*
X141713396Y-105543166D01*
X141763244Y-105529576D01*
X141820416Y-105494473D01*
X141870406Y-105463779D01*
X141874971Y-105460976D01*
X141878563Y-105457008D01*
X141878565Y-105457006D01*
X141920040Y-105411184D01*
X141962953Y-105363775D01*
X142020117Y-105245787D01*
X142028329Y-105196974D01*
X142041387Y-105119365D01*
X142041387Y-105119361D01*
X142041869Y-105116498D01*
X142041942Y-105110525D01*
X142041972Y-105108101D01*
X142041972Y-105108095D01*
X142042007Y-105105200D01*
X142040441Y-105094261D01*
X142024180Y-104980715D01*
X142024179Y-104980712D01*
X142023421Y-104975418D01*
X142016771Y-104960793D01*
X141971375Y-104860949D01*
X141971374Y-104860948D01*
X141969156Y-104856069D01*
X141961612Y-104847313D01*
X141887070Y-104760803D01*
X141887069Y-104760803D01*
X141883575Y-104756747D01*
X141871557Y-104748957D01*
X141778054Y-104688351D01*
X141778053Y-104688351D01*
X141773558Y-104685437D01*
X141647948Y-104647872D01*
X141642592Y-104647839D01*
X141642590Y-104647839D01*
X141585052Y-104647488D01*
X141516844Y-104647071D01*
X141390785Y-104683099D01*
X141279905Y-104753059D01*
X141193117Y-104851328D01*
X141190841Y-104856175D01*
X141190840Y-104856177D01*
X141148961Y-104945376D01*
X141137398Y-104970005D01*
X141117228Y-105099551D01*
X141117922Y-105104859D01*
X141117922Y-105104861D01*
X141127003Y-105174307D01*
X141115826Y-105224518D01*
X141105612Y-105237231D01*
X140688669Y-105654174D01*
X140642049Y-105675914D01*
X140635495Y-105676200D01*
X139987575Y-105676200D01*
X139939237Y-105658607D01*
X139913517Y-105614058D01*
X139922450Y-105563400D01*
X139929576Y-105553593D01*
X139934507Y-105550010D01*
X139939341Y-105541637D01*
X139951290Y-105526067D01*
X140529804Y-104947553D01*
X140576424Y-104925813D01*
X140590174Y-104926317D01*
X140591270Y-104926659D01*
X140632393Y-104927413D01*
X140716992Y-104928963D01*
X140716994Y-104928963D01*
X140722354Y-104929061D01*
X140727525Y-104927651D01*
X140727527Y-104927651D01*
X140807227Y-104905922D01*
X140848844Y-104894576D01*
X140876102Y-104877840D01*
X140956006Y-104828779D01*
X140960571Y-104825976D01*
X140964163Y-104822008D01*
X140964165Y-104822006D01*
X141015443Y-104765354D01*
X141048553Y-104728775D01*
X141105717Y-104610787D01*
X141121466Y-104517177D01*
X141126987Y-104484365D01*
X141126987Y-104484361D01*
X141127469Y-104481498D01*
X141127607Y-104470200D01*
X141126041Y-104459261D01*
X141109780Y-104345715D01*
X141109779Y-104345712D01*
X141109021Y-104340418D01*
X141087247Y-104292528D01*
X141056975Y-104225949D01*
X141056974Y-104225948D01*
X141054756Y-104221069D01*
X141047212Y-104212313D01*
X140972670Y-104125803D01*
X140972669Y-104125803D01*
X140969175Y-104121747D01*
X140859158Y-104050437D01*
X140760883Y-104021047D01*
X140719613Y-103990341D01*
X140707736Y-103940292D01*
X140730809Y-103894317D01*
X140782430Y-103873800D01*
X141954559Y-103873800D01*
X142002897Y-103891393D01*
X142012123Y-103900612D01*
X142033391Y-103925913D01*
X142037850Y-103928881D01*
X142037851Y-103928882D01*
X142138068Y-103995593D01*
X142138071Y-103995594D01*
X142142529Y-103998562D01*
X142267670Y-104037659D01*
X142335308Y-104038898D01*
X142393392Y-104039963D01*
X142393394Y-104039963D01*
X142398754Y-104040061D01*
X142403925Y-104038651D01*
X142403927Y-104038651D01*
X142473566Y-104019665D01*
X142525244Y-104005576D01*
X142551976Y-103989163D01*
X142632406Y-103939779D01*
X142636971Y-103936976D01*
X142640563Y-103933008D01*
X142640565Y-103933006D01*
X142690279Y-103878082D01*
X142724953Y-103839775D01*
X142782117Y-103721787D01*
X142791552Y-103665708D01*
X142803387Y-103595365D01*
X142803387Y-103595361D01*
X142803869Y-103592498D01*
X142804007Y-103581200D01*
X142797148Y-103533301D01*
X142786180Y-103456715D01*
X142786179Y-103456712D01*
X142785421Y-103451418D01*
X142775805Y-103430269D01*
X142733375Y-103336949D01*
X142733374Y-103336948D01*
X142731156Y-103332069D01*
X142723612Y-103323313D01*
X142649070Y-103236803D01*
X142649069Y-103236803D01*
X142645575Y-103232747D01*
X142599251Y-103202721D01*
X142540054Y-103164351D01*
X142540053Y-103164351D01*
X142535558Y-103161437D01*
X142409948Y-103123872D01*
X142404592Y-103123839D01*
X142404590Y-103123839D01*
X142347052Y-103123488D01*
X142278844Y-103123071D01*
X142152785Y-103159099D01*
X142041905Y-103229059D01*
X141955117Y-103327328D01*
X141950600Y-103336949D01*
X141945900Y-103346960D01*
X141909431Y-103383238D01*
X141877829Y-103390200D01*
X139657510Y-103390200D01*
X139653574Y-103390097D01*
X139652193Y-103390025D01*
X139610529Y-103387841D01*
X139603149Y-103390674D01*
X139585840Y-103397318D01*
X139574527Y-103400669D01*
X139556390Y-103404525D01*
X139556387Y-103404526D01*
X139548654Y-103406170D01*
X139542258Y-103410817D01*
X139542256Y-103410818D01*
X139540837Y-103411849D01*
X139523587Y-103421215D01*
X139521944Y-103421846D01*
X139521943Y-103421846D01*
X139514564Y-103424679D01*
X139495862Y-103443381D01*
X139486889Y-103451045D01*
X139465493Y-103466590D01*
X139461542Y-103473434D01*
X139460661Y-103474960D01*
X139448710Y-103490533D01*
X139124191Y-103815052D01*
X139077571Y-103836792D01*
X139061227Y-103836292D01*
X139057148Y-103835072D01*
X139051795Y-103835039D01*
X139051793Y-103835039D01*
X138992239Y-103834675D01*
X138926044Y-103834271D01*
X138799985Y-103870299D01*
X138689105Y-103940259D01*
X138602317Y-104038528D01*
X138600041Y-104043375D01*
X138600040Y-104043377D01*
X138559372Y-104129997D01*
X138546598Y-104157205D01*
X138526428Y-104286751D01*
X138527122Y-104292059D01*
X138527122Y-104292061D01*
X138535470Y-104355903D01*
X138543427Y-104416750D01*
X138545586Y-104421656D01*
X138545586Y-104421657D01*
X138592988Y-104529386D01*
X138596230Y-104536754D01*
X138680591Y-104637113D01*
X138685050Y-104640081D01*
X138685051Y-104640082D01*
X138785268Y-104706793D01*
X138785271Y-104706794D01*
X138789729Y-104709762D01*
X138914870Y-104748859D01*
X138982508Y-104750098D01*
X139040592Y-104751163D01*
X139040594Y-104751163D01*
X139045954Y-104751261D01*
X139051125Y-104749851D01*
X139051127Y-104749851D01*
X139128432Y-104728775D01*
X139172444Y-104716776D01*
X139213580Y-104691519D01*
X139279606Y-104650979D01*
X139284171Y-104648176D01*
X139287763Y-104644208D01*
X139287765Y-104644206D01*
X139328162Y-104599576D01*
X139372153Y-104550975D01*
X139429317Y-104432987D01*
X139444000Y-104345715D01*
X139450587Y-104306565D01*
X139450587Y-104306561D01*
X139451069Y-104303698D01*
X139451207Y-104292400D01*
X139441450Y-104224273D01*
X139452014Y-104173931D01*
X139462717Y-104160440D01*
X139727331Y-103895826D01*
X139773951Y-103874086D01*
X139780505Y-103873800D01*
X140549470Y-103873800D01*
X140597808Y-103891393D01*
X140623528Y-103935942D01*
X140614595Y-103986600D01*
X140575190Y-104019665D01*
X140570135Y-104021305D01*
X140476385Y-104048099D01*
X140365505Y-104118059D01*
X140278717Y-104216328D01*
X140276441Y-104221175D01*
X140276440Y-104221177D01*
X140225275Y-104330155D01*
X140222998Y-104335005D01*
X140202828Y-104464551D01*
X140203522Y-104469859D01*
X140203522Y-104469861D01*
X140212603Y-104539307D01*
X140201426Y-104589518D01*
X140191212Y-104602231D01*
X139672669Y-105120774D01*
X139626049Y-105142514D01*
X139619495Y-105142800D01*
X129518905Y-105142800D01*
X129470567Y-105125207D01*
X129465731Y-105120774D01*
X129415514Y-105070557D01*
X129393774Y-105023937D01*
X129407088Y-104974250D01*
X129449225Y-104944745D01*
X129491112Y-104945605D01*
X129593070Y-104977459D01*
X129660708Y-104978698D01*
X129718792Y-104979763D01*
X129718794Y-104979763D01*
X129724154Y-104979861D01*
X129729325Y-104978451D01*
X129729327Y-104978451D01*
X129797100Y-104959974D01*
X129850644Y-104945376D01*
X129877376Y-104928963D01*
X129957806Y-104879579D01*
X129962371Y-104876776D01*
X129965963Y-104872808D01*
X129965965Y-104872806D01*
X130027701Y-104804600D01*
X130050353Y-104779575D01*
X130107517Y-104661587D01*
X130121910Y-104576037D01*
X130128787Y-104535165D01*
X130128787Y-104535161D01*
X130129269Y-104532298D01*
X130129407Y-104521000D01*
X130127900Y-104510473D01*
X130111580Y-104396515D01*
X130111579Y-104396512D01*
X130110821Y-104391218D01*
X130108360Y-104385805D01*
X130058775Y-104276749D01*
X130058774Y-104276748D01*
X130056556Y-104271869D01*
X130051292Y-104265760D01*
X129974472Y-104176605D01*
X129974470Y-104176604D01*
X129970975Y-104172547D01*
X129971192Y-104172360D01*
X129947805Y-104129997D01*
X129946900Y-104118362D01*
X129946900Y-103733267D01*
X131263227Y-103733267D01*
X131278820Y-103852504D01*
X131281671Y-103862715D01*
X131303231Y-103911714D01*
X131309600Y-103942001D01*
X131309600Y-104007316D01*
X131310321Y-104014637D01*
X131316997Y-104048198D01*
X131322558Y-104061623D01*
X131348014Y-104099720D01*
X131358280Y-104109986D01*
X131396377Y-104135442D01*
X131409802Y-104141003D01*
X131443363Y-104147679D01*
X131450684Y-104148400D01*
X131507333Y-104148400D01*
X131529758Y-104151821D01*
X131645440Y-104187962D01*
X131655908Y-104189657D01*
X131776130Y-104191861D01*
X131786665Y-104190549D01*
X131902674Y-104158921D01*
X131912694Y-104154585D01*
X131942560Y-104148400D01*
X132726533Y-104148400D01*
X132748958Y-104151821D01*
X132864640Y-104187962D01*
X132875108Y-104189657D01*
X132995330Y-104191861D01*
X133005865Y-104190549D01*
X133121874Y-104158921D01*
X133131894Y-104154585D01*
X133161760Y-104148400D01*
X133894933Y-104148400D01*
X133917358Y-104151821D01*
X134033040Y-104187962D01*
X134043508Y-104189657D01*
X134163730Y-104191861D01*
X134174265Y-104190549D01*
X134290274Y-104158921D01*
X134300294Y-104154585D01*
X134330160Y-104148400D01*
X135114133Y-104148400D01*
X135136558Y-104151821D01*
X135252240Y-104187962D01*
X135262708Y-104189657D01*
X135382930Y-104191861D01*
X135393465Y-104190549D01*
X135509474Y-104158921D01*
X135519494Y-104154585D01*
X135549360Y-104148400D01*
X136282533Y-104148400D01*
X136304958Y-104151821D01*
X136420640Y-104187962D01*
X136431108Y-104189657D01*
X136551330Y-104191861D01*
X136561865Y-104190549D01*
X136677874Y-104158921D01*
X136687894Y-104154585D01*
X136717760Y-104148400D01*
X136773316Y-104148400D01*
X136780637Y-104147679D01*
X136814198Y-104141003D01*
X136827623Y-104135442D01*
X136865720Y-104109986D01*
X136875986Y-104099720D01*
X136901442Y-104061623D01*
X136907003Y-104048198D01*
X136913679Y-104014637D01*
X136914400Y-104007316D01*
X136914400Y-103943374D01*
X136921925Y-103910585D01*
X136937298Y-103878856D01*
X136940524Y-103868747D01*
X136960880Y-103747755D01*
X136961399Y-103741972D01*
X136961465Y-103736510D01*
X136961088Y-103730719D01*
X136943695Y-103609263D01*
X136940718Y-103599083D01*
X136921144Y-103556033D01*
X136914400Y-103524908D01*
X136914400Y-102774974D01*
X136921925Y-102742185D01*
X136937298Y-102710456D01*
X136940524Y-102700347D01*
X136949004Y-102649943D01*
X163151100Y-102649943D01*
X163151101Y-104380056D01*
X163159972Y-104424658D01*
X163193766Y-104475234D01*
X163199923Y-104479348D01*
X163238183Y-104504913D01*
X163238184Y-104504914D01*
X163244342Y-104509028D01*
X163251606Y-104510473D01*
X163276129Y-104515351D01*
X163288943Y-104517900D01*
X164153882Y-104517900D01*
X165019056Y-104517899D01*
X165063658Y-104509028D01*
X165114234Y-104475234D01*
X165148028Y-104424658D01*
X165156900Y-104380057D01*
X165156899Y-102649944D01*
X165148028Y-102605342D01*
X165114234Y-102554766D01*
X165069818Y-102525088D01*
X165069816Y-102525086D01*
X165063658Y-102520972D01*
X165056394Y-102519527D01*
X165022682Y-102512821D01*
X165022681Y-102512821D01*
X165019057Y-102512100D01*
X164154118Y-102512100D01*
X163288944Y-102512101D01*
X163244342Y-102520972D01*
X163193766Y-102554766D01*
X163159972Y-102605342D01*
X163151100Y-102649943D01*
X136949004Y-102649943D01*
X136960880Y-102579355D01*
X136961399Y-102573572D01*
X136961465Y-102568110D01*
X136961088Y-102562319D01*
X136943695Y-102440863D01*
X136940718Y-102430683D01*
X136921144Y-102387633D01*
X136914400Y-102356508D01*
X136914400Y-101606574D01*
X136921925Y-101573785D01*
X136937300Y-101542051D01*
X136940523Y-101531953D01*
X136950442Y-101473000D01*
X136952179Y-101473292D01*
X136954970Y-101456705D01*
X136952351Y-101456014D01*
X136954970Y-101446084D01*
X136960880Y-101410955D01*
X136961399Y-101405172D01*
X136961465Y-101399713D01*
X136961089Y-101393922D01*
X136956280Y-101360342D01*
X136954400Y-101356829D01*
X136954400Y-101397800D01*
X136936807Y-101446138D01*
X136892258Y-101471858D01*
X136879200Y-101473000D01*
X134060200Y-101473000D01*
X134011862Y-101455407D01*
X133986142Y-101410858D01*
X133985000Y-101397800D01*
X133985000Y-101294200D01*
X134002593Y-101245862D01*
X134047142Y-101220142D01*
X134060200Y-101219000D01*
X136904145Y-101219000D01*
X136913778Y-101222506D01*
X136917308Y-101216391D01*
X136914997Y-101198161D01*
X136914400Y-101188704D01*
X136914400Y-100499730D01*
X139148534Y-100499730D01*
X139173509Y-100647393D01*
X139175692Y-100652032D01*
X139199568Y-100702770D01*
X139237273Y-100782898D01*
X139335129Y-100896265D01*
X139339398Y-100899101D01*
X139410915Y-100946617D01*
X139459867Y-100979141D01*
X139464742Y-100980725D01*
X139464744Y-100980726D01*
X139597420Y-101023835D01*
X139597422Y-101023835D01*
X139602296Y-101025419D01*
X139607414Y-101025634D01*
X139607417Y-101025634D01*
X139677109Y-101028554D01*
X139751923Y-101031690D01*
X139756910Y-101030520D01*
X139756913Y-101030520D01*
X139892734Y-100998664D01*
X139892735Y-100998664D01*
X139897726Y-100997493D01*
X139902216Y-100995024D01*
X139902220Y-100995023D01*
X140025508Y-100927244D01*
X140025510Y-100927243D01*
X140028960Y-100925346D01*
X140037022Y-100918387D01*
X141682383Y-99273026D01*
X141729003Y-99251286D01*
X141735557Y-99251000D01*
X149389515Y-99251000D01*
X149392054Y-99250652D01*
X149392057Y-99250652D01*
X149451795Y-99242469D01*
X149500374Y-99235814D01*
X149505080Y-99233778D01*
X149505082Y-99233777D01*
X149633107Y-99178376D01*
X149633108Y-99178375D01*
X149637816Y-99176338D01*
X149641800Y-99173112D01*
X149641803Y-99173110D01*
X149719663Y-99110059D01*
X149754200Y-99082091D01*
X149760974Y-99072560D01*
X149793611Y-99026634D01*
X149840953Y-98960018D01*
X149891682Y-98819113D01*
X149892243Y-98811483D01*
X149901554Y-98684684D01*
X149902650Y-98669756D01*
X149901514Y-98664118D01*
X149874063Y-98527980D01*
X149873049Y-98522951D01*
X149862939Y-98503108D01*
X149807387Y-98394082D01*
X149805060Y-98389515D01*
X149727779Y-98305472D01*
X149707162Y-98283051D01*
X149707160Y-98283049D01*
X149703692Y-98279278D01*
X149699338Y-98276578D01*
X149699335Y-98276576D01*
X149580770Y-98203063D01*
X149576412Y-98200361D01*
X149571491Y-98198931D01*
X149571488Y-98198930D01*
X149436381Y-98159678D01*
X149436377Y-98159677D01*
X149432600Y-98158580D01*
X149421979Y-98157800D01*
X141491849Y-98157800D01*
X141488700Y-98157734D01*
X141426077Y-98155109D01*
X141384585Y-98164841D01*
X141333509Y-98158751D01*
X141314240Y-98144802D01*
X140740082Y-97570644D01*
X157894550Y-97570644D01*
X157895564Y-97575672D01*
X157895564Y-97575675D01*
X157909663Y-97645597D01*
X157924151Y-97717449D01*
X157992140Y-97850885D01*
X157995609Y-97854657D01*
X158090038Y-97957349D01*
X158090040Y-97957351D01*
X158093508Y-97961122D01*
X158097862Y-97963822D01*
X158097865Y-97963824D01*
X158213969Y-98035811D01*
X158220788Y-98040039D01*
X158225709Y-98041469D01*
X158225712Y-98041470D01*
X158360819Y-98080722D01*
X158360823Y-98080723D01*
X158364600Y-98081820D01*
X158375221Y-98082600D01*
X163359515Y-98082600D01*
X163362054Y-98082252D01*
X163362057Y-98082252D01*
X163421795Y-98074069D01*
X163470374Y-98067414D01*
X163475080Y-98065378D01*
X163475082Y-98065377D01*
X163603107Y-98009976D01*
X163603108Y-98009975D01*
X163607816Y-98007938D01*
X163611800Y-98004712D01*
X163611803Y-98004710D01*
X163686058Y-97944578D01*
X163724200Y-97913691D01*
X163810953Y-97791618D01*
X163861682Y-97650713D01*
X163863602Y-97624576D01*
X163871423Y-97518063D01*
X163872650Y-97501356D01*
X163870768Y-97492019D01*
X163844063Y-97359580D01*
X163843049Y-97354551D01*
X163775060Y-97221115D01*
X163717307Y-97158309D01*
X163677162Y-97114651D01*
X163677160Y-97114649D01*
X163673692Y-97110878D01*
X163669338Y-97108178D01*
X163669335Y-97108176D01*
X163550770Y-97034663D01*
X163546412Y-97031961D01*
X163541491Y-97030531D01*
X163541488Y-97030530D01*
X163473623Y-97010814D01*
X163432113Y-96980434D01*
X163419843Y-96930479D01*
X163442554Y-96884324D01*
X163494603Y-96863400D01*
X164117775Y-96863400D01*
X164120413Y-96863022D01*
X164120416Y-96863022D01*
X164212085Y-96849894D01*
X164212087Y-96849893D01*
X164217383Y-96849135D01*
X164222255Y-96846920D01*
X164222258Y-96846919D01*
X164308498Y-96807708D01*
X164340044Y-96793365D01*
X164347825Y-96786661D01*
X164438066Y-96708903D01*
X164442121Y-96705409D01*
X164493287Y-96626469D01*
X164512497Y-96596832D01*
X164512498Y-96596831D01*
X164515409Y-96592339D01*
X164536863Y-96520602D01*
X164552482Y-96468379D01*
X164552482Y-96468376D01*
X164554017Y-96463245D01*
X164554063Y-96455837D01*
X164554533Y-96378803D01*
X164554840Y-96328503D01*
X164517813Y-96198946D01*
X164445911Y-96084989D01*
X164344916Y-95995793D01*
X164340069Y-95993518D01*
X164340067Y-95993516D01*
X164287644Y-95968904D01*
X164222946Y-95938529D01*
X164176635Y-95931318D01*
X164123513Y-95923046D01*
X164123508Y-95923046D01*
X164120646Y-95922600D01*
X161383225Y-95922600D01*
X161380587Y-95922978D01*
X161380584Y-95922978D01*
X161288915Y-95936106D01*
X161288913Y-95936107D01*
X161283617Y-95936865D01*
X161278745Y-95939080D01*
X161278742Y-95939081D01*
X161201498Y-95974202D01*
X161160956Y-95992635D01*
X161156898Y-95996132D01*
X161156896Y-95996133D01*
X161073457Y-96068030D01*
X161058879Y-96080591D01*
X160985591Y-96193661D01*
X160967953Y-96252637D01*
X160948584Y-96317402D01*
X160946983Y-96322755D01*
X160946160Y-96457497D01*
X160983187Y-96587054D01*
X161055089Y-96701011D01*
X161156084Y-96790207D01*
X161160931Y-96792482D01*
X161160933Y-96792484D01*
X161193360Y-96807708D01*
X161266900Y-96842234D01*
X161275196Y-96846129D01*
X161311474Y-96882597D01*
X161315824Y-96933853D01*
X161286209Y-96975913D01*
X161243237Y-96989400D01*
X158407685Y-96989400D01*
X158405146Y-96989748D01*
X158405143Y-96989748D01*
X158369476Y-96994634D01*
X158296826Y-97004586D01*
X158292120Y-97006622D01*
X158292118Y-97006623D01*
X158164093Y-97062024D01*
X158164092Y-97062025D01*
X158159384Y-97064062D01*
X158155400Y-97067288D01*
X158155397Y-97067290D01*
X158096417Y-97115052D01*
X158043000Y-97158309D01*
X158040033Y-97162484D01*
X158040032Y-97162485D01*
X158027122Y-97180651D01*
X157956247Y-97280382D01*
X157954510Y-97285208D01*
X157954509Y-97285209D01*
X157931564Y-97348941D01*
X157905518Y-97421287D01*
X157905142Y-97426401D01*
X157905142Y-97426403D01*
X157901259Y-97479281D01*
X157894550Y-97570644D01*
X140740082Y-97570644D01*
X140478574Y-97309136D01*
X140456834Y-97262516D01*
X140470148Y-97212829D01*
X140475996Y-97205497D01*
X140536956Y-97138150D01*
X140536959Y-97138146D01*
X140540553Y-97134175D01*
X140597717Y-97016187D01*
X140606724Y-96962652D01*
X140618987Y-96889765D01*
X140618987Y-96889761D01*
X140619469Y-96886898D01*
X140619607Y-96875600D01*
X140618041Y-96864661D01*
X140601780Y-96751115D01*
X140601779Y-96751112D01*
X140601021Y-96745818D01*
X140588169Y-96717551D01*
X140548975Y-96631349D01*
X140548974Y-96631348D01*
X140546756Y-96626469D01*
X140539212Y-96617713D01*
X140464670Y-96531203D01*
X140464669Y-96531203D01*
X140461175Y-96527147D01*
X140379453Y-96474177D01*
X140355654Y-96458751D01*
X140355653Y-96458751D01*
X140351158Y-96455837D01*
X140225548Y-96418272D01*
X140220192Y-96418239D01*
X140220190Y-96418239D01*
X140162652Y-96417888D01*
X140094444Y-96417471D01*
X139968385Y-96453499D01*
X139857505Y-96523459D01*
X139770717Y-96621728D01*
X139768441Y-96626575D01*
X139768440Y-96626577D01*
X139725728Y-96717551D01*
X139714998Y-96740405D01*
X139694828Y-96869951D01*
X139695522Y-96875259D01*
X139695522Y-96875261D01*
X139696663Y-96883986D01*
X139711827Y-96999950D01*
X139713986Y-97004856D01*
X139713986Y-97004857D01*
X139762297Y-97114651D01*
X139764630Y-97119954D01*
X139848991Y-97220313D01*
X139852457Y-97222620D01*
X139876531Y-97267519D01*
X139877300Y-97278244D01*
X139877300Y-97333035D01*
X139876950Y-97337797D01*
X139875506Y-97342003D01*
X139875766Y-97348938D01*
X139875766Y-97348941D01*
X139877247Y-97388375D01*
X139877300Y-97391196D01*
X139877300Y-97409631D01*
X139877934Y-97413036D01*
X139878148Y-97415354D01*
X139878413Y-97419443D01*
X139878933Y-97433277D01*
X139879418Y-97446201D01*
X139882158Y-97452579D01*
X139882159Y-97452583D01*
X139884398Y-97457794D01*
X139889232Y-97473706D01*
X139890270Y-97479281D01*
X139890273Y-97479288D01*
X139891543Y-97486108D01*
X139895185Y-97492016D01*
X139895186Y-97492019D01*
X139905216Y-97508291D01*
X139910293Y-97518063D01*
X139920579Y-97542004D01*
X139924319Y-97546557D01*
X139929787Y-97552025D01*
X139940627Y-97565737D01*
X139946257Y-97574871D01*
X139951784Y-97579074D01*
X139951785Y-97579075D01*
X139968817Y-97592026D01*
X139976473Y-97598711D01*
X140840402Y-98462641D01*
X140862142Y-98509261D01*
X140848828Y-98558948D01*
X140840402Y-98568989D01*
X139286968Y-100122423D01*
X139285423Y-100124458D01*
X139285419Y-100124463D01*
X139222417Y-100207465D01*
X139222415Y-100207468D01*
X139219317Y-100211550D01*
X139217430Y-100216317D01*
X139217429Y-100216318D01*
X139199363Y-100261947D01*
X139164187Y-100350792D01*
X139163651Y-100355888D01*
X139163651Y-100355890D01*
X139152914Y-100458056D01*
X139148534Y-100499730D01*
X136914400Y-100499730D01*
X136914400Y-100336574D01*
X136921925Y-100303785D01*
X136937298Y-100272056D01*
X136940524Y-100261947D01*
X136960880Y-100140955D01*
X136961399Y-100135172D01*
X136961465Y-100129710D01*
X136961088Y-100123919D01*
X136943695Y-100002463D01*
X136940718Y-99992283D01*
X136921144Y-99949233D01*
X136914400Y-99918108D01*
X136914400Y-99181368D01*
X136921925Y-99148580D01*
X136949697Y-99091259D01*
X136952924Y-99081147D01*
X136973280Y-98960155D01*
X136973799Y-98954372D01*
X136973865Y-98948910D01*
X136973488Y-98943119D01*
X136956095Y-98821663D01*
X136953118Y-98811483D01*
X136921144Y-98741160D01*
X136914400Y-98710035D01*
X136914400Y-98684684D01*
X136913679Y-98677363D01*
X136907003Y-98643802D01*
X136901442Y-98630377D01*
X136875986Y-98592280D01*
X136865720Y-98582014D01*
X136827623Y-98556558D01*
X136814198Y-98550997D01*
X136780637Y-98544321D01*
X136773316Y-98543600D01*
X136754063Y-98543600D01*
X136713160Y-98531503D01*
X136710239Y-98529610D01*
X136700615Y-98525163D01*
X136585407Y-98490708D01*
X136574916Y-98489140D01*
X136454667Y-98488406D01*
X136444163Y-98489845D01*
X136328540Y-98522890D01*
X136318860Y-98527219D01*
X136311285Y-98531999D01*
X136271158Y-98543600D01*
X135632507Y-98543600D01*
X135591606Y-98531504D01*
X135529442Y-98491212D01*
X135519811Y-98486762D01*
X135404607Y-98452308D01*
X135394116Y-98450740D01*
X135273867Y-98450006D01*
X135263363Y-98451445D01*
X135147740Y-98484490D01*
X135138064Y-98488818D01*
X135069626Y-98531999D01*
X135029498Y-98543600D01*
X134330214Y-98543600D01*
X134305991Y-98538275D01*
X134305745Y-98539097D01*
X134185407Y-98503108D01*
X134174916Y-98501540D01*
X134054667Y-98500806D01*
X134044163Y-98502245D01*
X133928544Y-98535289D01*
X133924620Y-98537044D01*
X133893911Y-98543600D01*
X133161814Y-98543600D01*
X133137591Y-98538275D01*
X133137345Y-98539097D01*
X133017007Y-98503108D01*
X133006516Y-98501540D01*
X132886267Y-98500806D01*
X132875763Y-98502245D01*
X132760144Y-98535289D01*
X132756220Y-98537044D01*
X132725511Y-98543600D01*
X131942614Y-98543600D01*
X131918391Y-98538275D01*
X131918145Y-98539097D01*
X131797807Y-98503108D01*
X131787316Y-98501540D01*
X131667067Y-98500806D01*
X131656563Y-98502245D01*
X131540944Y-98535289D01*
X131537020Y-98537044D01*
X131506311Y-98543600D01*
X131450684Y-98543600D01*
X131443363Y-98544321D01*
X131409802Y-98550997D01*
X131396377Y-98556558D01*
X131358280Y-98582014D01*
X131348014Y-98592280D01*
X131322558Y-98630377D01*
X131316997Y-98643802D01*
X131310321Y-98677363D01*
X131309600Y-98684684D01*
X131309600Y-98749245D01*
X131302471Y-98781204D01*
X131284960Y-98818502D01*
X131281858Y-98828647D01*
X131263357Y-98947468D01*
X131263227Y-98958067D01*
X131278820Y-99077304D01*
X131281671Y-99087515D01*
X131303231Y-99136514D01*
X131309600Y-99166801D01*
X131309600Y-99917645D01*
X131302471Y-99949604D01*
X131284960Y-99986902D01*
X131281858Y-99997047D01*
X131263357Y-100115868D01*
X131263227Y-100126467D01*
X131278820Y-100245704D01*
X131281671Y-100255915D01*
X131303231Y-100304914D01*
X131309600Y-100335201D01*
X131309600Y-101136845D01*
X131302471Y-101168804D01*
X131284960Y-101206102D01*
X131281858Y-101216247D01*
X131263357Y-101335068D01*
X131263227Y-101345667D01*
X131278820Y-101464904D01*
X131281671Y-101475115D01*
X131303231Y-101524114D01*
X131309600Y-101554401D01*
X131309600Y-102305245D01*
X131302471Y-102337204D01*
X131284960Y-102374502D01*
X131281858Y-102384647D01*
X131263357Y-102503468D01*
X131263227Y-102514067D01*
X131278820Y-102633304D01*
X131281671Y-102643515D01*
X131303231Y-102692514D01*
X131309600Y-102722801D01*
X131309600Y-103524445D01*
X131302471Y-103556404D01*
X131284960Y-103593702D01*
X131281858Y-103603847D01*
X131263357Y-103722668D01*
X131263227Y-103733267D01*
X129946900Y-103733267D01*
X129946900Y-102158559D01*
X129947250Y-102153801D01*
X129948693Y-102149597D01*
X129946953Y-102103239D01*
X129946900Y-102100418D01*
X129946900Y-102081969D01*
X129946265Y-102078562D01*
X129946052Y-102076256D01*
X129945786Y-102072158D01*
X129945042Y-102052338D01*
X129944782Y-102045399D01*
X129941856Y-102038588D01*
X129939802Y-102033806D01*
X129934968Y-102017894D01*
X129933930Y-102012319D01*
X129933927Y-102012312D01*
X129932657Y-102005492D01*
X129929015Y-101999584D01*
X129929014Y-101999581D01*
X129918984Y-101983309D01*
X129913907Y-101973537D01*
X129905713Y-101954466D01*
X129903621Y-101949596D01*
X129899881Y-101945043D01*
X129894746Y-101939908D01*
X129873006Y-101893288D01*
X129873762Y-101874261D01*
X129874786Y-101868175D01*
X129874787Y-101868162D01*
X129875269Y-101865298D01*
X129875407Y-101854000D01*
X129873841Y-101843061D01*
X129857580Y-101729515D01*
X129857579Y-101729512D01*
X129856821Y-101724218D01*
X129827872Y-101660549D01*
X129804775Y-101609749D01*
X129804774Y-101609748D01*
X129802556Y-101604869D01*
X129795012Y-101596113D01*
X129720470Y-101509603D01*
X129720469Y-101509603D01*
X129716975Y-101505547D01*
X129685332Y-101485037D01*
X129611454Y-101437151D01*
X129611453Y-101437151D01*
X129606958Y-101434237D01*
X129481348Y-101396672D01*
X129475992Y-101396639D01*
X129475990Y-101396639D01*
X129418452Y-101396288D01*
X129350244Y-101395871D01*
X129224185Y-101431899D01*
X129113305Y-101501859D01*
X129026517Y-101600128D01*
X129024241Y-101604975D01*
X129024240Y-101604977D01*
X129022000Y-101609749D01*
X128970798Y-101718805D01*
X128950628Y-101848351D01*
X128951322Y-101853659D01*
X128951322Y-101853661D01*
X128957965Y-101904461D01*
X128967627Y-101978350D01*
X128969786Y-101983256D01*
X128969786Y-101983257D01*
X129000182Y-102052338D01*
X129020430Y-102098354D01*
X129104791Y-102198713D01*
X129109250Y-102201681D01*
X129109251Y-102201682D01*
X129209468Y-102268393D01*
X129209471Y-102268394D01*
X129213929Y-102271362D01*
X129219041Y-102272959D01*
X129219043Y-102272960D01*
X129334326Y-102308977D01*
X129375217Y-102340184D01*
X129387100Y-102380755D01*
X129387100Y-104118262D01*
X129369507Y-104166600D01*
X129367283Y-104168839D01*
X129367305Y-104168859D01*
X129280517Y-104267128D01*
X129278241Y-104271975D01*
X129278240Y-104271977D01*
X129246107Y-104340418D01*
X129224798Y-104385805D01*
X129204628Y-104515351D01*
X129205322Y-104520659D01*
X129205322Y-104520661D01*
X129209805Y-104554945D01*
X129221627Y-104645350D01*
X129223786Y-104650256D01*
X129223786Y-104650257D01*
X129241942Y-104691519D01*
X129245307Y-104742849D01*
X129214890Y-104784332D01*
X129164924Y-104796559D01*
X129119937Y-104774980D01*
X123348508Y-99003551D01*
X125470828Y-99003551D01*
X125471522Y-99008859D01*
X125471522Y-99008861D01*
X125479643Y-99070962D01*
X125487827Y-99133550D01*
X125540630Y-99253554D01*
X125624991Y-99353913D01*
X125629450Y-99356881D01*
X125629451Y-99356882D01*
X125638143Y-99362668D01*
X125643842Y-99366461D01*
X125657870Y-99375799D01*
X125688359Y-99417229D01*
X125691400Y-99438398D01*
X125691400Y-99813690D01*
X125691297Y-99817626D01*
X125689041Y-99860671D01*
X125693596Y-99872537D01*
X125698518Y-99885360D01*
X125701869Y-99896673D01*
X125705725Y-99914810D01*
X125705726Y-99914813D01*
X125707370Y-99922546D01*
X125712017Y-99928942D01*
X125712018Y-99928944D01*
X125713049Y-99930363D01*
X125722415Y-99947613D01*
X125723037Y-99949233D01*
X125725879Y-99956636D01*
X125744581Y-99975338D01*
X125752245Y-99984311D01*
X125767790Y-100005707D01*
X125776163Y-100010541D01*
X125791733Y-100022490D01*
X127542083Y-101772840D01*
X127563823Y-101819460D01*
X127563214Y-101837580D01*
X127553628Y-101899151D01*
X127554322Y-101904459D01*
X127554322Y-101904461D01*
X127556219Y-101918965D01*
X127570627Y-102029150D01*
X127572786Y-102034056D01*
X127572786Y-102034057D01*
X127603227Y-102103239D01*
X127623430Y-102149154D01*
X127707791Y-102249513D01*
X127712250Y-102252481D01*
X127712251Y-102252482D01*
X127812468Y-102319193D01*
X127812471Y-102319194D01*
X127816929Y-102322162D01*
X127942070Y-102361259D01*
X128009708Y-102362498D01*
X128067792Y-102363563D01*
X128067794Y-102363563D01*
X128073154Y-102363661D01*
X128078325Y-102362251D01*
X128078327Y-102362251D01*
X128159267Y-102340184D01*
X128199644Y-102329176D01*
X128311371Y-102260576D01*
X128314963Y-102256608D01*
X128314965Y-102256606D01*
X128364679Y-102201682D01*
X128399353Y-102163375D01*
X128456517Y-102045387D01*
X128472633Y-101949596D01*
X128477787Y-101918965D01*
X128477787Y-101918961D01*
X128478269Y-101916098D01*
X128478407Y-101904800D01*
X128476841Y-101893861D01*
X128460580Y-101780315D01*
X128460579Y-101780312D01*
X128459821Y-101775018D01*
X128436669Y-101724098D01*
X128407775Y-101660549D01*
X128407774Y-101660548D01*
X128405556Y-101655669D01*
X128354240Y-101596113D01*
X128323470Y-101560403D01*
X128323469Y-101560403D01*
X128319975Y-101556347D01*
X128270246Y-101524114D01*
X128214454Y-101487951D01*
X128214453Y-101487951D01*
X128209958Y-101485037D01*
X128084348Y-101447472D01*
X128078992Y-101447439D01*
X128078990Y-101447439D01*
X128022080Y-101447092D01*
X127953244Y-101446671D01*
X127948097Y-101448142D01*
X127943921Y-101448714D01*
X127893643Y-101437844D01*
X127880541Y-101427384D01*
X126197026Y-99743869D01*
X126175286Y-99697249D01*
X126175000Y-99690695D01*
X126175000Y-99439940D01*
X126192593Y-99391602D01*
X126210852Y-99375856D01*
X126224004Y-99367780D01*
X126228571Y-99364976D01*
X126232163Y-99361008D01*
X126232165Y-99361006D01*
X126272562Y-99316375D01*
X126316553Y-99267775D01*
X126373717Y-99149787D01*
X126384564Y-99085316D01*
X126394987Y-99023365D01*
X126394987Y-99023361D01*
X126395469Y-99020498D01*
X126395607Y-99009200D01*
X126394474Y-99001282D01*
X126377780Y-98884715D01*
X126377779Y-98884712D01*
X126377021Y-98879418D01*
X126330886Y-98777950D01*
X126324975Y-98764949D01*
X126324974Y-98764948D01*
X126322756Y-98760069D01*
X126315212Y-98751313D01*
X126240670Y-98664803D01*
X126240669Y-98664803D01*
X126237175Y-98660747D01*
X126127158Y-98589437D01*
X126001548Y-98551872D01*
X125996192Y-98551839D01*
X125996190Y-98551839D01*
X125938652Y-98551488D01*
X125870444Y-98551071D01*
X125744385Y-98587099D01*
X125633505Y-98657059D01*
X125546717Y-98755328D01*
X125544441Y-98760175D01*
X125544440Y-98760177D01*
X125493275Y-98869155D01*
X125490998Y-98874005D01*
X125470828Y-99003551D01*
X123348508Y-99003551D01*
X122477858Y-98132901D01*
X122475148Y-98130046D01*
X122453964Y-98106519D01*
X122434694Y-98058825D01*
X122450589Y-98009903D01*
X122494213Y-97982643D01*
X122509848Y-97981000D01*
X123857386Y-97981000D01*
X123885069Y-97986281D01*
X123972792Y-98021013D01*
X123977888Y-98021549D01*
X123977890Y-98021549D01*
X124116630Y-98036130D01*
X124121730Y-98036666D01*
X124269393Y-98011691D01*
X124334615Y-97981000D01*
X124400262Y-97950109D01*
X124400265Y-97950107D01*
X124404898Y-97947927D01*
X124518265Y-97850071D01*
X124601141Y-97725333D01*
X124611590Y-97693176D01*
X124645835Y-97587780D01*
X124645835Y-97587778D01*
X124647419Y-97582904D01*
X124648004Y-97568961D01*
X124651762Y-97479281D01*
X124653690Y-97433277D01*
X124650446Y-97419443D01*
X124620664Y-97292466D01*
X124620664Y-97292465D01*
X124619493Y-97287474D01*
X124617024Y-97282984D01*
X124617023Y-97282980D01*
X124549244Y-97159692D01*
X124549243Y-97159690D01*
X124547346Y-97156240D01*
X124540387Y-97148178D01*
X124485583Y-97093374D01*
X124463843Y-97046754D01*
X124477157Y-96997067D01*
X124519294Y-96967562D01*
X124538757Y-96965000D01*
X128922129Y-96965000D01*
X128970467Y-96982593D01*
X128996187Y-97027142D01*
X128987254Y-97077800D01*
X128974173Y-97092328D01*
X128974776Y-97092871D01*
X128969488Y-97098744D01*
X128963093Y-97103390D01*
X128959142Y-97110234D01*
X128958261Y-97111760D01*
X128946310Y-97127333D01*
X127897391Y-98176252D01*
X127850771Y-98197992D01*
X127834427Y-98197492D01*
X127830348Y-98196272D01*
X127824995Y-98196239D01*
X127824993Y-98196239D01*
X127765439Y-98195875D01*
X127699244Y-98195471D01*
X127573185Y-98231499D01*
X127462305Y-98301459D01*
X127375517Y-98399728D01*
X127373241Y-98404575D01*
X127373240Y-98404577D01*
X127332565Y-98491212D01*
X127319798Y-98518405D01*
X127299628Y-98647951D01*
X127300322Y-98653259D01*
X127300322Y-98653261D01*
X127307429Y-98707609D01*
X127316627Y-98777950D01*
X127369430Y-98897954D01*
X127453791Y-98998313D01*
X127458250Y-99001281D01*
X127458251Y-99001282D01*
X127558468Y-99067993D01*
X127558471Y-99067994D01*
X127562929Y-99070962D01*
X127688070Y-99110059D01*
X127736023Y-99110938D01*
X127794794Y-99112015D01*
X127846590Y-99134028D01*
X128332962Y-99620401D01*
X128354701Y-99667019D01*
X128341387Y-99716706D01*
X128318702Y-99734916D01*
X128319942Y-99736772D01*
X128269366Y-99770566D01*
X128235572Y-99821142D01*
X128226700Y-99865743D01*
X128226701Y-100895856D01*
X128235572Y-100940458D01*
X128269366Y-100991034D01*
X128275523Y-100995148D01*
X128313783Y-101020713D01*
X128313784Y-101020714D01*
X128319942Y-101024828D01*
X128327206Y-101026273D01*
X128353358Y-101031475D01*
X128364543Y-101033700D01*
X128879530Y-101033700D01*
X129394656Y-101033699D01*
X129439258Y-101024828D01*
X129489834Y-100991034D01*
X129523628Y-100940458D01*
X129532500Y-100895857D01*
X129532499Y-99865744D01*
X129523628Y-99821142D01*
X129489834Y-99770566D01*
X129472478Y-99758969D01*
X129445417Y-99740887D01*
X129445416Y-99740886D01*
X129439258Y-99736772D01*
X129394657Y-99727900D01*
X129218329Y-99727900D01*
X129169991Y-99710307D01*
X129148172Y-99679776D01*
X129146528Y-99675516D01*
X129145257Y-99668692D01*
X129141612Y-99662778D01*
X129131584Y-99646509D01*
X129126507Y-99636737D01*
X129124441Y-99631929D01*
X129116221Y-99612796D01*
X129112481Y-99608243D01*
X129107013Y-99602775D01*
X129096171Y-99589060D01*
X129090543Y-99579929D01*
X129085016Y-99575726D01*
X129085015Y-99575725D01*
X129067983Y-99562774D01*
X129060327Y-99556089D01*
X128243746Y-98739508D01*
X128222006Y-98692888D01*
X128222762Y-98673860D01*
X128223786Y-98667773D01*
X128223787Y-98667764D01*
X128224269Y-98664898D01*
X128224407Y-98653600D01*
X128214650Y-98585473D01*
X128225214Y-98535131D01*
X128235917Y-98521640D01*
X129224931Y-97532626D01*
X129271551Y-97510886D01*
X129278105Y-97510600D01*
X129465857Y-97510600D01*
X129514195Y-97528193D01*
X129523421Y-97537412D01*
X129547054Y-97565527D01*
X129587391Y-97613513D01*
X129591850Y-97616481D01*
X129591851Y-97616482D01*
X129692068Y-97683193D01*
X129692071Y-97683194D01*
X129696529Y-97686162D01*
X129821670Y-97725259D01*
X129889308Y-97726498D01*
X129947392Y-97727563D01*
X129947394Y-97727563D01*
X129952754Y-97727661D01*
X129957925Y-97726251D01*
X129957927Y-97726251D01*
X130025700Y-97707774D01*
X130079244Y-97693176D01*
X130148403Y-97650713D01*
X130186406Y-97627379D01*
X130190971Y-97624576D01*
X130194563Y-97620608D01*
X130194565Y-97620606D01*
X130244227Y-97565740D01*
X130278953Y-97527375D01*
X130336117Y-97409387D01*
X130345343Y-97354551D01*
X130357387Y-97282965D01*
X130357387Y-97282961D01*
X130357869Y-97280098D01*
X130358007Y-97268800D01*
X130357108Y-97262516D01*
X130340180Y-97144315D01*
X130340179Y-97144312D01*
X130339421Y-97139018D01*
X130337206Y-97134146D01*
X130337205Y-97134143D01*
X130308643Y-97071325D01*
X130304652Y-97020040D01*
X130334559Y-96978188D01*
X130377099Y-96965000D01*
X133623359Y-96965000D01*
X133671697Y-96982593D01*
X133680923Y-96991812D01*
X133702191Y-97017113D01*
X133706650Y-97020081D01*
X133706651Y-97020082D01*
X133806868Y-97086793D01*
X133806871Y-97086794D01*
X133811329Y-97089762D01*
X133936470Y-97128859D01*
X134004108Y-97130098D01*
X134062192Y-97131163D01*
X134062194Y-97131163D01*
X134067554Y-97131261D01*
X134072725Y-97129851D01*
X134072727Y-97129851D01*
X134169784Y-97103390D01*
X134194044Y-97096776D01*
X134201289Y-97092328D01*
X134301206Y-97030979D01*
X134305771Y-97028176D01*
X134309363Y-97024208D01*
X134309365Y-97024206D01*
X134365080Y-96962652D01*
X134393753Y-96930975D01*
X134450917Y-96812987D01*
X134463038Y-96740944D01*
X134472187Y-96686565D01*
X134472187Y-96686561D01*
X134472669Y-96683698D01*
X134472807Y-96672400D01*
X134466929Y-96631349D01*
X134454980Y-96547915D01*
X134454979Y-96547912D01*
X134454221Y-96542618D01*
X134449031Y-96531203D01*
X134402175Y-96428149D01*
X134402174Y-96428148D01*
X134399956Y-96423269D01*
X134396229Y-96418943D01*
X134317870Y-96328003D01*
X134317869Y-96328003D01*
X134314375Y-96323947D01*
X134282732Y-96303437D01*
X134208854Y-96255551D01*
X134208853Y-96255551D01*
X134204358Y-96252637D01*
X134078748Y-96215072D01*
X134073392Y-96215039D01*
X134073390Y-96215039D01*
X134015852Y-96214688D01*
X133947644Y-96214271D01*
X133821585Y-96250299D01*
X133710705Y-96320259D01*
X133623917Y-96418528D01*
X133619400Y-96428149D01*
X133614700Y-96438160D01*
X133578231Y-96474438D01*
X133546629Y-96481400D01*
X117575141Y-96481400D01*
X117526803Y-96463807D01*
X117518172Y-96455287D01*
X117517323Y-96454301D01*
X117448775Y-96374747D01*
X117376827Y-96328112D01*
X117343254Y-96306351D01*
X117343253Y-96306351D01*
X117338758Y-96303437D01*
X117213148Y-96265872D01*
X117207792Y-96265839D01*
X117207790Y-96265839D01*
X117150252Y-96265488D01*
X117082044Y-96265071D01*
X116955985Y-96301099D01*
X116845105Y-96371059D01*
X116758317Y-96469328D01*
X116756041Y-96474175D01*
X116756040Y-96474177D01*
X116723907Y-96542618D01*
X116702598Y-96588005D01*
X116682428Y-96717551D01*
X116683122Y-96722859D01*
X116683122Y-96722861D01*
X116686124Y-96745818D01*
X116699427Y-96847550D01*
X116701586Y-96852456D01*
X116701586Y-96852457D01*
X116718002Y-96889765D01*
X116752230Y-96967554D01*
X116836591Y-97067913D01*
X116841050Y-97070881D01*
X116841051Y-97070882D01*
X116941268Y-97137593D01*
X116941271Y-97137594D01*
X116945729Y-97140562D01*
X117070870Y-97179659D01*
X117138508Y-97180898D01*
X117196592Y-97181963D01*
X117196594Y-97181963D01*
X117201954Y-97182061D01*
X117207125Y-97180651D01*
X117207127Y-97180651D01*
X117284003Y-97159692D01*
X117328444Y-97147576D01*
X117355176Y-97131163D01*
X117435606Y-97081779D01*
X117440171Y-97078976D01*
X117443763Y-97075008D01*
X117443765Y-97075006D01*
X117520948Y-96989735D01*
X117566430Y-96965705D01*
X117576701Y-96965000D01*
X119154576Y-96965000D01*
X119202914Y-96982593D01*
X119228634Y-97027142D01*
X119219701Y-97077800D01*
X119207750Y-97093374D01*
X116564901Y-99736223D01*
X116562628Y-99738404D01*
X116520251Y-99777371D01*
X116520249Y-99777373D01*
X116516478Y-99780841D01*
X116513778Y-99785195D01*
X116513776Y-99785198D01*
X116492472Y-99819559D01*
X116488462Y-99825394D01*
X116460917Y-99861683D01*
X116459031Y-99866447D01*
X116459029Y-99866450D01*
X116453780Y-99879708D01*
X116447777Y-99891643D01*
X116437561Y-99908121D01*
X116436131Y-99913043D01*
X116424852Y-99951866D01*
X116422557Y-99958569D01*
X116409209Y-99992283D01*
X116405787Y-100000925D01*
X116404777Y-100010539D01*
X116403762Y-100020197D01*
X116401189Y-100033316D01*
X116395780Y-100051933D01*
X116395000Y-100062554D01*
X116395000Y-100099623D01*
X116394588Y-100107483D01*
X116390134Y-100149863D01*
X116388394Y-100149680D01*
X116374540Y-100191803D01*
X116330819Y-100218905D01*
X116279906Y-100211562D01*
X116262275Y-100198466D01*
X116138626Y-100074817D01*
X116116886Y-100028197D01*
X116116600Y-100021643D01*
X116116600Y-95566099D01*
X116134193Y-95517761D01*
X116178742Y-95492041D01*
X116191800Y-95490899D01*
X116435056Y-95490899D01*
X116479658Y-95482028D01*
X116530234Y-95448234D01*
X116554801Y-95411467D01*
X116559913Y-95403817D01*
X116559914Y-95403816D01*
X116564028Y-95397658D01*
X116572900Y-95353057D01*
X116572899Y-94473930D01*
X117102345Y-94473930D01*
X117102653Y-94477598D01*
X117102653Y-94477601D01*
X117114953Y-94624069D01*
X117118803Y-94669919D01*
X117173015Y-94858979D01*
X117262916Y-95033908D01*
X117385083Y-95188044D01*
X117387877Y-95190422D01*
X117387878Y-95190423D01*
X117422263Y-95219687D01*
X117534862Y-95315516D01*
X117538063Y-95317305D01*
X117538066Y-95317307D01*
X117576656Y-95338874D01*
X117706547Y-95411467D01*
X117710044Y-95412603D01*
X117710048Y-95412605D01*
X117800755Y-95442077D01*
X117893600Y-95472244D01*
X118000984Y-95485049D01*
X118085237Y-95495096D01*
X118085239Y-95495096D01*
X118088895Y-95495532D01*
X118284994Y-95480443D01*
X118400354Y-95448234D01*
X118470883Y-95428542D01*
X118470885Y-95428541D01*
X118474428Y-95427552D01*
X118614727Y-95356682D01*
X118646697Y-95340533D01*
X118646698Y-95340532D01*
X118649981Y-95338874D01*
X118804966Y-95217786D01*
X118933480Y-95068901D01*
X118945935Y-95046976D01*
X119028810Y-94901091D01*
X119028812Y-94901088D01*
X119030628Y-94897890D01*
X119092710Y-94711266D01*
X119117360Y-94516138D01*
X119117573Y-94500877D01*
X119117724Y-94490099D01*
X119117724Y-94490093D01*
X119117753Y-94488000D01*
X119116977Y-94480082D01*
X119116374Y-94473930D01*
X119642345Y-94473930D01*
X119642653Y-94477598D01*
X119642653Y-94477601D01*
X119654953Y-94624069D01*
X119658803Y-94669919D01*
X119713015Y-94858979D01*
X119802916Y-95033908D01*
X119925083Y-95188044D01*
X119927877Y-95190422D01*
X119927878Y-95190423D01*
X119962263Y-95219687D01*
X120074862Y-95315516D01*
X120078063Y-95317305D01*
X120078066Y-95317307D01*
X120116656Y-95338874D01*
X120246547Y-95411467D01*
X120250044Y-95412603D01*
X120250048Y-95412605D01*
X120340755Y-95442077D01*
X120433600Y-95472244D01*
X120540984Y-95485049D01*
X120625237Y-95495096D01*
X120625239Y-95495096D01*
X120628895Y-95495532D01*
X120824994Y-95480443D01*
X120940354Y-95448234D01*
X121010883Y-95428542D01*
X121010885Y-95428541D01*
X121014428Y-95427552D01*
X121154727Y-95356682D01*
X121186697Y-95340533D01*
X121186698Y-95340532D01*
X121189981Y-95338874D01*
X121344966Y-95217786D01*
X121473480Y-95068901D01*
X121485935Y-95046976D01*
X121568810Y-94901091D01*
X121568812Y-94901088D01*
X121570628Y-94897890D01*
X121632710Y-94711266D01*
X121657360Y-94516138D01*
X121657573Y-94500877D01*
X121657724Y-94490099D01*
X121657724Y-94490093D01*
X121657753Y-94488000D01*
X121656977Y-94480082D01*
X121656374Y-94473930D01*
X122182345Y-94473930D01*
X122182653Y-94477598D01*
X122182653Y-94477601D01*
X122194953Y-94624069D01*
X122198803Y-94669919D01*
X122253015Y-94858979D01*
X122342916Y-95033908D01*
X122465083Y-95188044D01*
X122467877Y-95190422D01*
X122467878Y-95190423D01*
X122502263Y-95219687D01*
X122614862Y-95315516D01*
X122618063Y-95317305D01*
X122618066Y-95317307D01*
X122656656Y-95338874D01*
X122786547Y-95411467D01*
X122790044Y-95412603D01*
X122790048Y-95412605D01*
X122880755Y-95442077D01*
X122973600Y-95472244D01*
X123080984Y-95485049D01*
X123165237Y-95495096D01*
X123165239Y-95495096D01*
X123168895Y-95495532D01*
X123364994Y-95480443D01*
X123480354Y-95448234D01*
X123550883Y-95428542D01*
X123550885Y-95428541D01*
X123554428Y-95427552D01*
X123694727Y-95356682D01*
X123726697Y-95340533D01*
X123726698Y-95340532D01*
X123729981Y-95338874D01*
X123884966Y-95217786D01*
X124013480Y-95068901D01*
X124025935Y-95046976D01*
X124108810Y-94901091D01*
X124108812Y-94901088D01*
X124110628Y-94897890D01*
X124172710Y-94711266D01*
X124197360Y-94516138D01*
X124197573Y-94500877D01*
X124197724Y-94490099D01*
X124197724Y-94490093D01*
X124197753Y-94488000D01*
X124196977Y-94480082D01*
X124196374Y-94473930D01*
X124722345Y-94473930D01*
X124722653Y-94477598D01*
X124722653Y-94477601D01*
X124734953Y-94624069D01*
X124738803Y-94669919D01*
X124793015Y-94858979D01*
X124882916Y-95033908D01*
X125005083Y-95188044D01*
X125007877Y-95190422D01*
X125007878Y-95190423D01*
X125042263Y-95219687D01*
X125154862Y-95315516D01*
X125158063Y-95317305D01*
X125158066Y-95317307D01*
X125196656Y-95338874D01*
X125326547Y-95411467D01*
X125330044Y-95412603D01*
X125330048Y-95412605D01*
X125420755Y-95442077D01*
X125513600Y-95472244D01*
X125620984Y-95485049D01*
X125705237Y-95495096D01*
X125705239Y-95495096D01*
X125708895Y-95495532D01*
X125904994Y-95480443D01*
X126020354Y-95448234D01*
X126090883Y-95428542D01*
X126090885Y-95428541D01*
X126094428Y-95427552D01*
X126234727Y-95356682D01*
X126266697Y-95340533D01*
X126266698Y-95340532D01*
X126269981Y-95338874D01*
X126424966Y-95217786D01*
X126553480Y-95068901D01*
X126565935Y-95046976D01*
X126648810Y-94901091D01*
X126648812Y-94901088D01*
X126650628Y-94897890D01*
X126712710Y-94711266D01*
X126723871Y-94622918D01*
X127275359Y-94622918D01*
X127278990Y-94666161D01*
X127280312Y-94673363D01*
X127332470Y-94855261D01*
X127335164Y-94862063D01*
X127421657Y-95030363D01*
X127425623Y-95036518D01*
X127543164Y-95184817D01*
X127548240Y-95190074D01*
X127692355Y-95312725D01*
X127698353Y-95316894D01*
X127863537Y-95409211D01*
X127870250Y-95412144D01*
X128050210Y-95470616D01*
X128057358Y-95472188D01*
X128129833Y-95480830D01*
X128140357Y-95478361D01*
X128143000Y-95474829D01*
X128143000Y-95470375D01*
X128397000Y-95470375D01*
X128400697Y-95480532D01*
X128405003Y-95483018D01*
X128441239Y-95480230D01*
X128448447Y-95478959D01*
X128630701Y-95428073D01*
X128637534Y-95425422D01*
X128806428Y-95340108D01*
X128812611Y-95336184D01*
X128961720Y-95219687D01*
X128967023Y-95214637D01*
X129090664Y-95071397D01*
X129094886Y-95065412D01*
X129188354Y-94900880D01*
X129191328Y-94894200D01*
X129251059Y-94714641D01*
X129252680Y-94707507D01*
X129262704Y-94628154D01*
X129260310Y-94617615D01*
X129256865Y-94615000D01*
X128410259Y-94615000D01*
X128400102Y-94618697D01*
X128397000Y-94624069D01*
X128397000Y-95470375D01*
X128143000Y-95470375D01*
X128143000Y-94628259D01*
X128139303Y-94618102D01*
X128133931Y-94615000D01*
X127287953Y-94615000D01*
X127277796Y-94618697D01*
X127275359Y-94622918D01*
X126723871Y-94622918D01*
X126737360Y-94516138D01*
X126737573Y-94500877D01*
X126737724Y-94490099D01*
X126737724Y-94490093D01*
X126737753Y-94488000D01*
X126736977Y-94480082D01*
X126724009Y-94347821D01*
X127276994Y-94347821D01*
X127279537Y-94358330D01*
X127283158Y-94361000D01*
X128129741Y-94361000D01*
X128139898Y-94357303D01*
X128143000Y-94351931D01*
X128143000Y-94347741D01*
X128397000Y-94347741D01*
X128400697Y-94357898D01*
X128406069Y-94361000D01*
X129251539Y-94361000D01*
X129261696Y-94357303D01*
X129264038Y-94353247D01*
X129258426Y-94296015D01*
X129257004Y-94288836D01*
X129208067Y-94126751D01*
X140710828Y-94126751D01*
X140727827Y-94256750D01*
X140729986Y-94261656D01*
X140729986Y-94261657D01*
X140767451Y-94346803D01*
X140780630Y-94376754D01*
X140864991Y-94477113D01*
X140869450Y-94480081D01*
X140869451Y-94480082D01*
X140969668Y-94546793D01*
X140969671Y-94546794D01*
X140974129Y-94549762D01*
X141099270Y-94588859D01*
X141166908Y-94590098D01*
X141224992Y-94591163D01*
X141224994Y-94591163D01*
X141230354Y-94591261D01*
X141235525Y-94589851D01*
X141235527Y-94589851D01*
X141339817Y-94561418D01*
X141356844Y-94556776D01*
X141468571Y-94488176D01*
X141472163Y-94484208D01*
X141472165Y-94484206D01*
X141549348Y-94398935D01*
X141594830Y-94374905D01*
X141605101Y-94374200D01*
X161666695Y-94374200D01*
X161715033Y-94391793D01*
X161719869Y-94396226D01*
X161882883Y-94559240D01*
X161904623Y-94605860D01*
X161904014Y-94623980D01*
X161894428Y-94685551D01*
X161895122Y-94690859D01*
X161895122Y-94690861D01*
X161898232Y-94714641D01*
X161911427Y-94815550D01*
X161964230Y-94935554D01*
X162048591Y-95035913D01*
X162053050Y-95038881D01*
X162053051Y-95038882D01*
X162153268Y-95105593D01*
X162153271Y-95105594D01*
X162157729Y-95108562D01*
X162282870Y-95147659D01*
X162350508Y-95148898D01*
X162408592Y-95149963D01*
X162408594Y-95149963D01*
X162413954Y-95150061D01*
X162419125Y-95148651D01*
X162419127Y-95148651D01*
X162486900Y-95130174D01*
X162540444Y-95115576D01*
X162616463Y-95068901D01*
X162647606Y-95049779D01*
X162652171Y-95046976D01*
X162655763Y-95043008D01*
X162655765Y-95043006D01*
X162696162Y-94998376D01*
X162740153Y-94949775D01*
X162797317Y-94831787D01*
X162818208Y-94707615D01*
X162818587Y-94705365D01*
X162818587Y-94705361D01*
X162819069Y-94702498D01*
X162819207Y-94691200D01*
X162817641Y-94680261D01*
X162801380Y-94566715D01*
X162801379Y-94566712D01*
X162800621Y-94561418D01*
X162798405Y-94556544D01*
X162748575Y-94446949D01*
X162748574Y-94446948D01*
X162746356Y-94442069D01*
X162685854Y-94371852D01*
X162664270Y-94346803D01*
X162664269Y-94346803D01*
X162660775Y-94342747D01*
X162577439Y-94288731D01*
X162555254Y-94274351D01*
X162555253Y-94274351D01*
X162550758Y-94271437D01*
X162425148Y-94233872D01*
X162419792Y-94233839D01*
X162419790Y-94233839D01*
X162362880Y-94233492D01*
X162294044Y-94233071D01*
X162288897Y-94234542D01*
X162284721Y-94235114D01*
X162234443Y-94224244D01*
X162221341Y-94213784D01*
X161974858Y-93967301D01*
X161972147Y-93964445D01*
X161948592Y-93938284D01*
X161948591Y-93938284D01*
X161943302Y-93932409D01*
X161919644Y-93921876D01*
X161919139Y-93921651D01*
X161908769Y-93916020D01*
X161893222Y-93905924D01*
X161893220Y-93905923D01*
X161886589Y-93901617D01*
X161878781Y-93900380D01*
X161878780Y-93900380D01*
X161877048Y-93900106D01*
X161858224Y-93894530D01*
X161856618Y-93893815D01*
X161856616Y-93893815D01*
X161849396Y-93890600D01*
X161822946Y-93890600D01*
X161811182Y-93889674D01*
X161792869Y-93886773D01*
X161792867Y-93886773D01*
X161785062Y-93885537D01*
X161777430Y-93887582D01*
X161777429Y-93887582D01*
X161775728Y-93888038D01*
X161756265Y-93890600D01*
X141603541Y-93890600D01*
X141555203Y-93873007D01*
X141546572Y-93864487D01*
X141480670Y-93788003D01*
X141480669Y-93788003D01*
X141477175Y-93783947D01*
X141456895Y-93770802D01*
X141371654Y-93715551D01*
X141371653Y-93715551D01*
X141367158Y-93712637D01*
X141241548Y-93675072D01*
X141236192Y-93675039D01*
X141236190Y-93675039D01*
X141178652Y-93674688D01*
X141110444Y-93674271D01*
X140984385Y-93710299D01*
X140873505Y-93780259D01*
X140786717Y-93878528D01*
X140784441Y-93883375D01*
X140784440Y-93883377D01*
X140761420Y-93932409D01*
X140730998Y-93997205D01*
X140710828Y-94126751D01*
X129208067Y-94126751D01*
X129202312Y-94107688D01*
X129199524Y-94100922D01*
X129110684Y-93933839D01*
X129106639Y-93927751D01*
X128987041Y-93781109D01*
X128981878Y-93775910D01*
X128836078Y-93655294D01*
X128830016Y-93651205D01*
X128663557Y-93561201D01*
X128656813Y-93558366D01*
X128476047Y-93502410D01*
X128468880Y-93500939D01*
X128410186Y-93494770D01*
X128399700Y-93497384D01*
X128397000Y-93501100D01*
X128397000Y-94347741D01*
X128143000Y-94347741D01*
X128143000Y-93506231D01*
X128139303Y-93496074D01*
X128135166Y-93493685D01*
X128084927Y-93498257D01*
X128077728Y-93499631D01*
X127896208Y-93553055D01*
X127889421Y-93555797D01*
X127721721Y-93643468D01*
X127715603Y-93647472D01*
X127568128Y-93766044D01*
X127562903Y-93771161D01*
X127441266Y-93916122D01*
X127437132Y-93922160D01*
X127345975Y-94087975D01*
X127343088Y-94094711D01*
X127285874Y-94275074D01*
X127284351Y-94282239D01*
X127276994Y-94347821D01*
X126724009Y-94347821D01*
X126718921Y-94295927D01*
X126718920Y-94295922D01*
X126718561Y-94292260D01*
X126661714Y-94103975D01*
X126569379Y-93930318D01*
X126445072Y-93777903D01*
X126293528Y-93652535D01*
X126120520Y-93558990D01*
X125932637Y-93500830D01*
X125789832Y-93485821D01*
X125740690Y-93480656D01*
X125740689Y-93480656D01*
X125737035Y-93480272D01*
X125639101Y-93489184D01*
X125544824Y-93497764D01*
X125544823Y-93497764D01*
X125541166Y-93498097D01*
X125537641Y-93499134D01*
X125537638Y-93499135D01*
X125419440Y-93533923D01*
X125352489Y-93553628D01*
X125178192Y-93644748D01*
X125024912Y-93767988D01*
X124898489Y-93918653D01*
X124896718Y-93921875D01*
X124896717Y-93921876D01*
X124890293Y-93933561D01*
X124803739Y-94091004D01*
X124744269Y-94278476D01*
X124722345Y-94473930D01*
X124196374Y-94473930D01*
X124178921Y-94295927D01*
X124178920Y-94295922D01*
X124178561Y-94292260D01*
X124121714Y-94103975D01*
X124029379Y-93930318D01*
X123905072Y-93777903D01*
X123753528Y-93652535D01*
X123580520Y-93558990D01*
X123392637Y-93500830D01*
X123249832Y-93485821D01*
X123200690Y-93480656D01*
X123200689Y-93480656D01*
X123197035Y-93480272D01*
X123099101Y-93489184D01*
X123004824Y-93497764D01*
X123004823Y-93497764D01*
X123001166Y-93498097D01*
X122997641Y-93499134D01*
X122997638Y-93499135D01*
X122879440Y-93533923D01*
X122812489Y-93553628D01*
X122638192Y-93644748D01*
X122484912Y-93767988D01*
X122358489Y-93918653D01*
X122356718Y-93921875D01*
X122356717Y-93921876D01*
X122350293Y-93933561D01*
X122263739Y-94091004D01*
X122204269Y-94278476D01*
X122182345Y-94473930D01*
X121656374Y-94473930D01*
X121638921Y-94295927D01*
X121638920Y-94295922D01*
X121638561Y-94292260D01*
X121581714Y-94103975D01*
X121489379Y-93930318D01*
X121365072Y-93777903D01*
X121213528Y-93652535D01*
X121040520Y-93558990D01*
X120852637Y-93500830D01*
X120709832Y-93485821D01*
X120660690Y-93480656D01*
X120660689Y-93480656D01*
X120657035Y-93480272D01*
X120559101Y-93489184D01*
X120464824Y-93497764D01*
X120464823Y-93497764D01*
X120461166Y-93498097D01*
X120457641Y-93499134D01*
X120457638Y-93499135D01*
X120339440Y-93533923D01*
X120272489Y-93553628D01*
X120098192Y-93644748D01*
X119944912Y-93767988D01*
X119818489Y-93918653D01*
X119816718Y-93921875D01*
X119816717Y-93921876D01*
X119810293Y-93933561D01*
X119723739Y-94091004D01*
X119664269Y-94278476D01*
X119642345Y-94473930D01*
X119116374Y-94473930D01*
X119098921Y-94295927D01*
X119098920Y-94295922D01*
X119098561Y-94292260D01*
X119041714Y-94103975D01*
X118949379Y-93930318D01*
X118825072Y-93777903D01*
X118673528Y-93652535D01*
X118500520Y-93558990D01*
X118312637Y-93500830D01*
X118169832Y-93485821D01*
X118120690Y-93480656D01*
X118120689Y-93480656D01*
X118117035Y-93480272D01*
X118019101Y-93489184D01*
X117924824Y-93497764D01*
X117924823Y-93497764D01*
X117921166Y-93498097D01*
X117917641Y-93499134D01*
X117917638Y-93499135D01*
X117799440Y-93533923D01*
X117732489Y-93553628D01*
X117558192Y-93644748D01*
X117404912Y-93767988D01*
X117278489Y-93918653D01*
X117276718Y-93921875D01*
X117276717Y-93921876D01*
X117270293Y-93933561D01*
X117183739Y-94091004D01*
X117124269Y-94278476D01*
X117102345Y-94473930D01*
X116572899Y-94473930D01*
X116572899Y-93622944D01*
X116564028Y-93578342D01*
X116530234Y-93527766D01*
X116498005Y-93506231D01*
X116485817Y-93498087D01*
X116485816Y-93498086D01*
X116479658Y-93493972D01*
X116435057Y-93485100D01*
X115570118Y-93485100D01*
X114704944Y-93485101D01*
X114660342Y-93493972D01*
X114609766Y-93527766D01*
X114605652Y-93533923D01*
X114581676Y-93569806D01*
X114575972Y-93578342D01*
X114567100Y-93622943D01*
X113435965Y-93622943D01*
X113435965Y-92912200D01*
X113453558Y-92863862D01*
X113498107Y-92838142D01*
X113511165Y-92837000D01*
X120650000Y-92837000D01*
X120650000Y-91515200D01*
X120667593Y-91466862D01*
X120712142Y-91441142D01*
X120725200Y-91440000D01*
X161214800Y-91440000D01*
X161263138Y-91457593D01*
G37*
G04 #@! TD.AperFunction*
G04 #@! TA.AperFunction,Conductor*
G36*
X121684633Y-99166993D02*
G01*
X121689469Y-99171426D01*
X128601142Y-106083099D01*
X128603852Y-106085954D01*
X128632698Y-106117991D01*
X128649162Y-106125321D01*
X128656861Y-106128749D01*
X128667231Y-106134380D01*
X128682778Y-106144476D01*
X128682780Y-106144477D01*
X128689411Y-106148783D01*
X128697219Y-106150020D01*
X128697220Y-106150020D01*
X128698952Y-106150294D01*
X128717776Y-106155870D01*
X128719382Y-106156585D01*
X128719384Y-106156585D01*
X128726604Y-106159800D01*
X128753054Y-106159800D01*
X128764818Y-106160726D01*
X128783131Y-106163627D01*
X128783133Y-106163627D01*
X128790938Y-106164863D01*
X128798570Y-106162818D01*
X128798571Y-106162818D01*
X128800272Y-106162362D01*
X128819735Y-106159800D01*
X133013491Y-106159800D01*
X133061829Y-106177393D01*
X133087549Y-106221942D01*
X133078616Y-106272600D01*
X133049714Y-106300901D01*
X133048363Y-106301644D01*
X133042007Y-106304757D01*
X133000195Y-106322851D01*
X132987905Y-106332803D01*
X132985130Y-106335050D01*
X132974035Y-106342506D01*
X132960503Y-106349945D01*
X132960499Y-106349948D01*
X132957050Y-106351844D01*
X132954068Y-106354418D01*
X132954065Y-106354420D01*
X132950391Y-106357592D01*
X132948989Y-106358802D01*
X132922782Y-106385009D01*
X132916933Y-106390276D01*
X132883811Y-106417098D01*
X132877500Y-106425979D01*
X132870564Y-106435738D01*
X132862441Y-106445350D01*
X131494617Y-107813174D01*
X131447997Y-107834914D01*
X131441443Y-107835200D01*
X131281049Y-107835200D01*
X131277900Y-107835134D01*
X131215277Y-107832509D01*
X131210286Y-107833680D01*
X131205182Y-107834162D01*
X131205170Y-107834035D01*
X131195104Y-107835200D01*
X131103774Y-107835200D01*
X131055436Y-107817607D01*
X131029716Y-107773058D01*
X131038649Y-107722400D01*
X131064427Y-107695916D01*
X131100803Y-107673581D01*
X131100804Y-107673580D01*
X131105371Y-107670776D01*
X131108963Y-107666808D01*
X131108965Y-107666806D01*
X131152289Y-107618942D01*
X131193353Y-107573575D01*
X131250517Y-107455587D01*
X131265602Y-107365928D01*
X131271787Y-107329165D01*
X131271787Y-107329161D01*
X131272269Y-107326298D01*
X131272407Y-107315000D01*
X131270586Y-107302280D01*
X131254580Y-107190515D01*
X131254579Y-107190512D01*
X131253821Y-107185218D01*
X131249276Y-107175221D01*
X131201775Y-107070749D01*
X131201774Y-107070748D01*
X131199556Y-107065869D01*
X131189782Y-107054525D01*
X131117470Y-106970603D01*
X131117469Y-106970603D01*
X131113975Y-106966547D01*
X131108285Y-106962859D01*
X131008454Y-106898151D01*
X131008453Y-106898151D01*
X131003958Y-106895237D01*
X130878348Y-106857672D01*
X130872992Y-106857639D01*
X130872990Y-106857639D01*
X130815452Y-106857288D01*
X130747244Y-106856871D01*
X130621185Y-106892899D01*
X130594746Y-106909581D01*
X130518043Y-106957977D01*
X130510305Y-106962859D01*
X130435355Y-107047725D01*
X130435306Y-107047780D01*
X130390122Y-107072364D01*
X130378941Y-107073200D01*
X127746280Y-107073200D01*
X127713834Y-107062657D01*
X127712929Y-107064690D01*
X127688766Y-107053932D01*
X127678396Y-107048301D01*
X127662849Y-107038205D01*
X127662847Y-107038204D01*
X127656216Y-107033898D01*
X127648408Y-107032661D01*
X127648407Y-107032661D01*
X127646675Y-107032387D01*
X127627851Y-107026811D01*
X127626245Y-107026096D01*
X127626243Y-107026096D01*
X127619023Y-107022881D01*
X127592573Y-107022881D01*
X127580809Y-107021955D01*
X127562496Y-107019054D01*
X127562494Y-107019054D01*
X127554689Y-107017818D01*
X127547057Y-107019863D01*
X127547056Y-107019863D01*
X127545355Y-107020319D01*
X127525892Y-107022881D01*
X127050283Y-107022881D01*
X127046347Y-107022778D01*
X127044966Y-107022706D01*
X127003302Y-107020522D01*
X126995922Y-107023355D01*
X126978613Y-107029999D01*
X126967300Y-107033350D01*
X126949163Y-107037206D01*
X126949160Y-107037207D01*
X126941427Y-107038851D01*
X126935031Y-107043498D01*
X126935029Y-107043499D01*
X126933610Y-107044530D01*
X126916360Y-107053896D01*
X126914721Y-107054525D01*
X126914719Y-107054527D01*
X126907337Y-107057360D01*
X126903201Y-107061496D01*
X126863688Y-107073200D01*
X124515105Y-107073200D01*
X124466767Y-107055607D01*
X124461931Y-107051174D01*
X123468458Y-106057701D01*
X123465747Y-106054845D01*
X123442192Y-106028684D01*
X123442191Y-106028684D01*
X123436902Y-106022809D01*
X123420320Y-106015427D01*
X123412739Y-106012051D01*
X123402369Y-106006420D01*
X123386822Y-105996324D01*
X123386820Y-105996323D01*
X123380189Y-105992017D01*
X123372381Y-105990780D01*
X123372380Y-105990780D01*
X123370648Y-105990506D01*
X123351824Y-105984930D01*
X123350218Y-105984215D01*
X123350216Y-105984215D01*
X123342996Y-105981000D01*
X123316546Y-105981000D01*
X123304782Y-105980074D01*
X123286469Y-105977173D01*
X123286467Y-105977173D01*
X123278662Y-105975937D01*
X123271030Y-105977982D01*
X123271029Y-105977982D01*
X123269328Y-105978438D01*
X123249865Y-105981000D01*
X120477770Y-105981000D01*
X120429432Y-105963407D01*
X120420801Y-105954887D01*
X120398672Y-105929204D01*
X120398667Y-105929200D01*
X120395175Y-105925147D01*
X120383157Y-105917357D01*
X120289654Y-105856751D01*
X120289653Y-105856751D01*
X120285158Y-105853837D01*
X120159548Y-105816272D01*
X120154192Y-105816239D01*
X120154190Y-105816239D01*
X120096652Y-105815888D01*
X120028444Y-105815471D01*
X119902385Y-105851499D01*
X119791505Y-105921459D01*
X119704717Y-106019728D01*
X119702441Y-106024575D01*
X119702440Y-106024577D01*
X119652401Y-106131156D01*
X119648998Y-106138405D01*
X119628828Y-106267951D01*
X119629522Y-106273259D01*
X119629522Y-106273261D01*
X119633607Y-106304500D01*
X119645827Y-106397950D01*
X119647986Y-106402856D01*
X119647986Y-106402857D01*
X119656604Y-106422443D01*
X119698630Y-106517954D01*
X119782991Y-106618313D01*
X119787450Y-106621281D01*
X119787451Y-106621282D01*
X119887668Y-106687993D01*
X119887671Y-106687994D01*
X119892129Y-106690962D01*
X120017270Y-106730059D01*
X120084908Y-106731298D01*
X120142992Y-106732363D01*
X120142994Y-106732363D01*
X120148354Y-106732461D01*
X120153525Y-106731051D01*
X120153527Y-106731051D01*
X120221300Y-106712574D01*
X120274844Y-106697976D01*
X120286190Y-106691010D01*
X120382006Y-106632179D01*
X120386571Y-106629376D01*
X120390163Y-106625408D01*
X120390165Y-106625406D01*
X120430562Y-106580776D01*
X120474553Y-106532175D01*
X120486744Y-106507012D01*
X120523653Y-106471182D01*
X120554420Y-106464600D01*
X123160295Y-106464600D01*
X123208633Y-106482193D01*
X123213469Y-106486626D01*
X124206942Y-107480099D01*
X124209653Y-107482955D01*
X124226751Y-107501944D01*
X124238498Y-107514991D01*
X124251355Y-107520715D01*
X124262661Y-107525749D01*
X124273031Y-107531380D01*
X124288578Y-107541476D01*
X124288580Y-107541477D01*
X124295211Y-107545783D01*
X124303019Y-107547020D01*
X124303020Y-107547020D01*
X124304752Y-107547294D01*
X124323576Y-107552870D01*
X124325182Y-107553585D01*
X124325184Y-107553585D01*
X124332404Y-107556800D01*
X124358854Y-107556800D01*
X124370618Y-107557726D01*
X124388931Y-107560627D01*
X124388933Y-107560627D01*
X124396738Y-107561863D01*
X124404370Y-107559818D01*
X124404371Y-107559818D01*
X124406072Y-107559362D01*
X124425535Y-107556800D01*
X126738391Y-107556800D01*
X126786729Y-107574393D01*
X126812449Y-107618942D01*
X126806932Y-107658701D01*
X126808059Y-107659067D01*
X126770567Y-107774457D01*
X126761781Y-107801496D01*
X126761566Y-107806614D01*
X126761566Y-107806617D01*
X126759824Y-107848187D01*
X126755510Y-107951123D01*
X126756680Y-107956110D01*
X126756680Y-107956113D01*
X126785400Y-108078563D01*
X126789707Y-108096926D01*
X126792176Y-108101416D01*
X126792177Y-108101420D01*
X126850623Y-108207731D01*
X126861854Y-108228160D01*
X126868813Y-108236222D01*
X126869792Y-108237201D01*
X126870716Y-108238195D01*
X126870222Y-108238654D01*
X126891068Y-108283357D01*
X126877754Y-108333044D01*
X126835617Y-108362549D01*
X126808784Y-108364749D01*
X126807479Y-108364620D01*
X126803857Y-108363900D01*
X126289010Y-108363900D01*
X125773744Y-108363901D01*
X125729142Y-108372772D01*
X125678566Y-108406566D01*
X125674452Y-108412723D01*
X125651557Y-108446988D01*
X125644772Y-108457142D01*
X125643327Y-108464406D01*
X125642175Y-108470200D01*
X125635900Y-108501743D01*
X125635901Y-109531856D01*
X125644772Y-109576458D01*
X125678566Y-109627034D01*
X125684723Y-109631148D01*
X125722983Y-109656713D01*
X125722984Y-109656714D01*
X125729142Y-109660828D01*
X125773743Y-109669700D01*
X126288730Y-109669700D01*
X126803856Y-109669699D01*
X126848458Y-109660828D01*
X126899034Y-109627034D01*
X126915697Y-109602096D01*
X126928713Y-109582617D01*
X126928714Y-109582616D01*
X126932828Y-109576458D01*
X126941700Y-109531857D01*
X126941700Y-109333800D01*
X126959293Y-109285462D01*
X127003842Y-109259742D01*
X127016900Y-109258600D01*
X127783095Y-109258600D01*
X127831433Y-109276193D01*
X127836269Y-109280626D01*
X127999283Y-109443640D01*
X128021023Y-109490260D01*
X128020414Y-109508380D01*
X128010828Y-109569951D01*
X128011522Y-109575259D01*
X128011522Y-109575261D01*
X128011679Y-109576458D01*
X128027827Y-109699950D01*
X128029986Y-109704856D01*
X128029986Y-109704857D01*
X128078473Y-109815052D01*
X128080630Y-109819954D01*
X128164991Y-109920313D01*
X128169450Y-109923281D01*
X128169451Y-109923282D01*
X128269668Y-109989993D01*
X128269671Y-109989994D01*
X128274129Y-109992962D01*
X128399270Y-110032059D01*
X128466908Y-110033298D01*
X128524992Y-110034363D01*
X128524994Y-110034363D01*
X128530354Y-110034461D01*
X128535525Y-110033051D01*
X128535527Y-110033051D01*
X128603300Y-110014574D01*
X128656844Y-109999976D01*
X128681173Y-109985038D01*
X128731571Y-109974738D01*
X128776799Y-109999244D01*
X128795693Y-110047088D01*
X128779414Y-110095884D01*
X128773695Y-110102296D01*
X126109817Y-112766174D01*
X126063197Y-112787914D01*
X126056643Y-112788200D01*
X121669557Y-112788200D01*
X121621219Y-112770607D01*
X121616383Y-112766174D01*
X119506984Y-110656775D01*
X120639600Y-110656775D01*
X120654657Y-110834228D01*
X120714469Y-111064674D01*
X120812253Y-111281747D01*
X120945214Y-111479241D01*
X121109550Y-111651509D01*
X121300561Y-111793625D01*
X121386019Y-111837074D01*
X121509956Y-111900087D01*
X121509959Y-111900088D01*
X121512787Y-111901526D01*
X121515822Y-111902468D01*
X121515826Y-111902470D01*
X121737115Y-111971182D01*
X121737117Y-111971182D01*
X121740159Y-111972127D01*
X121893548Y-111992457D01*
X121973012Y-112002990D01*
X121973015Y-112002990D01*
X121976175Y-112003409D01*
X122214089Y-111994477D01*
X122217203Y-111993824D01*
X122217208Y-111993823D01*
X122379715Y-111959725D01*
X122447096Y-111945587D01*
X122562554Y-111899991D01*
X122665567Y-111859309D01*
X122665570Y-111859308D01*
X122668534Y-111858137D01*
X122772472Y-111795066D01*
X122869344Y-111736283D01*
X122869349Y-111736279D01*
X122872072Y-111734627D01*
X122890776Y-111718397D01*
X123049486Y-111580675D01*
X123051890Y-111578589D01*
X123133351Y-111479241D01*
X123200830Y-111396944D01*
X123200830Y-111396943D01*
X123202847Y-111394484D01*
X123265515Y-111284392D01*
X123319051Y-111190343D01*
X123319053Y-111190338D01*
X123320625Y-111187577D01*
X123401858Y-110963783D01*
X123405614Y-110943015D01*
X123425858Y-110831062D01*
X123444223Y-110729502D01*
X123445126Y-110710370D01*
X123445360Y-110705398D01*
X123445360Y-110705388D01*
X123445400Y-110704545D01*
X123445400Y-108037225D01*
X123432870Y-107889554D01*
X123430612Y-107862938D01*
X123430611Y-107862934D01*
X123430343Y-107859772D01*
X123370531Y-107629326D01*
X123272747Y-107412253D01*
X123139786Y-107214759D01*
X122996627Y-107064690D01*
X122977650Y-107044797D01*
X122977649Y-107044796D01*
X122975450Y-107042491D01*
X122784439Y-106900375D01*
X122655248Y-106834691D01*
X122575044Y-106793913D01*
X122575041Y-106793912D01*
X122572213Y-106792474D01*
X122569178Y-106791532D01*
X122569174Y-106791530D01*
X122347885Y-106722818D01*
X122347883Y-106722818D01*
X122344841Y-106721873D01*
X122191452Y-106701543D01*
X122111988Y-106691010D01*
X122111985Y-106691010D01*
X122108825Y-106690591D01*
X121870911Y-106699523D01*
X121867797Y-106700176D01*
X121867792Y-106700177D01*
X121766384Y-106721455D01*
X121637904Y-106748413D01*
X121540066Y-106787051D01*
X121419433Y-106834691D01*
X121419430Y-106834692D01*
X121416466Y-106835863D01*
X121413739Y-106837518D01*
X121215656Y-106957717D01*
X121215651Y-106957721D01*
X121212928Y-106959373D01*
X121210518Y-106961464D01*
X121210517Y-106961465D01*
X121131539Y-107029999D01*
X121033110Y-107115411D01*
X121031093Y-107117871D01*
X121031092Y-107117872D01*
X120904789Y-107271909D01*
X120882153Y-107299516D01*
X120848902Y-107357930D01*
X120766925Y-107501944D01*
X120764375Y-107506423D01*
X120683142Y-107730217D01*
X120682575Y-107733351D01*
X120682575Y-107733352D01*
X120678832Y-107754051D01*
X120640777Y-107964498D01*
X120640661Y-107966962D01*
X120640660Y-107966969D01*
X120640122Y-107978379D01*
X120639600Y-107989455D01*
X120639600Y-110656775D01*
X119506984Y-110656775D01*
X118932626Y-110082417D01*
X118910886Y-110035797D01*
X118910600Y-110029243D01*
X118910600Y-105220635D01*
X118910666Y-105217486D01*
X118911080Y-105207608D01*
X118913290Y-105154877D01*
X118906260Y-105124903D01*
X118902887Y-105110525D01*
X118901596Y-105103558D01*
X118896110Y-105063507D01*
X118895414Y-105058426D01*
X118887714Y-105040633D01*
X118883518Y-105027944D01*
X118880263Y-105014065D01*
X118880262Y-105014063D01*
X118879092Y-105009074D01*
X118857147Y-104969156D01*
X118854031Y-104962795D01*
X118846220Y-104944745D01*
X118835938Y-104920984D01*
X118823739Y-104905919D01*
X118816284Y-104894824D01*
X118808847Y-104881296D01*
X118808842Y-104881289D01*
X118806946Y-104877840D01*
X118799987Y-104869778D01*
X118773780Y-104843571D01*
X118768513Y-104837722D01*
X118744917Y-104808584D01*
X118741691Y-104804600D01*
X118723051Y-104791353D01*
X118713439Y-104783230D01*
X118470960Y-104540751D01*
X123083228Y-104540751D01*
X123083922Y-104546059D01*
X123083922Y-104546061D01*
X123084346Y-104549301D01*
X123100227Y-104670750D01*
X123102386Y-104675656D01*
X123102386Y-104675657D01*
X123139851Y-104760803D01*
X123153030Y-104790754D01*
X123237391Y-104891113D01*
X123241850Y-104894081D01*
X123241851Y-104894082D01*
X123342068Y-104960793D01*
X123342071Y-104960794D01*
X123346529Y-104963762D01*
X123471670Y-105002859D01*
X123539308Y-105004098D01*
X123597392Y-105005163D01*
X123597394Y-105005163D01*
X123602754Y-105005261D01*
X123607926Y-105003851D01*
X123613240Y-105003189D01*
X123613393Y-105004421D01*
X123658862Y-105008195D01*
X123680559Y-105023316D01*
X124283142Y-105625899D01*
X124285852Y-105628754D01*
X124314698Y-105660791D01*
X124330286Y-105667731D01*
X124338861Y-105671549D01*
X124349231Y-105677180D01*
X124364778Y-105687276D01*
X124364780Y-105687277D01*
X124371411Y-105691583D01*
X124379219Y-105692820D01*
X124379220Y-105692820D01*
X124380952Y-105693094D01*
X124399776Y-105698670D01*
X124401382Y-105699385D01*
X124401384Y-105699385D01*
X124408604Y-105702600D01*
X124435054Y-105702600D01*
X124446818Y-105703526D01*
X124465131Y-105706427D01*
X124465133Y-105706427D01*
X124472938Y-105707663D01*
X124480570Y-105705618D01*
X124480571Y-105705618D01*
X124482272Y-105705162D01*
X124501735Y-105702600D01*
X125554257Y-105702600D01*
X125602595Y-105720193D01*
X125611821Y-105729412D01*
X125675791Y-105805513D01*
X125680250Y-105808481D01*
X125680251Y-105808482D01*
X125780468Y-105875193D01*
X125780471Y-105875194D01*
X125784929Y-105878162D01*
X125910070Y-105917259D01*
X125977708Y-105918498D01*
X126035792Y-105919563D01*
X126035794Y-105919563D01*
X126041154Y-105919661D01*
X126046325Y-105918251D01*
X126046327Y-105918251D01*
X126114100Y-105899774D01*
X126167644Y-105885176D01*
X126203881Y-105862927D01*
X126274806Y-105819379D01*
X126279371Y-105816576D01*
X126282963Y-105812608D01*
X126282965Y-105812606D01*
X126323362Y-105767976D01*
X126367353Y-105719375D01*
X126424517Y-105601387D01*
X126436599Y-105529576D01*
X126445787Y-105474965D01*
X126445787Y-105474961D01*
X126446269Y-105472098D01*
X126446407Y-105460800D01*
X126432513Y-105363775D01*
X126428580Y-105336315D01*
X126428579Y-105336312D01*
X126427821Y-105331018D01*
X126389069Y-105245787D01*
X126375775Y-105216549D01*
X126375774Y-105216548D01*
X126373556Y-105211669D01*
X126313969Y-105142514D01*
X126291470Y-105116403D01*
X126291469Y-105116403D01*
X126287975Y-105112347D01*
X126260072Y-105094261D01*
X126182454Y-105043951D01*
X126182453Y-105043951D01*
X126177958Y-105041037D01*
X126052348Y-105003472D01*
X126046992Y-105003439D01*
X126046990Y-105003439D01*
X125989452Y-105003088D01*
X125921244Y-105002671D01*
X125795185Y-105038699D01*
X125684305Y-105108659D01*
X125654406Y-105142514D01*
X125609306Y-105193580D01*
X125564122Y-105218164D01*
X125552941Y-105219000D01*
X124591305Y-105219000D01*
X124542967Y-105201407D01*
X124538131Y-105196974D01*
X124019586Y-104678429D01*
X123997846Y-104631809D01*
X123998602Y-104612778D01*
X124007387Y-104560565D01*
X124007387Y-104560560D01*
X124007869Y-104557698D01*
X124007905Y-104554786D01*
X124007972Y-104549301D01*
X124007972Y-104549295D01*
X124008007Y-104546400D01*
X124006992Y-104539307D01*
X123990180Y-104421915D01*
X123990179Y-104421912D01*
X123989421Y-104416618D01*
X123963847Y-104360372D01*
X123937375Y-104302149D01*
X123937374Y-104302148D01*
X123935156Y-104297269D01*
X123927612Y-104288513D01*
X123853070Y-104202003D01*
X123853069Y-104202003D01*
X123849575Y-104197947D01*
X123810388Y-104172547D01*
X123744054Y-104129551D01*
X123744053Y-104129551D01*
X123739558Y-104126637D01*
X123613948Y-104089072D01*
X123608592Y-104089039D01*
X123608590Y-104089039D01*
X123551052Y-104088688D01*
X123482844Y-104088271D01*
X123356785Y-104124299D01*
X123245905Y-104194259D01*
X123159117Y-104292528D01*
X123156841Y-104297375D01*
X123156840Y-104297377D01*
X123131078Y-104352248D01*
X123103398Y-104411205D01*
X123083228Y-104540751D01*
X118470960Y-104540751D01*
X117662626Y-103732417D01*
X117640886Y-103685797D01*
X117640600Y-103679243D01*
X117640600Y-103321551D01*
X118358828Y-103321551D01*
X118359522Y-103326859D01*
X118359522Y-103326861D01*
X118366894Y-103383238D01*
X118375827Y-103451550D01*
X118377986Y-103456456D01*
X118377986Y-103456457D01*
X118421801Y-103556033D01*
X118428630Y-103571554D01*
X118512991Y-103671913D01*
X118517450Y-103674881D01*
X118517451Y-103674882D01*
X118617668Y-103741593D01*
X118617671Y-103741594D01*
X118622129Y-103744562D01*
X118747270Y-103783659D01*
X118814908Y-103784898D01*
X118872992Y-103785963D01*
X118872994Y-103785963D01*
X118878354Y-103786061D01*
X118883525Y-103784651D01*
X118883527Y-103784651D01*
X118910625Y-103777263D01*
X118934266Y-103770818D01*
X118967764Y-103769867D01*
X118973004Y-103772200D01*
X118999454Y-103772200D01*
X119011218Y-103773126D01*
X119029531Y-103776027D01*
X119029533Y-103776027D01*
X119037338Y-103777263D01*
X119044970Y-103775218D01*
X119044971Y-103775218D01*
X119046672Y-103774762D01*
X119066135Y-103772200D01*
X123827057Y-103772200D01*
X123875395Y-103789793D01*
X123884621Y-103799012D01*
X123948591Y-103875113D01*
X123953050Y-103878081D01*
X123953051Y-103878082D01*
X124053268Y-103944793D01*
X124053271Y-103944794D01*
X124057729Y-103947762D01*
X124182870Y-103986859D01*
X124250508Y-103988098D01*
X124308592Y-103989163D01*
X124308594Y-103989163D01*
X124313954Y-103989261D01*
X124319125Y-103987851D01*
X124319127Y-103987851D01*
X124386900Y-103969374D01*
X124440444Y-103954776D01*
X124464088Y-103940259D01*
X124547606Y-103888979D01*
X124552171Y-103886176D01*
X124555763Y-103882208D01*
X124555765Y-103882206D01*
X124616549Y-103815052D01*
X124640153Y-103788975D01*
X124697317Y-103670987D01*
X124716595Y-103556404D01*
X124718587Y-103544565D01*
X124718587Y-103544561D01*
X124719069Y-103541698D01*
X124719207Y-103530400D01*
X124718421Y-103524908D01*
X124701380Y-103405915D01*
X124701379Y-103405912D01*
X124700621Y-103400618D01*
X124669502Y-103332175D01*
X124648575Y-103286149D01*
X124648574Y-103286148D01*
X124646356Y-103281269D01*
X124598908Y-103226202D01*
X124564270Y-103186003D01*
X124564269Y-103186003D01*
X124560775Y-103181947D01*
X124529132Y-103161437D01*
X124455254Y-103113551D01*
X124455253Y-103113551D01*
X124450758Y-103110637D01*
X124325148Y-103073072D01*
X124319792Y-103073039D01*
X124319790Y-103073039D01*
X124262252Y-103072688D01*
X124194044Y-103072271D01*
X124067985Y-103108299D01*
X123957105Y-103178259D01*
X123914764Y-103226202D01*
X123882106Y-103263180D01*
X123836922Y-103287764D01*
X123825741Y-103288600D01*
X119343277Y-103288600D01*
X119294939Y-103271007D01*
X119268836Y-103224060D01*
X119265780Y-103202721D01*
X119265021Y-103197418D01*
X119258135Y-103182272D01*
X119212975Y-103082949D01*
X119212974Y-103082948D01*
X119210756Y-103078069D01*
X119207029Y-103073743D01*
X119128670Y-102982803D01*
X119128669Y-102982803D01*
X119125175Y-102978747D01*
X119015158Y-102907437D01*
X118889548Y-102869872D01*
X118884192Y-102869839D01*
X118884190Y-102869839D01*
X118826652Y-102869488D01*
X118758444Y-102869071D01*
X118632385Y-102905099D01*
X118521505Y-102975059D01*
X118434717Y-103073328D01*
X118432441Y-103078175D01*
X118432440Y-103078177D01*
X118386793Y-103175402D01*
X118378998Y-103192005D01*
X118358828Y-103321551D01*
X117640600Y-103321551D01*
X117640600Y-102060757D01*
X117658193Y-102012419D01*
X117662626Y-102007583D01*
X119539032Y-100131177D01*
X119540577Y-100129142D01*
X119540581Y-100129137D01*
X119603583Y-100046135D01*
X119603585Y-100046132D01*
X119606683Y-100042050D01*
X119614428Y-100022490D01*
X119659926Y-99907574D01*
X119661813Y-99902808D01*
X119663586Y-99885944D01*
X119676930Y-99758969D01*
X119677466Y-99753869D01*
X119652491Y-99606207D01*
X119588727Y-99470702D01*
X119591094Y-99469588D01*
X119582296Y-99428216D01*
X119606441Y-99382795D01*
X119654133Y-99363521D01*
X119661411Y-99363978D01*
X119661670Y-99364059D01*
X119739498Y-99365485D01*
X119787392Y-99366363D01*
X119787394Y-99366363D01*
X119792754Y-99366461D01*
X119797925Y-99365051D01*
X119797927Y-99365051D01*
X119903783Y-99336191D01*
X119919244Y-99331976D01*
X120012921Y-99274459D01*
X120026406Y-99266179D01*
X120030971Y-99263376D01*
X120034563Y-99259408D01*
X120034565Y-99259406D01*
X120111748Y-99174135D01*
X120157230Y-99150105D01*
X120167501Y-99149400D01*
X121636295Y-99149400D01*
X121684633Y-99166993D01*
G37*
G04 #@! TD.AperFunction*
M02*
