M48
; DRILL file {KiCad (6.0.0)} date Mon Feb  7 00:21:14 2022
; FORMAT={-:-/ absolute / metric / decimal}
; #@! TF.CreationDate,2022-02-07T00:21:14-08:00
; #@! TF.GenerationSoftware,Kicad,Pcbnew,(6.0.0)
; #@! TF.FileFunction,Plated,1,2,PTH
FMAT,2
METRIC
; #@! TA.AperFunction,Plated,PTH,ViaDrill
T1C0.305
; #@! TA.AperFunction,Plated,PTH,ComponentDrill
T2C0.305
; #@! TA.AperFunction,Plated,PTH,ComponentDrill
T3C1.000
%
G90
G05
T1
X113.843Y-94.336
X113.843Y-96.876
X113.843Y-99.416
X113.843Y-101.956
X113.843Y-104.496
X113.843Y-107.036
X113.843Y-109.576
X113.843Y-112.116
X115.57Y-103.632
X117.069Y-95.682
X117.145Y-96.723
X118.821Y-103.327
X119.126Y-99.771
X119.609Y-107.772
X119.736Y-98.908
X120.091Y-100.914
X120.091Y-106.274
X120.599Y-98.298
X121.107Y-120.091
X121.463Y-91.796
X121.564Y-95.91
X121.666Y-117.094
X121.869Y-105.207
X122.301Y-118.237
X122.936Y-117.094
X123.546Y-104.546
X123.647Y-120.091
X124.003Y-91.796
X124.104Y-97.485
X124.257Y-103.53
X124.46Y-95.809
X124.739Y-109.423
X125.933Y-99.009
X125.984Y-105.461
X126.187Y-120.091
X126.492Y-114.681
X126.543Y-91.796
X126.644Y-111.328
X127.305Y-107.899
X127.356Y-95.86
X127.762Y-98.654
X128.016Y-101.905
X128.016Y-113.411
X128.016Y-114.681
X128.473Y-109.576
X129.083Y-91.796
X129.413Y-101.854
X129.54Y-99.162
X129.54Y-112.014
X129.54Y-113.411
X129.54Y-114.681
X129.667Y-104.521
X129.896Y-97.269
X129.921Y-95.631
X130.175Y-120.142
X130.81Y-107.315
X131.572Y-120.142
X131.623Y-91.796
X132.334Y-110.49
X132.715Y-95.123
X132.969Y-120.142
X133.502Y-91.796
X133.731Y-110.49
X133.96Y-108.102
X134.01Y-96.672
X134.366Y-120.142
X135.128Y-110.49
X135.484Y-91.796
X135.484Y-92.812
X135.484Y-93.828
X135.484Y-94.844
X135.484Y-95.86
X135.585Y-107.95
X135.763Y-120.142
X136.525Y-110.49
X137.16Y-120.142
X137.262Y-91.796
X137.262Y-92.812
X137.262Y-94.844
X137.262Y-95.86
X137.439Y-107.62
X137.566Y-111.455
X138.532Y-107.645
X138.989Y-104.292
X139.09Y-109.372
X139.192Y-120.142
X139.598Y-95.25
X139.7Y-100.482
X139.802Y-91.796
X140.157Y-96.876
X140.208Y-118.618
X140.665Y-104.47
X141.173Y-94.132
X141.529Y-110.236
X141.58Y-105.105
X141.681Y-101.702
X141.732Y-120.142
X141.834Y-95.656
X142.342Y-91.796
X142.342Y-103.581
X142.443Y-93.218
X143.637Y-114.046
X143.866Y-95.606
X144.272Y-120.142
X144.399Y-101.346
X144.399Y-102.997
X144.399Y-104.521
X144.882Y-91.796
X146.304Y-114.046
X146.558Y-118.491
X146.812Y-120.142
X147.422Y-91.796
X147.447Y-106.807
X147.574Y-114.173
X148.057Y-101.803
X148.209Y-117.856
X148.793Y-113.081
X148.844Y-110.185
X148.844Y-111.608
X149.352Y-98.704
X149.352Y-120.142
X149.504Y-104.445
X149.962Y-91.796
X150.825Y-113.081
X150.876Y-110.185
X150.876Y-111.608
X151.511Y-106.68
X151.511Y-119.38
X152.502Y-91.796
X152.781Y-94.742
X153.035Y-119.38
X153.06Y-108.712
X154.178Y-105.791
X154.432Y-99.06
X154.432Y-119.38
X154.737Y-96.723
X155.042Y-91.796
X155.829Y-119.38
X155.956Y-99.06
X156.337Y-105.918
X156.845Y-117.856
X157.009Y-111.896
X157.429Y-120.142
X157.582Y-91.796
X158.445Y-97.536
X158.496Y-117.856
X158.801Y-100.686
X159.461Y-120.142
X159.817Y-95.91
X161.011Y-102.006
X161.417Y-96.393
X162.103Y-93.218
X162.357Y-94.691
X163.322Y-97.536
X164.084Y-96.393
X165.862Y-102.514
X166.776Y-105.766
T2
X131.724Y-98.958
X131.724Y-100.127
X131.724Y-101.346
X131.724Y-102.514
X131.724Y-103.734
X132.944Y-98.958
X132.944Y-100.127
X132.944Y-101.346
X132.944Y-102.514
X132.944Y-103.734
X134.112Y-98.958
X134.112Y-100.127
X134.112Y-101.346
X134.112Y-102.565
X134.112Y-103.734
X135.331Y-98.908
X135.331Y-100.127
X135.331Y-101.397
X135.331Y-102.565
X135.331Y-103.734
X136.5Y-100.127
X136.5Y-101.397
X136.5Y-102.565
X136.5Y-103.734
X136.512Y-98.946
T3
X115.57Y-94.488
X118.11Y-94.488
X120.65Y-94.488
X123.19Y-94.488
X125.73Y-94.488
X128.27Y-94.488
X164.154Y-103.515
X164.154Y-106.055
X164.154Y-108.595
X164.154Y-111.135
T3
X116.042Y-110.347G85X116.042Y-108.347
G05
X122.042Y-110.597G85X122.042Y-108.097
G05
T0
M30
